%TF.GenerationSoftware,KiCad,Pcbnew,5.1.6-c6e7f7d~87~ubuntu20.04.1*%
%TF.CreationDate,2020-08-23T18:37:56-05:00*%
%TF.ProjectId,BottomPlate,426f7474-6f6d-4506-9c61-74652e6b6963,rev?*%
%TF.SameCoordinates,Original*%
%TF.FileFunction,Legend,Top*%
%TF.FilePolarity,Positive*%
%FSLAX46Y46*%
G04 Gerber Fmt 4.6, Leading zero omitted, Abs format (unit mm)*
G04 Created by KiCad (PCBNEW 5.1.6-c6e7f7d~87~ubuntu20.04.1) date 2020-08-23 18:37:56*
%MOMM*%
%LPD*%
G01*
G04 APERTURE LIST*
%ADD10C,0.400000*%
%ADD11C,0.750000*%
G04 APERTURE END LIST*
D10*
X173137142Y-55486952D02*
X173137142Y-53820285D01*
X173137142Y-54296476D02*
X173256190Y-54058380D01*
X173375238Y-53939333D01*
X173613333Y-53820285D01*
X173851428Y-53820285D01*
X175637142Y-55367904D02*
X175399047Y-55486952D01*
X174922857Y-55486952D01*
X174684761Y-55367904D01*
X174565714Y-55129809D01*
X174565714Y-54177428D01*
X174684761Y-53939333D01*
X174922857Y-53820285D01*
X175399047Y-53820285D01*
X175637142Y-53939333D01*
X175756190Y-54177428D01*
X175756190Y-54415523D01*
X174565714Y-54653619D01*
X176589523Y-53820285D02*
X177184761Y-55486952D01*
X177780000Y-53820285D01*
X180041904Y-55486952D02*
X178613333Y-55486952D01*
X179327619Y-55486952D02*
X179327619Y-52986952D01*
X179089523Y-53344095D01*
X178851428Y-53582190D01*
X178613333Y-53701238D01*
D11*
X139106666Y-55347904D02*
X139106666Y-50347904D01*
X139582857Y-53443142D02*
X141011428Y-55347904D01*
X141011428Y-52014571D02*
X139106666Y-53919333D01*
X145059047Y-55109809D02*
X144582857Y-55347904D01*
X143630476Y-55347904D01*
X143154285Y-55109809D01*
X142916190Y-54633619D01*
X142916190Y-52728857D01*
X143154285Y-52252666D01*
X143630476Y-52014571D01*
X144582857Y-52014571D01*
X145059047Y-52252666D01*
X145297142Y-52728857D01*
X145297142Y-53205047D01*
X142916190Y-53681238D01*
X149582857Y-55347904D02*
X149582857Y-52728857D01*
X149344761Y-52252666D01*
X148868571Y-52014571D01*
X147916190Y-52014571D01*
X147440000Y-52252666D01*
X149582857Y-55109809D02*
X149106666Y-55347904D01*
X147916190Y-55347904D01*
X147440000Y-55109809D01*
X147201904Y-54633619D01*
X147201904Y-54157428D01*
X147440000Y-53681238D01*
X147916190Y-53443142D01*
X149106666Y-53443142D01*
X149582857Y-53205047D01*
X151963809Y-55347904D02*
X151963809Y-50347904D01*
X151963809Y-52252666D02*
X152440000Y-52014571D01*
X153392380Y-52014571D01*
X153868571Y-52252666D01*
X154106666Y-52490761D01*
X154344761Y-52966952D01*
X154344761Y-54395523D01*
X154106666Y-54871714D01*
X153868571Y-55109809D01*
X153392380Y-55347904D01*
X152440000Y-55347904D01*
X151963809Y-55109809D01*
X157201904Y-55347904D02*
X156725714Y-55109809D01*
X156487619Y-54871714D01*
X156249523Y-54395523D01*
X156249523Y-52966952D01*
X156487619Y-52490761D01*
X156725714Y-52252666D01*
X157201904Y-52014571D01*
X157916190Y-52014571D01*
X158392380Y-52252666D01*
X158630476Y-52490761D01*
X158868571Y-52966952D01*
X158868571Y-54395523D01*
X158630476Y-54871714D01*
X158392380Y-55109809D01*
X157916190Y-55347904D01*
X157201904Y-55347904D01*
X163154285Y-55347904D02*
X163154285Y-52728857D01*
X162916190Y-52252666D01*
X162440000Y-52014571D01*
X161487619Y-52014571D01*
X161011428Y-52252666D01*
X163154285Y-55109809D02*
X162678095Y-55347904D01*
X161487619Y-55347904D01*
X161011428Y-55109809D01*
X160773333Y-54633619D01*
X160773333Y-54157428D01*
X161011428Y-53681238D01*
X161487619Y-53443142D01*
X162678095Y-53443142D01*
X163154285Y-53205047D01*
X165535238Y-55347904D02*
X165535238Y-52014571D01*
X165535238Y-52966952D02*
X165773333Y-52490761D01*
X166011428Y-52252666D01*
X166487619Y-52014571D01*
X166963809Y-52014571D01*
X170773333Y-55347904D02*
X170773333Y-50347904D01*
X170773333Y-55109809D02*
X170297142Y-55347904D01*
X169344761Y-55347904D01*
X168868571Y-55109809D01*
X168630476Y-54871714D01*
X168392380Y-54395523D01*
X168392380Y-52966952D01*
X168630476Y-52490761D01*
X168868571Y-52252666D01*
X169344761Y-52014571D01*
X170297142Y-52014571D01*
X170773333Y-52252666D01*
D10*
X141948619Y-59423952D02*
X141948619Y-56923952D01*
X141948619Y-59304904D02*
X141710523Y-59423952D01*
X141234333Y-59423952D01*
X140996238Y-59304904D01*
X140877190Y-59185857D01*
X140758142Y-58947761D01*
X140758142Y-58233476D01*
X140877190Y-57995380D01*
X140996238Y-57876333D01*
X141234333Y-57757285D01*
X141710523Y-57757285D01*
X141948619Y-57876333D01*
X144091476Y-59304904D02*
X143853380Y-59423952D01*
X143377190Y-59423952D01*
X143139095Y-59304904D01*
X143020047Y-59066809D01*
X143020047Y-58114428D01*
X143139095Y-57876333D01*
X143377190Y-57757285D01*
X143853380Y-57757285D01*
X144091476Y-57876333D01*
X144210523Y-58114428D01*
X144210523Y-58352523D01*
X143020047Y-58590619D01*
X145162904Y-59304904D02*
X145401000Y-59423952D01*
X145877190Y-59423952D01*
X146115285Y-59304904D01*
X146234333Y-59066809D01*
X146234333Y-58947761D01*
X146115285Y-58709666D01*
X145877190Y-58590619D01*
X145520047Y-58590619D01*
X145281952Y-58471571D01*
X145162904Y-58233476D01*
X145162904Y-58114428D01*
X145281952Y-57876333D01*
X145520047Y-57757285D01*
X145877190Y-57757285D01*
X146115285Y-57876333D01*
X147305761Y-59423952D02*
X147305761Y-57757285D01*
X147305761Y-56923952D02*
X147186714Y-57043000D01*
X147305761Y-57162047D01*
X147424809Y-57043000D01*
X147305761Y-56923952D01*
X147305761Y-57162047D01*
X149567666Y-57757285D02*
X149567666Y-59781095D01*
X149448619Y-60019190D01*
X149329571Y-60138238D01*
X149091476Y-60257285D01*
X148734333Y-60257285D01*
X148496238Y-60138238D01*
X149567666Y-59304904D02*
X149329571Y-59423952D01*
X148853380Y-59423952D01*
X148615285Y-59304904D01*
X148496238Y-59185857D01*
X148377190Y-58947761D01*
X148377190Y-58233476D01*
X148496238Y-57995380D01*
X148615285Y-57876333D01*
X148853380Y-57757285D01*
X149329571Y-57757285D01*
X149567666Y-57876333D01*
X150758142Y-57757285D02*
X150758142Y-59423952D01*
X150758142Y-57995380D02*
X150877190Y-57876333D01*
X151115285Y-57757285D01*
X151472428Y-57757285D01*
X151710523Y-57876333D01*
X151829571Y-58114428D01*
X151829571Y-59423952D01*
X153972428Y-59304904D02*
X153734333Y-59423952D01*
X153258142Y-59423952D01*
X153020047Y-59304904D01*
X152901000Y-59066809D01*
X152901000Y-58114428D01*
X153020047Y-57876333D01*
X153258142Y-57757285D01*
X153734333Y-57757285D01*
X153972428Y-57876333D01*
X154091476Y-58114428D01*
X154091476Y-58352523D01*
X152901000Y-58590619D01*
X156234333Y-59423952D02*
X156234333Y-56923952D01*
X156234333Y-59304904D02*
X155996238Y-59423952D01*
X155520047Y-59423952D01*
X155281952Y-59304904D01*
X155162904Y-59185857D01*
X155043857Y-58947761D01*
X155043857Y-58233476D01*
X155162904Y-57995380D01*
X155281952Y-57876333D01*
X155520047Y-57757285D01*
X155996238Y-57757285D01*
X156234333Y-57876333D01*
X159329571Y-59423952D02*
X159329571Y-56923952D01*
X159329571Y-57876333D02*
X159567666Y-57757285D01*
X160043857Y-57757285D01*
X160281952Y-57876333D01*
X160401000Y-57995380D01*
X160520047Y-58233476D01*
X160520047Y-58947761D01*
X160401000Y-59185857D01*
X160281952Y-59304904D01*
X160043857Y-59423952D01*
X159567666Y-59423952D01*
X159329571Y-59304904D01*
X161353380Y-57757285D02*
X161948619Y-59423952D01*
X162543857Y-57757285D02*
X161948619Y-59423952D01*
X161710523Y-60019190D01*
X161591476Y-60138238D01*
X161353380Y-60257285D01*
X165401000Y-59423952D02*
X165401000Y-56923952D01*
X165639095Y-58471571D02*
X166353380Y-59423952D01*
X166353380Y-57757285D02*
X165401000Y-58709666D01*
X168377190Y-59304904D02*
X168139095Y-59423952D01*
X167662904Y-59423952D01*
X167424809Y-59304904D01*
X167305761Y-59066809D01*
X167305761Y-58114428D01*
X167424809Y-57876333D01*
X167662904Y-57757285D01*
X168139095Y-57757285D01*
X168377190Y-57876333D01*
X168496238Y-58114428D01*
X168496238Y-58352523D01*
X167305761Y-58590619D01*
X170639095Y-59423952D02*
X170639095Y-58114428D01*
X170520047Y-57876333D01*
X170281952Y-57757285D01*
X169805761Y-57757285D01*
X169567666Y-57876333D01*
X170639095Y-59304904D02*
X170401000Y-59423952D01*
X169805761Y-59423952D01*
X169567666Y-59304904D01*
X169448619Y-59066809D01*
X169448619Y-58828714D01*
X169567666Y-58590619D01*
X169805761Y-58471571D01*
X170401000Y-58471571D01*
X170639095Y-58352523D01*
X171591476Y-57757285D02*
X172067666Y-59423952D01*
X172543857Y-58233476D01*
X173020047Y-59423952D01*
X173496238Y-57757285D01*
X175520047Y-59423952D02*
X175520047Y-58114428D01*
X175401000Y-57876333D01*
X175162904Y-57757285D01*
X174686714Y-57757285D01*
X174448619Y-57876333D01*
X175520047Y-59304904D02*
X175281952Y-59423952D01*
X174686714Y-59423952D01*
X174448619Y-59304904D01*
X174329571Y-59066809D01*
X174329571Y-58828714D01*
X174448619Y-58590619D01*
X174686714Y-58471571D01*
X175281952Y-58471571D01*
X175520047Y-58352523D01*
X177781952Y-59423952D02*
X177781952Y-56923952D01*
X177781952Y-59304904D02*
X177543857Y-59423952D01*
X177067666Y-59423952D01*
X176829571Y-59304904D01*
X176710523Y-59185857D01*
X176591476Y-58947761D01*
X176591476Y-58233476D01*
X176710523Y-57995380D01*
X176829571Y-57876333D01*
X177067666Y-57757285D01*
X177543857Y-57757285D01*
X177781952Y-57876333D01*
X179924809Y-59304904D02*
X179686714Y-59423952D01*
X179210523Y-59423952D01*
X178972428Y-59304904D01*
X178853380Y-59066809D01*
X178853380Y-58114428D01*
X178972428Y-57876333D01*
X179210523Y-57757285D01*
X179686714Y-57757285D01*
X179924809Y-57876333D01*
X180043857Y-58114428D01*
X180043857Y-58352523D01*
X178853380Y-58590619D01*
M02*
