%TF.GenerationSoftware,KiCad,Pcbnew,5.1.6-c6e7f7d~87~ubuntu20.04.1*%
%TF.CreationDate,2020-09-01T20:42:14-05:00*%
%TF.ProjectId,BottomPlate,426f7474-6f6d-4506-9c61-74652e6b6963,rev?*%
%TF.SameCoordinates,Original*%
%TF.FileFunction,Copper,L1,Top*%
%TF.FilePolarity,Positive*%
%FSLAX46Y46*%
G04 Gerber Fmt 4.6, Leading zero omitted, Abs format (unit mm)*
G04 Created by KiCad (PCBNEW 5.1.6-c6e7f7d~87~ubuntu20.04.1) date 2020-09-01 20:42:14*
%MOMM*%
%LPD*%
G01*
G04 APERTURE LIST*
%TA.AperFunction,NonConductor*%
%ADD10C,0.254000*%
%TD*%
G04 APERTURE END LIST*
D10*
G36*
X181875875Y-42091234D02*
G01*
X182131622Y-42168448D01*
X182367504Y-42293869D01*
X182574530Y-42462716D01*
X182744813Y-42668554D01*
X182871879Y-42903556D01*
X182950876Y-43158756D01*
X182982000Y-43454882D01*
X182982001Y-98392711D01*
X182952086Y-98697812D01*
X182890784Y-98917369D01*
X170206164Y-133529793D01*
X170076397Y-133800638D01*
X169916369Y-134014553D01*
X169717840Y-134193309D01*
X169488367Y-134330103D01*
X169236695Y-134419720D01*
X168972411Y-134458746D01*
X168705582Y-134445695D01*
X168415579Y-134373389D01*
X145285522Y-126109118D01*
X145262828Y-126103444D01*
X144971172Y-126022012D01*
X144919044Y-126012821D01*
X144867254Y-126001812D01*
X144858089Y-126000849D01*
X144463405Y-125962150D01*
X144463402Y-125962150D01*
X144431419Y-125959000D01*
X43863092Y-125959000D01*
X43564937Y-125929766D01*
X43309189Y-125852551D01*
X43073309Y-125727131D01*
X42866288Y-125558289D01*
X42696000Y-125352446D01*
X42568934Y-125117444D01*
X42489936Y-124862240D01*
X42458808Y-124566066D01*
X42454992Y-106850117D01*
X60505000Y-106850117D01*
X60505000Y-107191883D01*
X60571675Y-107527081D01*
X60702463Y-107842831D01*
X60892337Y-108126998D01*
X61134002Y-108368663D01*
X61418169Y-108558537D01*
X61733919Y-108689325D01*
X62069117Y-108756000D01*
X62410883Y-108756000D01*
X62746081Y-108689325D01*
X63061831Y-108558537D01*
X63345998Y-108368663D01*
X63587663Y-108126998D01*
X63777537Y-107842831D01*
X63908325Y-107527081D01*
X63975000Y-107191883D01*
X63975000Y-106850117D01*
X63908325Y-106514919D01*
X63777537Y-106199169D01*
X63587663Y-105915002D01*
X63345998Y-105673337D01*
X63061831Y-105483463D01*
X62746081Y-105352675D01*
X62410883Y-105286000D01*
X62069117Y-105286000D01*
X61733919Y-105352675D01*
X61418169Y-105483463D01*
X61134002Y-105673337D01*
X60892337Y-105915002D01*
X60702463Y-106199169D01*
X60571675Y-106514919D01*
X60505000Y-106850117D01*
X42454992Y-106850117D01*
X42454482Y-104477117D01*
X155755000Y-104477117D01*
X155755000Y-104818883D01*
X155821675Y-105154081D01*
X155952463Y-105469831D01*
X156142337Y-105753998D01*
X156384002Y-105995663D01*
X156668169Y-106185537D01*
X156983919Y-106316325D01*
X157319117Y-106383000D01*
X157660883Y-106383000D01*
X157996081Y-106316325D01*
X158311831Y-106185537D01*
X158595998Y-105995663D01*
X158837663Y-105753998D01*
X159027537Y-105469831D01*
X159158325Y-105154081D01*
X159225000Y-104818883D01*
X159225000Y-104477117D01*
X159158325Y-104141919D01*
X159027537Y-103826169D01*
X158837663Y-103542002D01*
X158595998Y-103300337D01*
X158311831Y-103110463D01*
X157996081Y-102979675D01*
X157660883Y-102913000D01*
X157319117Y-102913000D01*
X156983919Y-102979675D01*
X156668169Y-103110463D01*
X156384002Y-103300337D01*
X156142337Y-103542002D01*
X155952463Y-103826169D01*
X155821675Y-104141919D01*
X155755000Y-104477117D01*
X42454482Y-104477117D01*
X42453360Y-99270117D01*
X108120000Y-99270117D01*
X108120000Y-99611883D01*
X108186675Y-99947081D01*
X108317463Y-100262831D01*
X108507337Y-100546998D01*
X108749002Y-100788663D01*
X109033169Y-100978537D01*
X109348919Y-101109325D01*
X109684117Y-101176000D01*
X110025883Y-101176000D01*
X110361081Y-101109325D01*
X110676831Y-100978537D01*
X110960998Y-100788663D01*
X111202663Y-100546998D01*
X111392537Y-100262831D01*
X111523325Y-99947081D01*
X111590000Y-99611883D01*
X111590000Y-99270117D01*
X111523325Y-98934919D01*
X111392537Y-98619169D01*
X111202663Y-98335002D01*
X110960998Y-98093337D01*
X110676831Y-97903463D01*
X110361081Y-97772675D01*
X110025883Y-97706000D01*
X109684117Y-97706000D01*
X109348919Y-97772675D01*
X109033169Y-97903463D01*
X108749002Y-98093337D01*
X108507337Y-98335002D01*
X108317463Y-98619169D01*
X108186675Y-98934919D01*
X108120000Y-99270117D01*
X42453360Y-99270117D01*
X42446785Y-68750117D01*
X60495000Y-68750117D01*
X60495000Y-69091883D01*
X60561675Y-69427081D01*
X60692463Y-69742831D01*
X60882337Y-70026998D01*
X61124002Y-70268663D01*
X61408169Y-70458537D01*
X61723919Y-70589325D01*
X62059117Y-70656000D01*
X62400883Y-70656000D01*
X62736081Y-70589325D01*
X63051831Y-70458537D01*
X63335998Y-70268663D01*
X63577663Y-70026998D01*
X63767537Y-69742831D01*
X63898325Y-69427081D01*
X63965000Y-69091883D01*
X63965000Y-68750117D01*
X63898325Y-68414919D01*
X63767537Y-68099169D01*
X63577663Y-67815002D01*
X63335998Y-67573337D01*
X63051831Y-67383463D01*
X62736081Y-67252675D01*
X62400883Y-67186000D01*
X62059117Y-67186000D01*
X61723919Y-67252675D01*
X61408169Y-67383463D01*
X61124002Y-67573337D01*
X60882337Y-67815002D01*
X60692463Y-68099169D01*
X60561675Y-68414919D01*
X60495000Y-68750117D01*
X42446785Y-68750117D01*
X42446247Y-66250117D01*
X155755000Y-66250117D01*
X155755000Y-66591883D01*
X155821675Y-66927081D01*
X155952463Y-67242831D01*
X156142337Y-67526998D01*
X156384002Y-67768663D01*
X156668169Y-67958537D01*
X156983919Y-68089325D01*
X157319117Y-68156000D01*
X157660883Y-68156000D01*
X157996081Y-68089325D01*
X158311831Y-67958537D01*
X158595998Y-67768663D01*
X158837663Y-67526998D01*
X159027537Y-67242831D01*
X159158325Y-66927081D01*
X159225000Y-66591883D01*
X159225000Y-66250117D01*
X159158325Y-65914919D01*
X159027537Y-65599169D01*
X158837663Y-65315002D01*
X158595998Y-65073337D01*
X158311831Y-64883463D01*
X157996081Y-64752675D01*
X157660883Y-64686000D01*
X157319117Y-64686000D01*
X156983919Y-64752675D01*
X156668169Y-64883463D01*
X156384002Y-65073337D01*
X156142337Y-65315002D01*
X155952463Y-65599169D01*
X155821675Y-65914919D01*
X155755000Y-66250117D01*
X42446247Y-66250117D01*
X42445153Y-61170117D01*
X108120000Y-61170117D01*
X108120000Y-61511883D01*
X108186675Y-61847081D01*
X108317463Y-62162831D01*
X108507337Y-62446998D01*
X108749002Y-62688663D01*
X109033169Y-62878537D01*
X109348919Y-63009325D01*
X109684117Y-63076000D01*
X110025883Y-63076000D01*
X110361081Y-63009325D01*
X110676831Y-62878537D01*
X110960998Y-62688663D01*
X111202663Y-62446998D01*
X111392537Y-62162831D01*
X111523325Y-61847081D01*
X111590000Y-61511883D01*
X111590000Y-61170117D01*
X111523325Y-60834919D01*
X111392537Y-60519169D01*
X111202663Y-60235002D01*
X110960998Y-59993337D01*
X110676831Y-59803463D01*
X110361081Y-59672675D01*
X110025883Y-59606000D01*
X109684117Y-59606000D01*
X109348919Y-59672675D01*
X109033169Y-59803463D01*
X108749002Y-59993337D01*
X108507337Y-60235002D01*
X108317463Y-60519169D01*
X108186675Y-60834919D01*
X108120000Y-61170117D01*
X42445153Y-61170117D01*
X42443007Y-51213207D01*
X42472535Y-50912056D01*
X42550643Y-50653351D01*
X42677510Y-50414747D01*
X42848307Y-50205330D01*
X43056529Y-50033074D01*
X43294243Y-49904543D01*
X43571017Y-49818867D01*
X43675187Y-49801691D01*
X100147535Y-42094649D01*
X100488523Y-42062000D01*
X181577721Y-42062000D01*
X181875875Y-42091234D01*
G37*
X181875875Y-42091234D02*
X182131622Y-42168448D01*
X182367504Y-42293869D01*
X182574530Y-42462716D01*
X182744813Y-42668554D01*
X182871879Y-42903556D01*
X182950876Y-43158756D01*
X182982000Y-43454882D01*
X182982001Y-98392711D01*
X182952086Y-98697812D01*
X182890784Y-98917369D01*
X170206164Y-133529793D01*
X170076397Y-133800638D01*
X169916369Y-134014553D01*
X169717840Y-134193309D01*
X169488367Y-134330103D01*
X169236695Y-134419720D01*
X168972411Y-134458746D01*
X168705582Y-134445695D01*
X168415579Y-134373389D01*
X145285522Y-126109118D01*
X145262828Y-126103444D01*
X144971172Y-126022012D01*
X144919044Y-126012821D01*
X144867254Y-126001812D01*
X144858089Y-126000849D01*
X144463405Y-125962150D01*
X144463402Y-125962150D01*
X144431419Y-125959000D01*
X43863092Y-125959000D01*
X43564937Y-125929766D01*
X43309189Y-125852551D01*
X43073309Y-125727131D01*
X42866288Y-125558289D01*
X42696000Y-125352446D01*
X42568934Y-125117444D01*
X42489936Y-124862240D01*
X42458808Y-124566066D01*
X42454992Y-106850117D01*
X60505000Y-106850117D01*
X60505000Y-107191883D01*
X60571675Y-107527081D01*
X60702463Y-107842831D01*
X60892337Y-108126998D01*
X61134002Y-108368663D01*
X61418169Y-108558537D01*
X61733919Y-108689325D01*
X62069117Y-108756000D01*
X62410883Y-108756000D01*
X62746081Y-108689325D01*
X63061831Y-108558537D01*
X63345998Y-108368663D01*
X63587663Y-108126998D01*
X63777537Y-107842831D01*
X63908325Y-107527081D01*
X63975000Y-107191883D01*
X63975000Y-106850117D01*
X63908325Y-106514919D01*
X63777537Y-106199169D01*
X63587663Y-105915002D01*
X63345998Y-105673337D01*
X63061831Y-105483463D01*
X62746081Y-105352675D01*
X62410883Y-105286000D01*
X62069117Y-105286000D01*
X61733919Y-105352675D01*
X61418169Y-105483463D01*
X61134002Y-105673337D01*
X60892337Y-105915002D01*
X60702463Y-106199169D01*
X60571675Y-106514919D01*
X60505000Y-106850117D01*
X42454992Y-106850117D01*
X42454482Y-104477117D01*
X155755000Y-104477117D01*
X155755000Y-104818883D01*
X155821675Y-105154081D01*
X155952463Y-105469831D01*
X156142337Y-105753998D01*
X156384002Y-105995663D01*
X156668169Y-106185537D01*
X156983919Y-106316325D01*
X157319117Y-106383000D01*
X157660883Y-106383000D01*
X157996081Y-106316325D01*
X158311831Y-106185537D01*
X158595998Y-105995663D01*
X158837663Y-105753998D01*
X159027537Y-105469831D01*
X159158325Y-105154081D01*
X159225000Y-104818883D01*
X159225000Y-104477117D01*
X159158325Y-104141919D01*
X159027537Y-103826169D01*
X158837663Y-103542002D01*
X158595998Y-103300337D01*
X158311831Y-103110463D01*
X157996081Y-102979675D01*
X157660883Y-102913000D01*
X157319117Y-102913000D01*
X156983919Y-102979675D01*
X156668169Y-103110463D01*
X156384002Y-103300337D01*
X156142337Y-103542002D01*
X155952463Y-103826169D01*
X155821675Y-104141919D01*
X155755000Y-104477117D01*
X42454482Y-104477117D01*
X42453360Y-99270117D01*
X108120000Y-99270117D01*
X108120000Y-99611883D01*
X108186675Y-99947081D01*
X108317463Y-100262831D01*
X108507337Y-100546998D01*
X108749002Y-100788663D01*
X109033169Y-100978537D01*
X109348919Y-101109325D01*
X109684117Y-101176000D01*
X110025883Y-101176000D01*
X110361081Y-101109325D01*
X110676831Y-100978537D01*
X110960998Y-100788663D01*
X111202663Y-100546998D01*
X111392537Y-100262831D01*
X111523325Y-99947081D01*
X111590000Y-99611883D01*
X111590000Y-99270117D01*
X111523325Y-98934919D01*
X111392537Y-98619169D01*
X111202663Y-98335002D01*
X110960998Y-98093337D01*
X110676831Y-97903463D01*
X110361081Y-97772675D01*
X110025883Y-97706000D01*
X109684117Y-97706000D01*
X109348919Y-97772675D01*
X109033169Y-97903463D01*
X108749002Y-98093337D01*
X108507337Y-98335002D01*
X108317463Y-98619169D01*
X108186675Y-98934919D01*
X108120000Y-99270117D01*
X42453360Y-99270117D01*
X42446785Y-68750117D01*
X60495000Y-68750117D01*
X60495000Y-69091883D01*
X60561675Y-69427081D01*
X60692463Y-69742831D01*
X60882337Y-70026998D01*
X61124002Y-70268663D01*
X61408169Y-70458537D01*
X61723919Y-70589325D01*
X62059117Y-70656000D01*
X62400883Y-70656000D01*
X62736081Y-70589325D01*
X63051831Y-70458537D01*
X63335998Y-70268663D01*
X63577663Y-70026998D01*
X63767537Y-69742831D01*
X63898325Y-69427081D01*
X63965000Y-69091883D01*
X63965000Y-68750117D01*
X63898325Y-68414919D01*
X63767537Y-68099169D01*
X63577663Y-67815002D01*
X63335998Y-67573337D01*
X63051831Y-67383463D01*
X62736081Y-67252675D01*
X62400883Y-67186000D01*
X62059117Y-67186000D01*
X61723919Y-67252675D01*
X61408169Y-67383463D01*
X61124002Y-67573337D01*
X60882337Y-67815002D01*
X60692463Y-68099169D01*
X60561675Y-68414919D01*
X60495000Y-68750117D01*
X42446785Y-68750117D01*
X42446247Y-66250117D01*
X155755000Y-66250117D01*
X155755000Y-66591883D01*
X155821675Y-66927081D01*
X155952463Y-67242831D01*
X156142337Y-67526998D01*
X156384002Y-67768663D01*
X156668169Y-67958537D01*
X156983919Y-68089325D01*
X157319117Y-68156000D01*
X157660883Y-68156000D01*
X157996081Y-68089325D01*
X158311831Y-67958537D01*
X158595998Y-67768663D01*
X158837663Y-67526998D01*
X159027537Y-67242831D01*
X159158325Y-66927081D01*
X159225000Y-66591883D01*
X159225000Y-66250117D01*
X159158325Y-65914919D01*
X159027537Y-65599169D01*
X158837663Y-65315002D01*
X158595998Y-65073337D01*
X158311831Y-64883463D01*
X157996081Y-64752675D01*
X157660883Y-64686000D01*
X157319117Y-64686000D01*
X156983919Y-64752675D01*
X156668169Y-64883463D01*
X156384002Y-65073337D01*
X156142337Y-65315002D01*
X155952463Y-65599169D01*
X155821675Y-65914919D01*
X155755000Y-66250117D01*
X42446247Y-66250117D01*
X42445153Y-61170117D01*
X108120000Y-61170117D01*
X108120000Y-61511883D01*
X108186675Y-61847081D01*
X108317463Y-62162831D01*
X108507337Y-62446998D01*
X108749002Y-62688663D01*
X109033169Y-62878537D01*
X109348919Y-63009325D01*
X109684117Y-63076000D01*
X110025883Y-63076000D01*
X110361081Y-63009325D01*
X110676831Y-62878537D01*
X110960998Y-62688663D01*
X111202663Y-62446998D01*
X111392537Y-62162831D01*
X111523325Y-61847081D01*
X111590000Y-61511883D01*
X111590000Y-61170117D01*
X111523325Y-60834919D01*
X111392537Y-60519169D01*
X111202663Y-60235002D01*
X110960998Y-59993337D01*
X110676831Y-59803463D01*
X110361081Y-59672675D01*
X110025883Y-59606000D01*
X109684117Y-59606000D01*
X109348919Y-59672675D01*
X109033169Y-59803463D01*
X108749002Y-59993337D01*
X108507337Y-60235002D01*
X108317463Y-60519169D01*
X108186675Y-60834919D01*
X108120000Y-61170117D01*
X42445153Y-61170117D01*
X42443007Y-51213207D01*
X42472535Y-50912056D01*
X42550643Y-50653351D01*
X42677510Y-50414747D01*
X42848307Y-50205330D01*
X43056529Y-50033074D01*
X43294243Y-49904543D01*
X43571017Y-49818867D01*
X43675187Y-49801691D01*
X100147535Y-42094649D01*
X100488523Y-42062000D01*
X181577721Y-42062000D01*
X181875875Y-42091234D01*
M02*
