%TF.GenerationSoftware,KiCad,Pcbnew,5.1.6-c6e7f7d~87~ubuntu20.04.1*%
%TF.CreationDate,2020-09-01T20:42:14-05:00*%
%TF.ProjectId,BottomPlate,426f7474-6f6d-4506-9c61-74652e6b6963,rev?*%
%TF.SameCoordinates,Original*%
%TF.FileFunction,Legend,Bot*%
%TF.FilePolarity,Positive*%
%FSLAX46Y46*%
G04 Gerber Fmt 4.6, Leading zero omitted, Abs format (unit mm)*
G04 Created by KiCad (PCBNEW 5.1.6-c6e7f7d~87~ubuntu20.04.1) date 2020-09-01 20:42:14*
%MOMM*%
%LPD*%
G01*
G04 APERTURE LIST*
%ADD10C,0.750000*%
%ADD11C,0.400000*%
G04 APERTURE END LIST*
D10*
X178901333Y-51029904D02*
X178901333Y-46029904D01*
X178425142Y-49125142D02*
X176996571Y-51029904D01*
X176996571Y-47696571D02*
X178901333Y-49601333D01*
X172948952Y-50791809D02*
X173425142Y-51029904D01*
X174377523Y-51029904D01*
X174853714Y-50791809D01*
X175091809Y-50315619D01*
X175091809Y-48410857D01*
X174853714Y-47934666D01*
X174377523Y-47696571D01*
X173425142Y-47696571D01*
X172948952Y-47934666D01*
X172710857Y-48410857D01*
X172710857Y-48887047D01*
X175091809Y-49363238D01*
X168425142Y-51029904D02*
X168425142Y-48410857D01*
X168663238Y-47934666D01*
X169139428Y-47696571D01*
X170091809Y-47696571D01*
X170568000Y-47934666D01*
X168425142Y-50791809D02*
X168901333Y-51029904D01*
X170091809Y-51029904D01*
X170568000Y-50791809D01*
X170806095Y-50315619D01*
X170806095Y-49839428D01*
X170568000Y-49363238D01*
X170091809Y-49125142D01*
X168901333Y-49125142D01*
X168425142Y-48887047D01*
X166044190Y-51029904D02*
X166044190Y-46029904D01*
X166044190Y-47934666D02*
X165568000Y-47696571D01*
X164615619Y-47696571D01*
X164139428Y-47934666D01*
X163901333Y-48172761D01*
X163663238Y-48648952D01*
X163663238Y-50077523D01*
X163901333Y-50553714D01*
X164139428Y-50791809D01*
X164615619Y-51029904D01*
X165568000Y-51029904D01*
X166044190Y-50791809D01*
X160806095Y-51029904D02*
X161282285Y-50791809D01*
X161520380Y-50553714D01*
X161758476Y-50077523D01*
X161758476Y-48648952D01*
X161520380Y-48172761D01*
X161282285Y-47934666D01*
X160806095Y-47696571D01*
X160091809Y-47696571D01*
X159615619Y-47934666D01*
X159377523Y-48172761D01*
X159139428Y-48648952D01*
X159139428Y-50077523D01*
X159377523Y-50553714D01*
X159615619Y-50791809D01*
X160091809Y-51029904D01*
X160806095Y-51029904D01*
X154853714Y-51029904D02*
X154853714Y-48410857D01*
X155091809Y-47934666D01*
X155568000Y-47696571D01*
X156520380Y-47696571D01*
X156996571Y-47934666D01*
X154853714Y-50791809D02*
X155329904Y-51029904D01*
X156520380Y-51029904D01*
X156996571Y-50791809D01*
X157234666Y-50315619D01*
X157234666Y-49839428D01*
X156996571Y-49363238D01*
X156520380Y-49125142D01*
X155329904Y-49125142D01*
X154853714Y-48887047D01*
X152472761Y-51029904D02*
X152472761Y-47696571D01*
X152472761Y-48648952D02*
X152234666Y-48172761D01*
X151996571Y-47934666D01*
X151520380Y-47696571D01*
X151044190Y-47696571D01*
X147234666Y-51029904D02*
X147234666Y-46029904D01*
X147234666Y-50791809D02*
X147710857Y-51029904D01*
X148663238Y-51029904D01*
X149139428Y-50791809D01*
X149377523Y-50553714D01*
X149615619Y-50077523D01*
X149615619Y-48648952D01*
X149377523Y-48172761D01*
X149139428Y-47934666D01*
X148663238Y-47696571D01*
X147710857Y-47696571D01*
X147234666Y-47934666D01*
D11*
X144870857Y-51168952D02*
X144870857Y-49502285D01*
X144870857Y-49978476D02*
X144751809Y-49740380D01*
X144632761Y-49621333D01*
X144394666Y-49502285D01*
X144156571Y-49502285D01*
X142370857Y-51049904D02*
X142608952Y-51168952D01*
X143085142Y-51168952D01*
X143323238Y-51049904D01*
X143442285Y-50811809D01*
X143442285Y-49859428D01*
X143323238Y-49621333D01*
X143085142Y-49502285D01*
X142608952Y-49502285D01*
X142370857Y-49621333D01*
X142251809Y-49859428D01*
X142251809Y-50097523D01*
X143442285Y-50335619D01*
X141418476Y-49502285D02*
X140823238Y-51168952D01*
X140228000Y-49502285D01*
X137966095Y-51168952D02*
X139394666Y-51168952D01*
X138680380Y-51168952D02*
X138680380Y-48668952D01*
X138918476Y-49026095D01*
X139156571Y-49264190D01*
X139394666Y-49383238D01*
X175805380Y-55105952D02*
X175805380Y-52605952D01*
X175805380Y-54986904D02*
X176043476Y-55105952D01*
X176519666Y-55105952D01*
X176757761Y-54986904D01*
X176876809Y-54867857D01*
X176995857Y-54629761D01*
X176995857Y-53915476D01*
X176876809Y-53677380D01*
X176757761Y-53558333D01*
X176519666Y-53439285D01*
X176043476Y-53439285D01*
X175805380Y-53558333D01*
X173662523Y-54986904D02*
X173900619Y-55105952D01*
X174376809Y-55105952D01*
X174614904Y-54986904D01*
X174733952Y-54748809D01*
X174733952Y-53796428D01*
X174614904Y-53558333D01*
X174376809Y-53439285D01*
X173900619Y-53439285D01*
X173662523Y-53558333D01*
X173543476Y-53796428D01*
X173543476Y-54034523D01*
X174733952Y-54272619D01*
X172591095Y-54986904D02*
X172353000Y-55105952D01*
X171876809Y-55105952D01*
X171638714Y-54986904D01*
X171519666Y-54748809D01*
X171519666Y-54629761D01*
X171638714Y-54391666D01*
X171876809Y-54272619D01*
X172233952Y-54272619D01*
X172472047Y-54153571D01*
X172591095Y-53915476D01*
X172591095Y-53796428D01*
X172472047Y-53558333D01*
X172233952Y-53439285D01*
X171876809Y-53439285D01*
X171638714Y-53558333D01*
X170448238Y-55105952D02*
X170448238Y-53439285D01*
X170448238Y-52605952D02*
X170567285Y-52725000D01*
X170448238Y-52844047D01*
X170329190Y-52725000D01*
X170448238Y-52605952D01*
X170448238Y-52844047D01*
X168186333Y-53439285D02*
X168186333Y-55463095D01*
X168305380Y-55701190D01*
X168424428Y-55820238D01*
X168662523Y-55939285D01*
X169019666Y-55939285D01*
X169257761Y-55820238D01*
X168186333Y-54986904D02*
X168424428Y-55105952D01*
X168900619Y-55105952D01*
X169138714Y-54986904D01*
X169257761Y-54867857D01*
X169376809Y-54629761D01*
X169376809Y-53915476D01*
X169257761Y-53677380D01*
X169138714Y-53558333D01*
X168900619Y-53439285D01*
X168424428Y-53439285D01*
X168186333Y-53558333D01*
X166995857Y-53439285D02*
X166995857Y-55105952D01*
X166995857Y-53677380D02*
X166876809Y-53558333D01*
X166638714Y-53439285D01*
X166281571Y-53439285D01*
X166043476Y-53558333D01*
X165924428Y-53796428D01*
X165924428Y-55105952D01*
X163781571Y-54986904D02*
X164019666Y-55105952D01*
X164495857Y-55105952D01*
X164733952Y-54986904D01*
X164853000Y-54748809D01*
X164853000Y-53796428D01*
X164733952Y-53558333D01*
X164495857Y-53439285D01*
X164019666Y-53439285D01*
X163781571Y-53558333D01*
X163662523Y-53796428D01*
X163662523Y-54034523D01*
X164853000Y-54272619D01*
X161519666Y-55105952D02*
X161519666Y-52605952D01*
X161519666Y-54986904D02*
X161757761Y-55105952D01*
X162233952Y-55105952D01*
X162472047Y-54986904D01*
X162591095Y-54867857D01*
X162710142Y-54629761D01*
X162710142Y-53915476D01*
X162591095Y-53677380D01*
X162472047Y-53558333D01*
X162233952Y-53439285D01*
X161757761Y-53439285D01*
X161519666Y-53558333D01*
X158424428Y-55105952D02*
X158424428Y-52605952D01*
X158424428Y-53558333D02*
X158186333Y-53439285D01*
X157710142Y-53439285D01*
X157472047Y-53558333D01*
X157353000Y-53677380D01*
X157233952Y-53915476D01*
X157233952Y-54629761D01*
X157353000Y-54867857D01*
X157472047Y-54986904D01*
X157710142Y-55105952D01*
X158186333Y-55105952D01*
X158424428Y-54986904D01*
X156400619Y-53439285D02*
X155805380Y-55105952D01*
X155210142Y-53439285D02*
X155805380Y-55105952D01*
X156043476Y-55701190D01*
X156162523Y-55820238D01*
X156400619Y-55939285D01*
X152353000Y-55105952D02*
X152353000Y-52605952D01*
X152114904Y-54153571D02*
X151400619Y-55105952D01*
X151400619Y-53439285D02*
X152353000Y-54391666D01*
X149376809Y-54986904D02*
X149614904Y-55105952D01*
X150091095Y-55105952D01*
X150329190Y-54986904D01*
X150448238Y-54748809D01*
X150448238Y-53796428D01*
X150329190Y-53558333D01*
X150091095Y-53439285D01*
X149614904Y-53439285D01*
X149376809Y-53558333D01*
X149257761Y-53796428D01*
X149257761Y-54034523D01*
X150448238Y-54272619D01*
X147114904Y-55105952D02*
X147114904Y-53796428D01*
X147233952Y-53558333D01*
X147472047Y-53439285D01*
X147948238Y-53439285D01*
X148186333Y-53558333D01*
X147114904Y-54986904D02*
X147353000Y-55105952D01*
X147948238Y-55105952D01*
X148186333Y-54986904D01*
X148305380Y-54748809D01*
X148305380Y-54510714D01*
X148186333Y-54272619D01*
X147948238Y-54153571D01*
X147353000Y-54153571D01*
X147114904Y-54034523D01*
X146162523Y-53439285D02*
X145686333Y-55105952D01*
X145210142Y-53915476D01*
X144733952Y-55105952D01*
X144257761Y-53439285D01*
X142233952Y-55105952D02*
X142233952Y-53796428D01*
X142353000Y-53558333D01*
X142591095Y-53439285D01*
X143067285Y-53439285D01*
X143305380Y-53558333D01*
X142233952Y-54986904D02*
X142472047Y-55105952D01*
X143067285Y-55105952D01*
X143305380Y-54986904D01*
X143424428Y-54748809D01*
X143424428Y-54510714D01*
X143305380Y-54272619D01*
X143067285Y-54153571D01*
X142472047Y-54153571D01*
X142233952Y-54034523D01*
X139972047Y-55105952D02*
X139972047Y-52605952D01*
X139972047Y-54986904D02*
X140210142Y-55105952D01*
X140686333Y-55105952D01*
X140924428Y-54986904D01*
X141043476Y-54867857D01*
X141162523Y-54629761D01*
X141162523Y-53915476D01*
X141043476Y-53677380D01*
X140924428Y-53558333D01*
X140686333Y-53439285D01*
X140210142Y-53439285D01*
X139972047Y-53558333D01*
X137829190Y-54986904D02*
X138067285Y-55105952D01*
X138543476Y-55105952D01*
X138781571Y-54986904D01*
X138900619Y-54748809D01*
X138900619Y-53796428D01*
X138781571Y-53558333D01*
X138543476Y-53439285D01*
X138067285Y-53439285D01*
X137829190Y-53558333D01*
X137710142Y-53796428D01*
X137710142Y-54034523D01*
X138900619Y-54272619D01*
M02*
