%TF.GenerationSoftware,KiCad,Pcbnew,5.1.6-c6e7f7d~87~ubuntu20.04.1*%
%TF.CreationDate,2020-09-01T20:51:20-05:00*%
%TF.ProjectId,TopPlate,546f7050-6c61-4746-952e-6b696361645f,rev?*%
%TF.SameCoordinates,Original*%
%TF.FileFunction,Copper,L1,Top*%
%TF.FilePolarity,Positive*%
%FSLAX46Y46*%
G04 Gerber Fmt 4.6, Leading zero omitted, Abs format (unit mm)*
G04 Created by KiCad (PCBNEW 5.1.6-c6e7f7d~87~ubuntu20.04.1) date 2020-09-01 20:51:20*
%MOMM*%
%LPD*%
G01*
G04 APERTURE LIST*
%TA.AperFunction,NonConductor*%
%ADD10C,0.254000*%
%TD*%
G04 APERTURE END LIST*
D10*
G36*
X146188875Y-31169234D02*
G01*
X146444622Y-31246448D01*
X146680504Y-31371869D01*
X146887530Y-31540716D01*
X147057813Y-31746554D01*
X147184879Y-31981556D01*
X147263876Y-32236756D01*
X147295000Y-32532882D01*
X147295001Y-54067817D01*
X147135831Y-53961463D01*
X146820081Y-53830675D01*
X146484883Y-53764000D01*
X146143117Y-53764000D01*
X145807919Y-53830675D01*
X145492169Y-53961463D01*
X145208002Y-54151337D01*
X144966337Y-54393002D01*
X144776463Y-54677169D01*
X144645675Y-54992919D01*
X144579000Y-55328117D01*
X144579000Y-55669883D01*
X144645675Y-56005081D01*
X144776463Y-56320831D01*
X144966337Y-56604998D01*
X145208002Y-56846663D01*
X145492169Y-57036537D01*
X145807919Y-57167325D01*
X146143117Y-57234000D01*
X146484883Y-57234000D01*
X146820081Y-57167325D01*
X147135831Y-57036537D01*
X147295001Y-56930183D01*
X147295001Y-63786419D01*
X147297854Y-63815388D01*
X147297766Y-63828003D01*
X147298665Y-63837174D01*
X147340118Y-64231577D01*
X147352148Y-64290183D01*
X147363355Y-64348935D01*
X147366019Y-64357757D01*
X147483290Y-64736599D01*
X147506474Y-64791750D01*
X147528880Y-64847208D01*
X147533206Y-64855345D01*
X147721828Y-65204193D01*
X147755283Y-65253792D01*
X147788032Y-65303838D01*
X147793855Y-65310977D01*
X147793858Y-65310981D01*
X147793862Y-65310985D01*
X148046644Y-65616547D01*
X148089061Y-65658669D01*
X148130943Y-65701438D01*
X148138044Y-65707311D01*
X148445369Y-65957960D01*
X148495178Y-65991052D01*
X148544550Y-66024859D01*
X148552656Y-66029241D01*
X148902813Y-66215423D01*
X148958105Y-66238212D01*
X149013101Y-66261784D01*
X149021905Y-66264509D01*
X149401556Y-66379132D01*
X149460250Y-66390754D01*
X149518747Y-66403188D01*
X149527911Y-66404151D01*
X149922596Y-66442850D01*
X149922598Y-66442850D01*
X149954581Y-66446000D01*
X156939721Y-66446000D01*
X157237875Y-66475234D01*
X157493622Y-66552448D01*
X157729504Y-66677869D01*
X157936530Y-66846716D01*
X158106813Y-67052554D01*
X158233879Y-67287556D01*
X158312876Y-67542756D01*
X158344000Y-67838882D01*
X158344001Y-74962419D01*
X158346854Y-74991388D01*
X158346766Y-75004003D01*
X158347665Y-75013174D01*
X158389118Y-75407577D01*
X158401148Y-75466183D01*
X158412355Y-75524935D01*
X158415019Y-75533757D01*
X158532290Y-75912599D01*
X158555474Y-75967750D01*
X158577880Y-76023208D01*
X158582206Y-76031345D01*
X158770828Y-76380193D01*
X158804283Y-76429792D01*
X158837032Y-76479838D01*
X158842855Y-76486977D01*
X158842858Y-76486981D01*
X158842862Y-76486985D01*
X159095644Y-76792547D01*
X159138061Y-76834669D01*
X159179943Y-76877438D01*
X159187044Y-76883311D01*
X159494369Y-77133960D01*
X159544178Y-77167052D01*
X159593550Y-77200859D01*
X159601656Y-77205241D01*
X159951813Y-77391423D01*
X160007105Y-77414212D01*
X160062101Y-77437784D01*
X160070905Y-77440509D01*
X160450556Y-77555132D01*
X160509250Y-77566754D01*
X160567747Y-77579188D01*
X160576911Y-77580151D01*
X160971596Y-77618850D01*
X160971598Y-77618850D01*
X161003581Y-77622000D01*
X170401721Y-77622000D01*
X170699875Y-77651234D01*
X170955622Y-77728448D01*
X171191504Y-77853869D01*
X171398530Y-78022716D01*
X171568813Y-78228554D01*
X171695879Y-78463556D01*
X171774876Y-78718756D01*
X171806000Y-79014882D01*
X171806001Y-87470711D01*
X171776086Y-87775812D01*
X171714784Y-87995369D01*
X159030164Y-122607793D01*
X158900397Y-122878638D01*
X158740369Y-123092553D01*
X158541840Y-123271309D01*
X158312367Y-123408103D01*
X158060695Y-123497720D01*
X157796411Y-123536746D01*
X157529582Y-123523695D01*
X157239579Y-123451389D01*
X134109522Y-115187118D01*
X134086828Y-115181444D01*
X133795172Y-115100012D01*
X133743044Y-115090821D01*
X133691254Y-115079812D01*
X133682089Y-115078849D01*
X133287405Y-115040150D01*
X133287402Y-115040150D01*
X133255419Y-115037000D01*
X32687092Y-115037000D01*
X32388937Y-115007766D01*
X32133189Y-114930551D01*
X31937487Y-114826494D01*
X142043471Y-114826494D01*
X142062820Y-114962022D01*
X142108237Y-115091172D01*
X142177978Y-115208980D01*
X142269362Y-115310918D01*
X142378877Y-115393069D01*
X142471388Y-115437443D01*
X142471391Y-115437444D01*
X142502315Y-115452277D01*
X142535539Y-115460792D01*
X142743086Y-115536333D01*
X142735948Y-115555945D01*
X142721116Y-115586867D01*
X142712601Y-115620090D01*
X142712600Y-115620093D01*
X142687477Y-115718119D01*
X142687127Y-115719484D01*
X142679664Y-115856182D01*
X142699013Y-115991710D01*
X142744430Y-116120860D01*
X142814171Y-116238668D01*
X142905555Y-116340605D01*
X143015070Y-116422757D01*
X143107581Y-116467131D01*
X143107584Y-116467132D01*
X143138508Y-116481965D01*
X143171733Y-116490480D01*
X155981373Y-121152809D01*
X156012295Y-121167641D01*
X156045515Y-121176155D01*
X156045521Y-121176157D01*
X156144912Y-121201630D01*
X156274533Y-121208707D01*
X156281610Y-121209093D01*
X156281611Y-121209093D01*
X156417139Y-121189744D01*
X156546289Y-121144327D01*
X156664097Y-121074586D01*
X156717980Y-121026281D01*
X156766034Y-120983203D01*
X156848186Y-120873688D01*
X156892560Y-120781177D01*
X156892563Y-120781170D01*
X156907394Y-120750249D01*
X156915907Y-120717031D01*
X156923046Y-120697417D01*
X157130601Y-120772960D01*
X157161520Y-120787791D01*
X157194739Y-120796305D01*
X157194745Y-120796307D01*
X157294136Y-120821780D01*
X157430835Y-120829243D01*
X157566363Y-120809894D01*
X157695513Y-120764477D01*
X157813321Y-120694736D01*
X157915259Y-120603352D01*
X157997410Y-120493837D01*
X158039945Y-120405159D01*
X158041784Y-120401326D01*
X158041785Y-120401323D01*
X158056618Y-120370399D01*
X158065133Y-120337174D01*
X162317039Y-108655160D01*
X162331869Y-108624241D01*
X162340383Y-108591022D01*
X162340385Y-108591016D01*
X162365858Y-108491625D01*
X162373321Y-108354926D01*
X162362481Y-108279000D01*
X162353972Y-108219397D01*
X162308555Y-108090247D01*
X162238814Y-107972440D01*
X162147430Y-107870502D01*
X162037915Y-107788351D01*
X161945404Y-107743977D01*
X161945401Y-107743976D01*
X161914477Y-107729143D01*
X161881252Y-107720628D01*
X161673706Y-107645087D01*
X161680845Y-107625472D01*
X161695676Y-107594553D01*
X161704189Y-107561336D01*
X161704192Y-107561328D01*
X161729665Y-107461937D01*
X161737128Y-107325237D01*
X161717779Y-107189710D01*
X161672362Y-107060559D01*
X161632609Y-106993408D01*
X161602621Y-106942751D01*
X161511237Y-106840813D01*
X161401722Y-106758662D01*
X161309211Y-106714288D01*
X161278285Y-106699454D01*
X161245059Y-106690939D01*
X148435422Y-102028612D01*
X148404497Y-102013779D01*
X148271880Y-101979790D01*
X148135181Y-101972327D01*
X147999653Y-101991676D01*
X147870504Y-102037092D01*
X147824357Y-102064411D01*
X147752695Y-102106834D01*
X147733362Y-102124166D01*
X147650758Y-102198217D01*
X147568606Y-102307732D01*
X147524232Y-102400243D01*
X147524229Y-102400250D01*
X147509398Y-102431171D01*
X147500884Y-102464392D01*
X147493746Y-102484004D01*
X147286194Y-102408461D01*
X147255272Y-102393629D01*
X147222049Y-102385114D01*
X147222046Y-102385113D01*
X147122655Y-102359640D01*
X146985957Y-102352177D01*
X146985956Y-102352177D01*
X146850428Y-102371526D01*
X146721278Y-102416943D01*
X146603470Y-102486684D01*
X146501532Y-102578068D01*
X146419381Y-102687583D01*
X146375007Y-102780094D01*
X146375003Y-102780106D01*
X146360174Y-102811021D01*
X146351661Y-102844236D01*
X142099755Y-114526257D01*
X142084923Y-114557179D01*
X142076408Y-114590402D01*
X142076407Y-114590405D01*
X142061353Y-114649144D01*
X142050934Y-114689796D01*
X142043471Y-114826494D01*
X31937487Y-114826494D01*
X31897309Y-114805131D01*
X31690288Y-114636289D01*
X31520000Y-114430446D01*
X31392934Y-114195444D01*
X31313936Y-113940240D01*
X31282808Y-113644066D01*
X31279735Y-99374000D01*
X33030638Y-99374000D01*
X33034000Y-99408134D01*
X33034001Y-111839855D01*
X33030638Y-111874000D01*
X33044057Y-112010244D01*
X33083798Y-112141252D01*
X33148333Y-112261989D01*
X33235183Y-112367817D01*
X33341011Y-112454667D01*
X33461748Y-112519202D01*
X33592756Y-112558943D01*
X33694865Y-112569000D01*
X33694866Y-112569000D01*
X33729000Y-112572362D01*
X33763135Y-112569000D01*
X33984000Y-112569000D01*
X33984000Y-112589865D01*
X33980638Y-112624000D01*
X33994057Y-112760244D01*
X34033798Y-112891252D01*
X34098333Y-113011989D01*
X34185183Y-113117817D01*
X34291011Y-113204667D01*
X34411748Y-113269202D01*
X34542756Y-113308943D01*
X34644865Y-113319000D01*
X34644866Y-113319000D01*
X34679000Y-113322362D01*
X34713135Y-113319000D01*
X48344865Y-113319000D01*
X48379000Y-113322362D01*
X48413134Y-113319000D01*
X48413135Y-113319000D01*
X48515244Y-113308943D01*
X48646252Y-113269202D01*
X48766989Y-113204667D01*
X48872817Y-113117817D01*
X48959667Y-113011989D01*
X49024202Y-112891252D01*
X49063943Y-112760244D01*
X49077362Y-112624000D01*
X49074000Y-112589865D01*
X49074000Y-112569000D01*
X49294865Y-112569000D01*
X49329000Y-112572362D01*
X49363134Y-112569000D01*
X49363135Y-112569000D01*
X49465244Y-112558943D01*
X49596252Y-112519202D01*
X49716989Y-112454667D01*
X49822817Y-112367817D01*
X49909667Y-112261989D01*
X49974202Y-112141252D01*
X50013943Y-112010244D01*
X50027362Y-111874000D01*
X50024000Y-111839865D01*
X50024000Y-99408134D01*
X50027362Y-99374000D01*
X50013943Y-99237756D01*
X49974202Y-99106748D01*
X49909667Y-98986011D01*
X49822817Y-98880183D01*
X49716989Y-98793333D01*
X49596252Y-98728798D01*
X49465244Y-98689057D01*
X49363135Y-98679000D01*
X49329000Y-98675638D01*
X49294866Y-98679000D01*
X49074000Y-98679000D01*
X49074000Y-98658135D01*
X49077362Y-98624000D01*
X49063943Y-98487756D01*
X49024202Y-98356748D01*
X48959667Y-98236011D01*
X48872817Y-98130183D01*
X48766989Y-98043333D01*
X48646252Y-97978798D01*
X48515244Y-97939057D01*
X48413135Y-97929000D01*
X48379000Y-97925638D01*
X48344866Y-97929000D01*
X34713134Y-97929000D01*
X34679000Y-97925638D01*
X34644865Y-97929000D01*
X34542756Y-97939057D01*
X34411748Y-97978798D01*
X34291011Y-98043333D01*
X34185183Y-98130183D01*
X34098333Y-98236011D01*
X34033798Y-98356748D01*
X33994057Y-98487756D01*
X33980638Y-98624000D01*
X33984000Y-98658135D01*
X33984000Y-98679000D01*
X33763134Y-98679000D01*
X33729000Y-98675638D01*
X33694865Y-98679000D01*
X33592756Y-98689057D01*
X33461748Y-98728798D01*
X33341011Y-98793333D01*
X33235183Y-98880183D01*
X33148333Y-98986011D01*
X33083798Y-99106748D01*
X33044057Y-99237756D01*
X33030638Y-99374000D01*
X31279735Y-99374000D01*
X31278993Y-95928117D01*
X49329000Y-95928117D01*
X49329000Y-96269883D01*
X49395675Y-96605081D01*
X49526463Y-96920831D01*
X49716337Y-97204998D01*
X49958002Y-97446663D01*
X50242169Y-97636537D01*
X50557919Y-97767325D01*
X50893117Y-97834000D01*
X51234883Y-97834000D01*
X51570081Y-97767325D01*
X51885831Y-97636537D01*
X52084000Y-97504125D01*
X52084001Y-109339855D01*
X52080638Y-109374000D01*
X52094057Y-109510244D01*
X52133798Y-109641252D01*
X52198333Y-109761989D01*
X52285183Y-109867817D01*
X52391011Y-109954667D01*
X52511748Y-110019202D01*
X52642756Y-110058943D01*
X52744865Y-110069000D01*
X52744866Y-110069000D01*
X52779000Y-110072362D01*
X52813135Y-110069000D01*
X53034000Y-110069000D01*
X53034000Y-110089865D01*
X53030638Y-110124000D01*
X53044057Y-110260244D01*
X53083798Y-110391252D01*
X53148333Y-110511989D01*
X53235183Y-110617817D01*
X53341011Y-110704667D01*
X53461748Y-110769202D01*
X53592756Y-110808943D01*
X53694865Y-110819000D01*
X53694866Y-110819000D01*
X53729000Y-110822362D01*
X53763135Y-110819000D01*
X67394865Y-110819000D01*
X67429000Y-110822362D01*
X67463134Y-110819000D01*
X67463135Y-110819000D01*
X67565244Y-110808943D01*
X67696252Y-110769202D01*
X67816989Y-110704667D01*
X67922817Y-110617817D01*
X68009667Y-110511989D01*
X68074202Y-110391252D01*
X68113943Y-110260244D01*
X68127362Y-110124000D01*
X68124000Y-110089865D01*
X68124000Y-110069000D01*
X68344865Y-110069000D01*
X68379000Y-110072362D01*
X68413134Y-110069000D01*
X68413135Y-110069000D01*
X68515244Y-110058943D01*
X68646252Y-110019202D01*
X68766989Y-109954667D01*
X68872817Y-109867817D01*
X68959667Y-109761989D01*
X69024202Y-109641252D01*
X69063943Y-109510244D01*
X69077362Y-109374000D01*
X69074000Y-109339865D01*
X69074000Y-108911603D01*
X115253572Y-108911603D01*
X115269960Y-109047522D01*
X115312549Y-109177631D01*
X115315347Y-109182601D01*
X115379702Y-109296932D01*
X115445817Y-109374000D01*
X115468842Y-109400840D01*
X115492017Y-109419028D01*
X115576537Y-109485360D01*
X115698654Y-109547246D01*
X115742046Y-109559382D01*
X115797466Y-109574882D01*
X115797469Y-109574883D01*
X115830498Y-109584120D01*
X115864695Y-109586736D01*
X116082209Y-109625089D01*
X116078587Y-109645632D01*
X116069347Y-109678670D01*
X116064415Y-109743140D01*
X116058904Y-109815174D01*
X116075292Y-109951092D01*
X116117881Y-110081201D01*
X116185034Y-110200503D01*
X116274173Y-110304410D01*
X116381870Y-110388931D01*
X116503986Y-110450817D01*
X116635830Y-110487691D01*
X116670036Y-110490308D01*
X130094660Y-112857431D01*
X130127696Y-112866671D01*
X130264200Y-112877114D01*
X130400118Y-112860726D01*
X130530228Y-112818137D01*
X130649529Y-112750984D01*
X130753436Y-112661845D01*
X130837957Y-112554149D01*
X130899843Y-112432032D01*
X130936717Y-112300188D01*
X130939334Y-112265982D01*
X130942956Y-112245439D01*
X131160462Y-112283791D01*
X131193499Y-112293031D01*
X131330003Y-112303474D01*
X131465921Y-112287086D01*
X131596030Y-112244498D01*
X131715332Y-112177344D01*
X131819239Y-112088205D01*
X131903760Y-111980509D01*
X131965646Y-111858392D01*
X132002520Y-111726548D01*
X132005137Y-111692340D01*
X134163886Y-99449476D01*
X134173122Y-99416450D01*
X134178982Y-99339866D01*
X134183566Y-99279948D01*
X134183566Y-99279946D01*
X134167178Y-99144027D01*
X134124589Y-99013919D01*
X134100403Y-98970952D01*
X134057436Y-98894618D01*
X133968297Y-98790711D01*
X133968296Y-98790710D01*
X133860599Y-98706190D01*
X133800313Y-98675638D01*
X133738484Y-98644304D01*
X133606640Y-98607430D01*
X133572441Y-98604814D01*
X133354929Y-98566461D01*
X133358552Y-98545915D01*
X133367791Y-98512880D01*
X133378234Y-98376375D01*
X133361846Y-98240457D01*
X133319258Y-98110348D01*
X133252104Y-97991046D01*
X133162965Y-97887139D01*
X133055269Y-97802618D01*
X132933152Y-97740732D01*
X132834341Y-97713097D01*
X132834335Y-97713096D01*
X132801308Y-97703859D01*
X132767114Y-97701243D01*
X128366804Y-96925350D01*
X148558954Y-96925350D01*
X148578303Y-97060878D01*
X148623720Y-97190028D01*
X148693461Y-97307836D01*
X148784845Y-97409774D01*
X148894360Y-97491925D01*
X148986871Y-97536299D01*
X148986874Y-97536300D01*
X149017798Y-97551133D01*
X149051022Y-97559648D01*
X149258569Y-97635189D01*
X149251431Y-97654801D01*
X149236599Y-97685723D01*
X149202610Y-97818340D01*
X149195147Y-97955038D01*
X149214496Y-98090566D01*
X149259913Y-98219716D01*
X149329654Y-98337524D01*
X149421038Y-98439461D01*
X149530553Y-98521613D01*
X149623064Y-98565987D01*
X149623067Y-98565988D01*
X149653991Y-98580821D01*
X149687216Y-98589336D01*
X162496856Y-103251665D01*
X162527778Y-103266497D01*
X162560998Y-103275011D01*
X162561004Y-103275013D01*
X162660395Y-103300486D01*
X162790016Y-103307563D01*
X162797093Y-103307949D01*
X162797094Y-103307949D01*
X162932622Y-103288600D01*
X163061772Y-103243183D01*
X163179580Y-103173442D01*
X163233463Y-103125137D01*
X163281517Y-103082059D01*
X163363669Y-102972544D01*
X163408043Y-102880033D01*
X163408046Y-102880026D01*
X163422877Y-102849105D01*
X163431390Y-102815887D01*
X163438529Y-102796273D01*
X163646084Y-102871816D01*
X163677003Y-102886647D01*
X163710222Y-102895161D01*
X163710228Y-102895163D01*
X163809619Y-102920636D01*
X163946318Y-102928099D01*
X164081846Y-102908750D01*
X164210996Y-102863333D01*
X164328804Y-102793592D01*
X164430742Y-102702208D01*
X164512893Y-102592693D01*
X164557267Y-102500182D01*
X164557268Y-102500179D01*
X164572101Y-102469255D01*
X164580616Y-102436030D01*
X168832522Y-90754016D01*
X168847352Y-90723097D01*
X168855866Y-90689878D01*
X168855868Y-90689872D01*
X168881341Y-90590481D01*
X168888804Y-90453782D01*
X168880954Y-90398798D01*
X168869455Y-90318253D01*
X168824038Y-90189103D01*
X168754297Y-90071296D01*
X168662913Y-89969358D01*
X168553398Y-89887207D01*
X168460887Y-89842833D01*
X168460884Y-89842832D01*
X168429960Y-89827999D01*
X168396735Y-89819484D01*
X168189189Y-89743943D01*
X168196328Y-89724328D01*
X168211159Y-89693409D01*
X168219672Y-89660192D01*
X168219675Y-89660184D01*
X168245148Y-89560793D01*
X168252611Y-89424093D01*
X168233262Y-89288566D01*
X168213498Y-89232362D01*
X168187845Y-89159415D01*
X168118104Y-89041607D01*
X168026720Y-88939669D01*
X167917205Y-88857518D01*
X167824694Y-88813144D01*
X167793768Y-88798310D01*
X167760542Y-88789795D01*
X154950905Y-84127468D01*
X154919980Y-84112635D01*
X154787363Y-84078646D01*
X154650664Y-84071183D01*
X154515136Y-84090532D01*
X154385987Y-84135948D01*
X154337920Y-84164404D01*
X154268178Y-84205690D01*
X154219992Y-84248887D01*
X154166241Y-84297073D01*
X154084089Y-84406588D01*
X154039715Y-84499099D01*
X154039712Y-84499106D01*
X154024881Y-84530027D01*
X154016367Y-84563248D01*
X154009229Y-84582860D01*
X153801677Y-84507317D01*
X153770755Y-84492485D01*
X153737532Y-84483970D01*
X153737529Y-84483969D01*
X153638138Y-84458496D01*
X153501440Y-84451033D01*
X153501439Y-84451033D01*
X153365911Y-84470382D01*
X153236761Y-84515799D01*
X153118953Y-84585540D01*
X153017015Y-84676924D01*
X152934864Y-84786439D01*
X152890490Y-84878950D01*
X152890486Y-84878962D01*
X152875657Y-84909877D01*
X152867144Y-84943092D01*
X148615238Y-96625113D01*
X148600406Y-96656035D01*
X148591891Y-96689258D01*
X148591890Y-96689261D01*
X148579911Y-96736002D01*
X148566417Y-96788652D01*
X148558954Y-96925350D01*
X128366804Y-96925350D01*
X119342478Y-95334119D01*
X119309442Y-95324879D01*
X119189641Y-95315714D01*
X119172938Y-95314436D01*
X119172937Y-95314436D01*
X119086326Y-95324879D01*
X119037020Y-95330824D01*
X118906911Y-95373413D01*
X118787609Y-95440566D01*
X118683702Y-95529705D01*
X118599181Y-95637402D01*
X118537295Y-95759518D01*
X118500421Y-95891362D01*
X118497804Y-95925568D01*
X118494182Y-95946111D01*
X118276676Y-95907759D01*
X118243639Y-95898519D01*
X118135853Y-95890273D01*
X118107136Y-95888076D01*
X118107134Y-95888076D01*
X117971216Y-95904464D01*
X117928628Y-95918404D01*
X117841108Y-95947052D01*
X117788959Y-95976406D01*
X117721805Y-96014206D01*
X117617898Y-96103345D01*
X117533377Y-96211042D01*
X117471491Y-96333158D01*
X117455244Y-96391252D01*
X117434618Y-96465002D01*
X117432002Y-96499198D01*
X115273254Y-108742065D01*
X115264015Y-108775100D01*
X115253572Y-108911603D01*
X69074000Y-108911603D01*
X69074000Y-96908134D01*
X69077362Y-96874000D01*
X69063943Y-96737756D01*
X69024202Y-96606748D01*
X68959667Y-96486011D01*
X68872817Y-96380183D01*
X68766989Y-96293333D01*
X68646252Y-96228798D01*
X68515244Y-96189057D01*
X68413135Y-96179000D01*
X68379000Y-96175638D01*
X68344866Y-96179000D01*
X68124000Y-96179000D01*
X68124000Y-96158135D01*
X68127362Y-96124000D01*
X68113943Y-95987756D01*
X68074202Y-95856748D01*
X68009667Y-95736011D01*
X67922817Y-95630183D01*
X67816989Y-95543333D01*
X67696252Y-95478798D01*
X67565244Y-95439057D01*
X67463135Y-95429000D01*
X67429000Y-95425638D01*
X67394866Y-95429000D01*
X53763134Y-95429000D01*
X53729000Y-95425638D01*
X53694865Y-95429000D01*
X53592756Y-95439057D01*
X53461748Y-95478798D01*
X53341011Y-95543333D01*
X53235183Y-95630183D01*
X53148333Y-95736011D01*
X53083798Y-95856748D01*
X53044057Y-95987756D01*
X53030638Y-96124000D01*
X53034000Y-96158135D01*
X53034000Y-96179000D01*
X52813134Y-96179000D01*
X52799000Y-96177608D01*
X52799000Y-95928117D01*
X52732325Y-95592919D01*
X52601537Y-95277169D01*
X52411663Y-94993002D01*
X52169998Y-94751337D01*
X51885831Y-94561463D01*
X51570081Y-94430675D01*
X51234883Y-94364000D01*
X50893117Y-94364000D01*
X50557919Y-94430675D01*
X50242169Y-94561463D01*
X49958002Y-94751337D01*
X49716337Y-94993002D01*
X49526463Y-95277169D01*
X49395675Y-95592919D01*
X49329000Y-95928117D01*
X31278993Y-95928117D01*
X31278650Y-94334000D01*
X71130638Y-94334000D01*
X71134000Y-94368134D01*
X71134001Y-106799855D01*
X71130638Y-106834000D01*
X71144057Y-106970244D01*
X71183798Y-107101252D01*
X71248333Y-107221989D01*
X71335183Y-107327817D01*
X71441011Y-107414667D01*
X71561748Y-107479202D01*
X71692756Y-107518943D01*
X71794865Y-107529000D01*
X71794866Y-107529000D01*
X71829000Y-107532362D01*
X71863135Y-107529000D01*
X72084000Y-107529000D01*
X72084000Y-107549865D01*
X72080638Y-107584000D01*
X72094057Y-107720244D01*
X72133798Y-107851252D01*
X72198333Y-107971989D01*
X72285183Y-108077817D01*
X72391011Y-108164667D01*
X72511748Y-108229202D01*
X72642756Y-108268943D01*
X72744865Y-108279000D01*
X72744866Y-108279000D01*
X72779000Y-108282362D01*
X72813135Y-108279000D01*
X86444865Y-108279000D01*
X86479000Y-108282362D01*
X86513134Y-108279000D01*
X86513135Y-108279000D01*
X86615244Y-108268943D01*
X86746252Y-108229202D01*
X86866989Y-108164667D01*
X86972817Y-108077817D01*
X87059667Y-107971989D01*
X87124202Y-107851252D01*
X87163943Y-107720244D01*
X87177362Y-107584000D01*
X87174000Y-107549865D01*
X87174000Y-107529000D01*
X87394865Y-107529000D01*
X87429000Y-107532362D01*
X87463134Y-107529000D01*
X87463135Y-107529000D01*
X87565244Y-107518943D01*
X87696252Y-107479202D01*
X87816989Y-107414667D01*
X87922817Y-107327817D01*
X88009667Y-107221989D01*
X88074202Y-107101252D01*
X88113943Y-106970244D01*
X88127362Y-106834000D01*
X88124000Y-106799865D01*
X88124000Y-94368134D01*
X88127362Y-94334000D01*
X88113943Y-94197756D01*
X88074202Y-94066748D01*
X88009667Y-93946011D01*
X87922817Y-93840183D01*
X87816989Y-93753333D01*
X87696252Y-93688798D01*
X87565244Y-93649057D01*
X87463135Y-93639000D01*
X87429000Y-93635638D01*
X87394866Y-93639000D01*
X87174000Y-93639000D01*
X87174000Y-93618135D01*
X87177362Y-93584000D01*
X87163943Y-93447756D01*
X87124202Y-93316748D01*
X87059667Y-93196011D01*
X86972817Y-93090183D01*
X86866989Y-93003333D01*
X86746252Y-92938798D01*
X86615244Y-92899057D01*
X86513135Y-92889000D01*
X86479000Y-92885638D01*
X86444866Y-92889000D01*
X72813134Y-92889000D01*
X72779000Y-92885638D01*
X72744865Y-92889000D01*
X72642756Y-92899057D01*
X72511748Y-92938798D01*
X72391011Y-93003333D01*
X72285183Y-93090183D01*
X72198333Y-93196011D01*
X72133798Y-93316748D01*
X72094057Y-93447756D01*
X72080638Y-93584000D01*
X72084000Y-93618135D01*
X72084000Y-93639000D01*
X71863134Y-93639000D01*
X71829000Y-93635638D01*
X71794865Y-93639000D01*
X71692756Y-93649057D01*
X71561748Y-93688798D01*
X71441011Y-93753333D01*
X71335183Y-93840183D01*
X71248333Y-93946011D01*
X71183798Y-94066748D01*
X71144057Y-94197756D01*
X71130638Y-94334000D01*
X31278650Y-94334000D01*
X31275632Y-80324000D01*
X33030638Y-80324000D01*
X33034000Y-80358134D01*
X33034001Y-92789855D01*
X33030638Y-92824000D01*
X33044057Y-92960244D01*
X33083798Y-93091252D01*
X33148333Y-93211989D01*
X33235183Y-93317817D01*
X33341011Y-93404667D01*
X33461748Y-93469202D01*
X33592756Y-93508943D01*
X33694865Y-93519000D01*
X33694866Y-93519000D01*
X33729000Y-93522362D01*
X33763135Y-93519000D01*
X33984000Y-93519000D01*
X33984000Y-93539865D01*
X33980638Y-93574000D01*
X33994057Y-93710244D01*
X34033798Y-93841252D01*
X34098333Y-93961989D01*
X34185183Y-94067817D01*
X34291011Y-94154667D01*
X34411748Y-94219202D01*
X34542756Y-94258943D01*
X34644865Y-94269000D01*
X34644866Y-94269000D01*
X34679000Y-94272362D01*
X34713135Y-94269000D01*
X48344865Y-94269000D01*
X48379000Y-94272362D01*
X48413134Y-94269000D01*
X48413135Y-94269000D01*
X48515244Y-94258943D01*
X48646252Y-94219202D01*
X48766989Y-94154667D01*
X48872817Y-94067817D01*
X48959667Y-93961989D01*
X49024202Y-93841252D01*
X49063943Y-93710244D01*
X49077362Y-93574000D01*
X49074000Y-93539865D01*
X49074000Y-93519000D01*
X49294865Y-93519000D01*
X49329000Y-93522362D01*
X49363134Y-93519000D01*
X49363135Y-93519000D01*
X49465244Y-93508943D01*
X49596252Y-93469202D01*
X49716989Y-93404667D01*
X49822817Y-93317817D01*
X49909667Y-93211989D01*
X49974202Y-93091252D01*
X50013943Y-92960244D01*
X50027362Y-92824000D01*
X50024000Y-92789865D01*
X50024000Y-91794000D01*
X90180638Y-91794000D01*
X90184000Y-91828134D01*
X90184001Y-104259855D01*
X90180638Y-104294000D01*
X90194057Y-104430244D01*
X90233798Y-104561252D01*
X90298333Y-104681989D01*
X90385183Y-104787817D01*
X90491011Y-104874667D01*
X90611748Y-104939202D01*
X90742756Y-104978943D01*
X90844865Y-104989000D01*
X90844866Y-104989000D01*
X90879000Y-104992362D01*
X90913135Y-104989000D01*
X91134000Y-104989000D01*
X91134000Y-105009865D01*
X91130638Y-105044000D01*
X91144057Y-105180244D01*
X91183798Y-105311252D01*
X91248333Y-105431989D01*
X91335183Y-105537817D01*
X91441011Y-105624667D01*
X91561748Y-105689202D01*
X91692756Y-105728943D01*
X91794865Y-105739000D01*
X91794866Y-105739000D01*
X91829000Y-105742362D01*
X91863135Y-105739000D01*
X105494865Y-105739000D01*
X105529000Y-105742362D01*
X105563134Y-105739000D01*
X105563135Y-105739000D01*
X105665244Y-105728943D01*
X105796252Y-105689202D01*
X105916989Y-105624667D01*
X106022817Y-105537817D01*
X106109667Y-105431989D01*
X106174202Y-105311252D01*
X106213943Y-105180244D01*
X106227362Y-105044000D01*
X106224000Y-105009865D01*
X106224000Y-104989000D01*
X106444865Y-104989000D01*
X106479000Y-104992362D01*
X106513134Y-104989000D01*
X106513135Y-104989000D01*
X106615244Y-104978943D01*
X106746252Y-104939202D01*
X106866989Y-104874667D01*
X106972817Y-104787817D01*
X107059667Y-104681989D01*
X107124202Y-104561252D01*
X107163943Y-104430244D01*
X107177362Y-104294000D01*
X107174000Y-104259865D01*
X107174000Y-93555117D01*
X144579000Y-93555117D01*
X144579000Y-93896883D01*
X144645675Y-94232081D01*
X144776463Y-94547831D01*
X144966337Y-94831998D01*
X145208002Y-95073663D01*
X145492169Y-95263537D01*
X145807919Y-95394325D01*
X146143117Y-95461000D01*
X146484883Y-95461000D01*
X146820081Y-95394325D01*
X147135831Y-95263537D01*
X147419998Y-95073663D01*
X147661663Y-94831998D01*
X147851537Y-94547831D01*
X147982325Y-94232081D01*
X148049000Y-93896883D01*
X148049000Y-93555117D01*
X147982325Y-93219919D01*
X147851537Y-92904169D01*
X147661663Y-92620002D01*
X147419998Y-92378337D01*
X147135831Y-92188463D01*
X146820081Y-92057675D01*
X146484883Y-91991000D01*
X146143117Y-91991000D01*
X145807919Y-92057675D01*
X145492169Y-92188463D01*
X145208002Y-92378337D01*
X144966337Y-92620002D01*
X144776463Y-92904169D01*
X144645675Y-93219919D01*
X144579000Y-93555117D01*
X107174000Y-93555117D01*
X107174000Y-91828134D01*
X107177362Y-91794000D01*
X107163943Y-91657756D01*
X107124202Y-91526748D01*
X107059667Y-91406011D01*
X106972817Y-91300183D01*
X106866989Y-91213333D01*
X106746252Y-91148798D01*
X106615244Y-91109057D01*
X106513135Y-91099000D01*
X106479000Y-91095638D01*
X106444866Y-91099000D01*
X106224000Y-91099000D01*
X106224000Y-91078135D01*
X106227362Y-91044000D01*
X106213943Y-90907756D01*
X106174202Y-90776748D01*
X106109667Y-90656011D01*
X106022817Y-90550183D01*
X105916989Y-90463333D01*
X105796252Y-90398798D01*
X105665244Y-90359057D01*
X105563135Y-90349000D01*
X105529000Y-90345638D01*
X105494866Y-90349000D01*
X91863134Y-90349000D01*
X91829000Y-90345638D01*
X91794865Y-90349000D01*
X91692756Y-90359057D01*
X91561748Y-90398798D01*
X91441011Y-90463333D01*
X91335183Y-90550183D01*
X91248333Y-90656011D01*
X91183798Y-90776748D01*
X91144057Y-90907756D01*
X91130638Y-91044000D01*
X91134000Y-91078135D01*
X91134000Y-91099000D01*
X90913134Y-91099000D01*
X90879000Y-91095638D01*
X90844865Y-91099000D01*
X90742756Y-91109057D01*
X90611748Y-91148798D01*
X90491011Y-91213333D01*
X90385183Y-91300183D01*
X90298333Y-91406011D01*
X90233798Y-91526748D01*
X90194057Y-91657756D01*
X90180638Y-91794000D01*
X50024000Y-91794000D01*
X50024000Y-80358134D01*
X50027362Y-80324000D01*
X50013943Y-80187756D01*
X49974202Y-80056748D01*
X49909667Y-79936011D01*
X49822817Y-79830183D01*
X49716989Y-79743333D01*
X49596252Y-79678798D01*
X49465244Y-79639057D01*
X49363135Y-79629000D01*
X49329000Y-79625638D01*
X49294866Y-79629000D01*
X49074000Y-79629000D01*
X49074000Y-79608135D01*
X49077362Y-79574000D01*
X49066204Y-79460707D01*
X49063943Y-79437756D01*
X49024202Y-79306748D01*
X48959667Y-79186011D01*
X48872817Y-79080183D01*
X48766989Y-78993333D01*
X48646252Y-78928798D01*
X48515244Y-78889057D01*
X48379000Y-78875638D01*
X48344866Y-78879000D01*
X34713134Y-78879000D01*
X34679000Y-78875638D01*
X34644865Y-78879000D01*
X34542756Y-78889057D01*
X34411748Y-78928798D01*
X34291011Y-78993333D01*
X34185183Y-79080183D01*
X34098333Y-79186011D01*
X34033798Y-79306748D01*
X33994057Y-79437756D01*
X33980638Y-79574000D01*
X33984000Y-79608135D01*
X33984000Y-79629000D01*
X33763134Y-79629000D01*
X33729000Y-79625638D01*
X33694865Y-79629000D01*
X33592756Y-79639057D01*
X33461748Y-79678798D01*
X33341011Y-79743333D01*
X33235183Y-79830183D01*
X33148333Y-79936011D01*
X33083798Y-80056748D01*
X33044057Y-80187756D01*
X33030638Y-80324000D01*
X31275632Y-80324000D01*
X31275094Y-77824000D01*
X52080638Y-77824000D01*
X52084000Y-77858134D01*
X52084001Y-90289855D01*
X52080638Y-90324000D01*
X52094057Y-90460244D01*
X52133798Y-90591252D01*
X52198333Y-90711989D01*
X52285183Y-90817817D01*
X52391011Y-90904667D01*
X52511748Y-90969202D01*
X52642756Y-91008943D01*
X52744865Y-91019000D01*
X52744866Y-91019000D01*
X52779000Y-91022362D01*
X52813135Y-91019000D01*
X53034000Y-91019000D01*
X53034000Y-91039865D01*
X53030638Y-91074000D01*
X53044057Y-91210244D01*
X53083798Y-91341252D01*
X53148333Y-91461989D01*
X53235183Y-91567817D01*
X53341011Y-91654667D01*
X53461748Y-91719202D01*
X53592756Y-91758943D01*
X53694865Y-91769000D01*
X53694866Y-91769000D01*
X53729000Y-91772362D01*
X53763135Y-91769000D01*
X67394865Y-91769000D01*
X67429000Y-91772362D01*
X67463134Y-91769000D01*
X67463135Y-91769000D01*
X67565244Y-91758943D01*
X67696252Y-91719202D01*
X67816989Y-91654667D01*
X67922817Y-91567817D01*
X68009667Y-91461989D01*
X68074202Y-91341252D01*
X68113943Y-91210244D01*
X68127362Y-91074000D01*
X68124000Y-91039865D01*
X68124000Y-91019000D01*
X68344865Y-91019000D01*
X68379000Y-91022362D01*
X68413134Y-91019000D01*
X68413135Y-91019000D01*
X68515244Y-91008943D01*
X68646252Y-90969202D01*
X68766989Y-90904667D01*
X68872817Y-90817817D01*
X68959667Y-90711989D01*
X69024202Y-90591252D01*
X69063943Y-90460244D01*
X69077362Y-90324000D01*
X69074000Y-90289865D01*
X69074000Y-77858134D01*
X69077362Y-77824000D01*
X69063943Y-77687756D01*
X69024202Y-77556748D01*
X68959667Y-77436011D01*
X68872817Y-77330183D01*
X68766989Y-77243333D01*
X68646252Y-77178798D01*
X68515244Y-77139057D01*
X68413135Y-77129000D01*
X68379000Y-77125638D01*
X68344866Y-77129000D01*
X68124000Y-77129000D01*
X68124000Y-77108135D01*
X68127362Y-77074000D01*
X68122223Y-77021818D01*
X68113943Y-76937756D01*
X68074202Y-76806748D01*
X68009667Y-76686011D01*
X67922817Y-76580183D01*
X67816989Y-76493333D01*
X67696252Y-76428798D01*
X67565244Y-76389057D01*
X67510225Y-76383638D01*
X67463135Y-76379000D01*
X67429000Y-76375638D01*
X67394866Y-76379000D01*
X53763134Y-76379000D01*
X53729000Y-76375638D01*
X53694865Y-76379000D01*
X53592756Y-76389057D01*
X53461748Y-76428798D01*
X53341011Y-76493333D01*
X53235183Y-76580183D01*
X53148333Y-76686011D01*
X53083798Y-76806748D01*
X53044057Y-76937756D01*
X53030638Y-77074000D01*
X53034000Y-77108135D01*
X53034000Y-77129000D01*
X52813134Y-77129000D01*
X52779000Y-77125638D01*
X52744865Y-77129000D01*
X52642756Y-77139057D01*
X52511748Y-77178798D01*
X52391011Y-77243333D01*
X52285183Y-77330183D01*
X52198333Y-77436011D01*
X52133798Y-77556748D01*
X52094057Y-77687756D01*
X52080638Y-77824000D01*
X31275094Y-77824000D01*
X31274547Y-75284000D01*
X71130638Y-75284000D01*
X71134000Y-75318134D01*
X71134001Y-87749855D01*
X71130638Y-87784000D01*
X71144057Y-87920244D01*
X71183798Y-88051252D01*
X71248333Y-88171989D01*
X71335183Y-88277817D01*
X71441011Y-88364667D01*
X71561748Y-88429202D01*
X71692756Y-88468943D01*
X71794865Y-88479000D01*
X71794866Y-88479000D01*
X71829000Y-88482362D01*
X71863135Y-88479000D01*
X72084000Y-88479000D01*
X72084000Y-88499865D01*
X72080638Y-88534000D01*
X72094057Y-88670244D01*
X72133798Y-88801252D01*
X72198333Y-88921989D01*
X72285183Y-89027817D01*
X72391011Y-89114667D01*
X72511748Y-89179202D01*
X72642756Y-89218943D01*
X72744865Y-89229000D01*
X72744866Y-89229000D01*
X72779000Y-89232362D01*
X72813135Y-89229000D01*
X86444865Y-89229000D01*
X86479000Y-89232362D01*
X86513134Y-89229000D01*
X86513135Y-89229000D01*
X86615244Y-89218943D01*
X86746252Y-89179202D01*
X86866989Y-89114667D01*
X86972817Y-89027817D01*
X87059667Y-88921989D01*
X87124202Y-88801252D01*
X87163943Y-88670244D01*
X87177362Y-88534000D01*
X87174000Y-88499865D01*
X87174000Y-88479000D01*
X87394865Y-88479000D01*
X87429000Y-88482362D01*
X87463134Y-88479000D01*
X87463135Y-88479000D01*
X87565244Y-88468943D01*
X87696252Y-88429202D01*
X87816989Y-88364667D01*
X87837155Y-88348117D01*
X96944000Y-88348117D01*
X96944000Y-88689883D01*
X97010675Y-89025081D01*
X97141463Y-89340831D01*
X97331337Y-89624998D01*
X97573002Y-89866663D01*
X97857169Y-90056537D01*
X98172919Y-90187325D01*
X98508117Y-90254000D01*
X98849883Y-90254000D01*
X99185081Y-90187325D01*
X99500831Y-90056537D01*
X99784998Y-89866663D01*
X100026663Y-89624998D01*
X100216537Y-89340831D01*
X100347325Y-89025081D01*
X100414000Y-88689883D01*
X100414000Y-88348117D01*
X100347325Y-88012919D01*
X100216537Y-87697169D01*
X100026663Y-87413002D01*
X99784998Y-87171337D01*
X99500831Y-86981463D01*
X99185081Y-86850675D01*
X98849883Y-86784000D01*
X98508117Y-86784000D01*
X98172919Y-86850675D01*
X97857169Y-86981463D01*
X97573002Y-87171337D01*
X97331337Y-87413002D01*
X97141463Y-87697169D01*
X97010675Y-88012919D01*
X96944000Y-88348117D01*
X87837155Y-88348117D01*
X87922817Y-88277817D01*
X88009667Y-88171989D01*
X88074202Y-88051252D01*
X88113943Y-87920244D01*
X88127362Y-87784000D01*
X88124000Y-87749865D01*
X88124000Y-75318134D01*
X88127362Y-75284000D01*
X88113943Y-75147756D01*
X88074202Y-75016748D01*
X88009667Y-74896011D01*
X87922817Y-74790183D01*
X87816989Y-74703333D01*
X87696252Y-74638798D01*
X87565244Y-74599057D01*
X87463135Y-74589000D01*
X87429000Y-74585638D01*
X87394866Y-74589000D01*
X87174000Y-74589000D01*
X87174000Y-74568135D01*
X87177362Y-74534000D01*
X87163943Y-74397756D01*
X87124202Y-74266748D01*
X87059667Y-74146011D01*
X86972817Y-74040183D01*
X86866989Y-73953333D01*
X86746252Y-73888798D01*
X86615244Y-73849057D01*
X86513135Y-73839000D01*
X86479000Y-73835638D01*
X86444866Y-73839000D01*
X72813134Y-73839000D01*
X72779000Y-73835638D01*
X72744865Y-73839000D01*
X72642756Y-73849057D01*
X72511748Y-73888798D01*
X72391011Y-73953333D01*
X72285183Y-74040183D01*
X72198333Y-74146011D01*
X72133798Y-74266748D01*
X72094057Y-74397756D01*
X72080638Y-74534000D01*
X72084000Y-74568135D01*
X72084000Y-74589000D01*
X71863134Y-74589000D01*
X71829000Y-74585638D01*
X71794865Y-74589000D01*
X71692756Y-74599057D01*
X71561748Y-74638798D01*
X71441011Y-74703333D01*
X71335183Y-74790183D01*
X71248333Y-74896011D01*
X71183798Y-75016748D01*
X71144057Y-75147756D01*
X71130638Y-75284000D01*
X31274547Y-75284000D01*
X31271528Y-61274000D01*
X33030638Y-61274000D01*
X33034000Y-61308134D01*
X33034001Y-73739855D01*
X33030638Y-73774000D01*
X33044057Y-73910244D01*
X33083798Y-74041252D01*
X33148333Y-74161989D01*
X33235183Y-74267817D01*
X33341011Y-74354667D01*
X33461748Y-74419202D01*
X33592756Y-74458943D01*
X33694865Y-74469000D01*
X33694866Y-74469000D01*
X33729000Y-74472362D01*
X33763135Y-74469000D01*
X33984000Y-74469000D01*
X33984000Y-74489865D01*
X33980638Y-74524000D01*
X33994057Y-74660244D01*
X34033798Y-74791252D01*
X34098333Y-74911989D01*
X34185183Y-75017817D01*
X34291011Y-75104667D01*
X34411748Y-75169202D01*
X34542756Y-75208943D01*
X34644865Y-75219000D01*
X34644866Y-75219000D01*
X34679000Y-75222362D01*
X34713135Y-75219000D01*
X48344865Y-75219000D01*
X48379000Y-75222362D01*
X48413134Y-75219000D01*
X48413135Y-75219000D01*
X48515244Y-75208943D01*
X48646252Y-75169202D01*
X48766989Y-75104667D01*
X48872817Y-75017817D01*
X48959667Y-74911989D01*
X49024202Y-74791252D01*
X49063943Y-74660244D01*
X49077362Y-74524000D01*
X49074000Y-74489865D01*
X49074000Y-74469000D01*
X49294865Y-74469000D01*
X49329000Y-74472362D01*
X49363134Y-74469000D01*
X49363135Y-74469000D01*
X49465244Y-74458943D01*
X49596252Y-74419202D01*
X49716989Y-74354667D01*
X49822817Y-74267817D01*
X49909667Y-74161989D01*
X49974202Y-74041252D01*
X50013943Y-73910244D01*
X50027362Y-73774000D01*
X50024000Y-73739865D01*
X50024000Y-72744000D01*
X90180638Y-72744000D01*
X90184000Y-72778134D01*
X90184001Y-85209855D01*
X90180638Y-85244000D01*
X90194057Y-85380244D01*
X90233798Y-85511252D01*
X90298333Y-85631989D01*
X90385183Y-85737817D01*
X90491011Y-85824667D01*
X90611748Y-85889202D01*
X90742756Y-85928943D01*
X90844865Y-85939000D01*
X90844866Y-85939000D01*
X90879000Y-85942362D01*
X90913135Y-85939000D01*
X91134000Y-85939000D01*
X91134000Y-85959865D01*
X91130638Y-85994000D01*
X91144057Y-86130244D01*
X91183798Y-86261252D01*
X91248333Y-86381989D01*
X91335183Y-86487817D01*
X91441011Y-86574667D01*
X91561748Y-86639202D01*
X91692756Y-86678943D01*
X91794865Y-86689000D01*
X91794866Y-86689000D01*
X91829000Y-86692362D01*
X91863135Y-86689000D01*
X105494865Y-86689000D01*
X105529000Y-86692362D01*
X105563134Y-86689000D01*
X105563135Y-86689000D01*
X105665244Y-86678943D01*
X105796252Y-86639202D01*
X105916989Y-86574667D01*
X106022817Y-86487817D01*
X106109667Y-86381989D01*
X106174202Y-86261252D01*
X106213943Y-86130244D01*
X106227362Y-85994000D01*
X106224000Y-85959865D01*
X106224000Y-85939000D01*
X106444865Y-85939000D01*
X106479000Y-85942362D01*
X106513134Y-85939000D01*
X106513135Y-85939000D01*
X106615244Y-85928943D01*
X106746252Y-85889202D01*
X106866989Y-85824667D01*
X106972817Y-85737817D01*
X107059667Y-85631989D01*
X107124202Y-85511252D01*
X107163943Y-85380244D01*
X107177362Y-85244000D01*
X107174000Y-85209865D01*
X107174000Y-75284000D01*
X109230638Y-75284000D01*
X109234000Y-75318134D01*
X109234001Y-87749855D01*
X109230638Y-87784000D01*
X109244057Y-87920244D01*
X109283798Y-88051252D01*
X109348333Y-88171989D01*
X109435183Y-88277817D01*
X109541011Y-88364667D01*
X109661748Y-88429202D01*
X109792756Y-88468943D01*
X109894865Y-88479000D01*
X109894866Y-88479000D01*
X109929000Y-88482362D01*
X109963135Y-88479000D01*
X110184000Y-88479000D01*
X110184000Y-88499865D01*
X110180638Y-88534000D01*
X110194057Y-88670244D01*
X110233798Y-88801252D01*
X110298333Y-88921989D01*
X110385183Y-89027817D01*
X110491011Y-89114667D01*
X110611748Y-89179202D01*
X110742756Y-89218943D01*
X110844865Y-89229000D01*
X110844866Y-89229000D01*
X110879000Y-89232362D01*
X110913135Y-89229000D01*
X124544865Y-89229000D01*
X124579000Y-89232362D01*
X124613134Y-89229000D01*
X124613135Y-89229000D01*
X124715244Y-89218943D01*
X124846252Y-89179202D01*
X124966989Y-89114667D01*
X125072817Y-89027817D01*
X125159667Y-88921989D01*
X125224202Y-88801252D01*
X125263943Y-88670244D01*
X125277362Y-88534000D01*
X125274000Y-88499865D01*
X125274000Y-88479000D01*
X125494865Y-88479000D01*
X125529000Y-88482362D01*
X125563134Y-88479000D01*
X125563135Y-88479000D01*
X125665244Y-88468943D01*
X125796252Y-88429202D01*
X125916989Y-88364667D01*
X126022817Y-88277817D01*
X126109667Y-88171989D01*
X126174202Y-88051252D01*
X126213943Y-87920244D01*
X126227362Y-87784000D01*
X126224000Y-87749865D01*
X126224000Y-77824000D01*
X128280638Y-77824000D01*
X128284000Y-77858134D01*
X128284001Y-90289855D01*
X128280638Y-90324000D01*
X128294057Y-90460244D01*
X128333798Y-90591252D01*
X128398333Y-90711989D01*
X128485183Y-90817817D01*
X128591011Y-90904667D01*
X128711748Y-90969202D01*
X128842756Y-91008943D01*
X128944865Y-91019000D01*
X128944866Y-91019000D01*
X128979000Y-91022362D01*
X129013135Y-91019000D01*
X129234000Y-91019000D01*
X129234000Y-91039865D01*
X129230638Y-91074000D01*
X129244057Y-91210244D01*
X129283798Y-91341252D01*
X129348333Y-91461989D01*
X129435183Y-91567817D01*
X129541011Y-91654667D01*
X129661748Y-91719202D01*
X129792756Y-91758943D01*
X129894865Y-91769000D01*
X129894866Y-91769000D01*
X129929000Y-91772362D01*
X129963135Y-91769000D01*
X143594865Y-91769000D01*
X143629000Y-91772362D01*
X143663134Y-91769000D01*
X143663135Y-91769000D01*
X143765244Y-91758943D01*
X143896252Y-91719202D01*
X144016989Y-91654667D01*
X144122817Y-91567817D01*
X144209667Y-91461989D01*
X144274202Y-91341252D01*
X144313943Y-91210244D01*
X144327362Y-91074000D01*
X144324000Y-91039865D01*
X144324000Y-91019000D01*
X144544865Y-91019000D01*
X144579000Y-91022362D01*
X144613134Y-91019000D01*
X144613135Y-91019000D01*
X144715244Y-91008943D01*
X144846252Y-90969202D01*
X144966989Y-90904667D01*
X145072817Y-90817817D01*
X145159667Y-90711989D01*
X145224202Y-90591252D01*
X145263943Y-90460244D01*
X145277362Y-90324000D01*
X145274000Y-90289865D01*
X145274000Y-77858134D01*
X145277362Y-77824000D01*
X145263943Y-77687756D01*
X145224202Y-77556748D01*
X145159667Y-77436011D01*
X145072817Y-77330183D01*
X144966989Y-77243333D01*
X144846252Y-77178798D01*
X144715244Y-77139057D01*
X144613135Y-77129000D01*
X144579000Y-77125638D01*
X144544866Y-77129000D01*
X144324000Y-77129000D01*
X144324000Y-77108135D01*
X144327362Y-77074000D01*
X144322223Y-77021818D01*
X144313943Y-76937756D01*
X144274202Y-76806748D01*
X144209667Y-76686011D01*
X144122817Y-76580183D01*
X144016989Y-76493333D01*
X143896252Y-76428798D01*
X143765244Y-76389057D01*
X143710225Y-76383638D01*
X143663135Y-76379000D01*
X143629000Y-76375638D01*
X143594866Y-76379000D01*
X129963134Y-76379000D01*
X129929000Y-76375638D01*
X129894865Y-76379000D01*
X129792756Y-76389057D01*
X129661748Y-76428798D01*
X129541011Y-76493333D01*
X129435183Y-76580183D01*
X129348333Y-76686011D01*
X129283798Y-76806748D01*
X129244057Y-76937756D01*
X129230638Y-77074000D01*
X129234000Y-77108135D01*
X129234000Y-77129000D01*
X129013134Y-77129000D01*
X128979000Y-77125638D01*
X128944865Y-77129000D01*
X128842756Y-77139057D01*
X128711748Y-77178798D01*
X128591011Y-77243333D01*
X128485183Y-77330183D01*
X128398333Y-77436011D01*
X128333798Y-77556748D01*
X128294057Y-77687756D01*
X128280638Y-77824000D01*
X126224000Y-77824000D01*
X126224000Y-75318134D01*
X126227362Y-75284000D01*
X126213943Y-75147756D01*
X126174202Y-75016748D01*
X126109667Y-74896011D01*
X126022817Y-74790183D01*
X125916989Y-74703333D01*
X125796252Y-74638798D01*
X125665244Y-74599057D01*
X125563135Y-74589000D01*
X125529000Y-74585638D01*
X125494866Y-74589000D01*
X125274000Y-74589000D01*
X125274000Y-74568135D01*
X125277362Y-74534000D01*
X125263943Y-74397756D01*
X125224202Y-74266748D01*
X125159667Y-74146011D01*
X125072817Y-74040183D01*
X124966989Y-73953333D01*
X124846252Y-73888798D01*
X124715244Y-73849057D01*
X124613135Y-73839000D01*
X124579000Y-73835638D01*
X124544866Y-73839000D01*
X110913134Y-73839000D01*
X110879000Y-73835638D01*
X110844865Y-73839000D01*
X110742756Y-73849057D01*
X110611748Y-73888798D01*
X110491011Y-73953333D01*
X110385183Y-74040183D01*
X110298333Y-74146011D01*
X110233798Y-74266748D01*
X110194057Y-74397756D01*
X110180638Y-74534000D01*
X110184000Y-74568135D01*
X110184000Y-74589000D01*
X109963134Y-74589000D01*
X109929000Y-74585638D01*
X109894865Y-74589000D01*
X109792756Y-74599057D01*
X109661748Y-74638798D01*
X109541011Y-74703333D01*
X109435183Y-74790183D01*
X109348333Y-74896011D01*
X109283798Y-75016748D01*
X109244057Y-75147756D01*
X109230638Y-75284000D01*
X107174000Y-75284000D01*
X107174000Y-72778134D01*
X107177362Y-72744000D01*
X107163943Y-72607756D01*
X107124202Y-72476748D01*
X107059667Y-72356011D01*
X106972817Y-72250183D01*
X106866989Y-72163333D01*
X106746252Y-72098798D01*
X106615244Y-72059057D01*
X106513135Y-72049000D01*
X106479000Y-72045638D01*
X106444866Y-72049000D01*
X106224000Y-72049000D01*
X106224000Y-72028135D01*
X106227362Y-71994000D01*
X106213943Y-71857756D01*
X106174202Y-71726748D01*
X106109667Y-71606011D01*
X106022817Y-71500183D01*
X105916989Y-71413333D01*
X105796252Y-71348798D01*
X105665244Y-71309057D01*
X105563135Y-71299000D01*
X105529000Y-71295638D01*
X105494866Y-71299000D01*
X91863134Y-71299000D01*
X91829000Y-71295638D01*
X91794865Y-71299000D01*
X91692756Y-71309057D01*
X91561748Y-71348798D01*
X91441011Y-71413333D01*
X91335183Y-71500183D01*
X91248333Y-71606011D01*
X91183798Y-71726748D01*
X91144057Y-71857756D01*
X91130638Y-71994000D01*
X91134000Y-72028135D01*
X91134000Y-72049000D01*
X90913134Y-72049000D01*
X90879000Y-72045638D01*
X90844865Y-72049000D01*
X90742756Y-72059057D01*
X90611748Y-72098798D01*
X90491011Y-72163333D01*
X90385183Y-72250183D01*
X90298333Y-72356011D01*
X90233798Y-72476748D01*
X90194057Y-72607756D01*
X90180638Y-72744000D01*
X50024000Y-72744000D01*
X50024000Y-61308134D01*
X50027362Y-61274000D01*
X50013943Y-61137756D01*
X49974202Y-61006748D01*
X49909667Y-60886011D01*
X49822817Y-60780183D01*
X49716989Y-60693333D01*
X49596252Y-60628798D01*
X49465244Y-60589057D01*
X49363135Y-60579000D01*
X49329000Y-60575638D01*
X49294866Y-60579000D01*
X49074000Y-60579000D01*
X49074000Y-60558135D01*
X49077362Y-60524000D01*
X49063943Y-60387756D01*
X49024202Y-60256748D01*
X48959667Y-60136011D01*
X48872817Y-60030183D01*
X48766989Y-59943333D01*
X48646252Y-59878798D01*
X48515244Y-59839057D01*
X48413135Y-59829000D01*
X48379000Y-59825638D01*
X48344866Y-59829000D01*
X34713134Y-59829000D01*
X34679000Y-59825638D01*
X34644865Y-59829000D01*
X34542756Y-59839057D01*
X34411748Y-59878798D01*
X34291011Y-59943333D01*
X34185183Y-60030183D01*
X34098333Y-60136011D01*
X34033798Y-60256748D01*
X33994057Y-60387756D01*
X33980638Y-60524000D01*
X33984000Y-60558135D01*
X33984000Y-60579000D01*
X33763134Y-60579000D01*
X33729000Y-60575638D01*
X33694865Y-60579000D01*
X33592756Y-60589057D01*
X33461748Y-60628798D01*
X33341011Y-60693333D01*
X33235183Y-60780183D01*
X33148333Y-60886011D01*
X33083798Y-61006748D01*
X33044057Y-61137756D01*
X33030638Y-61274000D01*
X31271528Y-61274000D01*
X31270786Y-57828117D01*
X49319000Y-57828117D01*
X49319000Y-58169883D01*
X49385675Y-58505081D01*
X49516463Y-58820831D01*
X49706337Y-59104998D01*
X49948002Y-59346663D01*
X50232169Y-59536537D01*
X50547919Y-59667325D01*
X50883117Y-59734000D01*
X51224883Y-59734000D01*
X51560081Y-59667325D01*
X51875831Y-59536537D01*
X52084000Y-59397443D01*
X52084001Y-71239855D01*
X52080638Y-71274000D01*
X52094057Y-71410244D01*
X52133798Y-71541252D01*
X52198333Y-71661989D01*
X52285183Y-71767817D01*
X52391011Y-71854667D01*
X52511748Y-71919202D01*
X52642756Y-71958943D01*
X52744865Y-71969000D01*
X52744866Y-71969000D01*
X52779000Y-71972362D01*
X52813135Y-71969000D01*
X53034000Y-71969000D01*
X53034000Y-71989865D01*
X53030638Y-72024000D01*
X53044057Y-72160244D01*
X53083798Y-72291252D01*
X53148333Y-72411989D01*
X53235183Y-72517817D01*
X53341011Y-72604667D01*
X53461748Y-72669202D01*
X53592756Y-72708943D01*
X53694865Y-72719000D01*
X53694866Y-72719000D01*
X53729000Y-72722362D01*
X53763135Y-72719000D01*
X67394865Y-72719000D01*
X67429000Y-72722362D01*
X67463134Y-72719000D01*
X67463135Y-72719000D01*
X67565244Y-72708943D01*
X67696252Y-72669202D01*
X67816989Y-72604667D01*
X67922817Y-72517817D01*
X68009667Y-72411989D01*
X68074202Y-72291252D01*
X68113943Y-72160244D01*
X68127362Y-72024000D01*
X68124000Y-71989865D01*
X68124000Y-71969000D01*
X68344865Y-71969000D01*
X68379000Y-71972362D01*
X68413134Y-71969000D01*
X68413135Y-71969000D01*
X68515244Y-71958943D01*
X68646252Y-71919202D01*
X68766989Y-71854667D01*
X68872817Y-71767817D01*
X68959667Y-71661989D01*
X69024202Y-71541252D01*
X69063943Y-71410244D01*
X69077362Y-71274000D01*
X69074000Y-71239865D01*
X69074000Y-58808134D01*
X69077362Y-58774000D01*
X69063943Y-58637756D01*
X69024202Y-58506748D01*
X68959667Y-58386011D01*
X68872817Y-58280183D01*
X68766989Y-58193333D01*
X68646252Y-58128798D01*
X68515244Y-58089057D01*
X68413135Y-58079000D01*
X68379000Y-58075638D01*
X68344866Y-58079000D01*
X68124000Y-58079000D01*
X68124000Y-58058135D01*
X68127362Y-58024000D01*
X68113943Y-57887756D01*
X68074202Y-57756748D01*
X68009667Y-57636011D01*
X67922817Y-57530183D01*
X67816989Y-57443333D01*
X67696252Y-57378798D01*
X67565244Y-57339057D01*
X67463135Y-57329000D01*
X67429000Y-57325638D01*
X67394866Y-57329000D01*
X53763134Y-57329000D01*
X53729000Y-57325638D01*
X53694865Y-57329000D01*
X53592756Y-57339057D01*
X53461748Y-57378798D01*
X53341011Y-57443333D01*
X53235183Y-57530183D01*
X53148333Y-57636011D01*
X53083798Y-57756748D01*
X53044057Y-57887756D01*
X53030638Y-58024000D01*
X53034000Y-58058135D01*
X53034000Y-58079000D01*
X52813134Y-58079000D01*
X52789000Y-58076623D01*
X52789000Y-57828117D01*
X52722325Y-57492919D01*
X52591537Y-57177169D01*
X52401663Y-56893002D01*
X52159998Y-56651337D01*
X51875831Y-56461463D01*
X51560081Y-56330675D01*
X51224883Y-56264000D01*
X50883117Y-56264000D01*
X50547919Y-56330675D01*
X50232169Y-56461463D01*
X49948002Y-56651337D01*
X49706337Y-56893002D01*
X49516463Y-57177169D01*
X49385675Y-57492919D01*
X49319000Y-57828117D01*
X31270786Y-57828117D01*
X31270443Y-56234000D01*
X71130638Y-56234000D01*
X71134000Y-56268134D01*
X71134001Y-68699855D01*
X71130638Y-68734000D01*
X71144057Y-68870244D01*
X71183798Y-69001252D01*
X71248333Y-69121989D01*
X71335183Y-69227817D01*
X71441011Y-69314667D01*
X71561748Y-69379202D01*
X71692756Y-69418943D01*
X71794865Y-69429000D01*
X71794866Y-69429000D01*
X71829000Y-69432362D01*
X71863135Y-69429000D01*
X72084000Y-69429000D01*
X72084000Y-69449865D01*
X72080638Y-69484000D01*
X72094057Y-69620244D01*
X72133798Y-69751252D01*
X72198333Y-69871989D01*
X72285183Y-69977817D01*
X72391011Y-70064667D01*
X72511748Y-70129202D01*
X72642756Y-70168943D01*
X72744865Y-70179000D01*
X72744866Y-70179000D01*
X72779000Y-70182362D01*
X72813135Y-70179000D01*
X86444865Y-70179000D01*
X86479000Y-70182362D01*
X86513134Y-70179000D01*
X86513135Y-70179000D01*
X86615244Y-70168943D01*
X86746252Y-70129202D01*
X86866989Y-70064667D01*
X86972817Y-69977817D01*
X87059667Y-69871989D01*
X87124202Y-69751252D01*
X87163943Y-69620244D01*
X87177362Y-69484000D01*
X87174000Y-69449865D01*
X87174000Y-69429000D01*
X87394865Y-69429000D01*
X87429000Y-69432362D01*
X87463134Y-69429000D01*
X87463135Y-69429000D01*
X87565244Y-69418943D01*
X87696252Y-69379202D01*
X87816989Y-69314667D01*
X87922817Y-69227817D01*
X88009667Y-69121989D01*
X88074202Y-69001252D01*
X88113943Y-68870244D01*
X88127362Y-68734000D01*
X88124000Y-68699865D01*
X88124000Y-56268134D01*
X88127362Y-56234000D01*
X88113943Y-56097756D01*
X88074202Y-55966748D01*
X88009667Y-55846011D01*
X87922817Y-55740183D01*
X87816989Y-55653333D01*
X87696252Y-55588798D01*
X87565244Y-55549057D01*
X87463135Y-55539000D01*
X87429000Y-55535638D01*
X87394866Y-55539000D01*
X87174000Y-55539000D01*
X87174000Y-55518135D01*
X87177362Y-55484000D01*
X87163943Y-55347756D01*
X87124202Y-55216748D01*
X87059667Y-55096011D01*
X86972817Y-54990183D01*
X86866989Y-54903333D01*
X86746252Y-54838798D01*
X86615244Y-54799057D01*
X86513135Y-54789000D01*
X86479000Y-54785638D01*
X86444866Y-54789000D01*
X72813134Y-54789000D01*
X72779000Y-54785638D01*
X72744865Y-54789000D01*
X72642756Y-54799057D01*
X72511748Y-54838798D01*
X72391011Y-54903333D01*
X72285183Y-54990183D01*
X72198333Y-55096011D01*
X72133798Y-55216748D01*
X72094057Y-55347756D01*
X72080638Y-55484000D01*
X72084000Y-55518135D01*
X72084000Y-55539000D01*
X71863134Y-55539000D01*
X71829000Y-55535638D01*
X71794865Y-55539000D01*
X71692756Y-55549057D01*
X71561748Y-55588798D01*
X71441011Y-55653333D01*
X71335183Y-55740183D01*
X71248333Y-55846011D01*
X71183798Y-55966748D01*
X71144057Y-56097756D01*
X71130638Y-56234000D01*
X31270443Y-56234000D01*
X31267424Y-42224000D01*
X33030638Y-42224000D01*
X33034000Y-42258134D01*
X33034001Y-54689855D01*
X33030638Y-54724000D01*
X33044057Y-54860244D01*
X33083798Y-54991252D01*
X33148333Y-55111989D01*
X33235183Y-55217817D01*
X33341011Y-55304667D01*
X33461748Y-55369202D01*
X33592756Y-55408943D01*
X33694865Y-55419000D01*
X33694866Y-55419000D01*
X33729000Y-55422362D01*
X33763135Y-55419000D01*
X33984000Y-55419000D01*
X33984000Y-55439865D01*
X33980638Y-55474000D01*
X33994057Y-55610244D01*
X34033798Y-55741252D01*
X34098333Y-55861989D01*
X34185183Y-55967817D01*
X34291011Y-56054667D01*
X34411748Y-56119202D01*
X34542756Y-56158943D01*
X34644865Y-56169000D01*
X34644866Y-56169000D01*
X34679000Y-56172362D01*
X34713135Y-56169000D01*
X48344865Y-56169000D01*
X48379000Y-56172362D01*
X48413134Y-56169000D01*
X48413135Y-56169000D01*
X48515244Y-56158943D01*
X48646252Y-56119202D01*
X48766989Y-56054667D01*
X48872817Y-55967817D01*
X48959667Y-55861989D01*
X49024202Y-55741252D01*
X49063943Y-55610244D01*
X49077362Y-55474000D01*
X49074000Y-55439865D01*
X49074000Y-55419000D01*
X49294865Y-55419000D01*
X49329000Y-55422362D01*
X49363134Y-55419000D01*
X49363135Y-55419000D01*
X49465244Y-55408943D01*
X49596252Y-55369202D01*
X49716989Y-55304667D01*
X49822817Y-55217817D01*
X49909667Y-55111989D01*
X49974202Y-54991252D01*
X50013943Y-54860244D01*
X50027362Y-54724000D01*
X50024000Y-54689865D01*
X50024000Y-53694000D01*
X90180638Y-53694000D01*
X90184000Y-53728134D01*
X90184001Y-66159855D01*
X90180638Y-66194000D01*
X90194057Y-66330244D01*
X90233798Y-66461252D01*
X90298333Y-66581989D01*
X90385183Y-66687817D01*
X90491011Y-66774667D01*
X90611748Y-66839202D01*
X90742756Y-66878943D01*
X90844865Y-66889000D01*
X90844866Y-66889000D01*
X90879000Y-66892362D01*
X90913135Y-66889000D01*
X91134000Y-66889000D01*
X91134000Y-66909865D01*
X91130638Y-66944000D01*
X91144057Y-67080244D01*
X91183798Y-67211252D01*
X91248333Y-67331989D01*
X91335183Y-67437817D01*
X91441011Y-67524667D01*
X91561748Y-67589202D01*
X91692756Y-67628943D01*
X91794865Y-67639000D01*
X91794866Y-67639000D01*
X91829000Y-67642362D01*
X91863135Y-67639000D01*
X105494865Y-67639000D01*
X105529000Y-67642362D01*
X105563134Y-67639000D01*
X105563135Y-67639000D01*
X105665244Y-67628943D01*
X105796252Y-67589202D01*
X105916989Y-67524667D01*
X106022817Y-67437817D01*
X106109667Y-67331989D01*
X106174202Y-67211252D01*
X106213943Y-67080244D01*
X106227362Y-66944000D01*
X106224000Y-66909865D01*
X106224000Y-66889000D01*
X106444865Y-66889000D01*
X106479000Y-66892362D01*
X106513134Y-66889000D01*
X106513135Y-66889000D01*
X106615244Y-66878943D01*
X106746252Y-66839202D01*
X106866989Y-66774667D01*
X106972817Y-66687817D01*
X107059667Y-66581989D01*
X107124202Y-66461252D01*
X107163943Y-66330244D01*
X107170417Y-66264509D01*
X107174000Y-66228135D01*
X107174000Y-66228134D01*
X107177362Y-66194000D01*
X107174000Y-66159865D01*
X107174000Y-56234000D01*
X109230638Y-56234000D01*
X109234000Y-56268134D01*
X109234001Y-68699855D01*
X109230638Y-68734000D01*
X109244057Y-68870244D01*
X109283798Y-69001252D01*
X109348333Y-69121989D01*
X109435183Y-69227817D01*
X109541011Y-69314667D01*
X109661748Y-69379202D01*
X109792756Y-69418943D01*
X109894865Y-69429000D01*
X109894866Y-69429000D01*
X109929000Y-69432362D01*
X109963135Y-69429000D01*
X110184000Y-69429000D01*
X110184000Y-69449865D01*
X110180638Y-69484000D01*
X110194057Y-69620244D01*
X110233798Y-69751252D01*
X110298333Y-69871989D01*
X110385183Y-69977817D01*
X110491011Y-70064667D01*
X110611748Y-70129202D01*
X110742756Y-70168943D01*
X110844865Y-70179000D01*
X110844866Y-70179000D01*
X110879000Y-70182362D01*
X110913135Y-70179000D01*
X124544865Y-70179000D01*
X124579000Y-70182362D01*
X124613134Y-70179000D01*
X124613135Y-70179000D01*
X124715244Y-70168943D01*
X124846252Y-70129202D01*
X124966989Y-70064667D01*
X125072817Y-69977817D01*
X125159667Y-69871989D01*
X125224202Y-69751252D01*
X125263943Y-69620244D01*
X125277362Y-69484000D01*
X125274000Y-69449865D01*
X125274000Y-69429000D01*
X125494865Y-69429000D01*
X125529000Y-69432362D01*
X125563134Y-69429000D01*
X125563135Y-69429000D01*
X125665244Y-69418943D01*
X125796252Y-69379202D01*
X125916989Y-69314667D01*
X126022817Y-69227817D01*
X126109667Y-69121989D01*
X126174202Y-69001252D01*
X126213943Y-68870244D01*
X126227362Y-68734000D01*
X126224000Y-68699865D01*
X126224000Y-58774000D01*
X128280638Y-58774000D01*
X128284000Y-58808134D01*
X128284001Y-71239855D01*
X128280638Y-71274000D01*
X128294057Y-71410244D01*
X128333798Y-71541252D01*
X128398333Y-71661989D01*
X128485183Y-71767817D01*
X128591011Y-71854667D01*
X128711748Y-71919202D01*
X128842756Y-71958943D01*
X128944865Y-71969000D01*
X128944866Y-71969000D01*
X128979000Y-71972362D01*
X129013135Y-71969000D01*
X129234000Y-71969000D01*
X129234000Y-71989865D01*
X129230638Y-72024000D01*
X129244057Y-72160244D01*
X129283798Y-72291252D01*
X129348333Y-72411989D01*
X129435183Y-72517817D01*
X129541011Y-72604667D01*
X129661748Y-72669202D01*
X129792756Y-72708943D01*
X129894865Y-72719000D01*
X129894866Y-72719000D01*
X129929000Y-72722362D01*
X129963135Y-72719000D01*
X143594865Y-72719000D01*
X143629000Y-72722362D01*
X143663134Y-72719000D01*
X143663135Y-72719000D01*
X143765244Y-72708943D01*
X143896252Y-72669202D01*
X144016989Y-72604667D01*
X144122817Y-72517817D01*
X144209667Y-72411989D01*
X144274202Y-72291252D01*
X144313943Y-72160244D01*
X144327362Y-72024000D01*
X144324000Y-71989865D01*
X144324000Y-71969000D01*
X144544865Y-71969000D01*
X144579000Y-71972362D01*
X144613134Y-71969000D01*
X144613135Y-71969000D01*
X144715244Y-71958943D01*
X144846252Y-71919202D01*
X144966989Y-71854667D01*
X145072817Y-71767817D01*
X145159667Y-71661989D01*
X145224202Y-71541252D01*
X145263943Y-71410244D01*
X145277362Y-71274000D01*
X145274000Y-71239865D01*
X145274000Y-58808134D01*
X145277362Y-58774000D01*
X145263943Y-58637756D01*
X145224202Y-58506748D01*
X145159667Y-58386011D01*
X145072817Y-58280183D01*
X144966989Y-58193333D01*
X144846252Y-58128798D01*
X144715244Y-58089057D01*
X144613135Y-58079000D01*
X144579000Y-58075638D01*
X144544866Y-58079000D01*
X144324000Y-58079000D01*
X144324000Y-58058135D01*
X144327362Y-58024000D01*
X144313943Y-57887756D01*
X144274202Y-57756748D01*
X144209667Y-57636011D01*
X144122817Y-57530183D01*
X144016989Y-57443333D01*
X143896252Y-57378798D01*
X143765244Y-57339057D01*
X143663135Y-57329000D01*
X143629000Y-57325638D01*
X143594866Y-57329000D01*
X129963134Y-57329000D01*
X129929000Y-57325638D01*
X129894865Y-57329000D01*
X129792756Y-57339057D01*
X129661748Y-57378798D01*
X129541011Y-57443333D01*
X129435183Y-57530183D01*
X129348333Y-57636011D01*
X129283798Y-57756748D01*
X129244057Y-57887756D01*
X129230638Y-58024000D01*
X129234000Y-58058135D01*
X129234000Y-58079000D01*
X129013134Y-58079000D01*
X128979000Y-58075638D01*
X128944865Y-58079000D01*
X128842756Y-58089057D01*
X128711748Y-58128798D01*
X128591011Y-58193333D01*
X128485183Y-58280183D01*
X128398333Y-58386011D01*
X128333798Y-58506748D01*
X128294057Y-58637756D01*
X128280638Y-58774000D01*
X126224000Y-58774000D01*
X126224000Y-56268134D01*
X126227362Y-56234000D01*
X126213943Y-56097756D01*
X126174202Y-55966748D01*
X126109667Y-55846011D01*
X126022817Y-55740183D01*
X125916989Y-55653333D01*
X125796252Y-55588798D01*
X125665244Y-55549057D01*
X125563135Y-55539000D01*
X125529000Y-55535638D01*
X125494866Y-55539000D01*
X125274000Y-55539000D01*
X125274000Y-55518135D01*
X125277362Y-55484000D01*
X125263943Y-55347756D01*
X125224202Y-55216748D01*
X125159667Y-55096011D01*
X125072817Y-54990183D01*
X124966989Y-54903333D01*
X124846252Y-54838798D01*
X124715244Y-54799057D01*
X124613135Y-54789000D01*
X124579000Y-54785638D01*
X124544866Y-54789000D01*
X110913134Y-54789000D01*
X110879000Y-54785638D01*
X110844865Y-54789000D01*
X110742756Y-54799057D01*
X110611748Y-54838798D01*
X110491011Y-54903333D01*
X110385183Y-54990183D01*
X110298333Y-55096011D01*
X110233798Y-55216748D01*
X110194057Y-55347756D01*
X110180638Y-55484000D01*
X110184000Y-55518135D01*
X110184000Y-55539000D01*
X109963134Y-55539000D01*
X109929000Y-55535638D01*
X109894865Y-55539000D01*
X109792756Y-55549057D01*
X109661748Y-55588798D01*
X109541011Y-55653333D01*
X109435183Y-55740183D01*
X109348333Y-55846011D01*
X109283798Y-55966748D01*
X109244057Y-56097756D01*
X109230638Y-56234000D01*
X107174000Y-56234000D01*
X107174000Y-53728134D01*
X107177362Y-53694000D01*
X107163943Y-53557756D01*
X107124202Y-53426748D01*
X107059667Y-53306011D01*
X106972817Y-53200183D01*
X106866989Y-53113333D01*
X106746252Y-53048798D01*
X106615244Y-53009057D01*
X106513135Y-52999000D01*
X106479000Y-52995638D01*
X106444866Y-52999000D01*
X106224000Y-52999000D01*
X106224000Y-52978135D01*
X106227362Y-52944000D01*
X106213943Y-52807756D01*
X106174202Y-52676748D01*
X106109667Y-52556011D01*
X106022817Y-52450183D01*
X105916989Y-52363333D01*
X105796252Y-52298798D01*
X105665244Y-52259057D01*
X105563135Y-52249000D01*
X105529000Y-52245638D01*
X105494866Y-52249000D01*
X91863134Y-52249000D01*
X91829000Y-52245638D01*
X91794865Y-52249000D01*
X91692756Y-52259057D01*
X91561748Y-52298798D01*
X91441011Y-52363333D01*
X91335183Y-52450183D01*
X91248333Y-52556011D01*
X91183798Y-52676748D01*
X91144057Y-52807756D01*
X91130638Y-52944000D01*
X91134000Y-52978135D01*
X91134000Y-52999000D01*
X90913134Y-52999000D01*
X90879000Y-52995638D01*
X90844865Y-52999000D01*
X90742756Y-53009057D01*
X90611748Y-53048798D01*
X90491011Y-53113333D01*
X90385183Y-53200183D01*
X90298333Y-53306011D01*
X90233798Y-53426748D01*
X90194057Y-53557756D01*
X90180638Y-53694000D01*
X50024000Y-53694000D01*
X50024000Y-42258134D01*
X50027362Y-42224000D01*
X50013943Y-42087756D01*
X49974202Y-41956748D01*
X49909667Y-41836011D01*
X49822817Y-41730183D01*
X49716989Y-41643333D01*
X49596252Y-41578798D01*
X49465244Y-41539057D01*
X49363135Y-41529000D01*
X49329000Y-41525638D01*
X49294866Y-41529000D01*
X49074000Y-41529000D01*
X49074000Y-41508135D01*
X49077362Y-41474000D01*
X49063943Y-41337756D01*
X49024202Y-41206748D01*
X48959667Y-41086011D01*
X48872817Y-40980183D01*
X48766989Y-40893333D01*
X48646252Y-40828798D01*
X48515244Y-40789057D01*
X48413135Y-40779000D01*
X48379000Y-40775638D01*
X48344866Y-40779000D01*
X34713134Y-40779000D01*
X34679000Y-40775638D01*
X34644865Y-40779000D01*
X34542756Y-40789057D01*
X34411748Y-40828798D01*
X34291011Y-40893333D01*
X34185183Y-40980183D01*
X34098333Y-41086011D01*
X34033798Y-41206748D01*
X33994057Y-41337756D01*
X33980638Y-41474000D01*
X33984000Y-41508135D01*
X33984000Y-41529000D01*
X33763134Y-41529000D01*
X33729000Y-41525638D01*
X33694865Y-41529000D01*
X33592756Y-41539057D01*
X33461748Y-41578798D01*
X33341011Y-41643333D01*
X33235183Y-41730183D01*
X33148333Y-41836011D01*
X33083798Y-41956748D01*
X33044057Y-42087756D01*
X33030638Y-42224000D01*
X31267424Y-42224000D01*
X31267007Y-40291207D01*
X31296535Y-39990056D01*
X31374643Y-39731351D01*
X31378551Y-39724000D01*
X52080638Y-39724000D01*
X52084000Y-39758134D01*
X52084001Y-52189855D01*
X52080638Y-52224000D01*
X52094057Y-52360244D01*
X52133798Y-52491252D01*
X52198333Y-52611989D01*
X52285183Y-52717817D01*
X52391011Y-52804667D01*
X52511748Y-52869202D01*
X52642756Y-52908943D01*
X52744865Y-52919000D01*
X52744866Y-52919000D01*
X52779000Y-52922362D01*
X52813135Y-52919000D01*
X53034000Y-52919000D01*
X53034000Y-52939865D01*
X53030638Y-52974000D01*
X53044057Y-53110244D01*
X53083798Y-53241252D01*
X53148333Y-53361989D01*
X53235183Y-53467817D01*
X53341011Y-53554667D01*
X53461748Y-53619202D01*
X53592756Y-53658943D01*
X53694865Y-53669000D01*
X53694866Y-53669000D01*
X53729000Y-53672362D01*
X53763135Y-53669000D01*
X67394865Y-53669000D01*
X67429000Y-53672362D01*
X67463134Y-53669000D01*
X67463135Y-53669000D01*
X67565244Y-53658943D01*
X67696252Y-53619202D01*
X67816989Y-53554667D01*
X67922817Y-53467817D01*
X68009667Y-53361989D01*
X68074202Y-53241252D01*
X68113943Y-53110244D01*
X68127362Y-52974000D01*
X68124000Y-52939865D01*
X68124000Y-52919000D01*
X68344865Y-52919000D01*
X68379000Y-52922362D01*
X68413134Y-52919000D01*
X68413135Y-52919000D01*
X68515244Y-52908943D01*
X68646252Y-52869202D01*
X68766989Y-52804667D01*
X68872817Y-52717817D01*
X68959667Y-52611989D01*
X69024202Y-52491252D01*
X69063943Y-52360244D01*
X69077362Y-52224000D01*
X69074000Y-52189865D01*
X69074000Y-39758134D01*
X69077362Y-39724000D01*
X69063943Y-39587756D01*
X69024202Y-39456748D01*
X68959667Y-39336011D01*
X68872817Y-39230183D01*
X68766989Y-39143333D01*
X68646252Y-39078798D01*
X68515244Y-39039057D01*
X68413135Y-39029000D01*
X68379000Y-39025638D01*
X68344866Y-39029000D01*
X68124000Y-39029000D01*
X68124000Y-39008135D01*
X68127362Y-38974000D01*
X68113943Y-38837756D01*
X68074202Y-38706748D01*
X68009667Y-38586011D01*
X67922817Y-38480183D01*
X67816989Y-38393333D01*
X67696252Y-38328798D01*
X67565244Y-38289057D01*
X67463135Y-38279000D01*
X67429000Y-38275638D01*
X67394866Y-38279000D01*
X53763134Y-38279000D01*
X53729000Y-38275638D01*
X53694865Y-38279000D01*
X53592756Y-38289057D01*
X53461748Y-38328798D01*
X53341011Y-38393333D01*
X53235183Y-38480183D01*
X53148333Y-38586011D01*
X53083798Y-38706748D01*
X53044057Y-38837756D01*
X53030638Y-38974000D01*
X53034000Y-39008135D01*
X53034000Y-39029000D01*
X52813134Y-39029000D01*
X52779000Y-39025638D01*
X52744865Y-39029000D01*
X52642756Y-39039057D01*
X52511748Y-39078798D01*
X52391011Y-39143333D01*
X52285183Y-39230183D01*
X52198333Y-39336011D01*
X52133798Y-39456748D01*
X52094057Y-39587756D01*
X52080638Y-39724000D01*
X31378551Y-39724000D01*
X31501510Y-39492747D01*
X31672307Y-39283330D01*
X31880529Y-39111074D01*
X32118243Y-38982543D01*
X32395017Y-38896867D01*
X32499187Y-38879691D01*
X44924142Y-37184000D01*
X71130638Y-37184000D01*
X71134000Y-37218134D01*
X71134001Y-49649855D01*
X71130638Y-49684000D01*
X71144057Y-49820244D01*
X71183798Y-49951252D01*
X71248333Y-50071989D01*
X71335183Y-50177817D01*
X71441011Y-50264667D01*
X71561748Y-50329202D01*
X71692756Y-50368943D01*
X71794865Y-50379000D01*
X71794866Y-50379000D01*
X71829000Y-50382362D01*
X71863135Y-50379000D01*
X72084000Y-50379000D01*
X72084000Y-50399865D01*
X72080638Y-50434000D01*
X72094057Y-50570244D01*
X72133798Y-50701252D01*
X72198333Y-50821989D01*
X72285183Y-50927817D01*
X72391011Y-51014667D01*
X72511748Y-51079202D01*
X72642756Y-51118943D01*
X72744865Y-51129000D01*
X72744866Y-51129000D01*
X72779000Y-51132362D01*
X72813135Y-51129000D01*
X86444865Y-51129000D01*
X86479000Y-51132362D01*
X86513134Y-51129000D01*
X86513135Y-51129000D01*
X86615244Y-51118943D01*
X86746252Y-51079202D01*
X86866989Y-51014667D01*
X86972817Y-50927817D01*
X87059667Y-50821989D01*
X87124202Y-50701252D01*
X87163943Y-50570244D01*
X87177362Y-50434000D01*
X87174000Y-50399865D01*
X87174000Y-50379000D01*
X87394865Y-50379000D01*
X87429000Y-50382362D01*
X87463134Y-50379000D01*
X87463135Y-50379000D01*
X87565244Y-50368943D01*
X87696252Y-50329202D01*
X87816989Y-50264667D01*
X87837155Y-50248117D01*
X96944000Y-50248117D01*
X96944000Y-50589883D01*
X97010675Y-50925081D01*
X97141463Y-51240831D01*
X97331337Y-51524998D01*
X97573002Y-51766663D01*
X97857169Y-51956537D01*
X98172919Y-52087325D01*
X98508117Y-52154000D01*
X98849883Y-52154000D01*
X99185081Y-52087325D01*
X99500831Y-51956537D01*
X99784998Y-51766663D01*
X100026663Y-51524998D01*
X100216537Y-51240831D01*
X100347325Y-50925081D01*
X100414000Y-50589883D01*
X100414000Y-50248117D01*
X100347325Y-49912919D01*
X100216537Y-49597169D01*
X100026663Y-49313002D01*
X99784998Y-49071337D01*
X99500831Y-48881463D01*
X99185081Y-48750675D01*
X98849883Y-48684000D01*
X98508117Y-48684000D01*
X98172919Y-48750675D01*
X97857169Y-48881463D01*
X97573002Y-49071337D01*
X97331337Y-49313002D01*
X97141463Y-49597169D01*
X97010675Y-49912919D01*
X96944000Y-50248117D01*
X87837155Y-50248117D01*
X87922817Y-50177817D01*
X88009667Y-50071989D01*
X88074202Y-49951252D01*
X88113943Y-49820244D01*
X88127362Y-49684000D01*
X88124000Y-49649865D01*
X88124000Y-37218134D01*
X88127362Y-37184000D01*
X88113943Y-37047756D01*
X88074202Y-36916748D01*
X88009667Y-36796011D01*
X87922817Y-36690183D01*
X87816989Y-36603333D01*
X87696252Y-36538798D01*
X87565244Y-36499057D01*
X87463135Y-36489000D01*
X87429000Y-36485638D01*
X87394866Y-36489000D01*
X87174000Y-36489000D01*
X87174000Y-36468135D01*
X87177362Y-36434000D01*
X87163943Y-36297756D01*
X87124202Y-36166748D01*
X87059667Y-36046011D01*
X86972817Y-35940183D01*
X86866989Y-35853333D01*
X86746252Y-35788798D01*
X86615244Y-35749057D01*
X86513135Y-35739000D01*
X86479000Y-35735638D01*
X86444866Y-35739000D01*
X72813134Y-35739000D01*
X72779000Y-35735638D01*
X72744865Y-35739000D01*
X72642756Y-35749057D01*
X72511748Y-35788798D01*
X72391011Y-35853333D01*
X72285183Y-35940183D01*
X72198333Y-36046011D01*
X72133798Y-36166748D01*
X72094057Y-36297756D01*
X72080638Y-36434000D01*
X72084000Y-36468135D01*
X72084000Y-36489000D01*
X71863134Y-36489000D01*
X71829000Y-36485638D01*
X71794865Y-36489000D01*
X71692756Y-36499057D01*
X71561748Y-36538798D01*
X71441011Y-36603333D01*
X71335183Y-36690183D01*
X71248333Y-36796011D01*
X71183798Y-36916748D01*
X71144057Y-37047756D01*
X71130638Y-37184000D01*
X44924142Y-37184000D01*
X63535661Y-34644000D01*
X90180638Y-34644000D01*
X90184000Y-34678134D01*
X90184001Y-47109855D01*
X90180638Y-47144000D01*
X90194057Y-47280244D01*
X90233798Y-47411252D01*
X90298333Y-47531989D01*
X90385183Y-47637817D01*
X90491011Y-47724667D01*
X90611748Y-47789202D01*
X90742756Y-47828943D01*
X90844865Y-47839000D01*
X90844866Y-47839000D01*
X90879000Y-47842362D01*
X90913135Y-47839000D01*
X91134000Y-47839000D01*
X91134000Y-47859865D01*
X91130638Y-47894000D01*
X91144057Y-48030244D01*
X91183798Y-48161252D01*
X91248333Y-48281989D01*
X91335183Y-48387817D01*
X91441011Y-48474667D01*
X91561748Y-48539202D01*
X91692756Y-48578943D01*
X91794865Y-48589000D01*
X91794866Y-48589000D01*
X91829000Y-48592362D01*
X91863135Y-48589000D01*
X105494865Y-48589000D01*
X105529000Y-48592362D01*
X105563134Y-48589000D01*
X105563135Y-48589000D01*
X105665244Y-48578943D01*
X105796252Y-48539202D01*
X105916989Y-48474667D01*
X106022817Y-48387817D01*
X106109667Y-48281989D01*
X106174202Y-48161252D01*
X106213943Y-48030244D01*
X106227362Y-47894000D01*
X106224000Y-47859865D01*
X106224000Y-47839000D01*
X106444865Y-47839000D01*
X106479000Y-47842362D01*
X106513134Y-47839000D01*
X106513135Y-47839000D01*
X106615244Y-47828943D01*
X106746252Y-47789202D01*
X106866989Y-47724667D01*
X106972817Y-47637817D01*
X107059667Y-47531989D01*
X107124202Y-47411252D01*
X107163943Y-47280244D01*
X107177362Y-47144000D01*
X107174000Y-47109865D01*
X107174000Y-37184000D01*
X109230638Y-37184000D01*
X109234000Y-37218134D01*
X109234001Y-49649855D01*
X109230638Y-49684000D01*
X109244057Y-49820244D01*
X109283798Y-49951252D01*
X109348333Y-50071989D01*
X109435183Y-50177817D01*
X109541011Y-50264667D01*
X109661748Y-50329202D01*
X109792756Y-50368943D01*
X109894865Y-50379000D01*
X109894866Y-50379000D01*
X109929000Y-50382362D01*
X109963135Y-50379000D01*
X110184000Y-50379000D01*
X110184000Y-50399865D01*
X110180638Y-50434000D01*
X110194057Y-50570244D01*
X110233798Y-50701252D01*
X110298333Y-50821989D01*
X110385183Y-50927817D01*
X110491011Y-51014667D01*
X110611748Y-51079202D01*
X110742756Y-51118943D01*
X110844865Y-51129000D01*
X110844866Y-51129000D01*
X110879000Y-51132362D01*
X110913135Y-51129000D01*
X124544865Y-51129000D01*
X124579000Y-51132362D01*
X124613134Y-51129000D01*
X124613135Y-51129000D01*
X124715244Y-51118943D01*
X124846252Y-51079202D01*
X124966989Y-51014667D01*
X125072817Y-50927817D01*
X125159667Y-50821989D01*
X125224202Y-50701252D01*
X125263943Y-50570244D01*
X125277362Y-50434000D01*
X125274000Y-50399865D01*
X125274000Y-50379000D01*
X125494865Y-50379000D01*
X125529000Y-50382362D01*
X125563134Y-50379000D01*
X125563135Y-50379000D01*
X125665244Y-50368943D01*
X125796252Y-50329202D01*
X125916989Y-50264667D01*
X126022817Y-50177817D01*
X126109667Y-50071989D01*
X126174202Y-49951252D01*
X126213943Y-49820244D01*
X126227362Y-49684000D01*
X126224000Y-49649865D01*
X126224000Y-39724000D01*
X128280638Y-39724000D01*
X128284000Y-39758134D01*
X128284001Y-52189855D01*
X128280638Y-52224000D01*
X128294057Y-52360244D01*
X128333798Y-52491252D01*
X128398333Y-52611989D01*
X128485183Y-52717817D01*
X128591011Y-52804667D01*
X128711748Y-52869202D01*
X128842756Y-52908943D01*
X128944865Y-52919000D01*
X128944866Y-52919000D01*
X128979000Y-52922362D01*
X129013135Y-52919000D01*
X129234000Y-52919000D01*
X129234000Y-52939865D01*
X129230638Y-52974000D01*
X129244057Y-53110244D01*
X129283798Y-53241252D01*
X129348333Y-53361989D01*
X129435183Y-53467817D01*
X129541011Y-53554667D01*
X129661748Y-53619202D01*
X129792756Y-53658943D01*
X129894865Y-53669000D01*
X129894866Y-53669000D01*
X129929000Y-53672362D01*
X129963135Y-53669000D01*
X143594865Y-53669000D01*
X143629000Y-53672362D01*
X143663134Y-53669000D01*
X143663135Y-53669000D01*
X143765244Y-53658943D01*
X143896252Y-53619202D01*
X144016989Y-53554667D01*
X144122817Y-53467817D01*
X144209667Y-53361989D01*
X144274202Y-53241252D01*
X144313943Y-53110244D01*
X144327362Y-52974000D01*
X144324000Y-52939865D01*
X144324000Y-52919000D01*
X144544865Y-52919000D01*
X144579000Y-52922362D01*
X144613134Y-52919000D01*
X144613135Y-52919000D01*
X144715244Y-52908943D01*
X144846252Y-52869202D01*
X144966989Y-52804667D01*
X145072817Y-52717817D01*
X145159667Y-52611989D01*
X145224202Y-52491252D01*
X145263943Y-52360244D01*
X145277362Y-52224000D01*
X145274000Y-52189865D01*
X145274000Y-39758134D01*
X145277362Y-39724000D01*
X145263943Y-39587756D01*
X145224202Y-39456748D01*
X145159667Y-39336011D01*
X145072817Y-39230183D01*
X144966989Y-39143333D01*
X144846252Y-39078798D01*
X144715244Y-39039057D01*
X144613135Y-39029000D01*
X144579000Y-39025638D01*
X144544866Y-39029000D01*
X144324000Y-39029000D01*
X144324000Y-39008135D01*
X144327362Y-38974000D01*
X144313943Y-38837756D01*
X144274202Y-38706748D01*
X144209667Y-38586011D01*
X144122817Y-38480183D01*
X144016989Y-38393333D01*
X143896252Y-38328798D01*
X143765244Y-38289057D01*
X143663135Y-38279000D01*
X143629000Y-38275638D01*
X143594866Y-38279000D01*
X129963134Y-38279000D01*
X129929000Y-38275638D01*
X129894865Y-38279000D01*
X129792756Y-38289057D01*
X129661748Y-38328798D01*
X129541011Y-38393333D01*
X129435183Y-38480183D01*
X129348333Y-38586011D01*
X129283798Y-38706748D01*
X129244057Y-38837756D01*
X129230638Y-38974000D01*
X129234000Y-39008135D01*
X129234000Y-39029000D01*
X129013134Y-39029000D01*
X128979000Y-39025638D01*
X128944865Y-39029000D01*
X128842756Y-39039057D01*
X128711748Y-39078798D01*
X128591011Y-39143333D01*
X128485183Y-39230183D01*
X128398333Y-39336011D01*
X128333798Y-39456748D01*
X128294057Y-39587756D01*
X128280638Y-39724000D01*
X126224000Y-39724000D01*
X126224000Y-37218134D01*
X126227362Y-37184000D01*
X126213943Y-37047756D01*
X126174202Y-36916748D01*
X126109667Y-36796011D01*
X126022817Y-36690183D01*
X125916989Y-36603333D01*
X125796252Y-36538798D01*
X125665244Y-36499057D01*
X125563135Y-36489000D01*
X125529000Y-36485638D01*
X125494866Y-36489000D01*
X125274000Y-36489000D01*
X125274000Y-36468135D01*
X125277362Y-36434000D01*
X125263943Y-36297756D01*
X125224202Y-36166748D01*
X125159667Y-36046011D01*
X125072817Y-35940183D01*
X124966989Y-35853333D01*
X124846252Y-35788798D01*
X124715244Y-35749057D01*
X124613135Y-35739000D01*
X124579000Y-35735638D01*
X124544866Y-35739000D01*
X110913134Y-35739000D01*
X110879000Y-35735638D01*
X110844865Y-35739000D01*
X110742756Y-35749057D01*
X110611748Y-35788798D01*
X110491011Y-35853333D01*
X110385183Y-35940183D01*
X110298333Y-36046011D01*
X110233798Y-36166748D01*
X110194057Y-36297756D01*
X110180638Y-36434000D01*
X110184000Y-36468135D01*
X110184000Y-36489000D01*
X109963134Y-36489000D01*
X109929000Y-36485638D01*
X109894865Y-36489000D01*
X109792756Y-36499057D01*
X109661748Y-36538798D01*
X109541011Y-36603333D01*
X109435183Y-36690183D01*
X109348333Y-36796011D01*
X109283798Y-36916748D01*
X109244057Y-37047756D01*
X109230638Y-37184000D01*
X107174000Y-37184000D01*
X107174000Y-34678134D01*
X107177362Y-34644000D01*
X107163943Y-34507756D01*
X107124202Y-34376748D01*
X107059667Y-34256011D01*
X106972817Y-34150183D01*
X106866989Y-34063333D01*
X106746252Y-33998798D01*
X106615244Y-33959057D01*
X106513135Y-33949000D01*
X106479000Y-33945638D01*
X106444866Y-33949000D01*
X106224000Y-33949000D01*
X106224000Y-33928135D01*
X106227362Y-33894000D01*
X106213943Y-33757756D01*
X106174202Y-33626748D01*
X106109667Y-33506011D01*
X106022817Y-33400183D01*
X105916989Y-33313333D01*
X105796252Y-33248798D01*
X105665244Y-33209057D01*
X105563135Y-33199000D01*
X105529000Y-33195638D01*
X105494866Y-33199000D01*
X91863134Y-33199000D01*
X91829000Y-33195638D01*
X91794865Y-33199000D01*
X91692756Y-33209057D01*
X91561748Y-33248798D01*
X91441011Y-33313333D01*
X91335183Y-33400183D01*
X91248333Y-33506011D01*
X91183798Y-33626748D01*
X91144057Y-33757756D01*
X91130638Y-33894000D01*
X91134000Y-33928135D01*
X91134000Y-33949000D01*
X90913134Y-33949000D01*
X90879000Y-33945638D01*
X90844865Y-33949000D01*
X90742756Y-33959057D01*
X90611748Y-33998798D01*
X90491011Y-34063333D01*
X90385183Y-34150183D01*
X90298333Y-34256011D01*
X90233798Y-34376748D01*
X90194057Y-34507756D01*
X90180638Y-34644000D01*
X63535661Y-34644000D01*
X88971535Y-31172649D01*
X89312523Y-31140000D01*
X145890721Y-31140000D01*
X146188875Y-31169234D01*
G37*
X146188875Y-31169234D02*
X146444622Y-31246448D01*
X146680504Y-31371869D01*
X146887530Y-31540716D01*
X147057813Y-31746554D01*
X147184879Y-31981556D01*
X147263876Y-32236756D01*
X147295000Y-32532882D01*
X147295001Y-54067817D01*
X147135831Y-53961463D01*
X146820081Y-53830675D01*
X146484883Y-53764000D01*
X146143117Y-53764000D01*
X145807919Y-53830675D01*
X145492169Y-53961463D01*
X145208002Y-54151337D01*
X144966337Y-54393002D01*
X144776463Y-54677169D01*
X144645675Y-54992919D01*
X144579000Y-55328117D01*
X144579000Y-55669883D01*
X144645675Y-56005081D01*
X144776463Y-56320831D01*
X144966337Y-56604998D01*
X145208002Y-56846663D01*
X145492169Y-57036537D01*
X145807919Y-57167325D01*
X146143117Y-57234000D01*
X146484883Y-57234000D01*
X146820081Y-57167325D01*
X147135831Y-57036537D01*
X147295001Y-56930183D01*
X147295001Y-63786419D01*
X147297854Y-63815388D01*
X147297766Y-63828003D01*
X147298665Y-63837174D01*
X147340118Y-64231577D01*
X147352148Y-64290183D01*
X147363355Y-64348935D01*
X147366019Y-64357757D01*
X147483290Y-64736599D01*
X147506474Y-64791750D01*
X147528880Y-64847208D01*
X147533206Y-64855345D01*
X147721828Y-65204193D01*
X147755283Y-65253792D01*
X147788032Y-65303838D01*
X147793855Y-65310977D01*
X147793858Y-65310981D01*
X147793862Y-65310985D01*
X148046644Y-65616547D01*
X148089061Y-65658669D01*
X148130943Y-65701438D01*
X148138044Y-65707311D01*
X148445369Y-65957960D01*
X148495178Y-65991052D01*
X148544550Y-66024859D01*
X148552656Y-66029241D01*
X148902813Y-66215423D01*
X148958105Y-66238212D01*
X149013101Y-66261784D01*
X149021905Y-66264509D01*
X149401556Y-66379132D01*
X149460250Y-66390754D01*
X149518747Y-66403188D01*
X149527911Y-66404151D01*
X149922596Y-66442850D01*
X149922598Y-66442850D01*
X149954581Y-66446000D01*
X156939721Y-66446000D01*
X157237875Y-66475234D01*
X157493622Y-66552448D01*
X157729504Y-66677869D01*
X157936530Y-66846716D01*
X158106813Y-67052554D01*
X158233879Y-67287556D01*
X158312876Y-67542756D01*
X158344000Y-67838882D01*
X158344001Y-74962419D01*
X158346854Y-74991388D01*
X158346766Y-75004003D01*
X158347665Y-75013174D01*
X158389118Y-75407577D01*
X158401148Y-75466183D01*
X158412355Y-75524935D01*
X158415019Y-75533757D01*
X158532290Y-75912599D01*
X158555474Y-75967750D01*
X158577880Y-76023208D01*
X158582206Y-76031345D01*
X158770828Y-76380193D01*
X158804283Y-76429792D01*
X158837032Y-76479838D01*
X158842855Y-76486977D01*
X158842858Y-76486981D01*
X158842862Y-76486985D01*
X159095644Y-76792547D01*
X159138061Y-76834669D01*
X159179943Y-76877438D01*
X159187044Y-76883311D01*
X159494369Y-77133960D01*
X159544178Y-77167052D01*
X159593550Y-77200859D01*
X159601656Y-77205241D01*
X159951813Y-77391423D01*
X160007105Y-77414212D01*
X160062101Y-77437784D01*
X160070905Y-77440509D01*
X160450556Y-77555132D01*
X160509250Y-77566754D01*
X160567747Y-77579188D01*
X160576911Y-77580151D01*
X160971596Y-77618850D01*
X160971598Y-77618850D01*
X161003581Y-77622000D01*
X170401721Y-77622000D01*
X170699875Y-77651234D01*
X170955622Y-77728448D01*
X171191504Y-77853869D01*
X171398530Y-78022716D01*
X171568813Y-78228554D01*
X171695879Y-78463556D01*
X171774876Y-78718756D01*
X171806000Y-79014882D01*
X171806001Y-87470711D01*
X171776086Y-87775812D01*
X171714784Y-87995369D01*
X159030164Y-122607793D01*
X158900397Y-122878638D01*
X158740369Y-123092553D01*
X158541840Y-123271309D01*
X158312367Y-123408103D01*
X158060695Y-123497720D01*
X157796411Y-123536746D01*
X157529582Y-123523695D01*
X157239579Y-123451389D01*
X134109522Y-115187118D01*
X134086828Y-115181444D01*
X133795172Y-115100012D01*
X133743044Y-115090821D01*
X133691254Y-115079812D01*
X133682089Y-115078849D01*
X133287405Y-115040150D01*
X133287402Y-115040150D01*
X133255419Y-115037000D01*
X32687092Y-115037000D01*
X32388937Y-115007766D01*
X32133189Y-114930551D01*
X31937487Y-114826494D01*
X142043471Y-114826494D01*
X142062820Y-114962022D01*
X142108237Y-115091172D01*
X142177978Y-115208980D01*
X142269362Y-115310918D01*
X142378877Y-115393069D01*
X142471388Y-115437443D01*
X142471391Y-115437444D01*
X142502315Y-115452277D01*
X142535539Y-115460792D01*
X142743086Y-115536333D01*
X142735948Y-115555945D01*
X142721116Y-115586867D01*
X142712601Y-115620090D01*
X142712600Y-115620093D01*
X142687477Y-115718119D01*
X142687127Y-115719484D01*
X142679664Y-115856182D01*
X142699013Y-115991710D01*
X142744430Y-116120860D01*
X142814171Y-116238668D01*
X142905555Y-116340605D01*
X143015070Y-116422757D01*
X143107581Y-116467131D01*
X143107584Y-116467132D01*
X143138508Y-116481965D01*
X143171733Y-116490480D01*
X155981373Y-121152809D01*
X156012295Y-121167641D01*
X156045515Y-121176155D01*
X156045521Y-121176157D01*
X156144912Y-121201630D01*
X156274533Y-121208707D01*
X156281610Y-121209093D01*
X156281611Y-121209093D01*
X156417139Y-121189744D01*
X156546289Y-121144327D01*
X156664097Y-121074586D01*
X156717980Y-121026281D01*
X156766034Y-120983203D01*
X156848186Y-120873688D01*
X156892560Y-120781177D01*
X156892563Y-120781170D01*
X156907394Y-120750249D01*
X156915907Y-120717031D01*
X156923046Y-120697417D01*
X157130601Y-120772960D01*
X157161520Y-120787791D01*
X157194739Y-120796305D01*
X157194745Y-120796307D01*
X157294136Y-120821780D01*
X157430835Y-120829243D01*
X157566363Y-120809894D01*
X157695513Y-120764477D01*
X157813321Y-120694736D01*
X157915259Y-120603352D01*
X157997410Y-120493837D01*
X158039945Y-120405159D01*
X158041784Y-120401326D01*
X158041785Y-120401323D01*
X158056618Y-120370399D01*
X158065133Y-120337174D01*
X162317039Y-108655160D01*
X162331869Y-108624241D01*
X162340383Y-108591022D01*
X162340385Y-108591016D01*
X162365858Y-108491625D01*
X162373321Y-108354926D01*
X162362481Y-108279000D01*
X162353972Y-108219397D01*
X162308555Y-108090247D01*
X162238814Y-107972440D01*
X162147430Y-107870502D01*
X162037915Y-107788351D01*
X161945404Y-107743977D01*
X161945401Y-107743976D01*
X161914477Y-107729143D01*
X161881252Y-107720628D01*
X161673706Y-107645087D01*
X161680845Y-107625472D01*
X161695676Y-107594553D01*
X161704189Y-107561336D01*
X161704192Y-107561328D01*
X161729665Y-107461937D01*
X161737128Y-107325237D01*
X161717779Y-107189710D01*
X161672362Y-107060559D01*
X161632609Y-106993408D01*
X161602621Y-106942751D01*
X161511237Y-106840813D01*
X161401722Y-106758662D01*
X161309211Y-106714288D01*
X161278285Y-106699454D01*
X161245059Y-106690939D01*
X148435422Y-102028612D01*
X148404497Y-102013779D01*
X148271880Y-101979790D01*
X148135181Y-101972327D01*
X147999653Y-101991676D01*
X147870504Y-102037092D01*
X147824357Y-102064411D01*
X147752695Y-102106834D01*
X147733362Y-102124166D01*
X147650758Y-102198217D01*
X147568606Y-102307732D01*
X147524232Y-102400243D01*
X147524229Y-102400250D01*
X147509398Y-102431171D01*
X147500884Y-102464392D01*
X147493746Y-102484004D01*
X147286194Y-102408461D01*
X147255272Y-102393629D01*
X147222049Y-102385114D01*
X147222046Y-102385113D01*
X147122655Y-102359640D01*
X146985957Y-102352177D01*
X146985956Y-102352177D01*
X146850428Y-102371526D01*
X146721278Y-102416943D01*
X146603470Y-102486684D01*
X146501532Y-102578068D01*
X146419381Y-102687583D01*
X146375007Y-102780094D01*
X146375003Y-102780106D01*
X146360174Y-102811021D01*
X146351661Y-102844236D01*
X142099755Y-114526257D01*
X142084923Y-114557179D01*
X142076408Y-114590402D01*
X142076407Y-114590405D01*
X142061353Y-114649144D01*
X142050934Y-114689796D01*
X142043471Y-114826494D01*
X31937487Y-114826494D01*
X31897309Y-114805131D01*
X31690288Y-114636289D01*
X31520000Y-114430446D01*
X31392934Y-114195444D01*
X31313936Y-113940240D01*
X31282808Y-113644066D01*
X31279735Y-99374000D01*
X33030638Y-99374000D01*
X33034000Y-99408134D01*
X33034001Y-111839855D01*
X33030638Y-111874000D01*
X33044057Y-112010244D01*
X33083798Y-112141252D01*
X33148333Y-112261989D01*
X33235183Y-112367817D01*
X33341011Y-112454667D01*
X33461748Y-112519202D01*
X33592756Y-112558943D01*
X33694865Y-112569000D01*
X33694866Y-112569000D01*
X33729000Y-112572362D01*
X33763135Y-112569000D01*
X33984000Y-112569000D01*
X33984000Y-112589865D01*
X33980638Y-112624000D01*
X33994057Y-112760244D01*
X34033798Y-112891252D01*
X34098333Y-113011989D01*
X34185183Y-113117817D01*
X34291011Y-113204667D01*
X34411748Y-113269202D01*
X34542756Y-113308943D01*
X34644865Y-113319000D01*
X34644866Y-113319000D01*
X34679000Y-113322362D01*
X34713135Y-113319000D01*
X48344865Y-113319000D01*
X48379000Y-113322362D01*
X48413134Y-113319000D01*
X48413135Y-113319000D01*
X48515244Y-113308943D01*
X48646252Y-113269202D01*
X48766989Y-113204667D01*
X48872817Y-113117817D01*
X48959667Y-113011989D01*
X49024202Y-112891252D01*
X49063943Y-112760244D01*
X49077362Y-112624000D01*
X49074000Y-112589865D01*
X49074000Y-112569000D01*
X49294865Y-112569000D01*
X49329000Y-112572362D01*
X49363134Y-112569000D01*
X49363135Y-112569000D01*
X49465244Y-112558943D01*
X49596252Y-112519202D01*
X49716989Y-112454667D01*
X49822817Y-112367817D01*
X49909667Y-112261989D01*
X49974202Y-112141252D01*
X50013943Y-112010244D01*
X50027362Y-111874000D01*
X50024000Y-111839865D01*
X50024000Y-99408134D01*
X50027362Y-99374000D01*
X50013943Y-99237756D01*
X49974202Y-99106748D01*
X49909667Y-98986011D01*
X49822817Y-98880183D01*
X49716989Y-98793333D01*
X49596252Y-98728798D01*
X49465244Y-98689057D01*
X49363135Y-98679000D01*
X49329000Y-98675638D01*
X49294866Y-98679000D01*
X49074000Y-98679000D01*
X49074000Y-98658135D01*
X49077362Y-98624000D01*
X49063943Y-98487756D01*
X49024202Y-98356748D01*
X48959667Y-98236011D01*
X48872817Y-98130183D01*
X48766989Y-98043333D01*
X48646252Y-97978798D01*
X48515244Y-97939057D01*
X48413135Y-97929000D01*
X48379000Y-97925638D01*
X48344866Y-97929000D01*
X34713134Y-97929000D01*
X34679000Y-97925638D01*
X34644865Y-97929000D01*
X34542756Y-97939057D01*
X34411748Y-97978798D01*
X34291011Y-98043333D01*
X34185183Y-98130183D01*
X34098333Y-98236011D01*
X34033798Y-98356748D01*
X33994057Y-98487756D01*
X33980638Y-98624000D01*
X33984000Y-98658135D01*
X33984000Y-98679000D01*
X33763134Y-98679000D01*
X33729000Y-98675638D01*
X33694865Y-98679000D01*
X33592756Y-98689057D01*
X33461748Y-98728798D01*
X33341011Y-98793333D01*
X33235183Y-98880183D01*
X33148333Y-98986011D01*
X33083798Y-99106748D01*
X33044057Y-99237756D01*
X33030638Y-99374000D01*
X31279735Y-99374000D01*
X31278993Y-95928117D01*
X49329000Y-95928117D01*
X49329000Y-96269883D01*
X49395675Y-96605081D01*
X49526463Y-96920831D01*
X49716337Y-97204998D01*
X49958002Y-97446663D01*
X50242169Y-97636537D01*
X50557919Y-97767325D01*
X50893117Y-97834000D01*
X51234883Y-97834000D01*
X51570081Y-97767325D01*
X51885831Y-97636537D01*
X52084000Y-97504125D01*
X52084001Y-109339855D01*
X52080638Y-109374000D01*
X52094057Y-109510244D01*
X52133798Y-109641252D01*
X52198333Y-109761989D01*
X52285183Y-109867817D01*
X52391011Y-109954667D01*
X52511748Y-110019202D01*
X52642756Y-110058943D01*
X52744865Y-110069000D01*
X52744866Y-110069000D01*
X52779000Y-110072362D01*
X52813135Y-110069000D01*
X53034000Y-110069000D01*
X53034000Y-110089865D01*
X53030638Y-110124000D01*
X53044057Y-110260244D01*
X53083798Y-110391252D01*
X53148333Y-110511989D01*
X53235183Y-110617817D01*
X53341011Y-110704667D01*
X53461748Y-110769202D01*
X53592756Y-110808943D01*
X53694865Y-110819000D01*
X53694866Y-110819000D01*
X53729000Y-110822362D01*
X53763135Y-110819000D01*
X67394865Y-110819000D01*
X67429000Y-110822362D01*
X67463134Y-110819000D01*
X67463135Y-110819000D01*
X67565244Y-110808943D01*
X67696252Y-110769202D01*
X67816989Y-110704667D01*
X67922817Y-110617817D01*
X68009667Y-110511989D01*
X68074202Y-110391252D01*
X68113943Y-110260244D01*
X68127362Y-110124000D01*
X68124000Y-110089865D01*
X68124000Y-110069000D01*
X68344865Y-110069000D01*
X68379000Y-110072362D01*
X68413134Y-110069000D01*
X68413135Y-110069000D01*
X68515244Y-110058943D01*
X68646252Y-110019202D01*
X68766989Y-109954667D01*
X68872817Y-109867817D01*
X68959667Y-109761989D01*
X69024202Y-109641252D01*
X69063943Y-109510244D01*
X69077362Y-109374000D01*
X69074000Y-109339865D01*
X69074000Y-108911603D01*
X115253572Y-108911603D01*
X115269960Y-109047522D01*
X115312549Y-109177631D01*
X115315347Y-109182601D01*
X115379702Y-109296932D01*
X115445817Y-109374000D01*
X115468842Y-109400840D01*
X115492017Y-109419028D01*
X115576537Y-109485360D01*
X115698654Y-109547246D01*
X115742046Y-109559382D01*
X115797466Y-109574882D01*
X115797469Y-109574883D01*
X115830498Y-109584120D01*
X115864695Y-109586736D01*
X116082209Y-109625089D01*
X116078587Y-109645632D01*
X116069347Y-109678670D01*
X116064415Y-109743140D01*
X116058904Y-109815174D01*
X116075292Y-109951092D01*
X116117881Y-110081201D01*
X116185034Y-110200503D01*
X116274173Y-110304410D01*
X116381870Y-110388931D01*
X116503986Y-110450817D01*
X116635830Y-110487691D01*
X116670036Y-110490308D01*
X130094660Y-112857431D01*
X130127696Y-112866671D01*
X130264200Y-112877114D01*
X130400118Y-112860726D01*
X130530228Y-112818137D01*
X130649529Y-112750984D01*
X130753436Y-112661845D01*
X130837957Y-112554149D01*
X130899843Y-112432032D01*
X130936717Y-112300188D01*
X130939334Y-112265982D01*
X130942956Y-112245439D01*
X131160462Y-112283791D01*
X131193499Y-112293031D01*
X131330003Y-112303474D01*
X131465921Y-112287086D01*
X131596030Y-112244498D01*
X131715332Y-112177344D01*
X131819239Y-112088205D01*
X131903760Y-111980509D01*
X131965646Y-111858392D01*
X132002520Y-111726548D01*
X132005137Y-111692340D01*
X134163886Y-99449476D01*
X134173122Y-99416450D01*
X134178982Y-99339866D01*
X134183566Y-99279948D01*
X134183566Y-99279946D01*
X134167178Y-99144027D01*
X134124589Y-99013919D01*
X134100403Y-98970952D01*
X134057436Y-98894618D01*
X133968297Y-98790711D01*
X133968296Y-98790710D01*
X133860599Y-98706190D01*
X133800313Y-98675638D01*
X133738484Y-98644304D01*
X133606640Y-98607430D01*
X133572441Y-98604814D01*
X133354929Y-98566461D01*
X133358552Y-98545915D01*
X133367791Y-98512880D01*
X133378234Y-98376375D01*
X133361846Y-98240457D01*
X133319258Y-98110348D01*
X133252104Y-97991046D01*
X133162965Y-97887139D01*
X133055269Y-97802618D01*
X132933152Y-97740732D01*
X132834341Y-97713097D01*
X132834335Y-97713096D01*
X132801308Y-97703859D01*
X132767114Y-97701243D01*
X128366804Y-96925350D01*
X148558954Y-96925350D01*
X148578303Y-97060878D01*
X148623720Y-97190028D01*
X148693461Y-97307836D01*
X148784845Y-97409774D01*
X148894360Y-97491925D01*
X148986871Y-97536299D01*
X148986874Y-97536300D01*
X149017798Y-97551133D01*
X149051022Y-97559648D01*
X149258569Y-97635189D01*
X149251431Y-97654801D01*
X149236599Y-97685723D01*
X149202610Y-97818340D01*
X149195147Y-97955038D01*
X149214496Y-98090566D01*
X149259913Y-98219716D01*
X149329654Y-98337524D01*
X149421038Y-98439461D01*
X149530553Y-98521613D01*
X149623064Y-98565987D01*
X149623067Y-98565988D01*
X149653991Y-98580821D01*
X149687216Y-98589336D01*
X162496856Y-103251665D01*
X162527778Y-103266497D01*
X162560998Y-103275011D01*
X162561004Y-103275013D01*
X162660395Y-103300486D01*
X162790016Y-103307563D01*
X162797093Y-103307949D01*
X162797094Y-103307949D01*
X162932622Y-103288600D01*
X163061772Y-103243183D01*
X163179580Y-103173442D01*
X163233463Y-103125137D01*
X163281517Y-103082059D01*
X163363669Y-102972544D01*
X163408043Y-102880033D01*
X163408046Y-102880026D01*
X163422877Y-102849105D01*
X163431390Y-102815887D01*
X163438529Y-102796273D01*
X163646084Y-102871816D01*
X163677003Y-102886647D01*
X163710222Y-102895161D01*
X163710228Y-102895163D01*
X163809619Y-102920636D01*
X163946318Y-102928099D01*
X164081846Y-102908750D01*
X164210996Y-102863333D01*
X164328804Y-102793592D01*
X164430742Y-102702208D01*
X164512893Y-102592693D01*
X164557267Y-102500182D01*
X164557268Y-102500179D01*
X164572101Y-102469255D01*
X164580616Y-102436030D01*
X168832522Y-90754016D01*
X168847352Y-90723097D01*
X168855866Y-90689878D01*
X168855868Y-90689872D01*
X168881341Y-90590481D01*
X168888804Y-90453782D01*
X168880954Y-90398798D01*
X168869455Y-90318253D01*
X168824038Y-90189103D01*
X168754297Y-90071296D01*
X168662913Y-89969358D01*
X168553398Y-89887207D01*
X168460887Y-89842833D01*
X168460884Y-89842832D01*
X168429960Y-89827999D01*
X168396735Y-89819484D01*
X168189189Y-89743943D01*
X168196328Y-89724328D01*
X168211159Y-89693409D01*
X168219672Y-89660192D01*
X168219675Y-89660184D01*
X168245148Y-89560793D01*
X168252611Y-89424093D01*
X168233262Y-89288566D01*
X168213498Y-89232362D01*
X168187845Y-89159415D01*
X168118104Y-89041607D01*
X168026720Y-88939669D01*
X167917205Y-88857518D01*
X167824694Y-88813144D01*
X167793768Y-88798310D01*
X167760542Y-88789795D01*
X154950905Y-84127468D01*
X154919980Y-84112635D01*
X154787363Y-84078646D01*
X154650664Y-84071183D01*
X154515136Y-84090532D01*
X154385987Y-84135948D01*
X154337920Y-84164404D01*
X154268178Y-84205690D01*
X154219992Y-84248887D01*
X154166241Y-84297073D01*
X154084089Y-84406588D01*
X154039715Y-84499099D01*
X154039712Y-84499106D01*
X154024881Y-84530027D01*
X154016367Y-84563248D01*
X154009229Y-84582860D01*
X153801677Y-84507317D01*
X153770755Y-84492485D01*
X153737532Y-84483970D01*
X153737529Y-84483969D01*
X153638138Y-84458496D01*
X153501440Y-84451033D01*
X153501439Y-84451033D01*
X153365911Y-84470382D01*
X153236761Y-84515799D01*
X153118953Y-84585540D01*
X153017015Y-84676924D01*
X152934864Y-84786439D01*
X152890490Y-84878950D01*
X152890486Y-84878962D01*
X152875657Y-84909877D01*
X152867144Y-84943092D01*
X148615238Y-96625113D01*
X148600406Y-96656035D01*
X148591891Y-96689258D01*
X148591890Y-96689261D01*
X148579911Y-96736002D01*
X148566417Y-96788652D01*
X148558954Y-96925350D01*
X128366804Y-96925350D01*
X119342478Y-95334119D01*
X119309442Y-95324879D01*
X119189641Y-95315714D01*
X119172938Y-95314436D01*
X119172937Y-95314436D01*
X119086326Y-95324879D01*
X119037020Y-95330824D01*
X118906911Y-95373413D01*
X118787609Y-95440566D01*
X118683702Y-95529705D01*
X118599181Y-95637402D01*
X118537295Y-95759518D01*
X118500421Y-95891362D01*
X118497804Y-95925568D01*
X118494182Y-95946111D01*
X118276676Y-95907759D01*
X118243639Y-95898519D01*
X118135853Y-95890273D01*
X118107136Y-95888076D01*
X118107134Y-95888076D01*
X117971216Y-95904464D01*
X117928628Y-95918404D01*
X117841108Y-95947052D01*
X117788959Y-95976406D01*
X117721805Y-96014206D01*
X117617898Y-96103345D01*
X117533377Y-96211042D01*
X117471491Y-96333158D01*
X117455244Y-96391252D01*
X117434618Y-96465002D01*
X117432002Y-96499198D01*
X115273254Y-108742065D01*
X115264015Y-108775100D01*
X115253572Y-108911603D01*
X69074000Y-108911603D01*
X69074000Y-96908134D01*
X69077362Y-96874000D01*
X69063943Y-96737756D01*
X69024202Y-96606748D01*
X68959667Y-96486011D01*
X68872817Y-96380183D01*
X68766989Y-96293333D01*
X68646252Y-96228798D01*
X68515244Y-96189057D01*
X68413135Y-96179000D01*
X68379000Y-96175638D01*
X68344866Y-96179000D01*
X68124000Y-96179000D01*
X68124000Y-96158135D01*
X68127362Y-96124000D01*
X68113943Y-95987756D01*
X68074202Y-95856748D01*
X68009667Y-95736011D01*
X67922817Y-95630183D01*
X67816989Y-95543333D01*
X67696252Y-95478798D01*
X67565244Y-95439057D01*
X67463135Y-95429000D01*
X67429000Y-95425638D01*
X67394866Y-95429000D01*
X53763134Y-95429000D01*
X53729000Y-95425638D01*
X53694865Y-95429000D01*
X53592756Y-95439057D01*
X53461748Y-95478798D01*
X53341011Y-95543333D01*
X53235183Y-95630183D01*
X53148333Y-95736011D01*
X53083798Y-95856748D01*
X53044057Y-95987756D01*
X53030638Y-96124000D01*
X53034000Y-96158135D01*
X53034000Y-96179000D01*
X52813134Y-96179000D01*
X52799000Y-96177608D01*
X52799000Y-95928117D01*
X52732325Y-95592919D01*
X52601537Y-95277169D01*
X52411663Y-94993002D01*
X52169998Y-94751337D01*
X51885831Y-94561463D01*
X51570081Y-94430675D01*
X51234883Y-94364000D01*
X50893117Y-94364000D01*
X50557919Y-94430675D01*
X50242169Y-94561463D01*
X49958002Y-94751337D01*
X49716337Y-94993002D01*
X49526463Y-95277169D01*
X49395675Y-95592919D01*
X49329000Y-95928117D01*
X31278993Y-95928117D01*
X31278650Y-94334000D01*
X71130638Y-94334000D01*
X71134000Y-94368134D01*
X71134001Y-106799855D01*
X71130638Y-106834000D01*
X71144057Y-106970244D01*
X71183798Y-107101252D01*
X71248333Y-107221989D01*
X71335183Y-107327817D01*
X71441011Y-107414667D01*
X71561748Y-107479202D01*
X71692756Y-107518943D01*
X71794865Y-107529000D01*
X71794866Y-107529000D01*
X71829000Y-107532362D01*
X71863135Y-107529000D01*
X72084000Y-107529000D01*
X72084000Y-107549865D01*
X72080638Y-107584000D01*
X72094057Y-107720244D01*
X72133798Y-107851252D01*
X72198333Y-107971989D01*
X72285183Y-108077817D01*
X72391011Y-108164667D01*
X72511748Y-108229202D01*
X72642756Y-108268943D01*
X72744865Y-108279000D01*
X72744866Y-108279000D01*
X72779000Y-108282362D01*
X72813135Y-108279000D01*
X86444865Y-108279000D01*
X86479000Y-108282362D01*
X86513134Y-108279000D01*
X86513135Y-108279000D01*
X86615244Y-108268943D01*
X86746252Y-108229202D01*
X86866989Y-108164667D01*
X86972817Y-108077817D01*
X87059667Y-107971989D01*
X87124202Y-107851252D01*
X87163943Y-107720244D01*
X87177362Y-107584000D01*
X87174000Y-107549865D01*
X87174000Y-107529000D01*
X87394865Y-107529000D01*
X87429000Y-107532362D01*
X87463134Y-107529000D01*
X87463135Y-107529000D01*
X87565244Y-107518943D01*
X87696252Y-107479202D01*
X87816989Y-107414667D01*
X87922817Y-107327817D01*
X88009667Y-107221989D01*
X88074202Y-107101252D01*
X88113943Y-106970244D01*
X88127362Y-106834000D01*
X88124000Y-106799865D01*
X88124000Y-94368134D01*
X88127362Y-94334000D01*
X88113943Y-94197756D01*
X88074202Y-94066748D01*
X88009667Y-93946011D01*
X87922817Y-93840183D01*
X87816989Y-93753333D01*
X87696252Y-93688798D01*
X87565244Y-93649057D01*
X87463135Y-93639000D01*
X87429000Y-93635638D01*
X87394866Y-93639000D01*
X87174000Y-93639000D01*
X87174000Y-93618135D01*
X87177362Y-93584000D01*
X87163943Y-93447756D01*
X87124202Y-93316748D01*
X87059667Y-93196011D01*
X86972817Y-93090183D01*
X86866989Y-93003333D01*
X86746252Y-92938798D01*
X86615244Y-92899057D01*
X86513135Y-92889000D01*
X86479000Y-92885638D01*
X86444866Y-92889000D01*
X72813134Y-92889000D01*
X72779000Y-92885638D01*
X72744865Y-92889000D01*
X72642756Y-92899057D01*
X72511748Y-92938798D01*
X72391011Y-93003333D01*
X72285183Y-93090183D01*
X72198333Y-93196011D01*
X72133798Y-93316748D01*
X72094057Y-93447756D01*
X72080638Y-93584000D01*
X72084000Y-93618135D01*
X72084000Y-93639000D01*
X71863134Y-93639000D01*
X71829000Y-93635638D01*
X71794865Y-93639000D01*
X71692756Y-93649057D01*
X71561748Y-93688798D01*
X71441011Y-93753333D01*
X71335183Y-93840183D01*
X71248333Y-93946011D01*
X71183798Y-94066748D01*
X71144057Y-94197756D01*
X71130638Y-94334000D01*
X31278650Y-94334000D01*
X31275632Y-80324000D01*
X33030638Y-80324000D01*
X33034000Y-80358134D01*
X33034001Y-92789855D01*
X33030638Y-92824000D01*
X33044057Y-92960244D01*
X33083798Y-93091252D01*
X33148333Y-93211989D01*
X33235183Y-93317817D01*
X33341011Y-93404667D01*
X33461748Y-93469202D01*
X33592756Y-93508943D01*
X33694865Y-93519000D01*
X33694866Y-93519000D01*
X33729000Y-93522362D01*
X33763135Y-93519000D01*
X33984000Y-93519000D01*
X33984000Y-93539865D01*
X33980638Y-93574000D01*
X33994057Y-93710244D01*
X34033798Y-93841252D01*
X34098333Y-93961989D01*
X34185183Y-94067817D01*
X34291011Y-94154667D01*
X34411748Y-94219202D01*
X34542756Y-94258943D01*
X34644865Y-94269000D01*
X34644866Y-94269000D01*
X34679000Y-94272362D01*
X34713135Y-94269000D01*
X48344865Y-94269000D01*
X48379000Y-94272362D01*
X48413134Y-94269000D01*
X48413135Y-94269000D01*
X48515244Y-94258943D01*
X48646252Y-94219202D01*
X48766989Y-94154667D01*
X48872817Y-94067817D01*
X48959667Y-93961989D01*
X49024202Y-93841252D01*
X49063943Y-93710244D01*
X49077362Y-93574000D01*
X49074000Y-93539865D01*
X49074000Y-93519000D01*
X49294865Y-93519000D01*
X49329000Y-93522362D01*
X49363134Y-93519000D01*
X49363135Y-93519000D01*
X49465244Y-93508943D01*
X49596252Y-93469202D01*
X49716989Y-93404667D01*
X49822817Y-93317817D01*
X49909667Y-93211989D01*
X49974202Y-93091252D01*
X50013943Y-92960244D01*
X50027362Y-92824000D01*
X50024000Y-92789865D01*
X50024000Y-91794000D01*
X90180638Y-91794000D01*
X90184000Y-91828134D01*
X90184001Y-104259855D01*
X90180638Y-104294000D01*
X90194057Y-104430244D01*
X90233798Y-104561252D01*
X90298333Y-104681989D01*
X90385183Y-104787817D01*
X90491011Y-104874667D01*
X90611748Y-104939202D01*
X90742756Y-104978943D01*
X90844865Y-104989000D01*
X90844866Y-104989000D01*
X90879000Y-104992362D01*
X90913135Y-104989000D01*
X91134000Y-104989000D01*
X91134000Y-105009865D01*
X91130638Y-105044000D01*
X91144057Y-105180244D01*
X91183798Y-105311252D01*
X91248333Y-105431989D01*
X91335183Y-105537817D01*
X91441011Y-105624667D01*
X91561748Y-105689202D01*
X91692756Y-105728943D01*
X91794865Y-105739000D01*
X91794866Y-105739000D01*
X91829000Y-105742362D01*
X91863135Y-105739000D01*
X105494865Y-105739000D01*
X105529000Y-105742362D01*
X105563134Y-105739000D01*
X105563135Y-105739000D01*
X105665244Y-105728943D01*
X105796252Y-105689202D01*
X105916989Y-105624667D01*
X106022817Y-105537817D01*
X106109667Y-105431989D01*
X106174202Y-105311252D01*
X106213943Y-105180244D01*
X106227362Y-105044000D01*
X106224000Y-105009865D01*
X106224000Y-104989000D01*
X106444865Y-104989000D01*
X106479000Y-104992362D01*
X106513134Y-104989000D01*
X106513135Y-104989000D01*
X106615244Y-104978943D01*
X106746252Y-104939202D01*
X106866989Y-104874667D01*
X106972817Y-104787817D01*
X107059667Y-104681989D01*
X107124202Y-104561252D01*
X107163943Y-104430244D01*
X107177362Y-104294000D01*
X107174000Y-104259865D01*
X107174000Y-93555117D01*
X144579000Y-93555117D01*
X144579000Y-93896883D01*
X144645675Y-94232081D01*
X144776463Y-94547831D01*
X144966337Y-94831998D01*
X145208002Y-95073663D01*
X145492169Y-95263537D01*
X145807919Y-95394325D01*
X146143117Y-95461000D01*
X146484883Y-95461000D01*
X146820081Y-95394325D01*
X147135831Y-95263537D01*
X147419998Y-95073663D01*
X147661663Y-94831998D01*
X147851537Y-94547831D01*
X147982325Y-94232081D01*
X148049000Y-93896883D01*
X148049000Y-93555117D01*
X147982325Y-93219919D01*
X147851537Y-92904169D01*
X147661663Y-92620002D01*
X147419998Y-92378337D01*
X147135831Y-92188463D01*
X146820081Y-92057675D01*
X146484883Y-91991000D01*
X146143117Y-91991000D01*
X145807919Y-92057675D01*
X145492169Y-92188463D01*
X145208002Y-92378337D01*
X144966337Y-92620002D01*
X144776463Y-92904169D01*
X144645675Y-93219919D01*
X144579000Y-93555117D01*
X107174000Y-93555117D01*
X107174000Y-91828134D01*
X107177362Y-91794000D01*
X107163943Y-91657756D01*
X107124202Y-91526748D01*
X107059667Y-91406011D01*
X106972817Y-91300183D01*
X106866989Y-91213333D01*
X106746252Y-91148798D01*
X106615244Y-91109057D01*
X106513135Y-91099000D01*
X106479000Y-91095638D01*
X106444866Y-91099000D01*
X106224000Y-91099000D01*
X106224000Y-91078135D01*
X106227362Y-91044000D01*
X106213943Y-90907756D01*
X106174202Y-90776748D01*
X106109667Y-90656011D01*
X106022817Y-90550183D01*
X105916989Y-90463333D01*
X105796252Y-90398798D01*
X105665244Y-90359057D01*
X105563135Y-90349000D01*
X105529000Y-90345638D01*
X105494866Y-90349000D01*
X91863134Y-90349000D01*
X91829000Y-90345638D01*
X91794865Y-90349000D01*
X91692756Y-90359057D01*
X91561748Y-90398798D01*
X91441011Y-90463333D01*
X91335183Y-90550183D01*
X91248333Y-90656011D01*
X91183798Y-90776748D01*
X91144057Y-90907756D01*
X91130638Y-91044000D01*
X91134000Y-91078135D01*
X91134000Y-91099000D01*
X90913134Y-91099000D01*
X90879000Y-91095638D01*
X90844865Y-91099000D01*
X90742756Y-91109057D01*
X90611748Y-91148798D01*
X90491011Y-91213333D01*
X90385183Y-91300183D01*
X90298333Y-91406011D01*
X90233798Y-91526748D01*
X90194057Y-91657756D01*
X90180638Y-91794000D01*
X50024000Y-91794000D01*
X50024000Y-80358134D01*
X50027362Y-80324000D01*
X50013943Y-80187756D01*
X49974202Y-80056748D01*
X49909667Y-79936011D01*
X49822817Y-79830183D01*
X49716989Y-79743333D01*
X49596252Y-79678798D01*
X49465244Y-79639057D01*
X49363135Y-79629000D01*
X49329000Y-79625638D01*
X49294866Y-79629000D01*
X49074000Y-79629000D01*
X49074000Y-79608135D01*
X49077362Y-79574000D01*
X49066204Y-79460707D01*
X49063943Y-79437756D01*
X49024202Y-79306748D01*
X48959667Y-79186011D01*
X48872817Y-79080183D01*
X48766989Y-78993333D01*
X48646252Y-78928798D01*
X48515244Y-78889057D01*
X48379000Y-78875638D01*
X48344866Y-78879000D01*
X34713134Y-78879000D01*
X34679000Y-78875638D01*
X34644865Y-78879000D01*
X34542756Y-78889057D01*
X34411748Y-78928798D01*
X34291011Y-78993333D01*
X34185183Y-79080183D01*
X34098333Y-79186011D01*
X34033798Y-79306748D01*
X33994057Y-79437756D01*
X33980638Y-79574000D01*
X33984000Y-79608135D01*
X33984000Y-79629000D01*
X33763134Y-79629000D01*
X33729000Y-79625638D01*
X33694865Y-79629000D01*
X33592756Y-79639057D01*
X33461748Y-79678798D01*
X33341011Y-79743333D01*
X33235183Y-79830183D01*
X33148333Y-79936011D01*
X33083798Y-80056748D01*
X33044057Y-80187756D01*
X33030638Y-80324000D01*
X31275632Y-80324000D01*
X31275094Y-77824000D01*
X52080638Y-77824000D01*
X52084000Y-77858134D01*
X52084001Y-90289855D01*
X52080638Y-90324000D01*
X52094057Y-90460244D01*
X52133798Y-90591252D01*
X52198333Y-90711989D01*
X52285183Y-90817817D01*
X52391011Y-90904667D01*
X52511748Y-90969202D01*
X52642756Y-91008943D01*
X52744865Y-91019000D01*
X52744866Y-91019000D01*
X52779000Y-91022362D01*
X52813135Y-91019000D01*
X53034000Y-91019000D01*
X53034000Y-91039865D01*
X53030638Y-91074000D01*
X53044057Y-91210244D01*
X53083798Y-91341252D01*
X53148333Y-91461989D01*
X53235183Y-91567817D01*
X53341011Y-91654667D01*
X53461748Y-91719202D01*
X53592756Y-91758943D01*
X53694865Y-91769000D01*
X53694866Y-91769000D01*
X53729000Y-91772362D01*
X53763135Y-91769000D01*
X67394865Y-91769000D01*
X67429000Y-91772362D01*
X67463134Y-91769000D01*
X67463135Y-91769000D01*
X67565244Y-91758943D01*
X67696252Y-91719202D01*
X67816989Y-91654667D01*
X67922817Y-91567817D01*
X68009667Y-91461989D01*
X68074202Y-91341252D01*
X68113943Y-91210244D01*
X68127362Y-91074000D01*
X68124000Y-91039865D01*
X68124000Y-91019000D01*
X68344865Y-91019000D01*
X68379000Y-91022362D01*
X68413134Y-91019000D01*
X68413135Y-91019000D01*
X68515244Y-91008943D01*
X68646252Y-90969202D01*
X68766989Y-90904667D01*
X68872817Y-90817817D01*
X68959667Y-90711989D01*
X69024202Y-90591252D01*
X69063943Y-90460244D01*
X69077362Y-90324000D01*
X69074000Y-90289865D01*
X69074000Y-77858134D01*
X69077362Y-77824000D01*
X69063943Y-77687756D01*
X69024202Y-77556748D01*
X68959667Y-77436011D01*
X68872817Y-77330183D01*
X68766989Y-77243333D01*
X68646252Y-77178798D01*
X68515244Y-77139057D01*
X68413135Y-77129000D01*
X68379000Y-77125638D01*
X68344866Y-77129000D01*
X68124000Y-77129000D01*
X68124000Y-77108135D01*
X68127362Y-77074000D01*
X68122223Y-77021818D01*
X68113943Y-76937756D01*
X68074202Y-76806748D01*
X68009667Y-76686011D01*
X67922817Y-76580183D01*
X67816989Y-76493333D01*
X67696252Y-76428798D01*
X67565244Y-76389057D01*
X67510225Y-76383638D01*
X67463135Y-76379000D01*
X67429000Y-76375638D01*
X67394866Y-76379000D01*
X53763134Y-76379000D01*
X53729000Y-76375638D01*
X53694865Y-76379000D01*
X53592756Y-76389057D01*
X53461748Y-76428798D01*
X53341011Y-76493333D01*
X53235183Y-76580183D01*
X53148333Y-76686011D01*
X53083798Y-76806748D01*
X53044057Y-76937756D01*
X53030638Y-77074000D01*
X53034000Y-77108135D01*
X53034000Y-77129000D01*
X52813134Y-77129000D01*
X52779000Y-77125638D01*
X52744865Y-77129000D01*
X52642756Y-77139057D01*
X52511748Y-77178798D01*
X52391011Y-77243333D01*
X52285183Y-77330183D01*
X52198333Y-77436011D01*
X52133798Y-77556748D01*
X52094057Y-77687756D01*
X52080638Y-77824000D01*
X31275094Y-77824000D01*
X31274547Y-75284000D01*
X71130638Y-75284000D01*
X71134000Y-75318134D01*
X71134001Y-87749855D01*
X71130638Y-87784000D01*
X71144057Y-87920244D01*
X71183798Y-88051252D01*
X71248333Y-88171989D01*
X71335183Y-88277817D01*
X71441011Y-88364667D01*
X71561748Y-88429202D01*
X71692756Y-88468943D01*
X71794865Y-88479000D01*
X71794866Y-88479000D01*
X71829000Y-88482362D01*
X71863135Y-88479000D01*
X72084000Y-88479000D01*
X72084000Y-88499865D01*
X72080638Y-88534000D01*
X72094057Y-88670244D01*
X72133798Y-88801252D01*
X72198333Y-88921989D01*
X72285183Y-89027817D01*
X72391011Y-89114667D01*
X72511748Y-89179202D01*
X72642756Y-89218943D01*
X72744865Y-89229000D01*
X72744866Y-89229000D01*
X72779000Y-89232362D01*
X72813135Y-89229000D01*
X86444865Y-89229000D01*
X86479000Y-89232362D01*
X86513134Y-89229000D01*
X86513135Y-89229000D01*
X86615244Y-89218943D01*
X86746252Y-89179202D01*
X86866989Y-89114667D01*
X86972817Y-89027817D01*
X87059667Y-88921989D01*
X87124202Y-88801252D01*
X87163943Y-88670244D01*
X87177362Y-88534000D01*
X87174000Y-88499865D01*
X87174000Y-88479000D01*
X87394865Y-88479000D01*
X87429000Y-88482362D01*
X87463134Y-88479000D01*
X87463135Y-88479000D01*
X87565244Y-88468943D01*
X87696252Y-88429202D01*
X87816989Y-88364667D01*
X87837155Y-88348117D01*
X96944000Y-88348117D01*
X96944000Y-88689883D01*
X97010675Y-89025081D01*
X97141463Y-89340831D01*
X97331337Y-89624998D01*
X97573002Y-89866663D01*
X97857169Y-90056537D01*
X98172919Y-90187325D01*
X98508117Y-90254000D01*
X98849883Y-90254000D01*
X99185081Y-90187325D01*
X99500831Y-90056537D01*
X99784998Y-89866663D01*
X100026663Y-89624998D01*
X100216537Y-89340831D01*
X100347325Y-89025081D01*
X100414000Y-88689883D01*
X100414000Y-88348117D01*
X100347325Y-88012919D01*
X100216537Y-87697169D01*
X100026663Y-87413002D01*
X99784998Y-87171337D01*
X99500831Y-86981463D01*
X99185081Y-86850675D01*
X98849883Y-86784000D01*
X98508117Y-86784000D01*
X98172919Y-86850675D01*
X97857169Y-86981463D01*
X97573002Y-87171337D01*
X97331337Y-87413002D01*
X97141463Y-87697169D01*
X97010675Y-88012919D01*
X96944000Y-88348117D01*
X87837155Y-88348117D01*
X87922817Y-88277817D01*
X88009667Y-88171989D01*
X88074202Y-88051252D01*
X88113943Y-87920244D01*
X88127362Y-87784000D01*
X88124000Y-87749865D01*
X88124000Y-75318134D01*
X88127362Y-75284000D01*
X88113943Y-75147756D01*
X88074202Y-75016748D01*
X88009667Y-74896011D01*
X87922817Y-74790183D01*
X87816989Y-74703333D01*
X87696252Y-74638798D01*
X87565244Y-74599057D01*
X87463135Y-74589000D01*
X87429000Y-74585638D01*
X87394866Y-74589000D01*
X87174000Y-74589000D01*
X87174000Y-74568135D01*
X87177362Y-74534000D01*
X87163943Y-74397756D01*
X87124202Y-74266748D01*
X87059667Y-74146011D01*
X86972817Y-74040183D01*
X86866989Y-73953333D01*
X86746252Y-73888798D01*
X86615244Y-73849057D01*
X86513135Y-73839000D01*
X86479000Y-73835638D01*
X86444866Y-73839000D01*
X72813134Y-73839000D01*
X72779000Y-73835638D01*
X72744865Y-73839000D01*
X72642756Y-73849057D01*
X72511748Y-73888798D01*
X72391011Y-73953333D01*
X72285183Y-74040183D01*
X72198333Y-74146011D01*
X72133798Y-74266748D01*
X72094057Y-74397756D01*
X72080638Y-74534000D01*
X72084000Y-74568135D01*
X72084000Y-74589000D01*
X71863134Y-74589000D01*
X71829000Y-74585638D01*
X71794865Y-74589000D01*
X71692756Y-74599057D01*
X71561748Y-74638798D01*
X71441011Y-74703333D01*
X71335183Y-74790183D01*
X71248333Y-74896011D01*
X71183798Y-75016748D01*
X71144057Y-75147756D01*
X71130638Y-75284000D01*
X31274547Y-75284000D01*
X31271528Y-61274000D01*
X33030638Y-61274000D01*
X33034000Y-61308134D01*
X33034001Y-73739855D01*
X33030638Y-73774000D01*
X33044057Y-73910244D01*
X33083798Y-74041252D01*
X33148333Y-74161989D01*
X33235183Y-74267817D01*
X33341011Y-74354667D01*
X33461748Y-74419202D01*
X33592756Y-74458943D01*
X33694865Y-74469000D01*
X33694866Y-74469000D01*
X33729000Y-74472362D01*
X33763135Y-74469000D01*
X33984000Y-74469000D01*
X33984000Y-74489865D01*
X33980638Y-74524000D01*
X33994057Y-74660244D01*
X34033798Y-74791252D01*
X34098333Y-74911989D01*
X34185183Y-75017817D01*
X34291011Y-75104667D01*
X34411748Y-75169202D01*
X34542756Y-75208943D01*
X34644865Y-75219000D01*
X34644866Y-75219000D01*
X34679000Y-75222362D01*
X34713135Y-75219000D01*
X48344865Y-75219000D01*
X48379000Y-75222362D01*
X48413134Y-75219000D01*
X48413135Y-75219000D01*
X48515244Y-75208943D01*
X48646252Y-75169202D01*
X48766989Y-75104667D01*
X48872817Y-75017817D01*
X48959667Y-74911989D01*
X49024202Y-74791252D01*
X49063943Y-74660244D01*
X49077362Y-74524000D01*
X49074000Y-74489865D01*
X49074000Y-74469000D01*
X49294865Y-74469000D01*
X49329000Y-74472362D01*
X49363134Y-74469000D01*
X49363135Y-74469000D01*
X49465244Y-74458943D01*
X49596252Y-74419202D01*
X49716989Y-74354667D01*
X49822817Y-74267817D01*
X49909667Y-74161989D01*
X49974202Y-74041252D01*
X50013943Y-73910244D01*
X50027362Y-73774000D01*
X50024000Y-73739865D01*
X50024000Y-72744000D01*
X90180638Y-72744000D01*
X90184000Y-72778134D01*
X90184001Y-85209855D01*
X90180638Y-85244000D01*
X90194057Y-85380244D01*
X90233798Y-85511252D01*
X90298333Y-85631989D01*
X90385183Y-85737817D01*
X90491011Y-85824667D01*
X90611748Y-85889202D01*
X90742756Y-85928943D01*
X90844865Y-85939000D01*
X90844866Y-85939000D01*
X90879000Y-85942362D01*
X90913135Y-85939000D01*
X91134000Y-85939000D01*
X91134000Y-85959865D01*
X91130638Y-85994000D01*
X91144057Y-86130244D01*
X91183798Y-86261252D01*
X91248333Y-86381989D01*
X91335183Y-86487817D01*
X91441011Y-86574667D01*
X91561748Y-86639202D01*
X91692756Y-86678943D01*
X91794865Y-86689000D01*
X91794866Y-86689000D01*
X91829000Y-86692362D01*
X91863135Y-86689000D01*
X105494865Y-86689000D01*
X105529000Y-86692362D01*
X105563134Y-86689000D01*
X105563135Y-86689000D01*
X105665244Y-86678943D01*
X105796252Y-86639202D01*
X105916989Y-86574667D01*
X106022817Y-86487817D01*
X106109667Y-86381989D01*
X106174202Y-86261252D01*
X106213943Y-86130244D01*
X106227362Y-85994000D01*
X106224000Y-85959865D01*
X106224000Y-85939000D01*
X106444865Y-85939000D01*
X106479000Y-85942362D01*
X106513134Y-85939000D01*
X106513135Y-85939000D01*
X106615244Y-85928943D01*
X106746252Y-85889202D01*
X106866989Y-85824667D01*
X106972817Y-85737817D01*
X107059667Y-85631989D01*
X107124202Y-85511252D01*
X107163943Y-85380244D01*
X107177362Y-85244000D01*
X107174000Y-85209865D01*
X107174000Y-75284000D01*
X109230638Y-75284000D01*
X109234000Y-75318134D01*
X109234001Y-87749855D01*
X109230638Y-87784000D01*
X109244057Y-87920244D01*
X109283798Y-88051252D01*
X109348333Y-88171989D01*
X109435183Y-88277817D01*
X109541011Y-88364667D01*
X109661748Y-88429202D01*
X109792756Y-88468943D01*
X109894865Y-88479000D01*
X109894866Y-88479000D01*
X109929000Y-88482362D01*
X109963135Y-88479000D01*
X110184000Y-88479000D01*
X110184000Y-88499865D01*
X110180638Y-88534000D01*
X110194057Y-88670244D01*
X110233798Y-88801252D01*
X110298333Y-88921989D01*
X110385183Y-89027817D01*
X110491011Y-89114667D01*
X110611748Y-89179202D01*
X110742756Y-89218943D01*
X110844865Y-89229000D01*
X110844866Y-89229000D01*
X110879000Y-89232362D01*
X110913135Y-89229000D01*
X124544865Y-89229000D01*
X124579000Y-89232362D01*
X124613134Y-89229000D01*
X124613135Y-89229000D01*
X124715244Y-89218943D01*
X124846252Y-89179202D01*
X124966989Y-89114667D01*
X125072817Y-89027817D01*
X125159667Y-88921989D01*
X125224202Y-88801252D01*
X125263943Y-88670244D01*
X125277362Y-88534000D01*
X125274000Y-88499865D01*
X125274000Y-88479000D01*
X125494865Y-88479000D01*
X125529000Y-88482362D01*
X125563134Y-88479000D01*
X125563135Y-88479000D01*
X125665244Y-88468943D01*
X125796252Y-88429202D01*
X125916989Y-88364667D01*
X126022817Y-88277817D01*
X126109667Y-88171989D01*
X126174202Y-88051252D01*
X126213943Y-87920244D01*
X126227362Y-87784000D01*
X126224000Y-87749865D01*
X126224000Y-77824000D01*
X128280638Y-77824000D01*
X128284000Y-77858134D01*
X128284001Y-90289855D01*
X128280638Y-90324000D01*
X128294057Y-90460244D01*
X128333798Y-90591252D01*
X128398333Y-90711989D01*
X128485183Y-90817817D01*
X128591011Y-90904667D01*
X128711748Y-90969202D01*
X128842756Y-91008943D01*
X128944865Y-91019000D01*
X128944866Y-91019000D01*
X128979000Y-91022362D01*
X129013135Y-91019000D01*
X129234000Y-91019000D01*
X129234000Y-91039865D01*
X129230638Y-91074000D01*
X129244057Y-91210244D01*
X129283798Y-91341252D01*
X129348333Y-91461989D01*
X129435183Y-91567817D01*
X129541011Y-91654667D01*
X129661748Y-91719202D01*
X129792756Y-91758943D01*
X129894865Y-91769000D01*
X129894866Y-91769000D01*
X129929000Y-91772362D01*
X129963135Y-91769000D01*
X143594865Y-91769000D01*
X143629000Y-91772362D01*
X143663134Y-91769000D01*
X143663135Y-91769000D01*
X143765244Y-91758943D01*
X143896252Y-91719202D01*
X144016989Y-91654667D01*
X144122817Y-91567817D01*
X144209667Y-91461989D01*
X144274202Y-91341252D01*
X144313943Y-91210244D01*
X144327362Y-91074000D01*
X144324000Y-91039865D01*
X144324000Y-91019000D01*
X144544865Y-91019000D01*
X144579000Y-91022362D01*
X144613134Y-91019000D01*
X144613135Y-91019000D01*
X144715244Y-91008943D01*
X144846252Y-90969202D01*
X144966989Y-90904667D01*
X145072817Y-90817817D01*
X145159667Y-90711989D01*
X145224202Y-90591252D01*
X145263943Y-90460244D01*
X145277362Y-90324000D01*
X145274000Y-90289865D01*
X145274000Y-77858134D01*
X145277362Y-77824000D01*
X145263943Y-77687756D01*
X145224202Y-77556748D01*
X145159667Y-77436011D01*
X145072817Y-77330183D01*
X144966989Y-77243333D01*
X144846252Y-77178798D01*
X144715244Y-77139057D01*
X144613135Y-77129000D01*
X144579000Y-77125638D01*
X144544866Y-77129000D01*
X144324000Y-77129000D01*
X144324000Y-77108135D01*
X144327362Y-77074000D01*
X144322223Y-77021818D01*
X144313943Y-76937756D01*
X144274202Y-76806748D01*
X144209667Y-76686011D01*
X144122817Y-76580183D01*
X144016989Y-76493333D01*
X143896252Y-76428798D01*
X143765244Y-76389057D01*
X143710225Y-76383638D01*
X143663135Y-76379000D01*
X143629000Y-76375638D01*
X143594866Y-76379000D01*
X129963134Y-76379000D01*
X129929000Y-76375638D01*
X129894865Y-76379000D01*
X129792756Y-76389057D01*
X129661748Y-76428798D01*
X129541011Y-76493333D01*
X129435183Y-76580183D01*
X129348333Y-76686011D01*
X129283798Y-76806748D01*
X129244057Y-76937756D01*
X129230638Y-77074000D01*
X129234000Y-77108135D01*
X129234000Y-77129000D01*
X129013134Y-77129000D01*
X128979000Y-77125638D01*
X128944865Y-77129000D01*
X128842756Y-77139057D01*
X128711748Y-77178798D01*
X128591011Y-77243333D01*
X128485183Y-77330183D01*
X128398333Y-77436011D01*
X128333798Y-77556748D01*
X128294057Y-77687756D01*
X128280638Y-77824000D01*
X126224000Y-77824000D01*
X126224000Y-75318134D01*
X126227362Y-75284000D01*
X126213943Y-75147756D01*
X126174202Y-75016748D01*
X126109667Y-74896011D01*
X126022817Y-74790183D01*
X125916989Y-74703333D01*
X125796252Y-74638798D01*
X125665244Y-74599057D01*
X125563135Y-74589000D01*
X125529000Y-74585638D01*
X125494866Y-74589000D01*
X125274000Y-74589000D01*
X125274000Y-74568135D01*
X125277362Y-74534000D01*
X125263943Y-74397756D01*
X125224202Y-74266748D01*
X125159667Y-74146011D01*
X125072817Y-74040183D01*
X124966989Y-73953333D01*
X124846252Y-73888798D01*
X124715244Y-73849057D01*
X124613135Y-73839000D01*
X124579000Y-73835638D01*
X124544866Y-73839000D01*
X110913134Y-73839000D01*
X110879000Y-73835638D01*
X110844865Y-73839000D01*
X110742756Y-73849057D01*
X110611748Y-73888798D01*
X110491011Y-73953333D01*
X110385183Y-74040183D01*
X110298333Y-74146011D01*
X110233798Y-74266748D01*
X110194057Y-74397756D01*
X110180638Y-74534000D01*
X110184000Y-74568135D01*
X110184000Y-74589000D01*
X109963134Y-74589000D01*
X109929000Y-74585638D01*
X109894865Y-74589000D01*
X109792756Y-74599057D01*
X109661748Y-74638798D01*
X109541011Y-74703333D01*
X109435183Y-74790183D01*
X109348333Y-74896011D01*
X109283798Y-75016748D01*
X109244057Y-75147756D01*
X109230638Y-75284000D01*
X107174000Y-75284000D01*
X107174000Y-72778134D01*
X107177362Y-72744000D01*
X107163943Y-72607756D01*
X107124202Y-72476748D01*
X107059667Y-72356011D01*
X106972817Y-72250183D01*
X106866989Y-72163333D01*
X106746252Y-72098798D01*
X106615244Y-72059057D01*
X106513135Y-72049000D01*
X106479000Y-72045638D01*
X106444866Y-72049000D01*
X106224000Y-72049000D01*
X106224000Y-72028135D01*
X106227362Y-71994000D01*
X106213943Y-71857756D01*
X106174202Y-71726748D01*
X106109667Y-71606011D01*
X106022817Y-71500183D01*
X105916989Y-71413333D01*
X105796252Y-71348798D01*
X105665244Y-71309057D01*
X105563135Y-71299000D01*
X105529000Y-71295638D01*
X105494866Y-71299000D01*
X91863134Y-71299000D01*
X91829000Y-71295638D01*
X91794865Y-71299000D01*
X91692756Y-71309057D01*
X91561748Y-71348798D01*
X91441011Y-71413333D01*
X91335183Y-71500183D01*
X91248333Y-71606011D01*
X91183798Y-71726748D01*
X91144057Y-71857756D01*
X91130638Y-71994000D01*
X91134000Y-72028135D01*
X91134000Y-72049000D01*
X90913134Y-72049000D01*
X90879000Y-72045638D01*
X90844865Y-72049000D01*
X90742756Y-72059057D01*
X90611748Y-72098798D01*
X90491011Y-72163333D01*
X90385183Y-72250183D01*
X90298333Y-72356011D01*
X90233798Y-72476748D01*
X90194057Y-72607756D01*
X90180638Y-72744000D01*
X50024000Y-72744000D01*
X50024000Y-61308134D01*
X50027362Y-61274000D01*
X50013943Y-61137756D01*
X49974202Y-61006748D01*
X49909667Y-60886011D01*
X49822817Y-60780183D01*
X49716989Y-60693333D01*
X49596252Y-60628798D01*
X49465244Y-60589057D01*
X49363135Y-60579000D01*
X49329000Y-60575638D01*
X49294866Y-60579000D01*
X49074000Y-60579000D01*
X49074000Y-60558135D01*
X49077362Y-60524000D01*
X49063943Y-60387756D01*
X49024202Y-60256748D01*
X48959667Y-60136011D01*
X48872817Y-60030183D01*
X48766989Y-59943333D01*
X48646252Y-59878798D01*
X48515244Y-59839057D01*
X48413135Y-59829000D01*
X48379000Y-59825638D01*
X48344866Y-59829000D01*
X34713134Y-59829000D01*
X34679000Y-59825638D01*
X34644865Y-59829000D01*
X34542756Y-59839057D01*
X34411748Y-59878798D01*
X34291011Y-59943333D01*
X34185183Y-60030183D01*
X34098333Y-60136011D01*
X34033798Y-60256748D01*
X33994057Y-60387756D01*
X33980638Y-60524000D01*
X33984000Y-60558135D01*
X33984000Y-60579000D01*
X33763134Y-60579000D01*
X33729000Y-60575638D01*
X33694865Y-60579000D01*
X33592756Y-60589057D01*
X33461748Y-60628798D01*
X33341011Y-60693333D01*
X33235183Y-60780183D01*
X33148333Y-60886011D01*
X33083798Y-61006748D01*
X33044057Y-61137756D01*
X33030638Y-61274000D01*
X31271528Y-61274000D01*
X31270786Y-57828117D01*
X49319000Y-57828117D01*
X49319000Y-58169883D01*
X49385675Y-58505081D01*
X49516463Y-58820831D01*
X49706337Y-59104998D01*
X49948002Y-59346663D01*
X50232169Y-59536537D01*
X50547919Y-59667325D01*
X50883117Y-59734000D01*
X51224883Y-59734000D01*
X51560081Y-59667325D01*
X51875831Y-59536537D01*
X52084000Y-59397443D01*
X52084001Y-71239855D01*
X52080638Y-71274000D01*
X52094057Y-71410244D01*
X52133798Y-71541252D01*
X52198333Y-71661989D01*
X52285183Y-71767817D01*
X52391011Y-71854667D01*
X52511748Y-71919202D01*
X52642756Y-71958943D01*
X52744865Y-71969000D01*
X52744866Y-71969000D01*
X52779000Y-71972362D01*
X52813135Y-71969000D01*
X53034000Y-71969000D01*
X53034000Y-71989865D01*
X53030638Y-72024000D01*
X53044057Y-72160244D01*
X53083798Y-72291252D01*
X53148333Y-72411989D01*
X53235183Y-72517817D01*
X53341011Y-72604667D01*
X53461748Y-72669202D01*
X53592756Y-72708943D01*
X53694865Y-72719000D01*
X53694866Y-72719000D01*
X53729000Y-72722362D01*
X53763135Y-72719000D01*
X67394865Y-72719000D01*
X67429000Y-72722362D01*
X67463134Y-72719000D01*
X67463135Y-72719000D01*
X67565244Y-72708943D01*
X67696252Y-72669202D01*
X67816989Y-72604667D01*
X67922817Y-72517817D01*
X68009667Y-72411989D01*
X68074202Y-72291252D01*
X68113943Y-72160244D01*
X68127362Y-72024000D01*
X68124000Y-71989865D01*
X68124000Y-71969000D01*
X68344865Y-71969000D01*
X68379000Y-71972362D01*
X68413134Y-71969000D01*
X68413135Y-71969000D01*
X68515244Y-71958943D01*
X68646252Y-71919202D01*
X68766989Y-71854667D01*
X68872817Y-71767817D01*
X68959667Y-71661989D01*
X69024202Y-71541252D01*
X69063943Y-71410244D01*
X69077362Y-71274000D01*
X69074000Y-71239865D01*
X69074000Y-58808134D01*
X69077362Y-58774000D01*
X69063943Y-58637756D01*
X69024202Y-58506748D01*
X68959667Y-58386011D01*
X68872817Y-58280183D01*
X68766989Y-58193333D01*
X68646252Y-58128798D01*
X68515244Y-58089057D01*
X68413135Y-58079000D01*
X68379000Y-58075638D01*
X68344866Y-58079000D01*
X68124000Y-58079000D01*
X68124000Y-58058135D01*
X68127362Y-58024000D01*
X68113943Y-57887756D01*
X68074202Y-57756748D01*
X68009667Y-57636011D01*
X67922817Y-57530183D01*
X67816989Y-57443333D01*
X67696252Y-57378798D01*
X67565244Y-57339057D01*
X67463135Y-57329000D01*
X67429000Y-57325638D01*
X67394866Y-57329000D01*
X53763134Y-57329000D01*
X53729000Y-57325638D01*
X53694865Y-57329000D01*
X53592756Y-57339057D01*
X53461748Y-57378798D01*
X53341011Y-57443333D01*
X53235183Y-57530183D01*
X53148333Y-57636011D01*
X53083798Y-57756748D01*
X53044057Y-57887756D01*
X53030638Y-58024000D01*
X53034000Y-58058135D01*
X53034000Y-58079000D01*
X52813134Y-58079000D01*
X52789000Y-58076623D01*
X52789000Y-57828117D01*
X52722325Y-57492919D01*
X52591537Y-57177169D01*
X52401663Y-56893002D01*
X52159998Y-56651337D01*
X51875831Y-56461463D01*
X51560081Y-56330675D01*
X51224883Y-56264000D01*
X50883117Y-56264000D01*
X50547919Y-56330675D01*
X50232169Y-56461463D01*
X49948002Y-56651337D01*
X49706337Y-56893002D01*
X49516463Y-57177169D01*
X49385675Y-57492919D01*
X49319000Y-57828117D01*
X31270786Y-57828117D01*
X31270443Y-56234000D01*
X71130638Y-56234000D01*
X71134000Y-56268134D01*
X71134001Y-68699855D01*
X71130638Y-68734000D01*
X71144057Y-68870244D01*
X71183798Y-69001252D01*
X71248333Y-69121989D01*
X71335183Y-69227817D01*
X71441011Y-69314667D01*
X71561748Y-69379202D01*
X71692756Y-69418943D01*
X71794865Y-69429000D01*
X71794866Y-69429000D01*
X71829000Y-69432362D01*
X71863135Y-69429000D01*
X72084000Y-69429000D01*
X72084000Y-69449865D01*
X72080638Y-69484000D01*
X72094057Y-69620244D01*
X72133798Y-69751252D01*
X72198333Y-69871989D01*
X72285183Y-69977817D01*
X72391011Y-70064667D01*
X72511748Y-70129202D01*
X72642756Y-70168943D01*
X72744865Y-70179000D01*
X72744866Y-70179000D01*
X72779000Y-70182362D01*
X72813135Y-70179000D01*
X86444865Y-70179000D01*
X86479000Y-70182362D01*
X86513134Y-70179000D01*
X86513135Y-70179000D01*
X86615244Y-70168943D01*
X86746252Y-70129202D01*
X86866989Y-70064667D01*
X86972817Y-69977817D01*
X87059667Y-69871989D01*
X87124202Y-69751252D01*
X87163943Y-69620244D01*
X87177362Y-69484000D01*
X87174000Y-69449865D01*
X87174000Y-69429000D01*
X87394865Y-69429000D01*
X87429000Y-69432362D01*
X87463134Y-69429000D01*
X87463135Y-69429000D01*
X87565244Y-69418943D01*
X87696252Y-69379202D01*
X87816989Y-69314667D01*
X87922817Y-69227817D01*
X88009667Y-69121989D01*
X88074202Y-69001252D01*
X88113943Y-68870244D01*
X88127362Y-68734000D01*
X88124000Y-68699865D01*
X88124000Y-56268134D01*
X88127362Y-56234000D01*
X88113943Y-56097756D01*
X88074202Y-55966748D01*
X88009667Y-55846011D01*
X87922817Y-55740183D01*
X87816989Y-55653333D01*
X87696252Y-55588798D01*
X87565244Y-55549057D01*
X87463135Y-55539000D01*
X87429000Y-55535638D01*
X87394866Y-55539000D01*
X87174000Y-55539000D01*
X87174000Y-55518135D01*
X87177362Y-55484000D01*
X87163943Y-55347756D01*
X87124202Y-55216748D01*
X87059667Y-55096011D01*
X86972817Y-54990183D01*
X86866989Y-54903333D01*
X86746252Y-54838798D01*
X86615244Y-54799057D01*
X86513135Y-54789000D01*
X86479000Y-54785638D01*
X86444866Y-54789000D01*
X72813134Y-54789000D01*
X72779000Y-54785638D01*
X72744865Y-54789000D01*
X72642756Y-54799057D01*
X72511748Y-54838798D01*
X72391011Y-54903333D01*
X72285183Y-54990183D01*
X72198333Y-55096011D01*
X72133798Y-55216748D01*
X72094057Y-55347756D01*
X72080638Y-55484000D01*
X72084000Y-55518135D01*
X72084000Y-55539000D01*
X71863134Y-55539000D01*
X71829000Y-55535638D01*
X71794865Y-55539000D01*
X71692756Y-55549057D01*
X71561748Y-55588798D01*
X71441011Y-55653333D01*
X71335183Y-55740183D01*
X71248333Y-55846011D01*
X71183798Y-55966748D01*
X71144057Y-56097756D01*
X71130638Y-56234000D01*
X31270443Y-56234000D01*
X31267424Y-42224000D01*
X33030638Y-42224000D01*
X33034000Y-42258134D01*
X33034001Y-54689855D01*
X33030638Y-54724000D01*
X33044057Y-54860244D01*
X33083798Y-54991252D01*
X33148333Y-55111989D01*
X33235183Y-55217817D01*
X33341011Y-55304667D01*
X33461748Y-55369202D01*
X33592756Y-55408943D01*
X33694865Y-55419000D01*
X33694866Y-55419000D01*
X33729000Y-55422362D01*
X33763135Y-55419000D01*
X33984000Y-55419000D01*
X33984000Y-55439865D01*
X33980638Y-55474000D01*
X33994057Y-55610244D01*
X34033798Y-55741252D01*
X34098333Y-55861989D01*
X34185183Y-55967817D01*
X34291011Y-56054667D01*
X34411748Y-56119202D01*
X34542756Y-56158943D01*
X34644865Y-56169000D01*
X34644866Y-56169000D01*
X34679000Y-56172362D01*
X34713135Y-56169000D01*
X48344865Y-56169000D01*
X48379000Y-56172362D01*
X48413134Y-56169000D01*
X48413135Y-56169000D01*
X48515244Y-56158943D01*
X48646252Y-56119202D01*
X48766989Y-56054667D01*
X48872817Y-55967817D01*
X48959667Y-55861989D01*
X49024202Y-55741252D01*
X49063943Y-55610244D01*
X49077362Y-55474000D01*
X49074000Y-55439865D01*
X49074000Y-55419000D01*
X49294865Y-55419000D01*
X49329000Y-55422362D01*
X49363134Y-55419000D01*
X49363135Y-55419000D01*
X49465244Y-55408943D01*
X49596252Y-55369202D01*
X49716989Y-55304667D01*
X49822817Y-55217817D01*
X49909667Y-55111989D01*
X49974202Y-54991252D01*
X50013943Y-54860244D01*
X50027362Y-54724000D01*
X50024000Y-54689865D01*
X50024000Y-53694000D01*
X90180638Y-53694000D01*
X90184000Y-53728134D01*
X90184001Y-66159855D01*
X90180638Y-66194000D01*
X90194057Y-66330244D01*
X90233798Y-66461252D01*
X90298333Y-66581989D01*
X90385183Y-66687817D01*
X90491011Y-66774667D01*
X90611748Y-66839202D01*
X90742756Y-66878943D01*
X90844865Y-66889000D01*
X90844866Y-66889000D01*
X90879000Y-66892362D01*
X90913135Y-66889000D01*
X91134000Y-66889000D01*
X91134000Y-66909865D01*
X91130638Y-66944000D01*
X91144057Y-67080244D01*
X91183798Y-67211252D01*
X91248333Y-67331989D01*
X91335183Y-67437817D01*
X91441011Y-67524667D01*
X91561748Y-67589202D01*
X91692756Y-67628943D01*
X91794865Y-67639000D01*
X91794866Y-67639000D01*
X91829000Y-67642362D01*
X91863135Y-67639000D01*
X105494865Y-67639000D01*
X105529000Y-67642362D01*
X105563134Y-67639000D01*
X105563135Y-67639000D01*
X105665244Y-67628943D01*
X105796252Y-67589202D01*
X105916989Y-67524667D01*
X106022817Y-67437817D01*
X106109667Y-67331989D01*
X106174202Y-67211252D01*
X106213943Y-67080244D01*
X106227362Y-66944000D01*
X106224000Y-66909865D01*
X106224000Y-66889000D01*
X106444865Y-66889000D01*
X106479000Y-66892362D01*
X106513134Y-66889000D01*
X106513135Y-66889000D01*
X106615244Y-66878943D01*
X106746252Y-66839202D01*
X106866989Y-66774667D01*
X106972817Y-66687817D01*
X107059667Y-66581989D01*
X107124202Y-66461252D01*
X107163943Y-66330244D01*
X107170417Y-66264509D01*
X107174000Y-66228135D01*
X107174000Y-66228134D01*
X107177362Y-66194000D01*
X107174000Y-66159865D01*
X107174000Y-56234000D01*
X109230638Y-56234000D01*
X109234000Y-56268134D01*
X109234001Y-68699855D01*
X109230638Y-68734000D01*
X109244057Y-68870244D01*
X109283798Y-69001252D01*
X109348333Y-69121989D01*
X109435183Y-69227817D01*
X109541011Y-69314667D01*
X109661748Y-69379202D01*
X109792756Y-69418943D01*
X109894865Y-69429000D01*
X109894866Y-69429000D01*
X109929000Y-69432362D01*
X109963135Y-69429000D01*
X110184000Y-69429000D01*
X110184000Y-69449865D01*
X110180638Y-69484000D01*
X110194057Y-69620244D01*
X110233798Y-69751252D01*
X110298333Y-69871989D01*
X110385183Y-69977817D01*
X110491011Y-70064667D01*
X110611748Y-70129202D01*
X110742756Y-70168943D01*
X110844865Y-70179000D01*
X110844866Y-70179000D01*
X110879000Y-70182362D01*
X110913135Y-70179000D01*
X124544865Y-70179000D01*
X124579000Y-70182362D01*
X124613134Y-70179000D01*
X124613135Y-70179000D01*
X124715244Y-70168943D01*
X124846252Y-70129202D01*
X124966989Y-70064667D01*
X125072817Y-69977817D01*
X125159667Y-69871989D01*
X125224202Y-69751252D01*
X125263943Y-69620244D01*
X125277362Y-69484000D01*
X125274000Y-69449865D01*
X125274000Y-69429000D01*
X125494865Y-69429000D01*
X125529000Y-69432362D01*
X125563134Y-69429000D01*
X125563135Y-69429000D01*
X125665244Y-69418943D01*
X125796252Y-69379202D01*
X125916989Y-69314667D01*
X126022817Y-69227817D01*
X126109667Y-69121989D01*
X126174202Y-69001252D01*
X126213943Y-68870244D01*
X126227362Y-68734000D01*
X126224000Y-68699865D01*
X126224000Y-58774000D01*
X128280638Y-58774000D01*
X128284000Y-58808134D01*
X128284001Y-71239855D01*
X128280638Y-71274000D01*
X128294057Y-71410244D01*
X128333798Y-71541252D01*
X128398333Y-71661989D01*
X128485183Y-71767817D01*
X128591011Y-71854667D01*
X128711748Y-71919202D01*
X128842756Y-71958943D01*
X128944865Y-71969000D01*
X128944866Y-71969000D01*
X128979000Y-71972362D01*
X129013135Y-71969000D01*
X129234000Y-71969000D01*
X129234000Y-71989865D01*
X129230638Y-72024000D01*
X129244057Y-72160244D01*
X129283798Y-72291252D01*
X129348333Y-72411989D01*
X129435183Y-72517817D01*
X129541011Y-72604667D01*
X129661748Y-72669202D01*
X129792756Y-72708943D01*
X129894865Y-72719000D01*
X129894866Y-72719000D01*
X129929000Y-72722362D01*
X129963135Y-72719000D01*
X143594865Y-72719000D01*
X143629000Y-72722362D01*
X143663134Y-72719000D01*
X143663135Y-72719000D01*
X143765244Y-72708943D01*
X143896252Y-72669202D01*
X144016989Y-72604667D01*
X144122817Y-72517817D01*
X144209667Y-72411989D01*
X144274202Y-72291252D01*
X144313943Y-72160244D01*
X144327362Y-72024000D01*
X144324000Y-71989865D01*
X144324000Y-71969000D01*
X144544865Y-71969000D01*
X144579000Y-71972362D01*
X144613134Y-71969000D01*
X144613135Y-71969000D01*
X144715244Y-71958943D01*
X144846252Y-71919202D01*
X144966989Y-71854667D01*
X145072817Y-71767817D01*
X145159667Y-71661989D01*
X145224202Y-71541252D01*
X145263943Y-71410244D01*
X145277362Y-71274000D01*
X145274000Y-71239865D01*
X145274000Y-58808134D01*
X145277362Y-58774000D01*
X145263943Y-58637756D01*
X145224202Y-58506748D01*
X145159667Y-58386011D01*
X145072817Y-58280183D01*
X144966989Y-58193333D01*
X144846252Y-58128798D01*
X144715244Y-58089057D01*
X144613135Y-58079000D01*
X144579000Y-58075638D01*
X144544866Y-58079000D01*
X144324000Y-58079000D01*
X144324000Y-58058135D01*
X144327362Y-58024000D01*
X144313943Y-57887756D01*
X144274202Y-57756748D01*
X144209667Y-57636011D01*
X144122817Y-57530183D01*
X144016989Y-57443333D01*
X143896252Y-57378798D01*
X143765244Y-57339057D01*
X143663135Y-57329000D01*
X143629000Y-57325638D01*
X143594866Y-57329000D01*
X129963134Y-57329000D01*
X129929000Y-57325638D01*
X129894865Y-57329000D01*
X129792756Y-57339057D01*
X129661748Y-57378798D01*
X129541011Y-57443333D01*
X129435183Y-57530183D01*
X129348333Y-57636011D01*
X129283798Y-57756748D01*
X129244057Y-57887756D01*
X129230638Y-58024000D01*
X129234000Y-58058135D01*
X129234000Y-58079000D01*
X129013134Y-58079000D01*
X128979000Y-58075638D01*
X128944865Y-58079000D01*
X128842756Y-58089057D01*
X128711748Y-58128798D01*
X128591011Y-58193333D01*
X128485183Y-58280183D01*
X128398333Y-58386011D01*
X128333798Y-58506748D01*
X128294057Y-58637756D01*
X128280638Y-58774000D01*
X126224000Y-58774000D01*
X126224000Y-56268134D01*
X126227362Y-56234000D01*
X126213943Y-56097756D01*
X126174202Y-55966748D01*
X126109667Y-55846011D01*
X126022817Y-55740183D01*
X125916989Y-55653333D01*
X125796252Y-55588798D01*
X125665244Y-55549057D01*
X125563135Y-55539000D01*
X125529000Y-55535638D01*
X125494866Y-55539000D01*
X125274000Y-55539000D01*
X125274000Y-55518135D01*
X125277362Y-55484000D01*
X125263943Y-55347756D01*
X125224202Y-55216748D01*
X125159667Y-55096011D01*
X125072817Y-54990183D01*
X124966989Y-54903333D01*
X124846252Y-54838798D01*
X124715244Y-54799057D01*
X124613135Y-54789000D01*
X124579000Y-54785638D01*
X124544866Y-54789000D01*
X110913134Y-54789000D01*
X110879000Y-54785638D01*
X110844865Y-54789000D01*
X110742756Y-54799057D01*
X110611748Y-54838798D01*
X110491011Y-54903333D01*
X110385183Y-54990183D01*
X110298333Y-55096011D01*
X110233798Y-55216748D01*
X110194057Y-55347756D01*
X110180638Y-55484000D01*
X110184000Y-55518135D01*
X110184000Y-55539000D01*
X109963134Y-55539000D01*
X109929000Y-55535638D01*
X109894865Y-55539000D01*
X109792756Y-55549057D01*
X109661748Y-55588798D01*
X109541011Y-55653333D01*
X109435183Y-55740183D01*
X109348333Y-55846011D01*
X109283798Y-55966748D01*
X109244057Y-56097756D01*
X109230638Y-56234000D01*
X107174000Y-56234000D01*
X107174000Y-53728134D01*
X107177362Y-53694000D01*
X107163943Y-53557756D01*
X107124202Y-53426748D01*
X107059667Y-53306011D01*
X106972817Y-53200183D01*
X106866989Y-53113333D01*
X106746252Y-53048798D01*
X106615244Y-53009057D01*
X106513135Y-52999000D01*
X106479000Y-52995638D01*
X106444866Y-52999000D01*
X106224000Y-52999000D01*
X106224000Y-52978135D01*
X106227362Y-52944000D01*
X106213943Y-52807756D01*
X106174202Y-52676748D01*
X106109667Y-52556011D01*
X106022817Y-52450183D01*
X105916989Y-52363333D01*
X105796252Y-52298798D01*
X105665244Y-52259057D01*
X105563135Y-52249000D01*
X105529000Y-52245638D01*
X105494866Y-52249000D01*
X91863134Y-52249000D01*
X91829000Y-52245638D01*
X91794865Y-52249000D01*
X91692756Y-52259057D01*
X91561748Y-52298798D01*
X91441011Y-52363333D01*
X91335183Y-52450183D01*
X91248333Y-52556011D01*
X91183798Y-52676748D01*
X91144057Y-52807756D01*
X91130638Y-52944000D01*
X91134000Y-52978135D01*
X91134000Y-52999000D01*
X90913134Y-52999000D01*
X90879000Y-52995638D01*
X90844865Y-52999000D01*
X90742756Y-53009057D01*
X90611748Y-53048798D01*
X90491011Y-53113333D01*
X90385183Y-53200183D01*
X90298333Y-53306011D01*
X90233798Y-53426748D01*
X90194057Y-53557756D01*
X90180638Y-53694000D01*
X50024000Y-53694000D01*
X50024000Y-42258134D01*
X50027362Y-42224000D01*
X50013943Y-42087756D01*
X49974202Y-41956748D01*
X49909667Y-41836011D01*
X49822817Y-41730183D01*
X49716989Y-41643333D01*
X49596252Y-41578798D01*
X49465244Y-41539057D01*
X49363135Y-41529000D01*
X49329000Y-41525638D01*
X49294866Y-41529000D01*
X49074000Y-41529000D01*
X49074000Y-41508135D01*
X49077362Y-41474000D01*
X49063943Y-41337756D01*
X49024202Y-41206748D01*
X48959667Y-41086011D01*
X48872817Y-40980183D01*
X48766989Y-40893333D01*
X48646252Y-40828798D01*
X48515244Y-40789057D01*
X48413135Y-40779000D01*
X48379000Y-40775638D01*
X48344866Y-40779000D01*
X34713134Y-40779000D01*
X34679000Y-40775638D01*
X34644865Y-40779000D01*
X34542756Y-40789057D01*
X34411748Y-40828798D01*
X34291011Y-40893333D01*
X34185183Y-40980183D01*
X34098333Y-41086011D01*
X34033798Y-41206748D01*
X33994057Y-41337756D01*
X33980638Y-41474000D01*
X33984000Y-41508135D01*
X33984000Y-41529000D01*
X33763134Y-41529000D01*
X33729000Y-41525638D01*
X33694865Y-41529000D01*
X33592756Y-41539057D01*
X33461748Y-41578798D01*
X33341011Y-41643333D01*
X33235183Y-41730183D01*
X33148333Y-41836011D01*
X33083798Y-41956748D01*
X33044057Y-42087756D01*
X33030638Y-42224000D01*
X31267424Y-42224000D01*
X31267007Y-40291207D01*
X31296535Y-39990056D01*
X31374643Y-39731351D01*
X31378551Y-39724000D01*
X52080638Y-39724000D01*
X52084000Y-39758134D01*
X52084001Y-52189855D01*
X52080638Y-52224000D01*
X52094057Y-52360244D01*
X52133798Y-52491252D01*
X52198333Y-52611989D01*
X52285183Y-52717817D01*
X52391011Y-52804667D01*
X52511748Y-52869202D01*
X52642756Y-52908943D01*
X52744865Y-52919000D01*
X52744866Y-52919000D01*
X52779000Y-52922362D01*
X52813135Y-52919000D01*
X53034000Y-52919000D01*
X53034000Y-52939865D01*
X53030638Y-52974000D01*
X53044057Y-53110244D01*
X53083798Y-53241252D01*
X53148333Y-53361989D01*
X53235183Y-53467817D01*
X53341011Y-53554667D01*
X53461748Y-53619202D01*
X53592756Y-53658943D01*
X53694865Y-53669000D01*
X53694866Y-53669000D01*
X53729000Y-53672362D01*
X53763135Y-53669000D01*
X67394865Y-53669000D01*
X67429000Y-53672362D01*
X67463134Y-53669000D01*
X67463135Y-53669000D01*
X67565244Y-53658943D01*
X67696252Y-53619202D01*
X67816989Y-53554667D01*
X67922817Y-53467817D01*
X68009667Y-53361989D01*
X68074202Y-53241252D01*
X68113943Y-53110244D01*
X68127362Y-52974000D01*
X68124000Y-52939865D01*
X68124000Y-52919000D01*
X68344865Y-52919000D01*
X68379000Y-52922362D01*
X68413134Y-52919000D01*
X68413135Y-52919000D01*
X68515244Y-52908943D01*
X68646252Y-52869202D01*
X68766989Y-52804667D01*
X68872817Y-52717817D01*
X68959667Y-52611989D01*
X69024202Y-52491252D01*
X69063943Y-52360244D01*
X69077362Y-52224000D01*
X69074000Y-52189865D01*
X69074000Y-39758134D01*
X69077362Y-39724000D01*
X69063943Y-39587756D01*
X69024202Y-39456748D01*
X68959667Y-39336011D01*
X68872817Y-39230183D01*
X68766989Y-39143333D01*
X68646252Y-39078798D01*
X68515244Y-39039057D01*
X68413135Y-39029000D01*
X68379000Y-39025638D01*
X68344866Y-39029000D01*
X68124000Y-39029000D01*
X68124000Y-39008135D01*
X68127362Y-38974000D01*
X68113943Y-38837756D01*
X68074202Y-38706748D01*
X68009667Y-38586011D01*
X67922817Y-38480183D01*
X67816989Y-38393333D01*
X67696252Y-38328798D01*
X67565244Y-38289057D01*
X67463135Y-38279000D01*
X67429000Y-38275638D01*
X67394866Y-38279000D01*
X53763134Y-38279000D01*
X53729000Y-38275638D01*
X53694865Y-38279000D01*
X53592756Y-38289057D01*
X53461748Y-38328798D01*
X53341011Y-38393333D01*
X53235183Y-38480183D01*
X53148333Y-38586011D01*
X53083798Y-38706748D01*
X53044057Y-38837756D01*
X53030638Y-38974000D01*
X53034000Y-39008135D01*
X53034000Y-39029000D01*
X52813134Y-39029000D01*
X52779000Y-39025638D01*
X52744865Y-39029000D01*
X52642756Y-39039057D01*
X52511748Y-39078798D01*
X52391011Y-39143333D01*
X52285183Y-39230183D01*
X52198333Y-39336011D01*
X52133798Y-39456748D01*
X52094057Y-39587756D01*
X52080638Y-39724000D01*
X31378551Y-39724000D01*
X31501510Y-39492747D01*
X31672307Y-39283330D01*
X31880529Y-39111074D01*
X32118243Y-38982543D01*
X32395017Y-38896867D01*
X32499187Y-38879691D01*
X44924142Y-37184000D01*
X71130638Y-37184000D01*
X71134000Y-37218134D01*
X71134001Y-49649855D01*
X71130638Y-49684000D01*
X71144057Y-49820244D01*
X71183798Y-49951252D01*
X71248333Y-50071989D01*
X71335183Y-50177817D01*
X71441011Y-50264667D01*
X71561748Y-50329202D01*
X71692756Y-50368943D01*
X71794865Y-50379000D01*
X71794866Y-50379000D01*
X71829000Y-50382362D01*
X71863135Y-50379000D01*
X72084000Y-50379000D01*
X72084000Y-50399865D01*
X72080638Y-50434000D01*
X72094057Y-50570244D01*
X72133798Y-50701252D01*
X72198333Y-50821989D01*
X72285183Y-50927817D01*
X72391011Y-51014667D01*
X72511748Y-51079202D01*
X72642756Y-51118943D01*
X72744865Y-51129000D01*
X72744866Y-51129000D01*
X72779000Y-51132362D01*
X72813135Y-51129000D01*
X86444865Y-51129000D01*
X86479000Y-51132362D01*
X86513134Y-51129000D01*
X86513135Y-51129000D01*
X86615244Y-51118943D01*
X86746252Y-51079202D01*
X86866989Y-51014667D01*
X86972817Y-50927817D01*
X87059667Y-50821989D01*
X87124202Y-50701252D01*
X87163943Y-50570244D01*
X87177362Y-50434000D01*
X87174000Y-50399865D01*
X87174000Y-50379000D01*
X87394865Y-50379000D01*
X87429000Y-50382362D01*
X87463134Y-50379000D01*
X87463135Y-50379000D01*
X87565244Y-50368943D01*
X87696252Y-50329202D01*
X87816989Y-50264667D01*
X87837155Y-50248117D01*
X96944000Y-50248117D01*
X96944000Y-50589883D01*
X97010675Y-50925081D01*
X97141463Y-51240831D01*
X97331337Y-51524998D01*
X97573002Y-51766663D01*
X97857169Y-51956537D01*
X98172919Y-52087325D01*
X98508117Y-52154000D01*
X98849883Y-52154000D01*
X99185081Y-52087325D01*
X99500831Y-51956537D01*
X99784998Y-51766663D01*
X100026663Y-51524998D01*
X100216537Y-51240831D01*
X100347325Y-50925081D01*
X100414000Y-50589883D01*
X100414000Y-50248117D01*
X100347325Y-49912919D01*
X100216537Y-49597169D01*
X100026663Y-49313002D01*
X99784998Y-49071337D01*
X99500831Y-48881463D01*
X99185081Y-48750675D01*
X98849883Y-48684000D01*
X98508117Y-48684000D01*
X98172919Y-48750675D01*
X97857169Y-48881463D01*
X97573002Y-49071337D01*
X97331337Y-49313002D01*
X97141463Y-49597169D01*
X97010675Y-49912919D01*
X96944000Y-50248117D01*
X87837155Y-50248117D01*
X87922817Y-50177817D01*
X88009667Y-50071989D01*
X88074202Y-49951252D01*
X88113943Y-49820244D01*
X88127362Y-49684000D01*
X88124000Y-49649865D01*
X88124000Y-37218134D01*
X88127362Y-37184000D01*
X88113943Y-37047756D01*
X88074202Y-36916748D01*
X88009667Y-36796011D01*
X87922817Y-36690183D01*
X87816989Y-36603333D01*
X87696252Y-36538798D01*
X87565244Y-36499057D01*
X87463135Y-36489000D01*
X87429000Y-36485638D01*
X87394866Y-36489000D01*
X87174000Y-36489000D01*
X87174000Y-36468135D01*
X87177362Y-36434000D01*
X87163943Y-36297756D01*
X87124202Y-36166748D01*
X87059667Y-36046011D01*
X86972817Y-35940183D01*
X86866989Y-35853333D01*
X86746252Y-35788798D01*
X86615244Y-35749057D01*
X86513135Y-35739000D01*
X86479000Y-35735638D01*
X86444866Y-35739000D01*
X72813134Y-35739000D01*
X72779000Y-35735638D01*
X72744865Y-35739000D01*
X72642756Y-35749057D01*
X72511748Y-35788798D01*
X72391011Y-35853333D01*
X72285183Y-35940183D01*
X72198333Y-36046011D01*
X72133798Y-36166748D01*
X72094057Y-36297756D01*
X72080638Y-36434000D01*
X72084000Y-36468135D01*
X72084000Y-36489000D01*
X71863134Y-36489000D01*
X71829000Y-36485638D01*
X71794865Y-36489000D01*
X71692756Y-36499057D01*
X71561748Y-36538798D01*
X71441011Y-36603333D01*
X71335183Y-36690183D01*
X71248333Y-36796011D01*
X71183798Y-36916748D01*
X71144057Y-37047756D01*
X71130638Y-37184000D01*
X44924142Y-37184000D01*
X63535661Y-34644000D01*
X90180638Y-34644000D01*
X90184000Y-34678134D01*
X90184001Y-47109855D01*
X90180638Y-47144000D01*
X90194057Y-47280244D01*
X90233798Y-47411252D01*
X90298333Y-47531989D01*
X90385183Y-47637817D01*
X90491011Y-47724667D01*
X90611748Y-47789202D01*
X90742756Y-47828943D01*
X90844865Y-47839000D01*
X90844866Y-47839000D01*
X90879000Y-47842362D01*
X90913135Y-47839000D01*
X91134000Y-47839000D01*
X91134000Y-47859865D01*
X91130638Y-47894000D01*
X91144057Y-48030244D01*
X91183798Y-48161252D01*
X91248333Y-48281989D01*
X91335183Y-48387817D01*
X91441011Y-48474667D01*
X91561748Y-48539202D01*
X91692756Y-48578943D01*
X91794865Y-48589000D01*
X91794866Y-48589000D01*
X91829000Y-48592362D01*
X91863135Y-48589000D01*
X105494865Y-48589000D01*
X105529000Y-48592362D01*
X105563134Y-48589000D01*
X105563135Y-48589000D01*
X105665244Y-48578943D01*
X105796252Y-48539202D01*
X105916989Y-48474667D01*
X106022817Y-48387817D01*
X106109667Y-48281989D01*
X106174202Y-48161252D01*
X106213943Y-48030244D01*
X106227362Y-47894000D01*
X106224000Y-47859865D01*
X106224000Y-47839000D01*
X106444865Y-47839000D01*
X106479000Y-47842362D01*
X106513134Y-47839000D01*
X106513135Y-47839000D01*
X106615244Y-47828943D01*
X106746252Y-47789202D01*
X106866989Y-47724667D01*
X106972817Y-47637817D01*
X107059667Y-47531989D01*
X107124202Y-47411252D01*
X107163943Y-47280244D01*
X107177362Y-47144000D01*
X107174000Y-47109865D01*
X107174000Y-37184000D01*
X109230638Y-37184000D01*
X109234000Y-37218134D01*
X109234001Y-49649855D01*
X109230638Y-49684000D01*
X109244057Y-49820244D01*
X109283798Y-49951252D01*
X109348333Y-50071989D01*
X109435183Y-50177817D01*
X109541011Y-50264667D01*
X109661748Y-50329202D01*
X109792756Y-50368943D01*
X109894865Y-50379000D01*
X109894866Y-50379000D01*
X109929000Y-50382362D01*
X109963135Y-50379000D01*
X110184000Y-50379000D01*
X110184000Y-50399865D01*
X110180638Y-50434000D01*
X110194057Y-50570244D01*
X110233798Y-50701252D01*
X110298333Y-50821989D01*
X110385183Y-50927817D01*
X110491011Y-51014667D01*
X110611748Y-51079202D01*
X110742756Y-51118943D01*
X110844865Y-51129000D01*
X110844866Y-51129000D01*
X110879000Y-51132362D01*
X110913135Y-51129000D01*
X124544865Y-51129000D01*
X124579000Y-51132362D01*
X124613134Y-51129000D01*
X124613135Y-51129000D01*
X124715244Y-51118943D01*
X124846252Y-51079202D01*
X124966989Y-51014667D01*
X125072817Y-50927817D01*
X125159667Y-50821989D01*
X125224202Y-50701252D01*
X125263943Y-50570244D01*
X125277362Y-50434000D01*
X125274000Y-50399865D01*
X125274000Y-50379000D01*
X125494865Y-50379000D01*
X125529000Y-50382362D01*
X125563134Y-50379000D01*
X125563135Y-50379000D01*
X125665244Y-50368943D01*
X125796252Y-50329202D01*
X125916989Y-50264667D01*
X126022817Y-50177817D01*
X126109667Y-50071989D01*
X126174202Y-49951252D01*
X126213943Y-49820244D01*
X126227362Y-49684000D01*
X126224000Y-49649865D01*
X126224000Y-39724000D01*
X128280638Y-39724000D01*
X128284000Y-39758134D01*
X128284001Y-52189855D01*
X128280638Y-52224000D01*
X128294057Y-52360244D01*
X128333798Y-52491252D01*
X128398333Y-52611989D01*
X128485183Y-52717817D01*
X128591011Y-52804667D01*
X128711748Y-52869202D01*
X128842756Y-52908943D01*
X128944865Y-52919000D01*
X128944866Y-52919000D01*
X128979000Y-52922362D01*
X129013135Y-52919000D01*
X129234000Y-52919000D01*
X129234000Y-52939865D01*
X129230638Y-52974000D01*
X129244057Y-53110244D01*
X129283798Y-53241252D01*
X129348333Y-53361989D01*
X129435183Y-53467817D01*
X129541011Y-53554667D01*
X129661748Y-53619202D01*
X129792756Y-53658943D01*
X129894865Y-53669000D01*
X129894866Y-53669000D01*
X129929000Y-53672362D01*
X129963135Y-53669000D01*
X143594865Y-53669000D01*
X143629000Y-53672362D01*
X143663134Y-53669000D01*
X143663135Y-53669000D01*
X143765244Y-53658943D01*
X143896252Y-53619202D01*
X144016989Y-53554667D01*
X144122817Y-53467817D01*
X144209667Y-53361989D01*
X144274202Y-53241252D01*
X144313943Y-53110244D01*
X144327362Y-52974000D01*
X144324000Y-52939865D01*
X144324000Y-52919000D01*
X144544865Y-52919000D01*
X144579000Y-52922362D01*
X144613134Y-52919000D01*
X144613135Y-52919000D01*
X144715244Y-52908943D01*
X144846252Y-52869202D01*
X144966989Y-52804667D01*
X145072817Y-52717817D01*
X145159667Y-52611989D01*
X145224202Y-52491252D01*
X145263943Y-52360244D01*
X145277362Y-52224000D01*
X145274000Y-52189865D01*
X145274000Y-39758134D01*
X145277362Y-39724000D01*
X145263943Y-39587756D01*
X145224202Y-39456748D01*
X145159667Y-39336011D01*
X145072817Y-39230183D01*
X144966989Y-39143333D01*
X144846252Y-39078798D01*
X144715244Y-39039057D01*
X144613135Y-39029000D01*
X144579000Y-39025638D01*
X144544866Y-39029000D01*
X144324000Y-39029000D01*
X144324000Y-39008135D01*
X144327362Y-38974000D01*
X144313943Y-38837756D01*
X144274202Y-38706748D01*
X144209667Y-38586011D01*
X144122817Y-38480183D01*
X144016989Y-38393333D01*
X143896252Y-38328798D01*
X143765244Y-38289057D01*
X143663135Y-38279000D01*
X143629000Y-38275638D01*
X143594866Y-38279000D01*
X129963134Y-38279000D01*
X129929000Y-38275638D01*
X129894865Y-38279000D01*
X129792756Y-38289057D01*
X129661748Y-38328798D01*
X129541011Y-38393333D01*
X129435183Y-38480183D01*
X129348333Y-38586011D01*
X129283798Y-38706748D01*
X129244057Y-38837756D01*
X129230638Y-38974000D01*
X129234000Y-39008135D01*
X129234000Y-39029000D01*
X129013134Y-39029000D01*
X128979000Y-39025638D01*
X128944865Y-39029000D01*
X128842756Y-39039057D01*
X128711748Y-39078798D01*
X128591011Y-39143333D01*
X128485183Y-39230183D01*
X128398333Y-39336011D01*
X128333798Y-39456748D01*
X128294057Y-39587756D01*
X128280638Y-39724000D01*
X126224000Y-39724000D01*
X126224000Y-37218134D01*
X126227362Y-37184000D01*
X126213943Y-37047756D01*
X126174202Y-36916748D01*
X126109667Y-36796011D01*
X126022817Y-36690183D01*
X125916989Y-36603333D01*
X125796252Y-36538798D01*
X125665244Y-36499057D01*
X125563135Y-36489000D01*
X125529000Y-36485638D01*
X125494866Y-36489000D01*
X125274000Y-36489000D01*
X125274000Y-36468135D01*
X125277362Y-36434000D01*
X125263943Y-36297756D01*
X125224202Y-36166748D01*
X125159667Y-36046011D01*
X125072817Y-35940183D01*
X124966989Y-35853333D01*
X124846252Y-35788798D01*
X124715244Y-35749057D01*
X124613135Y-35739000D01*
X124579000Y-35735638D01*
X124544866Y-35739000D01*
X110913134Y-35739000D01*
X110879000Y-35735638D01*
X110844865Y-35739000D01*
X110742756Y-35749057D01*
X110611748Y-35788798D01*
X110491011Y-35853333D01*
X110385183Y-35940183D01*
X110298333Y-36046011D01*
X110233798Y-36166748D01*
X110194057Y-36297756D01*
X110180638Y-36434000D01*
X110184000Y-36468135D01*
X110184000Y-36489000D01*
X109963134Y-36489000D01*
X109929000Y-36485638D01*
X109894865Y-36489000D01*
X109792756Y-36499057D01*
X109661748Y-36538798D01*
X109541011Y-36603333D01*
X109435183Y-36690183D01*
X109348333Y-36796011D01*
X109283798Y-36916748D01*
X109244057Y-37047756D01*
X109230638Y-37184000D01*
X107174000Y-37184000D01*
X107174000Y-34678134D01*
X107177362Y-34644000D01*
X107163943Y-34507756D01*
X107124202Y-34376748D01*
X107059667Y-34256011D01*
X106972817Y-34150183D01*
X106866989Y-34063333D01*
X106746252Y-33998798D01*
X106615244Y-33959057D01*
X106513135Y-33949000D01*
X106479000Y-33945638D01*
X106444866Y-33949000D01*
X106224000Y-33949000D01*
X106224000Y-33928135D01*
X106227362Y-33894000D01*
X106213943Y-33757756D01*
X106174202Y-33626748D01*
X106109667Y-33506011D01*
X106022817Y-33400183D01*
X105916989Y-33313333D01*
X105796252Y-33248798D01*
X105665244Y-33209057D01*
X105563135Y-33199000D01*
X105529000Y-33195638D01*
X105494866Y-33199000D01*
X91863134Y-33199000D01*
X91829000Y-33195638D01*
X91794865Y-33199000D01*
X91692756Y-33209057D01*
X91561748Y-33248798D01*
X91441011Y-33313333D01*
X91335183Y-33400183D01*
X91248333Y-33506011D01*
X91183798Y-33626748D01*
X91144057Y-33757756D01*
X91130638Y-33894000D01*
X91134000Y-33928135D01*
X91134000Y-33949000D01*
X90913134Y-33949000D01*
X90879000Y-33945638D01*
X90844865Y-33949000D01*
X90742756Y-33959057D01*
X90611748Y-33998798D01*
X90491011Y-34063333D01*
X90385183Y-34150183D01*
X90298333Y-34256011D01*
X90233798Y-34376748D01*
X90194057Y-34507756D01*
X90180638Y-34644000D01*
X63535661Y-34644000D01*
X88971535Y-31172649D01*
X89312523Y-31140000D01*
X145890721Y-31140000D01*
X146188875Y-31169234D01*
M02*
