%TF.GenerationSoftware,KiCad,Pcbnew,5.1.6-c6e7f7d~87~ubuntu20.04.1*%
%TF.CreationDate,2020-08-23T18:38:58-05:00*%
%TF.ProjectId,TopPlate,546f7050-6c61-4746-952e-6b696361645f,rev?*%
%TF.SameCoordinates,Original*%
%TF.FileFunction,Legend,Bot*%
%TF.FilePolarity,Positive*%
%FSLAX46Y46*%
G04 Gerber Fmt 4.6, Leading zero omitted, Abs format (unit mm)*
G04 Created by KiCad (PCBNEW 5.1.6-c6e7f7d~87~ubuntu20.04.1) date 2020-08-23 18:38:58*
%MOMM*%
%LPD*%
G01*
G04 APERTURE LIST*
%ADD10C,0.200000*%
G04 APERTURE END LIST*
D10*
X179442666Y-80462380D02*
X179442666Y-79462380D01*
X179347428Y-80081428D02*
X179061714Y-80462380D01*
X179061714Y-79795714D02*
X179442666Y-80176666D01*
X178252190Y-80414761D02*
X178347428Y-80462380D01*
X178537904Y-80462380D01*
X178633142Y-80414761D01*
X178680761Y-80319523D01*
X178680761Y-79938571D01*
X178633142Y-79843333D01*
X178537904Y-79795714D01*
X178347428Y-79795714D01*
X178252190Y-79843333D01*
X178204571Y-79938571D01*
X178204571Y-80033809D01*
X178680761Y-80129047D01*
X177347428Y-80462380D02*
X177347428Y-79938571D01*
X177395047Y-79843333D01*
X177490285Y-79795714D01*
X177680761Y-79795714D01*
X177776000Y-79843333D01*
X177347428Y-80414761D02*
X177442666Y-80462380D01*
X177680761Y-80462380D01*
X177776000Y-80414761D01*
X177823619Y-80319523D01*
X177823619Y-80224285D01*
X177776000Y-80129047D01*
X177680761Y-80081428D01*
X177442666Y-80081428D01*
X177347428Y-80033809D01*
X176871238Y-80462380D02*
X176871238Y-79462380D01*
X176871238Y-79843333D02*
X176776000Y-79795714D01*
X176585523Y-79795714D01*
X176490285Y-79843333D01*
X176442666Y-79890952D01*
X176395047Y-79986190D01*
X176395047Y-80271904D01*
X176442666Y-80367142D01*
X176490285Y-80414761D01*
X176585523Y-80462380D01*
X176776000Y-80462380D01*
X176871238Y-80414761D01*
X175823619Y-80462380D02*
X175918857Y-80414761D01*
X175966476Y-80367142D01*
X176014095Y-80271904D01*
X176014095Y-79986190D01*
X175966476Y-79890952D01*
X175918857Y-79843333D01*
X175823619Y-79795714D01*
X175680761Y-79795714D01*
X175585523Y-79843333D01*
X175537904Y-79890952D01*
X175490285Y-79986190D01*
X175490285Y-80271904D01*
X175537904Y-80367142D01*
X175585523Y-80414761D01*
X175680761Y-80462380D01*
X175823619Y-80462380D01*
X174633142Y-80462380D02*
X174633142Y-79938571D01*
X174680761Y-79843333D01*
X174776000Y-79795714D01*
X174966476Y-79795714D01*
X175061714Y-79843333D01*
X174633142Y-80414761D02*
X174728380Y-80462380D01*
X174966476Y-80462380D01*
X175061714Y-80414761D01*
X175109333Y-80319523D01*
X175109333Y-80224285D01*
X175061714Y-80129047D01*
X174966476Y-80081428D01*
X174728380Y-80081428D01*
X174633142Y-80033809D01*
X174156952Y-80462380D02*
X174156952Y-79795714D01*
X174156952Y-79986190D02*
X174109333Y-79890952D01*
X174061714Y-79843333D01*
X173966476Y-79795714D01*
X173871238Y-79795714D01*
X173109333Y-80462380D02*
X173109333Y-79462380D01*
X173109333Y-80414761D02*
X173204571Y-80462380D01*
X173395047Y-80462380D01*
X173490285Y-80414761D01*
X173537904Y-80367142D01*
X173585523Y-80271904D01*
X173585523Y-79986190D01*
X173537904Y-79890952D01*
X173490285Y-79843333D01*
X173395047Y-79795714D01*
X173204571Y-79795714D01*
X173109333Y-79843333D01*
M02*
