%TF.GenerationSoftware,KiCad,Pcbnew,5.1.6-c6e7f7d~87~ubuntu20.04.1*%
%TF.CreationDate,2020-09-01T20:40:30-05:00*%
%TF.ProjectId,TopPlate,546f7050-6c61-4746-952e-6b696361645f,rev?*%
%TF.SameCoordinates,Original*%
%TF.FileFunction,Profile,NP*%
%FSLAX46Y46*%
G04 Gerber Fmt 4.6, Leading zero omitted, Abs format (unit mm)*
G04 Created by KiCad (PCBNEW 5.1.6-c6e7f7d~87~ubuntu20.04.1) date 2020-09-01 20:40:30*
%MOMM*%
%LPD*%
G01*
G04 APERTURE LIST*
%TA.AperFunction,Profile*%
%ADD10C,0.050000*%
%TD*%
%TA.AperFunction,Profile*%
%ADD11C,0.120000*%
%TD*%
G04 APERTURE END LIST*
D10*
X149987000Y-65786000D02*
G75*
G02*
X147955000Y-63754000I0J2032000D01*
G01*
X156972000Y-65786000D02*
X149987000Y-65786000D01*
X159004000Y-67818000D02*
X159004000Y-74930000D01*
X156972000Y-65786000D02*
G75*
G02*
X159004000Y-67818000I0J-2032000D01*
G01*
X161036000Y-76962000D02*
G75*
G02*
X159004000Y-74930000I0J2032000D01*
G01*
X170434000Y-76962000D02*
G75*
G02*
X172466000Y-78994000I0J-2032000D01*
G01*
X147955000Y-32512000D02*
X147955000Y-63754000D01*
X170434000Y-76962000D02*
X161036000Y-76962000D01*
X89281000Y-30480000D02*
X145923000Y-30480000D01*
X30607000Y-40259000D02*
G75*
G02*
X32400813Y-38227000I2047813J0D01*
G01*
X159639000Y-122864530D02*
X172343455Y-88197985D01*
X30622813Y-113665000D02*
X30607000Y-40259000D01*
X133917985Y-115819545D02*
X157034560Y-124079000D01*
X32654813Y-115697000D02*
X133223000Y-115697000D01*
X32400813Y-38227000D02*
X88895410Y-30516920D01*
X32654813Y-115697000D02*
G75*
G02*
X30622813Y-113665000I0J2032000D01*
G01*
X88895410Y-30516920D02*
G75*
G02*
X89281000Y-30480000I385590J-1995080D01*
G01*
X159639000Y-122864530D02*
G75*
G02*
X157034560Y-124079000I-1909455J694985D01*
G01*
X172466000Y-78994000D02*
X172466000Y-87503000D01*
X133223000Y-115697000D02*
G75*
G02*
X133917985Y-115819545I0J-2032000D01*
G01*
X145923000Y-30480000D02*
G75*
G02*
X147955000Y-32512000I0J-2032000D01*
G01*
X172466000Y-87503000D02*
G75*
G02*
X172343455Y-88197985I-2032000J0D01*
G01*
D11*
%TO.C,K17*%
X125529000Y-37184000D02*
X124579000Y-37184000D01*
X125529000Y-49684000D02*
X125529000Y-37184000D01*
X124579000Y-49684000D02*
X125529000Y-49684000D01*
X124579000Y-50434000D02*
X124579000Y-49684000D01*
X110879000Y-50434000D02*
X124579000Y-50434000D01*
X110879000Y-49684000D02*
X110879000Y-50434000D01*
X109929000Y-49684000D02*
X110879000Y-49684000D01*
X109929000Y-37184000D02*
X109929000Y-49684000D01*
X110879000Y-37184000D02*
X109929000Y-37184000D01*
X110879000Y-36434000D02*
X110879000Y-37184000D01*
X124579000Y-36434000D02*
X110879000Y-36434000D01*
X124579000Y-37184000D02*
X124579000Y-36434000D01*
%TO.C,K16*%
X106479000Y-91794000D02*
X105529000Y-91794000D01*
X106479000Y-104294000D02*
X106479000Y-91794000D01*
X105529000Y-104294000D02*
X106479000Y-104294000D01*
X105529000Y-105044000D02*
X105529000Y-104294000D01*
X91829000Y-105044000D02*
X105529000Y-105044000D01*
X91829000Y-104294000D02*
X91829000Y-105044000D01*
X90879000Y-104294000D02*
X91829000Y-104294000D01*
X90879000Y-91794000D02*
X90879000Y-104294000D01*
X91829000Y-91794000D02*
X90879000Y-91794000D01*
X91829000Y-91044000D02*
X91829000Y-91794000D01*
X105529000Y-91044000D02*
X91829000Y-91044000D01*
X105529000Y-91794000D02*
X105529000Y-91044000D01*
%TO.C,K22*%
X144579000Y-58774000D02*
X143629000Y-58774000D01*
X144579000Y-71274000D02*
X144579000Y-58774000D01*
X143629000Y-71274000D02*
X144579000Y-71274000D01*
X143629000Y-72024000D02*
X143629000Y-71274000D01*
X129929000Y-72024000D02*
X143629000Y-72024000D01*
X129929000Y-71274000D02*
X129929000Y-72024000D01*
X128979000Y-71274000D02*
X129929000Y-71274000D01*
X128979000Y-58774000D02*
X128979000Y-71274000D01*
X129929000Y-58774000D02*
X128979000Y-58774000D01*
X129929000Y-58024000D02*
X129929000Y-58774000D01*
X143629000Y-58024000D02*
X129929000Y-58024000D01*
X143629000Y-58774000D02*
X143629000Y-58024000D01*
%TO.C,K13*%
X106479000Y-34644000D02*
X105529000Y-34644000D01*
X106479000Y-47144000D02*
X106479000Y-34644000D01*
X105529000Y-47144000D02*
X106479000Y-47144000D01*
X105529000Y-47894000D02*
X105529000Y-47144000D01*
X91829000Y-47894000D02*
X105529000Y-47894000D01*
X91829000Y-47144000D02*
X91829000Y-47894000D01*
X90879000Y-47144000D02*
X91829000Y-47144000D01*
X90879000Y-34644000D02*
X90879000Y-47144000D01*
X91829000Y-34644000D02*
X90879000Y-34644000D01*
X91829000Y-33894000D02*
X91829000Y-34644000D01*
X105529000Y-33894000D02*
X91829000Y-33894000D01*
X105529000Y-34644000D02*
X105529000Y-33894000D01*
%TO.C,K07*%
X68379000Y-77824000D02*
X67429000Y-77824000D01*
X68379000Y-90324000D02*
X68379000Y-77824000D01*
X67429000Y-90324000D02*
X68379000Y-90324000D01*
X67429000Y-91074000D02*
X67429000Y-90324000D01*
X53729000Y-91074000D02*
X67429000Y-91074000D01*
X53729000Y-90324000D02*
X53729000Y-91074000D01*
X52779000Y-90324000D02*
X53729000Y-90324000D01*
X52779000Y-77824000D02*
X52779000Y-90324000D01*
X53729000Y-77824000D02*
X52779000Y-77824000D01*
X53729000Y-77074000D02*
X53729000Y-77824000D01*
X67429000Y-77074000D02*
X53729000Y-77074000D01*
X67429000Y-77824000D02*
X67429000Y-77074000D01*
%TO.C,K25*%
X161675624Y-108385388D02*
X160782916Y-108060469D01*
X157400373Y-120131546D02*
X161675624Y-108385388D01*
X156507665Y-119806627D02*
X157400373Y-120131546D01*
X156251149Y-120511396D02*
X156507665Y-119806627D01*
X143377361Y-115825720D02*
X156251149Y-120511396D01*
X143633876Y-115120951D02*
X143377361Y-115825720D01*
X142741168Y-114796032D02*
X143633876Y-115120951D01*
X147016419Y-103049874D02*
X142741168Y-114796032D01*
X147909127Y-103374793D02*
X147016419Y-103049874D01*
X148165643Y-102670024D02*
X147909127Y-103374793D01*
X161039431Y-107355700D02*
X148165643Y-102670024D01*
X160782916Y-108060469D02*
X161039431Y-107355700D01*
%TO.C,K14*%
X106479000Y-53694000D02*
X105529000Y-53694000D01*
X106479000Y-66194000D02*
X106479000Y-53694000D01*
X105529000Y-66194000D02*
X106479000Y-66194000D01*
X105529000Y-66944000D02*
X105529000Y-66194000D01*
X91829000Y-66944000D02*
X105529000Y-66944000D01*
X91829000Y-66194000D02*
X91829000Y-66944000D01*
X90879000Y-66194000D02*
X91829000Y-66194000D01*
X90879000Y-53694000D02*
X90879000Y-66194000D01*
X91829000Y-53694000D02*
X90879000Y-53694000D01*
X91829000Y-52944000D02*
X91829000Y-53694000D01*
X105529000Y-52944000D02*
X91829000Y-52944000D01*
X105529000Y-53694000D02*
X105529000Y-52944000D01*
%TO.C,K04*%
X49329000Y-99374000D02*
X48379000Y-99374000D01*
X49329000Y-111874000D02*
X49329000Y-99374000D01*
X48379000Y-111874000D02*
X49329000Y-111874000D01*
X48379000Y-112624000D02*
X48379000Y-111874000D01*
X34679000Y-112624000D02*
X48379000Y-112624000D01*
X34679000Y-111874000D02*
X34679000Y-112624000D01*
X33729000Y-111874000D02*
X34679000Y-111874000D01*
X33729000Y-99374000D02*
X33729000Y-111874000D01*
X34679000Y-99374000D02*
X33729000Y-99374000D01*
X34679000Y-98624000D02*
X34679000Y-99374000D01*
X48379000Y-98624000D02*
X34679000Y-98624000D01*
X48379000Y-99374000D02*
X48379000Y-98624000D01*
%TO.C,K20*%
X133485371Y-99295182D02*
X132549803Y-99130217D01*
X131314768Y-111605279D02*
X133485371Y-99295182D01*
X130379201Y-111440313D02*
X131314768Y-111605279D01*
X130248965Y-112178919D02*
X130379201Y-111440313D01*
X116757099Y-109799939D02*
X130248965Y-112178919D01*
X116887335Y-109061333D02*
X116757099Y-109799939D01*
X115951767Y-108896368D02*
X116887335Y-109061333D01*
X118122370Y-96586271D02*
X115951767Y-108896368D01*
X119057937Y-96751237D02*
X118122370Y-96586271D01*
X119188173Y-96012631D02*
X119057937Y-96751237D01*
X132680039Y-98391611D02*
X119188173Y-96012631D01*
X132549803Y-99130217D02*
X132680039Y-98391611D01*
%TO.C,K12*%
X87429000Y-94334000D02*
X86479000Y-94334000D01*
X87429000Y-106834000D02*
X87429000Y-94334000D01*
X86479000Y-106834000D02*
X87429000Y-106834000D01*
X86479000Y-107584000D02*
X86479000Y-106834000D01*
X72779000Y-107584000D02*
X86479000Y-107584000D01*
X72779000Y-106834000D02*
X72779000Y-107584000D01*
X71829000Y-106834000D02*
X72779000Y-106834000D01*
X71829000Y-94334000D02*
X71829000Y-106834000D01*
X72779000Y-94334000D02*
X71829000Y-94334000D01*
X72779000Y-93584000D02*
X72779000Y-94334000D01*
X86479000Y-93584000D02*
X72779000Y-93584000D01*
X86479000Y-94334000D02*
X86479000Y-93584000D01*
%TO.C,K19*%
X125529000Y-75284000D02*
X124579000Y-75284000D01*
X125529000Y-87784000D02*
X125529000Y-75284000D01*
X124579000Y-87784000D02*
X125529000Y-87784000D01*
X124579000Y-88534000D02*
X124579000Y-87784000D01*
X110879000Y-88534000D02*
X124579000Y-88534000D01*
X110879000Y-87784000D02*
X110879000Y-88534000D01*
X109929000Y-87784000D02*
X110879000Y-87784000D01*
X109929000Y-75284000D02*
X109929000Y-87784000D01*
X110879000Y-75284000D02*
X109929000Y-75284000D01*
X110879000Y-74534000D02*
X110879000Y-75284000D01*
X124579000Y-74534000D02*
X110879000Y-74534000D01*
X124579000Y-75284000D02*
X124579000Y-74534000D01*
%TO.C,K01*%
X49329000Y-42224000D02*
X48379000Y-42224000D01*
X49329000Y-54724000D02*
X49329000Y-42224000D01*
X48379000Y-54724000D02*
X49329000Y-54724000D01*
X48379000Y-55474000D02*
X48379000Y-54724000D01*
X34679000Y-55474000D02*
X48379000Y-55474000D01*
X34679000Y-54724000D02*
X34679000Y-55474000D01*
X33729000Y-54724000D02*
X34679000Y-54724000D01*
X33729000Y-42224000D02*
X33729000Y-54724000D01*
X34679000Y-42224000D02*
X33729000Y-42224000D01*
X34679000Y-41474000D02*
X34679000Y-42224000D01*
X48379000Y-41474000D02*
X34679000Y-41474000D01*
X48379000Y-42224000D02*
X48379000Y-41474000D01*
%TO.C,K05*%
X68379000Y-39724000D02*
X67429000Y-39724000D01*
X68379000Y-52224000D02*
X68379000Y-39724000D01*
X67429000Y-52224000D02*
X68379000Y-52224000D01*
X67429000Y-52974000D02*
X67429000Y-52224000D01*
X53729000Y-52974000D02*
X67429000Y-52974000D01*
X53729000Y-52224000D02*
X53729000Y-52974000D01*
X52779000Y-52224000D02*
X53729000Y-52224000D01*
X52779000Y-39724000D02*
X52779000Y-52224000D01*
X53729000Y-39724000D02*
X52779000Y-39724000D01*
X53729000Y-38974000D02*
X53729000Y-39724000D01*
X67429000Y-38974000D02*
X53729000Y-38974000D01*
X67429000Y-39724000D02*
X67429000Y-38974000D01*
%TO.C,K06*%
X68379000Y-58774000D02*
X67429000Y-58774000D01*
X68379000Y-71274000D02*
X68379000Y-58774000D01*
X67429000Y-71274000D02*
X68379000Y-71274000D01*
X67429000Y-72024000D02*
X67429000Y-71274000D01*
X53729000Y-72024000D02*
X67429000Y-72024000D01*
X53729000Y-71274000D02*
X53729000Y-72024000D01*
X52779000Y-71274000D02*
X53729000Y-71274000D01*
X52779000Y-58774000D02*
X52779000Y-71274000D01*
X53729000Y-58774000D02*
X52779000Y-58774000D01*
X53729000Y-58024000D02*
X53729000Y-58774000D01*
X67429000Y-58024000D02*
X53729000Y-58024000D01*
X67429000Y-58774000D02*
X67429000Y-58024000D01*
%TO.C,K02*%
X49329000Y-61274000D02*
X48379000Y-61274000D01*
X49329000Y-73774000D02*
X49329000Y-61274000D01*
X48379000Y-73774000D02*
X49329000Y-73774000D01*
X48379000Y-74524000D02*
X48379000Y-73774000D01*
X34679000Y-74524000D02*
X48379000Y-74524000D01*
X34679000Y-73774000D02*
X34679000Y-74524000D01*
X33729000Y-73774000D02*
X34679000Y-73774000D01*
X33729000Y-61274000D02*
X33729000Y-73774000D01*
X34679000Y-61274000D02*
X33729000Y-61274000D01*
X34679000Y-60524000D02*
X34679000Y-61274000D01*
X48379000Y-60524000D02*
X34679000Y-60524000D01*
X48379000Y-61274000D02*
X48379000Y-60524000D01*
%TO.C,K23*%
X144579000Y-77824000D02*
X143629000Y-77824000D01*
X144579000Y-90324000D02*
X144579000Y-77824000D01*
X143629000Y-90324000D02*
X144579000Y-90324000D01*
X143629000Y-91074000D02*
X143629000Y-90324000D01*
X129929000Y-91074000D02*
X143629000Y-91074000D01*
X129929000Y-90324000D02*
X129929000Y-91074000D01*
X128979000Y-90324000D02*
X129929000Y-90324000D01*
X128979000Y-77824000D02*
X128979000Y-90324000D01*
X129929000Y-77824000D02*
X128979000Y-77824000D01*
X129929000Y-77074000D02*
X129929000Y-77824000D01*
X143629000Y-77074000D02*
X129929000Y-77074000D01*
X143629000Y-77824000D02*
X143629000Y-77074000D01*
%TO.C,K03*%
X49329000Y-80324000D02*
X48379000Y-80324000D01*
X49329000Y-92824000D02*
X49329000Y-80324000D01*
X48379000Y-92824000D02*
X49329000Y-92824000D01*
X48379000Y-93574000D02*
X48379000Y-92824000D01*
X34679000Y-93574000D02*
X48379000Y-93574000D01*
X34679000Y-92824000D02*
X34679000Y-93574000D01*
X33729000Y-92824000D02*
X34679000Y-92824000D01*
X33729000Y-80324000D02*
X33729000Y-92824000D01*
X34679000Y-80324000D02*
X33729000Y-80324000D01*
X34679000Y-79574000D02*
X34679000Y-80324000D01*
X48379000Y-79574000D02*
X34679000Y-79574000D01*
X48379000Y-80324000D02*
X48379000Y-79574000D01*
%TO.C,K11*%
X87429000Y-75284000D02*
X86479000Y-75284000D01*
X87429000Y-87784000D02*
X87429000Y-75284000D01*
X86479000Y-87784000D02*
X87429000Y-87784000D01*
X86479000Y-88534000D02*
X86479000Y-87784000D01*
X72779000Y-88534000D02*
X86479000Y-88534000D01*
X72779000Y-87784000D02*
X72779000Y-88534000D01*
X71829000Y-87784000D02*
X72779000Y-87784000D01*
X71829000Y-75284000D02*
X71829000Y-87784000D01*
X72779000Y-75284000D02*
X71829000Y-75284000D01*
X72779000Y-74534000D02*
X72779000Y-75284000D01*
X86479000Y-74534000D02*
X72779000Y-74534000D01*
X86479000Y-75284000D02*
X86479000Y-74534000D01*
%TO.C,K18*%
X125529000Y-56234000D02*
X124579000Y-56234000D01*
X125529000Y-68734000D02*
X125529000Y-56234000D01*
X124579000Y-68734000D02*
X125529000Y-68734000D01*
X124579000Y-69484000D02*
X124579000Y-68734000D01*
X110879000Y-69484000D02*
X124579000Y-69484000D01*
X110879000Y-68734000D02*
X110879000Y-69484000D01*
X109929000Y-68734000D02*
X110879000Y-68734000D01*
X109929000Y-56234000D02*
X109929000Y-68734000D01*
X110879000Y-56234000D02*
X109929000Y-56234000D01*
X110879000Y-55484000D02*
X110879000Y-56234000D01*
X124579000Y-55484000D02*
X110879000Y-55484000D01*
X124579000Y-56234000D02*
X124579000Y-55484000D01*
%TO.C,K21*%
X144579000Y-39724000D02*
X143629000Y-39724000D01*
X144579000Y-52224000D02*
X144579000Y-39724000D01*
X143629000Y-52224000D02*
X144579000Y-52224000D01*
X143629000Y-52974000D02*
X143629000Y-52224000D01*
X129929000Y-52974000D02*
X143629000Y-52974000D01*
X129929000Y-52224000D02*
X129929000Y-52974000D01*
X128979000Y-52224000D02*
X129929000Y-52224000D01*
X128979000Y-39724000D02*
X128979000Y-52224000D01*
X129929000Y-39724000D02*
X128979000Y-39724000D01*
X129929000Y-38974000D02*
X129929000Y-39724000D01*
X143629000Y-38974000D02*
X129929000Y-38974000D01*
X143629000Y-39724000D02*
X143629000Y-38974000D01*
%TO.C,K24*%
X168191107Y-90484244D02*
X167298399Y-90159325D01*
X163915856Y-102230402D02*
X168191107Y-90484244D01*
X163023148Y-101905483D02*
X163915856Y-102230402D01*
X162766632Y-102610252D02*
X163023148Y-101905483D01*
X149892844Y-97924576D02*
X162766632Y-102610252D01*
X150149359Y-97219807D02*
X149892844Y-97924576D01*
X149256651Y-96894888D02*
X150149359Y-97219807D01*
X153531902Y-85148730D02*
X149256651Y-96894888D01*
X154424610Y-85473649D02*
X153531902Y-85148730D01*
X154681126Y-84768880D02*
X154424610Y-85473649D01*
X167554914Y-89454556D02*
X154681126Y-84768880D01*
X167298399Y-90159325D02*
X167554914Y-89454556D01*
%TO.C,K15*%
X106479000Y-72744000D02*
X105529000Y-72744000D01*
X106479000Y-85244000D02*
X106479000Y-72744000D01*
X105529000Y-85244000D02*
X106479000Y-85244000D01*
X105529000Y-85994000D02*
X105529000Y-85244000D01*
X91829000Y-85994000D02*
X105529000Y-85994000D01*
X91829000Y-85244000D02*
X91829000Y-85994000D01*
X90879000Y-85244000D02*
X91829000Y-85244000D01*
X90879000Y-72744000D02*
X90879000Y-85244000D01*
X91829000Y-72744000D02*
X90879000Y-72744000D01*
X91829000Y-71994000D02*
X91829000Y-72744000D01*
X105529000Y-71994000D02*
X91829000Y-71994000D01*
X105529000Y-72744000D02*
X105529000Y-71994000D01*
%TO.C,K10*%
X87429000Y-56234000D02*
X86479000Y-56234000D01*
X87429000Y-68734000D02*
X87429000Y-56234000D01*
X86479000Y-68734000D02*
X87429000Y-68734000D01*
X86479000Y-69484000D02*
X86479000Y-68734000D01*
X72779000Y-69484000D02*
X86479000Y-69484000D01*
X72779000Y-68734000D02*
X72779000Y-69484000D01*
X71829000Y-68734000D02*
X72779000Y-68734000D01*
X71829000Y-56234000D02*
X71829000Y-68734000D01*
X72779000Y-56234000D02*
X71829000Y-56234000D01*
X72779000Y-55484000D02*
X72779000Y-56234000D01*
X86479000Y-55484000D02*
X72779000Y-55484000D01*
X86479000Y-56234000D02*
X86479000Y-55484000D01*
%TO.C,K08*%
X68379000Y-96874000D02*
X67429000Y-96874000D01*
X68379000Y-109374000D02*
X68379000Y-96874000D01*
X67429000Y-109374000D02*
X68379000Y-109374000D01*
X67429000Y-110124000D02*
X67429000Y-109374000D01*
X53729000Y-110124000D02*
X67429000Y-110124000D01*
X53729000Y-109374000D02*
X53729000Y-110124000D01*
X52779000Y-109374000D02*
X53729000Y-109374000D01*
X52779000Y-96874000D02*
X52779000Y-109374000D01*
X53729000Y-96874000D02*
X52779000Y-96874000D01*
X53729000Y-96124000D02*
X53729000Y-96874000D01*
X67429000Y-96124000D02*
X53729000Y-96124000D01*
X67429000Y-96874000D02*
X67429000Y-96124000D01*
%TO.C,K09*%
X87429000Y-37184000D02*
X86479000Y-37184000D01*
X87429000Y-49684000D02*
X87429000Y-37184000D01*
X86479000Y-49684000D02*
X87429000Y-49684000D01*
X86479000Y-50434000D02*
X86479000Y-49684000D01*
X72779000Y-50434000D02*
X86479000Y-50434000D01*
X72779000Y-49684000D02*
X72779000Y-50434000D01*
X71829000Y-49684000D02*
X72779000Y-49684000D01*
X71829000Y-37184000D02*
X71829000Y-49684000D01*
X72779000Y-37184000D02*
X71829000Y-37184000D01*
X72779000Y-36434000D02*
X72779000Y-37184000D01*
X86479000Y-36434000D02*
X72779000Y-36434000D01*
X86479000Y-37184000D02*
X86479000Y-36434000D01*
%TD*%
M02*
