%TF.GenerationSoftware,KiCad,Pcbnew,5.1.6-c6e7f7d~87~ubuntu20.04.1*%
%TF.CreationDate,2020-09-01T20:51:20-05:00*%
%TF.ProjectId,TopPlate,546f7050-6c61-4746-952e-6b696361645f,rev?*%
%TF.SameCoordinates,Original*%
%TF.FileFunction,Legend,Bot*%
%TF.FilePolarity,Positive*%
%FSLAX46Y46*%
G04 Gerber Fmt 4.6, Leading zero omitted, Abs format (unit mm)*
G04 Created by KiCad (PCBNEW 5.1.6-c6e7f7d~87~ubuntu20.04.1) date 2020-09-01 20:51:20*
%MOMM*%
%LPD*%
G01*
G04 APERTURE LIST*
%ADD10C,0.300000*%
G04 APERTURE END LIST*
D10*
X169090939Y-85058325D02*
X169774980Y-83178940D01*
X169172537Y-84277222D02*
X168374983Y-84797738D01*
X168831010Y-83544815D02*
X169286379Y-84521358D01*
X166886149Y-84154497D02*
X167032565Y-84309138D01*
X167390543Y-84439432D01*
X167602106Y-84415084D01*
X167756747Y-84268668D01*
X168017334Y-83552712D01*
X167992986Y-83341149D01*
X167846570Y-83186508D01*
X167488592Y-83056215D01*
X167277029Y-83080563D01*
X167122388Y-83226978D01*
X167057242Y-83405967D01*
X167887040Y-83910690D01*
X165153180Y-83625098D02*
X165511487Y-82640658D01*
X165666128Y-82494242D01*
X165877690Y-82469894D01*
X166235668Y-82600188D01*
X166382084Y-82754829D01*
X165185753Y-83535603D02*
X165332169Y-83690245D01*
X165779641Y-83853111D01*
X165991204Y-83828763D01*
X166145845Y-83682348D01*
X166210992Y-83503359D01*
X166186644Y-83291796D01*
X166040228Y-83137155D01*
X165592756Y-82974288D01*
X165446340Y-82819647D01*
X164258234Y-83299364D02*
X164942275Y-81419979D01*
X164681688Y-82135935D02*
X164535272Y-81981294D01*
X164177294Y-81851001D01*
X163965732Y-81875349D01*
X163843664Y-81932270D01*
X163689023Y-82078686D01*
X163493582Y-82615653D01*
X163517930Y-82827215D01*
X163574851Y-82949283D01*
X163721267Y-83103924D01*
X164079245Y-83234218D01*
X164290808Y-83209870D01*
X162289355Y-82582751D02*
X162500917Y-82558403D01*
X162622985Y-82501482D01*
X162777626Y-82355066D01*
X162973066Y-81818099D01*
X162948718Y-81606536D01*
X162891797Y-81484469D01*
X162745381Y-81329827D01*
X162476898Y-81232107D01*
X162265335Y-81256455D01*
X162143268Y-81313376D01*
X161988626Y-81459792D01*
X161793186Y-81996759D01*
X161817534Y-82208322D01*
X161874455Y-82330390D01*
X162020871Y-82485031D01*
X162289355Y-82582751D01*
X160051991Y-81768417D02*
X160410298Y-80783977D01*
X160564939Y-80637562D01*
X160776502Y-80613214D01*
X161134480Y-80743507D01*
X161280896Y-80898148D01*
X160084565Y-81678923D02*
X160230980Y-81833564D01*
X160678453Y-81996431D01*
X160890015Y-81972083D01*
X161044657Y-81825667D01*
X161109803Y-81646678D01*
X161085455Y-81435115D01*
X160939040Y-81280474D01*
X160491567Y-81117608D01*
X160345151Y-80962966D01*
X159157046Y-81442684D02*
X159613073Y-80189760D01*
X159482779Y-80547738D02*
X159458432Y-80336176D01*
X159401510Y-80214108D01*
X159255095Y-80059467D01*
X159076106Y-79994320D01*
X157188166Y-80726070D02*
X157872206Y-78846685D01*
X157220739Y-80636575D02*
X157367155Y-80791217D01*
X157725133Y-80921510D01*
X157936696Y-80897162D01*
X158058764Y-80840241D01*
X158213405Y-80693825D01*
X158408845Y-80156858D01*
X158384497Y-79945296D01*
X158327576Y-79823228D01*
X158181160Y-79668587D01*
X157823182Y-79538293D01*
X157611620Y-79562641D01*
M02*
