M48
; DRILL file {KiCad 5.1.6-c6e7f7d~87~ubuntu20.04.1} date Tue Sep  1 20:40:02 2020
; FORMAT={-:-/ absolute / inch / decimal}
; #@! TF.CreationDate,2020-09-01T20:40:02-05:00
; #@! TF.GenerationSoftware,Kicad,Pcbnew,5.1.6-c6e7f7d~87~ubuntu20.04.1
; #@! TF.FileFunction,NonPlated,1,2,NPTH
FMAT,2
INCH
T1C0.0315
T2C0.0354
T3C0.0670
T4C0.0866
T5C0.1181
T6C0.1570
%
G90
G05
T1
X6.4214Y-3.8249
X6.4214Y-3.9056
X6.697Y-3.8249
X6.697Y-3.9056
T2
X6.695Y-4.2559
X6.695Y-4.3741
T3
X2.905Y-3.51
X3.305Y-3.51
X3.655Y-4.16
X4.055Y-4.16
X5.155Y-3.61
X5.555Y-3.61
X2.155Y-3.61
X2.555Y-3.61
X2.905Y-4.26
X3.305Y-4.26
X1.405Y-2.9584
X1.805Y-2.9584
X2.155Y-5.11
X2.555Y-5.11
X4.405Y-2.76
X4.805Y-2.76
X1.405Y-3.7084
X1.805Y-3.7084
X5.155Y-4.36
X5.555Y-4.36
X3.655Y-2.66
X4.055Y-2.66
X2.155Y-4.36
X2.555Y-4.36
X2.905Y-2.76
X3.305Y-2.76
X5.155Y-2.86
X5.555Y-2.86
X2.905Y-5.01
X3.305Y-5.01
X5.7745Y-5.3749
X6.1504Y-5.5117
X6.031Y-4.6702
X6.4069Y-4.807
X2.155Y-2.86
X2.555Y-2.86
X1.405Y-4.4584
X1.805Y-4.4584
X4.405Y-4.26
X4.805Y-4.26
X3.655Y-3.41
X4.055Y-3.41
X4.6832Y-5.1135
X5.0771Y-5.183
X3.655Y-4.91
X4.055Y-4.91
X4.405Y-3.51
X4.805Y-3.51
X1.405Y-5.2084
X1.805Y-5.2084
T4
X3.855Y-3.035
X3.855Y-4.535
X5.7304Y-3.235
X5.7304Y-4.74
X1.98Y-3.3334
X1.9804Y-4.8334
T5
X1.4546Y-4.3584
X1.505Y-4.2584
X1.7046Y-4.2584
X1.755Y-4.3584
X4.4546Y-4.16
X4.505Y-4.06
X4.7046Y-4.06
X4.755Y-4.16
X3.7046Y-3.31
X3.755Y-3.21
X3.9546Y-3.21
X4.005Y-3.31
X4.7494Y-5.0237
X4.8164Y-4.9339
X5.013Y-4.9686
X5.0453Y-5.0758
X3.7046Y-4.81
X3.755Y-4.71
X3.9546Y-4.71
X4.005Y-4.81
X4.4546Y-3.41
X4.505Y-3.31
X4.7046Y-3.31
X4.755Y-3.41
X1.4546Y-5.1084
X1.505Y-5.0084
X1.7046Y-5.0084
X1.755Y-5.1084
X2.9546Y-3.41
X3.005Y-3.31
X3.2046Y-3.31
X3.255Y-3.41
X3.7046Y-4.06
X3.755Y-3.96
X3.9546Y-3.96
X4.005Y-4.06
X5.2046Y-3.51
X5.255Y-3.41
X5.4546Y-3.41
X5.505Y-3.51
X2.2046Y-3.51
X2.255Y-3.41
X2.4546Y-3.41
X2.505Y-3.51
X2.9546Y-4.16
X3.005Y-4.06
X3.2046Y-4.06
X3.255Y-4.16
X1.4546Y-2.8584
X1.505Y-2.7584
X1.7046Y-2.7584
X1.755Y-2.8584
X2.2046Y-5.01
X2.255Y-4.91
X2.4546Y-4.91
X2.505Y-5.01
X4.4546Y-2.66
X4.505Y-2.56
X4.7046Y-2.56
X4.755Y-2.66
X1.4546Y-3.6084
X1.505Y-3.5084
X1.7046Y-3.5084
X1.755Y-3.6084
X5.2046Y-4.26
X5.255Y-4.16
X5.4546Y-4.16
X5.505Y-4.26
X3.7046Y-2.56
X3.755Y-2.46
X3.9546Y-2.46
X4.005Y-2.56
X2.2046Y-4.26
X2.255Y-4.16
X2.4546Y-4.16
X2.505Y-4.26
X2.9546Y-2.66
X3.005Y-2.56
X3.2046Y-2.56
X3.255Y-2.66
X5.2046Y-2.76
X5.255Y-2.66
X5.4546Y-2.66
X5.505Y-2.76
X2.9546Y-4.91
X3.005Y-4.81
X3.2046Y-4.81
X3.255Y-4.91
X5.8553Y-5.2979
X5.9369Y-5.2212
X6.1245Y-5.2895
X6.1376Y-5.4007
X6.1118Y-4.5932
X6.1934Y-4.5164
X6.381Y-4.5847
X6.3941Y-4.6959
X2.2046Y-2.76
X2.255Y-2.66
X2.4546Y-2.66
X2.505Y-2.76
T6
X1.605Y-4.4584
X4.605Y-4.26
X3.855Y-3.41
X4.8802Y-5.1483
X3.855Y-4.91
X4.605Y-3.51
X1.605Y-5.2084
X3.105Y-3.51
X3.855Y-4.16
X5.355Y-3.61
X2.355Y-3.61
X3.105Y-4.26
X1.605Y-2.9584
X2.355Y-5.11
X4.605Y-2.76
X1.605Y-3.7084
X5.355Y-4.36
X3.855Y-2.66
X2.355Y-4.36
X3.105Y-2.76
X5.355Y-2.86
X3.105Y-5.01
X5.9625Y-5.4433
X6.219Y-4.7386
X2.355Y-2.86
T0
M30
