%TF.GenerationSoftware,KiCad,Pcbnew,5.1.6-c6e7f7d~87~ubuntu20.04.1*%
%TF.CreationDate,2020-09-01T21:03:59-05:00*%
%TF.ProjectId,keaboard_rev1,6b656162-6f61-4726-945f-726576312e6b,rev?*%
%TF.SameCoordinates,Original*%
%TF.FileFunction,Paste,Top*%
%TF.FilePolarity,Positive*%
%FSLAX46Y46*%
G04 Gerber Fmt 4.6, Leading zero omitted, Abs format (unit mm)*
G04 Created by KiCad (PCBNEW 5.1.6-c6e7f7d~87~ubuntu20.04.1) date 2020-09-01 21:03:59*
%MOMM*%
%LPD*%
G01*
G04 APERTURE LIST*
%ADD10R,2.550000X2.500000*%
%ADD11C,0.100000*%
%ADD12R,1.400000X1.200000*%
%ADD13R,1.650000X1.050000*%
%ADD14R,0.800000X1.000000*%
%ADD15R,1.500000X0.700000*%
G04 APERTURE END LIST*
D10*
%TO.C,K17*%
X110677000Y-65024000D03*
X124527000Y-67564000D03*
%TD*%
D11*
%TO.C,D25*%
G36*
X156826139Y-147455185D02*
G01*
X155510569Y-146976356D01*
X155920993Y-145848725D01*
X157236563Y-146327554D01*
X156826139Y-147455185D01*
G37*
G36*
X157989007Y-144260231D02*
G01*
X156673437Y-143781402D01*
X157083861Y-142653771D01*
X158399431Y-143132600D01*
X157989007Y-144260231D01*
G37*
%TD*%
%TO.C,D24*%
G36*
X163341622Y-129554040D02*
G01*
X162026052Y-129075211D01*
X162436476Y-127947580D01*
X163752046Y-128426409D01*
X163341622Y-129554040D01*
G37*
G36*
X164504490Y-126359086D02*
G01*
X163188920Y-125880257D01*
X163599344Y-124752626D01*
X164914914Y-125231455D01*
X164504490Y-126359086D01*
G37*
%TD*%
D12*
%TO.C,D23*%
X143517000Y-116944000D03*
X143517000Y-113544000D03*
%TD*%
%TO.C,D22*%
X143517000Y-97894000D03*
X143517000Y-94494000D03*
%TD*%
%TO.C,D21*%
X143517000Y-78844000D03*
X143517000Y-75444000D03*
%TD*%
D11*
%TO.C,D20*%
G36*
X130851185Y-138886383D02*
G01*
X129472454Y-138643276D01*
X129680831Y-137461507D01*
X131059562Y-137704614D01*
X130851185Y-138886383D01*
G37*
G36*
X131441589Y-135538037D02*
G01*
X130062858Y-135294930D01*
X130271235Y-134113161D01*
X131649966Y-134356268D01*
X131441589Y-135538037D01*
G37*
%TD*%
D12*
%TO.C,D19*%
X124467000Y-114404000D03*
X124467000Y-111004000D03*
%TD*%
%TO.C,D18*%
X124467000Y-95354000D03*
X124467000Y-91954000D03*
%TD*%
%TO.C,D17*%
X124467000Y-76304000D03*
X124467000Y-72904000D03*
%TD*%
%TO.C,D16*%
X105417000Y-130914000D03*
X105417000Y-127514000D03*
%TD*%
%TO.C,D15*%
X105417000Y-111864000D03*
X105417000Y-108464000D03*
%TD*%
%TO.C,D14*%
X105417000Y-92814000D03*
X105417000Y-89414000D03*
%TD*%
%TO.C,D13*%
X105417000Y-73764000D03*
X105417000Y-70364000D03*
%TD*%
%TO.C,D12*%
X86367000Y-133454000D03*
X86367000Y-130054000D03*
%TD*%
%TO.C,D11*%
X86367000Y-114404000D03*
X86367000Y-111004000D03*
%TD*%
%TO.C,D10*%
X86367000Y-95354000D03*
X86367000Y-91954000D03*
%TD*%
%TO.C,D09*%
X86367000Y-76304000D03*
X86367000Y-72904000D03*
%TD*%
%TO.C,D08*%
X67317000Y-135994000D03*
X67317000Y-132594000D03*
%TD*%
%TO.C,D07*%
X67317000Y-116944000D03*
X67317000Y-113544000D03*
%TD*%
%TO.C,D06*%
X67317000Y-97894000D03*
X67317000Y-94494000D03*
%TD*%
%TO.C,D05*%
X67317000Y-78844000D03*
X67317000Y-75444000D03*
%TD*%
%TO.C,D04*%
X48267000Y-138494000D03*
X48267000Y-135094000D03*
%TD*%
%TO.C,D03*%
X48267000Y-119444000D03*
X48267000Y-116044000D03*
%TD*%
%TO.C,D02*%
X48267000Y-100394000D03*
X48267000Y-96994000D03*
%TD*%
%TO.C,D01*%
X48267000Y-77944000D03*
X48267000Y-81344000D03*
%TD*%
D10*
%TO.C,K05*%
X53527000Y-67564000D03*
X67377000Y-70104000D03*
%TD*%
%TO.C,K01*%
X34477000Y-70064000D03*
X48327000Y-72604000D03*
%TD*%
D11*
%TO.C,K25*%
G36*
X148898825Y-130597225D02*
G01*
X148043775Y-132946456D01*
X145647559Y-132074305D01*
X146502609Y-129725074D01*
X148898825Y-130597225D01*
G37*
G36*
X161044836Y-137721023D02*
G01*
X160189786Y-140070254D01*
X157793570Y-139198103D01*
X158648620Y-136848872D01*
X161044836Y-137721023D01*
G37*
%TD*%
%TO.C,K24*%
G36*
X155414308Y-112696081D02*
G01*
X154559258Y-115045312D01*
X152163042Y-114173161D01*
X153018092Y-111823930D01*
X155414308Y-112696081D01*
G37*
G36*
X167560319Y-119819879D02*
G01*
X166705269Y-122169110D01*
X164309053Y-121296959D01*
X165164103Y-118947728D01*
X167560319Y-119819879D01*
G37*
%TD*%
D10*
%TO.C,K23*%
X129727000Y-105664000D03*
X143577000Y-108204000D03*
%TD*%
%TO.C,K22*%
X129727000Y-86614000D03*
X143577000Y-89154000D03*
%TD*%
%TO.C,K21*%
X129727000Y-67564000D03*
X143577000Y-70104000D03*
%TD*%
D11*
%TO.C,K20*%
G36*
X120116951Y-123661097D02*
G01*
X119682831Y-126123116D01*
X117171571Y-125680313D01*
X117605691Y-123218294D01*
X120116951Y-123661097D01*
G37*
G36*
X133315472Y-128567536D02*
G01*
X132881352Y-131029555D01*
X130370092Y-130586752D01*
X130804212Y-128124733D01*
X133315472Y-128567536D01*
G37*
%TD*%
D10*
%TO.C,K19*%
X110677000Y-103124000D03*
X124527000Y-105664000D03*
%TD*%
%TO.C,K18*%
X110677000Y-84074000D03*
X124527000Y-86614000D03*
%TD*%
%TO.C,K16*%
X91627000Y-119634000D03*
X105477000Y-122174000D03*
%TD*%
%TO.C,K15*%
X91627000Y-100584000D03*
X105477000Y-103124000D03*
%TD*%
%TO.C,K14*%
X91627000Y-81534000D03*
X105477000Y-84074000D03*
%TD*%
%TO.C,K13*%
X91627000Y-62484000D03*
X105477000Y-65024000D03*
%TD*%
%TO.C,K12*%
X72577000Y-122174000D03*
X86427000Y-124714000D03*
%TD*%
%TO.C,K11*%
X72577000Y-103124000D03*
X86427000Y-105664000D03*
%TD*%
%TO.C,K10*%
X72577000Y-84074000D03*
X86427000Y-86614000D03*
%TD*%
%TO.C,K09*%
X72577000Y-65024000D03*
X86427000Y-67564000D03*
%TD*%
%TO.C,K08*%
X53527000Y-124714000D03*
X67377000Y-127254000D03*
%TD*%
%TO.C,K07*%
X53527000Y-105664000D03*
X67377000Y-108204000D03*
%TD*%
%TO.C,K06*%
X53527000Y-86614000D03*
X67377000Y-89154000D03*
%TD*%
%TO.C,K04*%
X34477000Y-127214000D03*
X48327000Y-129754000D03*
%TD*%
%TO.C,K03*%
X34477000Y-108164000D03*
X48327000Y-110704000D03*
%TD*%
%TO.C,K02*%
X34477000Y-89114000D03*
X48327000Y-91654000D03*
%TD*%
D13*
%TO.C,SW_RST1*%
X141585000Y-58076000D03*
X145435000Y-58076000D03*
X141585000Y-59526000D03*
X145435000Y-59526000D03*
%TD*%
D14*
%TO.C,SW_PWR1*%
X169088000Y-105951000D03*
X169088000Y-113251000D03*
X171018000Y-105951000D03*
X171018000Y-113251000D03*
D15*
X168303000Y-107351000D03*
X168303000Y-111851000D03*
X168303000Y-108851000D03*
%TD*%
M02*
