%TF.GenerationSoftware,KiCad,Pcbnew,5.1.5+dfsg1-2build2*%
%TF.CreationDate,2020-09-09T08:01:59-05:00*%
%TF.ProjectId,keaboard_rev1,6b656162-6f61-4726-945f-726576312e6b,rev?*%
%TF.SameCoordinates,Original*%
%TF.FileFunction,Legend,Top*%
%TF.FilePolarity,Positive*%
%FSLAX46Y46*%
G04 Gerber Fmt 4.6, Leading zero omitted, Abs format (unit mm)*
G04 Created by KiCad (PCBNEW 5.1.5+dfsg1-2build2) date 2020-09-09 08:01:59*
%MOMM*%
%LPD*%
G04 APERTURE LIST*
%ADD10C,0.200000*%
%ADD11C,0.500000*%
%ADD12C,0.150000*%
%ADD13C,0.152400*%
%ADD14C,0.381000*%
%ADD15C,0.127000*%
%ADD16C,0.250000*%
G04 APERTURE END LIST*
D10*
X158539571Y-67694714D02*
X157539571Y-67694714D01*
X157825285Y-67694714D02*
X157682428Y-67623285D01*
X157611000Y-67551857D01*
X157539571Y-67409000D01*
X157539571Y-67266142D01*
X158468142Y-66194714D02*
X158539571Y-66337571D01*
X158539571Y-66623285D01*
X158468142Y-66766142D01*
X158325285Y-66837571D01*
X157753857Y-66837571D01*
X157611000Y-66766142D01*
X157539571Y-66623285D01*
X157539571Y-66337571D01*
X157611000Y-66194714D01*
X157753857Y-66123285D01*
X157896714Y-66123285D01*
X158039571Y-66837571D01*
X157539571Y-65623285D02*
X158539571Y-65266142D01*
X157539571Y-64909000D01*
X158539571Y-63551857D02*
X158539571Y-64409000D01*
X158539571Y-63980428D02*
X157039571Y-63980428D01*
X157253857Y-64123285D01*
X157396714Y-64266142D01*
X157468142Y-64409000D01*
D11*
X158583142Y-87859000D02*
X155583142Y-87859000D01*
X157440285Y-87573285D02*
X158583142Y-86716142D01*
X156583142Y-86716142D02*
X157726000Y-87859000D01*
X158440285Y-84287571D02*
X158583142Y-84573285D01*
X158583142Y-85144714D01*
X158440285Y-85430428D01*
X158154571Y-85573285D01*
X157011714Y-85573285D01*
X156726000Y-85430428D01*
X156583142Y-85144714D01*
X156583142Y-84573285D01*
X156726000Y-84287571D01*
X157011714Y-84144714D01*
X157297428Y-84144714D01*
X157583142Y-85573285D01*
X158583142Y-81573285D02*
X157011714Y-81573285D01*
X156726000Y-81716142D01*
X156583142Y-82001857D01*
X156583142Y-82573285D01*
X156726000Y-82859000D01*
X158440285Y-81573285D02*
X158583142Y-81859000D01*
X158583142Y-82573285D01*
X158440285Y-82859000D01*
X158154571Y-83001857D01*
X157868857Y-83001857D01*
X157583142Y-82859000D01*
X157440285Y-82573285D01*
X157440285Y-81859000D01*
X157297428Y-81573285D01*
X158583142Y-80144714D02*
X155583142Y-80144714D01*
X156726000Y-80144714D02*
X156583142Y-79859000D01*
X156583142Y-79287571D01*
X156726000Y-79001857D01*
X156868857Y-78859000D01*
X157154571Y-78716142D01*
X158011714Y-78716142D01*
X158297428Y-78859000D01*
X158440285Y-79001857D01*
X158583142Y-79287571D01*
X158583142Y-79859000D01*
X158440285Y-80144714D01*
X158583142Y-77001857D02*
X158440285Y-77287571D01*
X158297428Y-77430428D01*
X158011714Y-77573285D01*
X157154571Y-77573285D01*
X156868857Y-77430428D01*
X156726000Y-77287571D01*
X156583142Y-77001857D01*
X156583142Y-76573285D01*
X156726000Y-76287571D01*
X156868857Y-76144714D01*
X157154571Y-76001857D01*
X158011714Y-76001857D01*
X158297428Y-76144714D01*
X158440285Y-76287571D01*
X158583142Y-76573285D01*
X158583142Y-77001857D01*
X158583142Y-73430428D02*
X157011714Y-73430428D01*
X156726000Y-73573285D01*
X156583142Y-73859000D01*
X156583142Y-74430428D01*
X156726000Y-74716142D01*
X158440285Y-73430428D02*
X158583142Y-73716142D01*
X158583142Y-74430428D01*
X158440285Y-74716142D01*
X158154571Y-74859000D01*
X157868857Y-74859000D01*
X157583142Y-74716142D01*
X157440285Y-74430428D01*
X157440285Y-73716142D01*
X157297428Y-73430428D01*
X158583142Y-72001857D02*
X156583142Y-72001857D01*
X157154571Y-72001857D02*
X156868857Y-71859000D01*
X156726000Y-71716142D01*
X156583142Y-71430428D01*
X156583142Y-71144714D01*
X158583142Y-68859000D02*
X155583142Y-68859000D01*
X158440285Y-68859000D02*
X158583142Y-69144714D01*
X158583142Y-69716142D01*
X158440285Y-70001857D01*
X158297428Y-70144714D01*
X158011714Y-70287571D01*
X157154571Y-70287571D01*
X156868857Y-70144714D01*
X156726000Y-70001857D01*
X156583142Y-69716142D01*
X156583142Y-69144714D01*
X156726000Y-68859000D01*
D10*
X161079571Y-86382428D02*
X159579571Y-86382428D01*
X161008142Y-86382428D02*
X161079571Y-86525285D01*
X161079571Y-86811000D01*
X161008142Y-86953857D01*
X160936714Y-87025285D01*
X160793857Y-87096714D01*
X160365285Y-87096714D01*
X160222428Y-87025285D01*
X160151000Y-86953857D01*
X160079571Y-86811000D01*
X160079571Y-86525285D01*
X160151000Y-86382428D01*
X161008142Y-85096714D02*
X161079571Y-85239571D01*
X161079571Y-85525285D01*
X161008142Y-85668142D01*
X160865285Y-85739571D01*
X160293857Y-85739571D01*
X160151000Y-85668142D01*
X160079571Y-85525285D01*
X160079571Y-85239571D01*
X160151000Y-85096714D01*
X160293857Y-85025285D01*
X160436714Y-85025285D01*
X160579571Y-85739571D01*
X161008142Y-84453857D02*
X161079571Y-84311000D01*
X161079571Y-84025285D01*
X161008142Y-83882428D01*
X160865285Y-83811000D01*
X160793857Y-83811000D01*
X160651000Y-83882428D01*
X160579571Y-84025285D01*
X160579571Y-84239571D01*
X160508142Y-84382428D01*
X160365285Y-84453857D01*
X160293857Y-84453857D01*
X160151000Y-84382428D01*
X160079571Y-84239571D01*
X160079571Y-84025285D01*
X160151000Y-83882428D01*
X161079571Y-83168142D02*
X160079571Y-83168142D01*
X159579571Y-83168142D02*
X159651000Y-83239571D01*
X159722428Y-83168142D01*
X159651000Y-83096714D01*
X159579571Y-83168142D01*
X159722428Y-83168142D01*
X160079571Y-81811000D02*
X161293857Y-81811000D01*
X161436714Y-81882428D01*
X161508142Y-81953857D01*
X161579571Y-82096714D01*
X161579571Y-82311000D01*
X161508142Y-82453857D01*
X161008142Y-81811000D02*
X161079571Y-81953857D01*
X161079571Y-82239571D01*
X161008142Y-82382428D01*
X160936714Y-82453857D01*
X160793857Y-82525285D01*
X160365285Y-82525285D01*
X160222428Y-82453857D01*
X160151000Y-82382428D01*
X160079571Y-82239571D01*
X160079571Y-81953857D01*
X160151000Y-81811000D01*
X160079571Y-81096714D02*
X161079571Y-81096714D01*
X160222428Y-81096714D02*
X160151000Y-81025285D01*
X160079571Y-80882428D01*
X160079571Y-80668142D01*
X160151000Y-80525285D01*
X160293857Y-80453857D01*
X161079571Y-80453857D01*
X161008142Y-79168142D02*
X161079571Y-79311000D01*
X161079571Y-79596714D01*
X161008142Y-79739571D01*
X160865285Y-79811000D01*
X160293857Y-79811000D01*
X160151000Y-79739571D01*
X160079571Y-79596714D01*
X160079571Y-79311000D01*
X160151000Y-79168142D01*
X160293857Y-79096714D01*
X160436714Y-79096714D01*
X160579571Y-79811000D01*
X161079571Y-77811000D02*
X159579571Y-77811000D01*
X161008142Y-77811000D02*
X161079571Y-77953857D01*
X161079571Y-78239571D01*
X161008142Y-78382428D01*
X160936714Y-78453857D01*
X160793857Y-78525285D01*
X160365285Y-78525285D01*
X160222428Y-78453857D01*
X160151000Y-78382428D01*
X160079571Y-78239571D01*
X160079571Y-77953857D01*
X160151000Y-77811000D01*
X161079571Y-75953857D02*
X159579571Y-75953857D01*
X160151000Y-75953857D02*
X160079571Y-75811000D01*
X160079571Y-75525285D01*
X160151000Y-75382428D01*
X160222428Y-75311000D01*
X160365285Y-75239571D01*
X160793857Y-75239571D01*
X160936714Y-75311000D01*
X161008142Y-75382428D01*
X161079571Y-75525285D01*
X161079571Y-75811000D01*
X161008142Y-75953857D01*
X160079571Y-74739571D02*
X161079571Y-74382428D01*
X160079571Y-74025285D02*
X161079571Y-74382428D01*
X161436714Y-74525285D01*
X161508142Y-74596714D01*
X161579571Y-74739571D01*
X161079571Y-72311000D02*
X159579571Y-72311000D01*
X160508142Y-72168142D02*
X161079571Y-71739571D01*
X160079571Y-71739571D02*
X160651000Y-72311000D01*
X161008142Y-70525285D02*
X161079571Y-70668142D01*
X161079571Y-70953857D01*
X161008142Y-71096714D01*
X160865285Y-71168142D01*
X160293857Y-71168142D01*
X160151000Y-71096714D01*
X160079571Y-70953857D01*
X160079571Y-70668142D01*
X160151000Y-70525285D01*
X160293857Y-70453857D01*
X160436714Y-70453857D01*
X160579571Y-71168142D01*
X161079571Y-69168142D02*
X160293857Y-69168142D01*
X160151000Y-69239571D01*
X160079571Y-69382428D01*
X160079571Y-69668142D01*
X160151000Y-69811000D01*
X161008142Y-69168142D02*
X161079571Y-69311000D01*
X161079571Y-69668142D01*
X161008142Y-69811000D01*
X160865285Y-69882428D01*
X160722428Y-69882428D01*
X160579571Y-69811000D01*
X160508142Y-69668142D01*
X160508142Y-69311000D01*
X160436714Y-69168142D01*
X160079571Y-68596714D02*
X161079571Y-68311000D01*
X160365285Y-68025285D01*
X161079571Y-67739571D01*
X160079571Y-67453857D01*
X161079571Y-66239571D02*
X160293857Y-66239571D01*
X160151000Y-66311000D01*
X160079571Y-66453857D01*
X160079571Y-66739571D01*
X160151000Y-66882428D01*
X161008142Y-66239571D02*
X161079571Y-66382428D01*
X161079571Y-66739571D01*
X161008142Y-66882428D01*
X160865285Y-66953857D01*
X160722428Y-66953857D01*
X160579571Y-66882428D01*
X160508142Y-66739571D01*
X160508142Y-66382428D01*
X160436714Y-66239571D01*
X161079571Y-64882428D02*
X159579571Y-64882428D01*
X161008142Y-64882428D02*
X161079571Y-65025285D01*
X161079571Y-65311000D01*
X161008142Y-65453857D01*
X160936714Y-65525285D01*
X160793857Y-65596714D01*
X160365285Y-65596714D01*
X160222428Y-65525285D01*
X160151000Y-65453857D01*
X160079571Y-65311000D01*
X160079571Y-65025285D01*
X160151000Y-64882428D01*
X161008142Y-63596714D02*
X161079571Y-63739571D01*
X161079571Y-64025285D01*
X161008142Y-64168142D01*
X160865285Y-64239571D01*
X160293857Y-64239571D01*
X160151000Y-64168142D01*
X160079571Y-64025285D01*
X160079571Y-63739571D01*
X160151000Y-63596714D01*
X160293857Y-63525285D01*
X160436714Y-63525285D01*
X160579571Y-64239571D01*
X97742952Y-136358380D02*
X97742952Y-137072666D01*
X97695333Y-137215523D01*
X97600095Y-137310761D01*
X97457238Y-137358380D01*
X97362000Y-137358380D01*
X98695333Y-137358380D02*
X98219142Y-137358380D01*
X98219142Y-136358380D01*
X99600095Y-137263142D02*
X99552476Y-137310761D01*
X99409619Y-137358380D01*
X99314380Y-137358380D01*
X99171523Y-137310761D01*
X99076285Y-137215523D01*
X99028666Y-137120285D01*
X98981047Y-136929809D01*
X98981047Y-136786952D01*
X99028666Y-136596476D01*
X99076285Y-136501238D01*
X99171523Y-136406000D01*
X99314380Y-136358380D01*
X99409619Y-136358380D01*
X99552476Y-136406000D01*
X99600095Y-136453619D01*
X100314380Y-136358380D02*
X100314380Y-137072666D01*
X100266761Y-137215523D01*
X100171523Y-137310761D01*
X100028666Y-137358380D01*
X99933428Y-137358380D01*
X101266761Y-137358380D02*
X100790571Y-137358380D01*
X100790571Y-136358380D01*
X102171523Y-137263142D02*
X102123904Y-137310761D01*
X101981047Y-137358380D01*
X101885809Y-137358380D01*
X101742952Y-137310761D01*
X101647714Y-137215523D01*
X101600095Y-137120285D01*
X101552476Y-136929809D01*
X101552476Y-136786952D01*
X101600095Y-136596476D01*
X101647714Y-136501238D01*
X101742952Y-136406000D01*
X101885809Y-136358380D01*
X101981047Y-136358380D01*
X102123904Y-136406000D01*
X102171523Y-136453619D01*
X102885809Y-136358380D02*
X102885809Y-137072666D01*
X102838190Y-137215523D01*
X102742952Y-137310761D01*
X102600095Y-137358380D01*
X102504857Y-137358380D01*
X103838190Y-137358380D02*
X103362000Y-137358380D01*
X103362000Y-136358380D01*
X104742952Y-137263142D02*
X104695333Y-137310761D01*
X104552476Y-137358380D01*
X104457238Y-137358380D01*
X104314380Y-137310761D01*
X104219142Y-137215523D01*
X104171523Y-137120285D01*
X104123904Y-136929809D01*
X104123904Y-136786952D01*
X104171523Y-136596476D01*
X104219142Y-136501238D01*
X104314380Y-136406000D01*
X104457238Y-136358380D01*
X104552476Y-136358380D01*
X104695333Y-136406000D01*
X104742952Y-136453619D01*
X105457238Y-136358380D02*
X105457238Y-137072666D01*
X105409619Y-137215523D01*
X105314380Y-137310761D01*
X105171523Y-137358380D01*
X105076285Y-137358380D01*
X106409619Y-137358380D02*
X105933428Y-137358380D01*
X105933428Y-136358380D01*
X107314380Y-137263142D02*
X107266761Y-137310761D01*
X107123904Y-137358380D01*
X107028666Y-137358380D01*
X106885809Y-137310761D01*
X106790571Y-137215523D01*
X106742952Y-137120285D01*
X106695333Y-136929809D01*
X106695333Y-136786952D01*
X106742952Y-136596476D01*
X106790571Y-136501238D01*
X106885809Y-136406000D01*
X107028666Y-136358380D01*
X107123904Y-136358380D01*
X107266761Y-136406000D01*
X107314380Y-136453619D01*
X77941000Y-139263380D02*
X77941000Y-138263380D01*
X78369571Y-139263380D02*
X78369571Y-138739571D01*
X78321952Y-138644333D01*
X78226714Y-138596714D01*
X78083857Y-138596714D01*
X77988619Y-138644333D01*
X77941000Y-138691952D01*
X78702904Y-138596714D02*
X79083857Y-138596714D01*
X78845761Y-138263380D02*
X78845761Y-139120523D01*
X78893380Y-139215761D01*
X78988619Y-139263380D01*
X79083857Y-139263380D01*
X79274333Y-138596714D02*
X79655285Y-138596714D01*
X79417190Y-138263380D02*
X79417190Y-139120523D01*
X79464809Y-139215761D01*
X79560047Y-139263380D01*
X79655285Y-139263380D01*
X79988619Y-138596714D02*
X79988619Y-139596714D01*
X79988619Y-138644333D02*
X80083857Y-138596714D01*
X80274333Y-138596714D01*
X80369571Y-138644333D01*
X80417190Y-138691952D01*
X80464809Y-138787190D01*
X80464809Y-139072904D01*
X80417190Y-139168142D01*
X80369571Y-139215761D01*
X80274333Y-139263380D01*
X80083857Y-139263380D01*
X79988619Y-139215761D01*
X80845761Y-139215761D02*
X80941000Y-139263380D01*
X81131476Y-139263380D01*
X81226714Y-139215761D01*
X81274333Y-139120523D01*
X81274333Y-139072904D01*
X81226714Y-138977666D01*
X81131476Y-138930047D01*
X80988619Y-138930047D01*
X80893380Y-138882428D01*
X80845761Y-138787190D01*
X80845761Y-138739571D01*
X80893380Y-138644333D01*
X80988619Y-138596714D01*
X81131476Y-138596714D01*
X81226714Y-138644333D01*
X81702904Y-139168142D02*
X81750523Y-139215761D01*
X81702904Y-139263380D01*
X81655285Y-139215761D01*
X81702904Y-139168142D01*
X81702904Y-139263380D01*
X81702904Y-138644333D02*
X81750523Y-138691952D01*
X81702904Y-138739571D01*
X81655285Y-138691952D01*
X81702904Y-138644333D01*
X81702904Y-138739571D01*
X82893380Y-138215761D02*
X82036238Y-139501476D01*
X83941000Y-138215761D02*
X83083857Y-139501476D01*
X84702904Y-138596714D02*
X84702904Y-139406238D01*
X84655285Y-139501476D01*
X84607666Y-139549095D01*
X84512428Y-139596714D01*
X84369571Y-139596714D01*
X84274333Y-139549095D01*
X84702904Y-139215761D02*
X84607666Y-139263380D01*
X84417190Y-139263380D01*
X84321952Y-139215761D01*
X84274333Y-139168142D01*
X84226714Y-139072904D01*
X84226714Y-138787190D01*
X84274333Y-138691952D01*
X84321952Y-138644333D01*
X84417190Y-138596714D01*
X84607666Y-138596714D01*
X84702904Y-138644333D01*
X85179095Y-139263380D02*
X85179095Y-138596714D01*
X85179095Y-138263380D02*
X85131476Y-138311000D01*
X85179095Y-138358619D01*
X85226714Y-138311000D01*
X85179095Y-138263380D01*
X85179095Y-138358619D01*
X85512428Y-138596714D02*
X85893380Y-138596714D01*
X85655285Y-138263380D02*
X85655285Y-139120523D01*
X85702904Y-139215761D01*
X85798142Y-139263380D01*
X85893380Y-139263380D01*
X86226714Y-139263380D02*
X86226714Y-138263380D01*
X86655285Y-139263380D02*
X86655285Y-138739571D01*
X86607666Y-138644333D01*
X86512428Y-138596714D01*
X86369571Y-138596714D01*
X86274333Y-138644333D01*
X86226714Y-138691952D01*
X87560047Y-138596714D02*
X87560047Y-139263380D01*
X87131476Y-138596714D02*
X87131476Y-139120523D01*
X87179095Y-139215761D01*
X87274333Y-139263380D01*
X87417190Y-139263380D01*
X87512428Y-139215761D01*
X87560047Y-139168142D01*
X88036238Y-139263380D02*
X88036238Y-138263380D01*
X88036238Y-138644333D02*
X88131476Y-138596714D01*
X88321952Y-138596714D01*
X88417190Y-138644333D01*
X88464809Y-138691952D01*
X88512428Y-138787190D01*
X88512428Y-139072904D01*
X88464809Y-139168142D01*
X88417190Y-139215761D01*
X88321952Y-139263380D01*
X88131476Y-139263380D01*
X88036238Y-139215761D01*
X88941000Y-139168142D02*
X88988619Y-139215761D01*
X88941000Y-139263380D01*
X88893380Y-139215761D01*
X88941000Y-139168142D01*
X88941000Y-139263380D01*
X89845761Y-139215761D02*
X89750523Y-139263380D01*
X89560047Y-139263380D01*
X89464809Y-139215761D01*
X89417190Y-139168142D01*
X89369571Y-139072904D01*
X89369571Y-138787190D01*
X89417190Y-138691952D01*
X89464809Y-138644333D01*
X89560047Y-138596714D01*
X89750523Y-138596714D01*
X89845761Y-138644333D01*
X90417190Y-139263380D02*
X90321952Y-139215761D01*
X90274333Y-139168142D01*
X90226714Y-139072904D01*
X90226714Y-138787190D01*
X90274333Y-138691952D01*
X90321952Y-138644333D01*
X90417190Y-138596714D01*
X90560047Y-138596714D01*
X90655285Y-138644333D01*
X90702904Y-138691952D01*
X90750523Y-138787190D01*
X90750523Y-139072904D01*
X90702904Y-139168142D01*
X90655285Y-139215761D01*
X90560047Y-139263380D01*
X90417190Y-139263380D01*
X91179095Y-139263380D02*
X91179095Y-138596714D01*
X91179095Y-138691952D02*
X91226714Y-138644333D01*
X91321952Y-138596714D01*
X91464809Y-138596714D01*
X91560047Y-138644333D01*
X91607666Y-138739571D01*
X91607666Y-139263380D01*
X91607666Y-138739571D02*
X91655285Y-138644333D01*
X91750523Y-138596714D01*
X91893380Y-138596714D01*
X91988619Y-138644333D01*
X92036238Y-138739571D01*
X92036238Y-139263380D01*
X93226714Y-138215761D02*
X92369571Y-139501476D01*
X93560047Y-139263380D02*
X93560047Y-138263380D01*
X93655285Y-138882428D02*
X93941000Y-139263380D01*
X93941000Y-138596714D02*
X93560047Y-138977666D01*
X94750523Y-139215761D02*
X94655285Y-139263380D01*
X94464809Y-139263380D01*
X94369571Y-139215761D01*
X94321952Y-139120523D01*
X94321952Y-138739571D01*
X94369571Y-138644333D01*
X94464809Y-138596714D01*
X94655285Y-138596714D01*
X94750523Y-138644333D01*
X94798142Y-138739571D01*
X94798142Y-138834809D01*
X94321952Y-138930047D01*
X95655285Y-139263380D02*
X95655285Y-138739571D01*
X95607666Y-138644333D01*
X95512428Y-138596714D01*
X95321952Y-138596714D01*
X95226714Y-138644333D01*
X95655285Y-139215761D02*
X95560047Y-139263380D01*
X95321952Y-139263380D01*
X95226714Y-139215761D01*
X95179095Y-139120523D01*
X95179095Y-139025285D01*
X95226714Y-138930047D01*
X95321952Y-138882428D01*
X95560047Y-138882428D01*
X95655285Y-138834809D01*
X96036238Y-138596714D02*
X96226714Y-139263380D01*
X96417190Y-138787190D01*
X96607666Y-139263380D01*
X96798142Y-138596714D01*
X97607666Y-139263380D02*
X97607666Y-138739571D01*
X97560047Y-138644333D01*
X97464809Y-138596714D01*
X97274333Y-138596714D01*
X97179095Y-138644333D01*
X97607666Y-139215761D02*
X97512428Y-139263380D01*
X97274333Y-139263380D01*
X97179095Y-139215761D01*
X97131476Y-139120523D01*
X97131476Y-139025285D01*
X97179095Y-138930047D01*
X97274333Y-138882428D01*
X97512428Y-138882428D01*
X97607666Y-138834809D01*
X98512428Y-139263380D02*
X98512428Y-138263380D01*
X98512428Y-139215761D02*
X98417190Y-139263380D01*
X98226714Y-139263380D01*
X98131476Y-139215761D01*
X98083857Y-139168142D01*
X98036238Y-139072904D01*
X98036238Y-138787190D01*
X98083857Y-138691952D01*
X98131476Y-138644333D01*
X98226714Y-138596714D01*
X98417190Y-138596714D01*
X98512428Y-138644333D01*
X99369571Y-139215761D02*
X99274333Y-139263380D01*
X99083857Y-139263380D01*
X98988619Y-139215761D01*
X98941000Y-139120523D01*
X98941000Y-138739571D01*
X98988619Y-138644333D01*
X99083857Y-138596714D01*
X99274333Y-138596714D01*
X99369571Y-138644333D01*
X99417190Y-138739571D01*
X99417190Y-138834809D01*
X98941000Y-138930047D01*
X100560047Y-138215761D02*
X99702904Y-139501476D01*
X100893380Y-139263380D02*
X100893380Y-138263380D01*
X100988619Y-138882428D02*
X101274333Y-139263380D01*
X101274333Y-138596714D02*
X100893380Y-138977666D01*
X102083857Y-139215761D02*
X101988619Y-139263380D01*
X101798142Y-139263380D01*
X101702904Y-139215761D01*
X101655285Y-139120523D01*
X101655285Y-138739571D01*
X101702904Y-138644333D01*
X101798142Y-138596714D01*
X101988619Y-138596714D01*
X102083857Y-138644333D01*
X102131476Y-138739571D01*
X102131476Y-138834809D01*
X101655285Y-138930047D01*
X102988619Y-139263380D02*
X102988619Y-138739571D01*
X102941000Y-138644333D01*
X102845761Y-138596714D01*
X102655285Y-138596714D01*
X102560047Y-138644333D01*
X102988619Y-139215761D02*
X102893380Y-139263380D01*
X102655285Y-139263380D01*
X102560047Y-139215761D01*
X102512428Y-139120523D01*
X102512428Y-139025285D01*
X102560047Y-138930047D01*
X102655285Y-138882428D01*
X102893380Y-138882428D01*
X102988619Y-138834809D01*
X103464809Y-139263380D02*
X103464809Y-138263380D01*
X103464809Y-138644333D02*
X103560047Y-138596714D01*
X103750523Y-138596714D01*
X103845761Y-138644333D01*
X103893380Y-138691952D01*
X103941000Y-138787190D01*
X103941000Y-139072904D01*
X103893380Y-139168142D01*
X103845761Y-139215761D01*
X103750523Y-139263380D01*
X103560047Y-139263380D01*
X103464809Y-139215761D01*
X104512428Y-139263380D02*
X104417190Y-139215761D01*
X104369571Y-139168142D01*
X104321952Y-139072904D01*
X104321952Y-138787190D01*
X104369571Y-138691952D01*
X104417190Y-138644333D01*
X104512428Y-138596714D01*
X104655285Y-138596714D01*
X104750523Y-138644333D01*
X104798142Y-138691952D01*
X104845761Y-138787190D01*
X104845761Y-139072904D01*
X104798142Y-139168142D01*
X104750523Y-139215761D01*
X104655285Y-139263380D01*
X104512428Y-139263380D01*
X105702904Y-139263380D02*
X105702904Y-138739571D01*
X105655285Y-138644333D01*
X105560047Y-138596714D01*
X105369571Y-138596714D01*
X105274333Y-138644333D01*
X105702904Y-139215761D02*
X105607666Y-139263380D01*
X105369571Y-139263380D01*
X105274333Y-139215761D01*
X105226714Y-139120523D01*
X105226714Y-139025285D01*
X105274333Y-138930047D01*
X105369571Y-138882428D01*
X105607666Y-138882428D01*
X105702904Y-138834809D01*
X106179095Y-139263380D02*
X106179095Y-138596714D01*
X106179095Y-138787190D02*
X106226714Y-138691952D01*
X106274333Y-138644333D01*
X106369571Y-138596714D01*
X106464809Y-138596714D01*
X107226714Y-139263380D02*
X107226714Y-138263380D01*
X107226714Y-139215761D02*
X107131476Y-139263380D01*
X106941000Y-139263380D01*
X106845761Y-139215761D01*
X106798142Y-139168142D01*
X106750523Y-139072904D01*
X106750523Y-138787190D01*
X106798142Y-138691952D01*
X106845761Y-138644333D01*
X106941000Y-138596714D01*
X107131476Y-138596714D01*
X107226714Y-138644333D01*
D12*
%TO.C,K17*%
X111887000Y-63119000D02*
X111887000Y-63500000D01*
X120777000Y-63119000D02*
X111887000Y-63119000D01*
X123317000Y-65659000D02*
X123317000Y-66040000D01*
X122936000Y-69469000D02*
X123317000Y-69469000D01*
X119431162Y-69469000D02*
X121158000Y-69469000D01*
X111887000Y-67564000D02*
X116967000Y-67564000D01*
X111887000Y-66548000D02*
X111887000Y-67564000D01*
X123317000Y-69088000D02*
X123317000Y-69469000D01*
X110967000Y-63104000D02*
X109967000Y-63104000D01*
X109967000Y-77104000D02*
X110967000Y-77104000D01*
X109967000Y-64104000D02*
X109967000Y-63104000D01*
X123967000Y-63104000D02*
X123967000Y-64104000D01*
X122967000Y-77104000D02*
X123967000Y-77104000D01*
X123967000Y-63104000D02*
X122967000Y-63104000D01*
X123967000Y-76104000D02*
X123967000Y-77104000D01*
X109967000Y-77104000D02*
X109967000Y-76104000D01*
X123317000Y-65659000D02*
G75*
G03X120777000Y-63119000I-2540000J0D01*
G01*
X119431162Y-69487960D02*
G75*
G03X116967000Y-67564000I-2464162J-616040D01*
G01*
D10*
%TO.C,D25*%
X156988167Y-148471919D02*
X154732904Y-147651070D01*
X159040288Y-142833763D02*
X156988167Y-148471919D01*
X156785025Y-142012914D02*
X159040288Y-142833763D01*
X154732904Y-147651070D02*
X156785025Y-142012914D01*
X154826960Y-147392655D02*
X157082222Y-148213503D01*
X154869712Y-147275193D02*
X157124975Y-148096042D01*
X157030919Y-148354457D02*
X154775657Y-147533609D01*
%TO.C,D24*%
X163503650Y-130570774D02*
X161248387Y-129749925D01*
X165555771Y-124932618D02*
X163503650Y-130570774D01*
X163300508Y-124111769D02*
X165555771Y-124932618D01*
X161248387Y-129749925D02*
X163300508Y-124111769D01*
X161342443Y-129491510D02*
X163597705Y-130312358D01*
X161385195Y-129374048D02*
X163640458Y-130194897D01*
X163546402Y-130453312D02*
X161291140Y-129632464D01*
%TO.C,D23*%
X144717000Y-118444000D02*
X142317000Y-118444000D01*
X144717000Y-112444000D02*
X144717000Y-118444000D01*
X142317000Y-112444000D02*
X144717000Y-112444000D01*
X142317000Y-118444000D02*
X142317000Y-112444000D01*
X142317000Y-118169000D02*
X144717000Y-118169000D01*
X142317000Y-118044000D02*
X144717000Y-118044000D01*
X144717000Y-118319000D02*
X142317000Y-118319000D01*
%TO.C,D22*%
X144717000Y-99394000D02*
X142317000Y-99394000D01*
X144717000Y-93394000D02*
X144717000Y-99394000D01*
X142317000Y-93394000D02*
X144717000Y-93394000D01*
X142317000Y-99394000D02*
X142317000Y-93394000D01*
X142317000Y-99119000D02*
X144717000Y-99119000D01*
X142317000Y-98994000D02*
X144717000Y-98994000D01*
X144717000Y-99269000D02*
X142317000Y-99269000D01*
%TO.C,D21*%
X144717000Y-80344000D02*
X142317000Y-80344000D01*
X144717000Y-74344000D02*
X144717000Y-80344000D01*
X142317000Y-74344000D02*
X144717000Y-74344000D01*
X142317000Y-80344000D02*
X142317000Y-74344000D01*
X142317000Y-80069000D02*
X144717000Y-80069000D01*
X142317000Y-79944000D02*
X144717000Y-79944000D01*
X144717000Y-80219000D02*
X142317000Y-80219000D01*
%TO.C,D20*%
X131187305Y-139859535D02*
X128823767Y-139442779D01*
X132229194Y-133950688D02*
X131187305Y-139859535D01*
X129865656Y-133533932D02*
X132229194Y-133950688D01*
X128823767Y-139442779D02*
X129865656Y-133533932D01*
X128871520Y-139171957D02*
X131235058Y-139588712D01*
X128893226Y-139048856D02*
X131256764Y-139465612D01*
X131209011Y-139736434D02*
X128845473Y-139319678D01*
%TO.C,D19*%
X125667000Y-115904000D02*
X123267000Y-115904000D01*
X125667000Y-109904000D02*
X125667000Y-115904000D01*
X123267000Y-109904000D02*
X125667000Y-109904000D01*
X123267000Y-115904000D02*
X123267000Y-109904000D01*
X123267000Y-115629000D02*
X125667000Y-115629000D01*
X123267000Y-115504000D02*
X125667000Y-115504000D01*
X125667000Y-115779000D02*
X123267000Y-115779000D01*
%TO.C,D18*%
X125667000Y-96854000D02*
X123267000Y-96854000D01*
X125667000Y-90854000D02*
X125667000Y-96854000D01*
X123267000Y-90854000D02*
X125667000Y-90854000D01*
X123267000Y-96854000D02*
X123267000Y-90854000D01*
X123267000Y-96579000D02*
X125667000Y-96579000D01*
X123267000Y-96454000D02*
X125667000Y-96454000D01*
X125667000Y-96729000D02*
X123267000Y-96729000D01*
%TO.C,D17*%
X125667000Y-77804000D02*
X123267000Y-77804000D01*
X125667000Y-71804000D02*
X125667000Y-77804000D01*
X123267000Y-71804000D02*
X125667000Y-71804000D01*
X123267000Y-77804000D02*
X123267000Y-71804000D01*
X123267000Y-77529000D02*
X125667000Y-77529000D01*
X123267000Y-77404000D02*
X125667000Y-77404000D01*
X125667000Y-77679000D02*
X123267000Y-77679000D01*
%TO.C,D16*%
X106617000Y-132414000D02*
X104217000Y-132414000D01*
X106617000Y-126414000D02*
X106617000Y-132414000D01*
X104217000Y-126414000D02*
X106617000Y-126414000D01*
X104217000Y-132414000D02*
X104217000Y-126414000D01*
X104217000Y-132139000D02*
X106617000Y-132139000D01*
X104217000Y-132014000D02*
X106617000Y-132014000D01*
X106617000Y-132289000D02*
X104217000Y-132289000D01*
%TO.C,D15*%
X106617000Y-113364000D02*
X104217000Y-113364000D01*
X106617000Y-107364000D02*
X106617000Y-113364000D01*
X104217000Y-107364000D02*
X106617000Y-107364000D01*
X104217000Y-113364000D02*
X104217000Y-107364000D01*
X104217000Y-113089000D02*
X106617000Y-113089000D01*
X104217000Y-112964000D02*
X106617000Y-112964000D01*
X106617000Y-113239000D02*
X104217000Y-113239000D01*
%TO.C,D14*%
X106617000Y-94314000D02*
X104217000Y-94314000D01*
X106617000Y-88314000D02*
X106617000Y-94314000D01*
X104217000Y-88314000D02*
X106617000Y-88314000D01*
X104217000Y-94314000D02*
X104217000Y-88314000D01*
X104217000Y-94039000D02*
X106617000Y-94039000D01*
X104217000Y-93914000D02*
X106617000Y-93914000D01*
X106617000Y-94189000D02*
X104217000Y-94189000D01*
%TO.C,D13*%
X106617000Y-75264000D02*
X104217000Y-75264000D01*
X106617000Y-69264000D02*
X106617000Y-75264000D01*
X104217000Y-69264000D02*
X106617000Y-69264000D01*
X104217000Y-75264000D02*
X104217000Y-69264000D01*
X104217000Y-74989000D02*
X106617000Y-74989000D01*
X104217000Y-74864000D02*
X106617000Y-74864000D01*
X106617000Y-75139000D02*
X104217000Y-75139000D01*
%TO.C,D12*%
X87567000Y-134954000D02*
X85167000Y-134954000D01*
X87567000Y-128954000D02*
X87567000Y-134954000D01*
X85167000Y-128954000D02*
X87567000Y-128954000D01*
X85167000Y-134954000D02*
X85167000Y-128954000D01*
X85167000Y-134679000D02*
X87567000Y-134679000D01*
X85167000Y-134554000D02*
X87567000Y-134554000D01*
X87567000Y-134829000D02*
X85167000Y-134829000D01*
%TO.C,D11*%
X87567000Y-115904000D02*
X85167000Y-115904000D01*
X87567000Y-109904000D02*
X87567000Y-115904000D01*
X85167000Y-109904000D02*
X87567000Y-109904000D01*
X85167000Y-115904000D02*
X85167000Y-109904000D01*
X85167000Y-115629000D02*
X87567000Y-115629000D01*
X85167000Y-115504000D02*
X87567000Y-115504000D01*
X87567000Y-115779000D02*
X85167000Y-115779000D01*
%TO.C,D10*%
X87567000Y-96854000D02*
X85167000Y-96854000D01*
X87567000Y-90854000D02*
X87567000Y-96854000D01*
X85167000Y-90854000D02*
X87567000Y-90854000D01*
X85167000Y-96854000D02*
X85167000Y-90854000D01*
X85167000Y-96579000D02*
X87567000Y-96579000D01*
X85167000Y-96454000D02*
X87567000Y-96454000D01*
X87567000Y-96729000D02*
X85167000Y-96729000D01*
%TO.C,D09*%
X87567000Y-77804000D02*
X85167000Y-77804000D01*
X87567000Y-71804000D02*
X87567000Y-77804000D01*
X85167000Y-71804000D02*
X87567000Y-71804000D01*
X85167000Y-77804000D02*
X85167000Y-71804000D01*
X85167000Y-77529000D02*
X87567000Y-77529000D01*
X85167000Y-77404000D02*
X87567000Y-77404000D01*
X87567000Y-77679000D02*
X85167000Y-77679000D01*
%TO.C,D08*%
X68517000Y-137494000D02*
X66117000Y-137494000D01*
X68517000Y-131494000D02*
X68517000Y-137494000D01*
X66117000Y-131494000D02*
X68517000Y-131494000D01*
X66117000Y-137494000D02*
X66117000Y-131494000D01*
X66117000Y-137219000D02*
X68517000Y-137219000D01*
X66117000Y-137094000D02*
X68517000Y-137094000D01*
X68517000Y-137369000D02*
X66117000Y-137369000D01*
%TO.C,D07*%
X68517000Y-118444000D02*
X66117000Y-118444000D01*
X68517000Y-112444000D02*
X68517000Y-118444000D01*
X66117000Y-112444000D02*
X68517000Y-112444000D01*
X66117000Y-118444000D02*
X66117000Y-112444000D01*
X66117000Y-118169000D02*
X68517000Y-118169000D01*
X66117000Y-118044000D02*
X68517000Y-118044000D01*
X68517000Y-118319000D02*
X66117000Y-118319000D01*
%TO.C,D06*%
X68517000Y-99394000D02*
X66117000Y-99394000D01*
X68517000Y-93394000D02*
X68517000Y-99394000D01*
X66117000Y-93394000D02*
X68517000Y-93394000D01*
X66117000Y-99394000D02*
X66117000Y-93394000D01*
X66117000Y-99119000D02*
X68517000Y-99119000D01*
X66117000Y-98994000D02*
X68517000Y-98994000D01*
X68517000Y-99269000D02*
X66117000Y-99269000D01*
%TO.C,D05*%
X68517000Y-80344000D02*
X66117000Y-80344000D01*
X68517000Y-74344000D02*
X68517000Y-80344000D01*
X66117000Y-74344000D02*
X68517000Y-74344000D01*
X66117000Y-80344000D02*
X66117000Y-74344000D01*
X66117000Y-80069000D02*
X68517000Y-80069000D01*
X66117000Y-79944000D02*
X68517000Y-79944000D01*
X68517000Y-80219000D02*
X66117000Y-80219000D01*
%TO.C,D04*%
X49467000Y-139994000D02*
X47067000Y-139994000D01*
X49467000Y-133994000D02*
X49467000Y-139994000D01*
X47067000Y-133994000D02*
X49467000Y-133994000D01*
X47067000Y-139994000D02*
X47067000Y-133994000D01*
X47067000Y-139719000D02*
X49467000Y-139719000D01*
X47067000Y-139594000D02*
X49467000Y-139594000D01*
X49467000Y-139869000D02*
X47067000Y-139869000D01*
%TO.C,D03*%
X49467000Y-120944000D02*
X47067000Y-120944000D01*
X49467000Y-114944000D02*
X49467000Y-120944000D01*
X47067000Y-114944000D02*
X49467000Y-114944000D01*
X47067000Y-120944000D02*
X47067000Y-114944000D01*
X47067000Y-120669000D02*
X49467000Y-120669000D01*
X47067000Y-120544000D02*
X49467000Y-120544000D01*
X49467000Y-120819000D02*
X47067000Y-120819000D01*
%TO.C,D02*%
X49467000Y-101894000D02*
X47067000Y-101894000D01*
X49467000Y-95894000D02*
X49467000Y-101894000D01*
X47067000Y-95894000D02*
X49467000Y-95894000D01*
X47067000Y-101894000D02*
X47067000Y-95894000D01*
X47067000Y-101619000D02*
X49467000Y-101619000D01*
X47067000Y-101494000D02*
X49467000Y-101494000D01*
X49467000Y-101769000D02*
X47067000Y-101769000D01*
%TO.C,D01*%
X49467000Y-82719000D02*
X47067000Y-82719000D01*
X47067000Y-82444000D02*
X49467000Y-82444000D01*
X47067000Y-82569000D02*
X49467000Y-82569000D01*
X47067000Y-82844000D02*
X47067000Y-76844000D01*
X47067000Y-76844000D02*
X49467000Y-76844000D01*
X49467000Y-76844000D02*
X49467000Y-82844000D01*
X49467000Y-82844000D02*
X47067000Y-82844000D01*
D12*
%TO.C,TRRS1*%
X171704000Y-96153000D02*
X159604000Y-96153000D01*
X171704000Y-102253000D02*
X159604000Y-102253000D01*
X159604000Y-102253000D02*
X159604000Y-96153000D01*
X171704000Y-102253000D02*
X171704000Y-96153000D01*
%TO.C,K05*%
X54737000Y-65659000D02*
X54737000Y-66040000D01*
X63627000Y-65659000D02*
X54737000Y-65659000D01*
X66167000Y-68199000D02*
X66167000Y-68580000D01*
X65786000Y-72009000D02*
X66167000Y-72009000D01*
X62281162Y-72009000D02*
X64008000Y-72009000D01*
X54737000Y-70104000D02*
X59817000Y-70104000D01*
X54737000Y-69088000D02*
X54737000Y-70104000D01*
X66167000Y-71628000D02*
X66167000Y-72009000D01*
X53817000Y-65644000D02*
X52817000Y-65644000D01*
X52817000Y-79644000D02*
X53817000Y-79644000D01*
X52817000Y-66644000D02*
X52817000Y-65644000D01*
X66817000Y-65644000D02*
X66817000Y-66644000D01*
X65817000Y-79644000D02*
X66817000Y-79644000D01*
X66817000Y-65644000D02*
X65817000Y-65644000D01*
X66817000Y-78644000D02*
X66817000Y-79644000D01*
X52817000Y-79644000D02*
X52817000Y-78644000D01*
X66167000Y-68199000D02*
G75*
G03X63627000Y-65659000I-2540000J0D01*
G01*
X62281162Y-72027960D02*
G75*
G03X59817000Y-70104000I-2464162J-616040D01*
G01*
%TO.C,K01*%
X35687000Y-68159000D02*
X35687000Y-68540000D01*
X44577000Y-68159000D02*
X35687000Y-68159000D01*
X47117000Y-70699000D02*
X47117000Y-71080000D01*
X46736000Y-74509000D02*
X47117000Y-74509000D01*
X43231162Y-74509000D02*
X44958000Y-74509000D01*
X35687000Y-72604000D02*
X40767000Y-72604000D01*
X35687000Y-71588000D02*
X35687000Y-72604000D01*
X47117000Y-74128000D02*
X47117000Y-74509000D01*
X34767000Y-68144000D02*
X33767000Y-68144000D01*
X33767000Y-82144000D02*
X34767000Y-82144000D01*
X33767000Y-69144000D02*
X33767000Y-68144000D01*
X47767000Y-68144000D02*
X47767000Y-69144000D01*
X46767000Y-82144000D02*
X47767000Y-82144000D01*
X47767000Y-68144000D02*
X46767000Y-68144000D01*
X47767000Y-81144000D02*
X47767000Y-82144000D01*
X33767000Y-82144000D02*
X33767000Y-81144000D01*
X47117000Y-70699000D02*
G75*
G03X44577000Y-68159000I-2540000J0D01*
G01*
X43231162Y-74527960D02*
G75*
G03X40767000Y-72604000I-2464162J-616040D01*
G01*
%TO.C,K25*%
X149061768Y-129959495D02*
X148931459Y-130317518D01*
X157415636Y-133000054D02*
X149061768Y-129959495D01*
X158933724Y-136255604D02*
X158803414Y-136613627D01*
X157272604Y-139705523D02*
X157630627Y-139835833D01*
X153979134Y-138506798D02*
X155601831Y-139097412D01*
X147541489Y-134136428D02*
X152315127Y-135873891D01*
X147888981Y-133181701D02*
X147541489Y-134136428D01*
X157760937Y-139477810D02*
X157630627Y-139835833D01*
X148202381Y-129630741D02*
X147262689Y-129288721D01*
X142474407Y-142444417D02*
X143414099Y-142786437D01*
X146920669Y-130228413D02*
X147262689Y-129288721D01*
X160418385Y-134077003D02*
X160076365Y-135016695D01*
X154690411Y-146890679D02*
X155630103Y-147232699D01*
X160418385Y-134077003D02*
X159478693Y-133734983D01*
X155972123Y-146293007D02*
X155630103Y-147232699D01*
X142474407Y-142444417D02*
X142816427Y-141504725D01*
X158933723Y-136255605D02*
G75*
G03X157415636Y-133000054I-2386819J868732D01*
G01*
X153972649Y-138524614D02*
G75*
G03X152315127Y-135873891I-2526253J263904D01*
G01*
%TO.C,K24*%
X155577251Y-112058351D02*
X155446942Y-112416374D01*
X163931119Y-115098910D02*
X155577251Y-112058351D01*
X165449207Y-118354460D02*
X165318897Y-118712483D01*
X163788087Y-121804379D02*
X164146110Y-121934689D01*
X160494617Y-120605654D02*
X162117314Y-121196268D01*
X154056972Y-116235284D02*
X158830610Y-117972747D01*
X154404464Y-115280557D02*
X154056972Y-116235284D01*
X164276420Y-121576666D02*
X164146110Y-121934689D01*
X154717864Y-111729597D02*
X153778172Y-111387577D01*
X148989890Y-124543273D02*
X149929582Y-124885293D01*
X153436152Y-112327269D02*
X153778172Y-111387577D01*
X166933868Y-116175859D02*
X166591848Y-117115551D01*
X161205894Y-128989535D02*
X162145586Y-129331555D01*
X166933868Y-116175859D02*
X165994176Y-115833839D01*
X162487606Y-128391863D02*
X162145586Y-129331555D01*
X148989890Y-124543273D02*
X149331910Y-123603581D01*
X165449206Y-118354461D02*
G75*
G03X163931119Y-115098910I-2386819J868732D01*
G01*
X160488132Y-120623470D02*
G75*
G03X158830610Y-117972747I-2526253J263904D01*
G01*
%TO.C,K23*%
X130937000Y-103759000D02*
X130937000Y-104140000D01*
X139827000Y-103759000D02*
X130937000Y-103759000D01*
X142367000Y-106299000D02*
X142367000Y-106680000D01*
X141986000Y-110109000D02*
X142367000Y-110109000D01*
X138481162Y-110109000D02*
X140208000Y-110109000D01*
X130937000Y-108204000D02*
X136017000Y-108204000D01*
X130937000Y-107188000D02*
X130937000Y-108204000D01*
X142367000Y-109728000D02*
X142367000Y-110109000D01*
X130017000Y-103744000D02*
X129017000Y-103744000D01*
X129017000Y-117744000D02*
X130017000Y-117744000D01*
X129017000Y-104744000D02*
X129017000Y-103744000D01*
X143017000Y-103744000D02*
X143017000Y-104744000D01*
X142017000Y-117744000D02*
X143017000Y-117744000D01*
X143017000Y-103744000D02*
X142017000Y-103744000D01*
X143017000Y-116744000D02*
X143017000Y-117744000D01*
X129017000Y-117744000D02*
X129017000Y-116744000D01*
X142367000Y-106299000D02*
G75*
G03X139827000Y-103759000I-2540000J0D01*
G01*
X138481162Y-110127960D02*
G75*
G03X136017000Y-108204000I-2464162J-616040D01*
G01*
%TO.C,K22*%
X130937000Y-84709000D02*
X130937000Y-85090000D01*
X139827000Y-84709000D02*
X130937000Y-84709000D01*
X142367000Y-87249000D02*
X142367000Y-87630000D01*
X141986000Y-91059000D02*
X142367000Y-91059000D01*
X138481162Y-91059000D02*
X140208000Y-91059000D01*
X130937000Y-89154000D02*
X136017000Y-89154000D01*
X130937000Y-88138000D02*
X130937000Y-89154000D01*
X142367000Y-90678000D02*
X142367000Y-91059000D01*
X130017000Y-84694000D02*
X129017000Y-84694000D01*
X129017000Y-98694000D02*
X130017000Y-98694000D01*
X129017000Y-85694000D02*
X129017000Y-84694000D01*
X143017000Y-84694000D02*
X143017000Y-85694000D01*
X142017000Y-98694000D02*
X143017000Y-98694000D01*
X143017000Y-84694000D02*
X142017000Y-84694000D01*
X143017000Y-97694000D02*
X143017000Y-98694000D01*
X129017000Y-98694000D02*
X129017000Y-97694000D01*
X142367000Y-87249000D02*
G75*
G03X139827000Y-84709000I-2540000J0D01*
G01*
X138481162Y-91077960D02*
G75*
G03X136017000Y-89154000I-2464162J-616040D01*
G01*
%TO.C,K21*%
X130937000Y-65659000D02*
X130937000Y-66040000D01*
X139827000Y-65659000D02*
X130937000Y-65659000D01*
X142367000Y-68199000D02*
X142367000Y-68580000D01*
X141986000Y-72009000D02*
X142367000Y-72009000D01*
X138481162Y-72009000D02*
X140208000Y-72009000D01*
X130937000Y-70104000D02*
X136017000Y-70104000D01*
X130937000Y-69088000D02*
X130937000Y-70104000D01*
X142367000Y-71628000D02*
X142367000Y-72009000D01*
X130017000Y-65644000D02*
X129017000Y-65644000D01*
X129017000Y-79644000D02*
X130017000Y-79644000D01*
X129017000Y-66644000D02*
X129017000Y-65644000D01*
X143017000Y-65644000D02*
X143017000Y-66644000D01*
X142017000Y-79644000D02*
X143017000Y-79644000D01*
X143017000Y-65644000D02*
X142017000Y-65644000D01*
X143017000Y-78644000D02*
X143017000Y-79644000D01*
X129017000Y-79644000D02*
X129017000Y-78644000D01*
X142367000Y-68199000D02*
G75*
G03X139827000Y-65659000I-2540000J0D01*
G01*
X138481162Y-72027960D02*
G75*
G03X136017000Y-70104000I-2464162J-616040D01*
G01*
%TO.C,K20*%
X120166678Y-123004760D02*
X120100518Y-123379972D01*
X128921619Y-124548492D02*
X120166678Y-123004760D01*
X130981964Y-127490970D02*
X130915804Y-127866182D01*
X129945153Y-131176928D02*
X130320365Y-131243088D01*
X126493561Y-130568319D02*
X128194165Y-130868182D01*
X119394812Y-127382231D02*
X124397635Y-128264363D01*
X119571239Y-126381666D02*
X119394812Y-127382231D01*
X130386525Y-130867876D02*
X130320365Y-131243088D01*
X119263260Y-122830232D02*
X118278452Y-122656583D01*
X115847377Y-136443892D02*
X116832185Y-136617540D01*
X118104804Y-123641391D02*
X118278452Y-122656583D01*
X132065761Y-125087658D02*
X131892112Y-126072466D01*
X128649878Y-138701318D02*
X129634686Y-138874967D01*
X132065761Y-125087658D02*
X131080953Y-124914010D01*
X129808334Y-137890159D02*
X129634686Y-138874967D01*
X115847377Y-136443892D02*
X116021026Y-135459084D01*
X130981965Y-127490970D02*
G75*
G03X128921619Y-124548492I-2501412J441066D01*
G01*
X126490269Y-130586990D02*
G75*
G03X124397635Y-128264363I-2533700J-178785D01*
G01*
%TO.C,K19*%
X111887000Y-101219000D02*
X111887000Y-101600000D01*
X120777000Y-101219000D02*
X111887000Y-101219000D01*
X123317000Y-103759000D02*
X123317000Y-104140000D01*
X122936000Y-107569000D02*
X123317000Y-107569000D01*
X119431162Y-107569000D02*
X121158000Y-107569000D01*
X111887000Y-105664000D02*
X116967000Y-105664000D01*
X111887000Y-104648000D02*
X111887000Y-105664000D01*
X123317000Y-107188000D02*
X123317000Y-107569000D01*
X110967000Y-101204000D02*
X109967000Y-101204000D01*
X109967000Y-115204000D02*
X110967000Y-115204000D01*
X109967000Y-102204000D02*
X109967000Y-101204000D01*
X123967000Y-101204000D02*
X123967000Y-102204000D01*
X122967000Y-115204000D02*
X123967000Y-115204000D01*
X123967000Y-101204000D02*
X122967000Y-101204000D01*
X123967000Y-114204000D02*
X123967000Y-115204000D01*
X109967000Y-115204000D02*
X109967000Y-114204000D01*
X123317000Y-103759000D02*
G75*
G03X120777000Y-101219000I-2540000J0D01*
G01*
X119431162Y-107587960D02*
G75*
G03X116967000Y-105664000I-2464162J-616040D01*
G01*
%TO.C,K18*%
X111887000Y-82169000D02*
X111887000Y-82550000D01*
X120777000Y-82169000D02*
X111887000Y-82169000D01*
X123317000Y-84709000D02*
X123317000Y-85090000D01*
X122936000Y-88519000D02*
X123317000Y-88519000D01*
X119431162Y-88519000D02*
X121158000Y-88519000D01*
X111887000Y-86614000D02*
X116967000Y-86614000D01*
X111887000Y-85598000D02*
X111887000Y-86614000D01*
X123317000Y-88138000D02*
X123317000Y-88519000D01*
X110967000Y-82154000D02*
X109967000Y-82154000D01*
X109967000Y-96154000D02*
X110967000Y-96154000D01*
X109967000Y-83154000D02*
X109967000Y-82154000D01*
X123967000Y-82154000D02*
X123967000Y-83154000D01*
X122967000Y-96154000D02*
X123967000Y-96154000D01*
X123967000Y-82154000D02*
X122967000Y-82154000D01*
X123967000Y-95154000D02*
X123967000Y-96154000D01*
X109967000Y-96154000D02*
X109967000Y-95154000D01*
X123317000Y-84709000D02*
G75*
G03X120777000Y-82169000I-2540000J0D01*
G01*
X119431162Y-88537960D02*
G75*
G03X116967000Y-86614000I-2464162J-616040D01*
G01*
%TO.C,K16*%
X92837000Y-117729000D02*
X92837000Y-118110000D01*
X101727000Y-117729000D02*
X92837000Y-117729000D01*
X104267000Y-120269000D02*
X104267000Y-120650000D01*
X103886000Y-124079000D02*
X104267000Y-124079000D01*
X100381162Y-124079000D02*
X102108000Y-124079000D01*
X92837000Y-122174000D02*
X97917000Y-122174000D01*
X92837000Y-121158000D02*
X92837000Y-122174000D01*
X104267000Y-123698000D02*
X104267000Y-124079000D01*
X91917000Y-117714000D02*
X90917000Y-117714000D01*
X90917000Y-131714000D02*
X91917000Y-131714000D01*
X90917000Y-118714000D02*
X90917000Y-117714000D01*
X104917000Y-117714000D02*
X104917000Y-118714000D01*
X103917000Y-131714000D02*
X104917000Y-131714000D01*
X104917000Y-117714000D02*
X103917000Y-117714000D01*
X104917000Y-130714000D02*
X104917000Y-131714000D01*
X90917000Y-131714000D02*
X90917000Y-130714000D01*
X104267000Y-120269000D02*
G75*
G03X101727000Y-117729000I-2540000J0D01*
G01*
X100381162Y-124097960D02*
G75*
G03X97917000Y-122174000I-2464162J-616040D01*
G01*
%TO.C,K15*%
X92837000Y-98679000D02*
X92837000Y-99060000D01*
X101727000Y-98679000D02*
X92837000Y-98679000D01*
X104267000Y-101219000D02*
X104267000Y-101600000D01*
X103886000Y-105029000D02*
X104267000Y-105029000D01*
X100381162Y-105029000D02*
X102108000Y-105029000D01*
X92837000Y-103124000D02*
X97917000Y-103124000D01*
X92837000Y-102108000D02*
X92837000Y-103124000D01*
X104267000Y-104648000D02*
X104267000Y-105029000D01*
X91917000Y-98664000D02*
X90917000Y-98664000D01*
X90917000Y-112664000D02*
X91917000Y-112664000D01*
X90917000Y-99664000D02*
X90917000Y-98664000D01*
X104917000Y-98664000D02*
X104917000Y-99664000D01*
X103917000Y-112664000D02*
X104917000Y-112664000D01*
X104917000Y-98664000D02*
X103917000Y-98664000D01*
X104917000Y-111664000D02*
X104917000Y-112664000D01*
X90917000Y-112664000D02*
X90917000Y-111664000D01*
X104267000Y-101219000D02*
G75*
G03X101727000Y-98679000I-2540000J0D01*
G01*
X100381162Y-105047960D02*
G75*
G03X97917000Y-103124000I-2464162J-616040D01*
G01*
%TO.C,K14*%
X92837000Y-79629000D02*
X92837000Y-80010000D01*
X101727000Y-79629000D02*
X92837000Y-79629000D01*
X104267000Y-82169000D02*
X104267000Y-82550000D01*
X103886000Y-85979000D02*
X104267000Y-85979000D01*
X100381162Y-85979000D02*
X102108000Y-85979000D01*
X92837000Y-84074000D02*
X97917000Y-84074000D01*
X92837000Y-83058000D02*
X92837000Y-84074000D01*
X104267000Y-85598000D02*
X104267000Y-85979000D01*
X91917000Y-79614000D02*
X90917000Y-79614000D01*
X90917000Y-93614000D02*
X91917000Y-93614000D01*
X90917000Y-80614000D02*
X90917000Y-79614000D01*
X104917000Y-79614000D02*
X104917000Y-80614000D01*
X103917000Y-93614000D02*
X104917000Y-93614000D01*
X104917000Y-79614000D02*
X103917000Y-79614000D01*
X104917000Y-92614000D02*
X104917000Y-93614000D01*
X90917000Y-93614000D02*
X90917000Y-92614000D01*
X104267000Y-82169000D02*
G75*
G03X101727000Y-79629000I-2540000J0D01*
G01*
X100381162Y-85997960D02*
G75*
G03X97917000Y-84074000I-2464162J-616040D01*
G01*
%TO.C,K13*%
X92837000Y-60579000D02*
X92837000Y-60960000D01*
X101727000Y-60579000D02*
X92837000Y-60579000D01*
X104267000Y-63119000D02*
X104267000Y-63500000D01*
X103886000Y-66929000D02*
X104267000Y-66929000D01*
X100381162Y-66929000D02*
X102108000Y-66929000D01*
X92837000Y-65024000D02*
X97917000Y-65024000D01*
X92837000Y-64008000D02*
X92837000Y-65024000D01*
X104267000Y-66548000D02*
X104267000Y-66929000D01*
X91917000Y-60564000D02*
X90917000Y-60564000D01*
X90917000Y-74564000D02*
X91917000Y-74564000D01*
X90917000Y-61564000D02*
X90917000Y-60564000D01*
X104917000Y-60564000D02*
X104917000Y-61564000D01*
X103917000Y-74564000D02*
X104917000Y-74564000D01*
X104917000Y-60564000D02*
X103917000Y-60564000D01*
X104917000Y-73564000D02*
X104917000Y-74564000D01*
X90917000Y-74564000D02*
X90917000Y-73564000D01*
X104267000Y-63119000D02*
G75*
G03X101727000Y-60579000I-2540000J0D01*
G01*
X100381162Y-66947960D02*
G75*
G03X97917000Y-65024000I-2464162J-616040D01*
G01*
%TO.C,K12*%
X73787000Y-120269000D02*
X73787000Y-120650000D01*
X82677000Y-120269000D02*
X73787000Y-120269000D01*
X85217000Y-122809000D02*
X85217000Y-123190000D01*
X84836000Y-126619000D02*
X85217000Y-126619000D01*
X81331162Y-126619000D02*
X83058000Y-126619000D01*
X73787000Y-124714000D02*
X78867000Y-124714000D01*
X73787000Y-123698000D02*
X73787000Y-124714000D01*
X85217000Y-126238000D02*
X85217000Y-126619000D01*
X72867000Y-120254000D02*
X71867000Y-120254000D01*
X71867000Y-134254000D02*
X72867000Y-134254000D01*
X71867000Y-121254000D02*
X71867000Y-120254000D01*
X85867000Y-120254000D02*
X85867000Y-121254000D01*
X84867000Y-134254000D02*
X85867000Y-134254000D01*
X85867000Y-120254000D02*
X84867000Y-120254000D01*
X85867000Y-133254000D02*
X85867000Y-134254000D01*
X71867000Y-134254000D02*
X71867000Y-133254000D01*
X85217000Y-122809000D02*
G75*
G03X82677000Y-120269000I-2540000J0D01*
G01*
X81331162Y-126637960D02*
G75*
G03X78867000Y-124714000I-2464162J-616040D01*
G01*
%TO.C,K11*%
X73787000Y-101219000D02*
X73787000Y-101600000D01*
X82677000Y-101219000D02*
X73787000Y-101219000D01*
X85217000Y-103759000D02*
X85217000Y-104140000D01*
X84836000Y-107569000D02*
X85217000Y-107569000D01*
X81331162Y-107569000D02*
X83058000Y-107569000D01*
X73787000Y-105664000D02*
X78867000Y-105664000D01*
X73787000Y-104648000D02*
X73787000Y-105664000D01*
X85217000Y-107188000D02*
X85217000Y-107569000D01*
X72867000Y-101204000D02*
X71867000Y-101204000D01*
X71867000Y-115204000D02*
X72867000Y-115204000D01*
X71867000Y-102204000D02*
X71867000Y-101204000D01*
X85867000Y-101204000D02*
X85867000Y-102204000D01*
X84867000Y-115204000D02*
X85867000Y-115204000D01*
X85867000Y-101204000D02*
X84867000Y-101204000D01*
X85867000Y-114204000D02*
X85867000Y-115204000D01*
X71867000Y-115204000D02*
X71867000Y-114204000D01*
X85217000Y-103759000D02*
G75*
G03X82677000Y-101219000I-2540000J0D01*
G01*
X81331162Y-107587960D02*
G75*
G03X78867000Y-105664000I-2464162J-616040D01*
G01*
%TO.C,K10*%
X73787000Y-82169000D02*
X73787000Y-82550000D01*
X82677000Y-82169000D02*
X73787000Y-82169000D01*
X85217000Y-84709000D02*
X85217000Y-85090000D01*
X84836000Y-88519000D02*
X85217000Y-88519000D01*
X81331162Y-88519000D02*
X83058000Y-88519000D01*
X73787000Y-86614000D02*
X78867000Y-86614000D01*
X73787000Y-85598000D02*
X73787000Y-86614000D01*
X85217000Y-88138000D02*
X85217000Y-88519000D01*
X72867000Y-82154000D02*
X71867000Y-82154000D01*
X71867000Y-96154000D02*
X72867000Y-96154000D01*
X71867000Y-83154000D02*
X71867000Y-82154000D01*
X85867000Y-82154000D02*
X85867000Y-83154000D01*
X84867000Y-96154000D02*
X85867000Y-96154000D01*
X85867000Y-82154000D02*
X84867000Y-82154000D01*
X85867000Y-95154000D02*
X85867000Y-96154000D01*
X71867000Y-96154000D02*
X71867000Y-95154000D01*
X85217000Y-84709000D02*
G75*
G03X82677000Y-82169000I-2540000J0D01*
G01*
X81331162Y-88537960D02*
G75*
G03X78867000Y-86614000I-2464162J-616040D01*
G01*
%TO.C,K09*%
X73787000Y-63119000D02*
X73787000Y-63500000D01*
X82677000Y-63119000D02*
X73787000Y-63119000D01*
X85217000Y-65659000D02*
X85217000Y-66040000D01*
X84836000Y-69469000D02*
X85217000Y-69469000D01*
X81331162Y-69469000D02*
X83058000Y-69469000D01*
X73787000Y-67564000D02*
X78867000Y-67564000D01*
X73787000Y-66548000D02*
X73787000Y-67564000D01*
X85217000Y-69088000D02*
X85217000Y-69469000D01*
X72867000Y-63104000D02*
X71867000Y-63104000D01*
X71867000Y-77104000D02*
X72867000Y-77104000D01*
X71867000Y-64104000D02*
X71867000Y-63104000D01*
X85867000Y-63104000D02*
X85867000Y-64104000D01*
X84867000Y-77104000D02*
X85867000Y-77104000D01*
X85867000Y-63104000D02*
X84867000Y-63104000D01*
X85867000Y-76104000D02*
X85867000Y-77104000D01*
X71867000Y-77104000D02*
X71867000Y-76104000D01*
X85217000Y-65659000D02*
G75*
G03X82677000Y-63119000I-2540000J0D01*
G01*
X81331162Y-69487960D02*
G75*
G03X78867000Y-67564000I-2464162J-616040D01*
G01*
%TO.C,K08*%
X54737000Y-122809000D02*
X54737000Y-123190000D01*
X63627000Y-122809000D02*
X54737000Y-122809000D01*
X66167000Y-125349000D02*
X66167000Y-125730000D01*
X65786000Y-129159000D02*
X66167000Y-129159000D01*
X62281162Y-129159000D02*
X64008000Y-129159000D01*
X54737000Y-127254000D02*
X59817000Y-127254000D01*
X54737000Y-126238000D02*
X54737000Y-127254000D01*
X66167000Y-128778000D02*
X66167000Y-129159000D01*
X53817000Y-122794000D02*
X52817000Y-122794000D01*
X52817000Y-136794000D02*
X53817000Y-136794000D01*
X52817000Y-123794000D02*
X52817000Y-122794000D01*
X66817000Y-122794000D02*
X66817000Y-123794000D01*
X65817000Y-136794000D02*
X66817000Y-136794000D01*
X66817000Y-122794000D02*
X65817000Y-122794000D01*
X66817000Y-135794000D02*
X66817000Y-136794000D01*
X52817000Y-136794000D02*
X52817000Y-135794000D01*
X66167000Y-125349000D02*
G75*
G03X63627000Y-122809000I-2540000J0D01*
G01*
X62281162Y-129177960D02*
G75*
G03X59817000Y-127254000I-2464162J-616040D01*
G01*
%TO.C,K07*%
X54737000Y-103759000D02*
X54737000Y-104140000D01*
X63627000Y-103759000D02*
X54737000Y-103759000D01*
X66167000Y-106299000D02*
X66167000Y-106680000D01*
X65786000Y-110109000D02*
X66167000Y-110109000D01*
X62281162Y-110109000D02*
X64008000Y-110109000D01*
X54737000Y-108204000D02*
X59817000Y-108204000D01*
X54737000Y-107188000D02*
X54737000Y-108204000D01*
X66167000Y-109728000D02*
X66167000Y-110109000D01*
X53817000Y-103744000D02*
X52817000Y-103744000D01*
X52817000Y-117744000D02*
X53817000Y-117744000D01*
X52817000Y-104744000D02*
X52817000Y-103744000D01*
X66817000Y-103744000D02*
X66817000Y-104744000D01*
X65817000Y-117744000D02*
X66817000Y-117744000D01*
X66817000Y-103744000D02*
X65817000Y-103744000D01*
X66817000Y-116744000D02*
X66817000Y-117744000D01*
X52817000Y-117744000D02*
X52817000Y-116744000D01*
X66167000Y-106299000D02*
G75*
G03X63627000Y-103759000I-2540000J0D01*
G01*
X62281162Y-110127960D02*
G75*
G03X59817000Y-108204000I-2464162J-616040D01*
G01*
%TO.C,K06*%
X54737000Y-84709000D02*
X54737000Y-85090000D01*
X63627000Y-84709000D02*
X54737000Y-84709000D01*
X66167000Y-87249000D02*
X66167000Y-87630000D01*
X65786000Y-91059000D02*
X66167000Y-91059000D01*
X62281162Y-91059000D02*
X64008000Y-91059000D01*
X54737000Y-89154000D02*
X59817000Y-89154000D01*
X54737000Y-88138000D02*
X54737000Y-89154000D01*
X66167000Y-90678000D02*
X66167000Y-91059000D01*
X53817000Y-84694000D02*
X52817000Y-84694000D01*
X52817000Y-98694000D02*
X53817000Y-98694000D01*
X52817000Y-85694000D02*
X52817000Y-84694000D01*
X66817000Y-84694000D02*
X66817000Y-85694000D01*
X65817000Y-98694000D02*
X66817000Y-98694000D01*
X66817000Y-84694000D02*
X65817000Y-84694000D01*
X66817000Y-97694000D02*
X66817000Y-98694000D01*
X52817000Y-98694000D02*
X52817000Y-97694000D01*
X66167000Y-87249000D02*
G75*
G03X63627000Y-84709000I-2540000J0D01*
G01*
X62281162Y-91077960D02*
G75*
G03X59817000Y-89154000I-2464162J-616040D01*
G01*
%TO.C,K04*%
X35687000Y-125309000D02*
X35687000Y-125690000D01*
X44577000Y-125309000D02*
X35687000Y-125309000D01*
X47117000Y-127849000D02*
X47117000Y-128230000D01*
X46736000Y-131659000D02*
X47117000Y-131659000D01*
X43231162Y-131659000D02*
X44958000Y-131659000D01*
X35687000Y-129754000D02*
X40767000Y-129754000D01*
X35687000Y-128738000D02*
X35687000Y-129754000D01*
X47117000Y-131278000D02*
X47117000Y-131659000D01*
X34767000Y-125294000D02*
X33767000Y-125294000D01*
X33767000Y-139294000D02*
X34767000Y-139294000D01*
X33767000Y-126294000D02*
X33767000Y-125294000D01*
X47767000Y-125294000D02*
X47767000Y-126294000D01*
X46767000Y-139294000D02*
X47767000Y-139294000D01*
X47767000Y-125294000D02*
X46767000Y-125294000D01*
X47767000Y-138294000D02*
X47767000Y-139294000D01*
X33767000Y-139294000D02*
X33767000Y-138294000D01*
X47117000Y-127849000D02*
G75*
G03X44577000Y-125309000I-2540000J0D01*
G01*
X43231162Y-131677960D02*
G75*
G03X40767000Y-129754000I-2464162J-616040D01*
G01*
%TO.C,K03*%
X35687000Y-106259000D02*
X35687000Y-106640000D01*
X44577000Y-106259000D02*
X35687000Y-106259000D01*
X47117000Y-108799000D02*
X47117000Y-109180000D01*
X46736000Y-112609000D02*
X47117000Y-112609000D01*
X43231162Y-112609000D02*
X44958000Y-112609000D01*
X35687000Y-110704000D02*
X40767000Y-110704000D01*
X35687000Y-109688000D02*
X35687000Y-110704000D01*
X47117000Y-112228000D02*
X47117000Y-112609000D01*
X34767000Y-106244000D02*
X33767000Y-106244000D01*
X33767000Y-120244000D02*
X34767000Y-120244000D01*
X33767000Y-107244000D02*
X33767000Y-106244000D01*
X47767000Y-106244000D02*
X47767000Y-107244000D01*
X46767000Y-120244000D02*
X47767000Y-120244000D01*
X47767000Y-106244000D02*
X46767000Y-106244000D01*
X47767000Y-119244000D02*
X47767000Y-120244000D01*
X33767000Y-120244000D02*
X33767000Y-119244000D01*
X47117000Y-108799000D02*
G75*
G03X44577000Y-106259000I-2540000J0D01*
G01*
X43231162Y-112627960D02*
G75*
G03X40767000Y-110704000I-2464162J-616040D01*
G01*
%TO.C,K02*%
X35687000Y-87209000D02*
X35687000Y-87590000D01*
X44577000Y-87209000D02*
X35687000Y-87209000D01*
X47117000Y-89749000D02*
X47117000Y-90130000D01*
X46736000Y-93559000D02*
X47117000Y-93559000D01*
X43231162Y-93559000D02*
X44958000Y-93559000D01*
X35687000Y-91654000D02*
X40767000Y-91654000D01*
X35687000Y-90638000D02*
X35687000Y-91654000D01*
X47117000Y-93178000D02*
X47117000Y-93559000D01*
X34767000Y-87194000D02*
X33767000Y-87194000D01*
X33767000Y-101194000D02*
X34767000Y-101194000D01*
X33767000Y-88194000D02*
X33767000Y-87194000D01*
X47767000Y-87194000D02*
X47767000Y-88194000D01*
X46767000Y-101194000D02*
X47767000Y-101194000D01*
X47767000Y-87194000D02*
X46767000Y-87194000D01*
X47767000Y-100194000D02*
X47767000Y-101194000D01*
X33767000Y-101194000D02*
X33767000Y-100194000D01*
X47117000Y-89749000D02*
G75*
G03X44577000Y-87209000I-2540000J0D01*
G01*
X43231162Y-93577960D02*
G75*
G03X40767000Y-91654000I-2464162J-616040D01*
G01*
D13*
%TO.C,BAT1*%
X158496000Y-100806500D02*
X151028400Y-100806500D01*
X158496000Y-109061500D02*
X158496000Y-100806500D01*
X151028400Y-109061500D02*
X158496000Y-109061500D01*
X151028400Y-100806500D02*
X151028400Y-109061500D01*
D14*
%TO.C,U1*%
X152908000Y-89916000D02*
X150368000Y-89916000D01*
X152908000Y-59436000D02*
X150368000Y-59436000D01*
X152908000Y-59436000D02*
X152908000Y-89916000D01*
X165608000Y-59436000D02*
X165608000Y-89916000D01*
X168148000Y-89916000D02*
X168148000Y-59436000D01*
X165608000Y-89916000D02*
X168148000Y-89916000D01*
X150368000Y-59436000D02*
X150368000Y-89916000D01*
X168148000Y-59436000D02*
X165608000Y-59436000D01*
D10*
%TO.C,SW_RST1*%
X147010000Y-59436000D02*
G75*
G03X147010000Y-59436000I-100000J0D01*
G01*
D15*
X141760000Y-60371000D02*
X145260000Y-60371000D01*
X144360000Y-57231000D02*
X145260000Y-57231000D01*
X142660000Y-57231000D02*
X141760000Y-57231000D01*
%TO.C,SW_PWR1*%
X168753000Y-111201000D02*
X168753000Y-109501000D01*
X170353000Y-112951000D02*
X169753000Y-112951000D01*
X169753000Y-106251000D02*
X170353000Y-106251000D01*
D16*
X167653000Y-112801000D02*
G75*
G03X167653000Y-112801000I-100000J0D01*
G01*
%TO.C,K17*%
D12*
X115752714Y-62301380D02*
X115752714Y-61301380D01*
X116324142Y-62301380D02*
X115895571Y-61729952D01*
X116324142Y-61301380D02*
X115752714Y-61872809D01*
X117276523Y-62301380D02*
X116705095Y-62301380D01*
X116990809Y-62301380D02*
X116990809Y-61301380D01*
X116895571Y-61444238D01*
X116800333Y-61539476D01*
X116705095Y-61587095D01*
X117609857Y-61301380D02*
X118276523Y-61301380D01*
X117847952Y-62301380D01*
%TO.C,K05*%
X58602714Y-64841380D02*
X58602714Y-63841380D01*
X59174142Y-64841380D02*
X58745571Y-64269952D01*
X59174142Y-63841380D02*
X58602714Y-64412809D01*
X59793190Y-63841380D02*
X59888428Y-63841380D01*
X59983666Y-63889000D01*
X60031285Y-63936619D01*
X60078904Y-64031857D01*
X60126523Y-64222333D01*
X60126523Y-64460428D01*
X60078904Y-64650904D01*
X60031285Y-64746142D01*
X59983666Y-64793761D01*
X59888428Y-64841380D01*
X59793190Y-64841380D01*
X59697952Y-64793761D01*
X59650333Y-64746142D01*
X59602714Y-64650904D01*
X59555095Y-64460428D01*
X59555095Y-64222333D01*
X59602714Y-64031857D01*
X59650333Y-63936619D01*
X59697952Y-63889000D01*
X59793190Y-63841380D01*
X61031285Y-63841380D02*
X60555095Y-63841380D01*
X60507476Y-64317571D01*
X60555095Y-64269952D01*
X60650333Y-64222333D01*
X60888428Y-64222333D01*
X60983666Y-64269952D01*
X61031285Y-64317571D01*
X61078904Y-64412809D01*
X61078904Y-64650904D01*
X61031285Y-64746142D01*
X60983666Y-64793761D01*
X60888428Y-64841380D01*
X60650333Y-64841380D01*
X60555095Y-64793761D01*
X60507476Y-64746142D01*
%TO.C,K01*%
X39552714Y-67341380D02*
X39552714Y-66341380D01*
X40124142Y-67341380D02*
X39695571Y-66769952D01*
X40124142Y-66341380D02*
X39552714Y-66912809D01*
X40743190Y-66341380D02*
X40838428Y-66341380D01*
X40933666Y-66389000D01*
X40981285Y-66436619D01*
X41028904Y-66531857D01*
X41076523Y-66722333D01*
X41076523Y-66960428D01*
X41028904Y-67150904D01*
X40981285Y-67246142D01*
X40933666Y-67293761D01*
X40838428Y-67341380D01*
X40743190Y-67341380D01*
X40647952Y-67293761D01*
X40600333Y-67246142D01*
X40552714Y-67150904D01*
X40505095Y-66960428D01*
X40505095Y-66722333D01*
X40552714Y-66531857D01*
X40600333Y-66436619D01*
X40647952Y-66389000D01*
X40743190Y-66341380D01*
X42028904Y-67341380D02*
X41457476Y-67341380D01*
X41743190Y-67341380D02*
X41743190Y-66341380D01*
X41647952Y-66484238D01*
X41552714Y-66579476D01*
X41457476Y-66627095D01*
%TO.C,K25*%
X152973993Y-130513335D02*
X153316013Y-129573643D01*
X153510960Y-130708775D02*
X153303675Y-130025228D01*
X153852980Y-129769083D02*
X153120573Y-130110610D01*
X154178385Y-129988871D02*
X154239419Y-129960410D01*
X154345200Y-129948236D01*
X154568936Y-130029670D01*
X154642144Y-130106990D01*
X154670605Y-130168024D01*
X154682779Y-130273805D01*
X154650205Y-130363300D01*
X154556598Y-130481255D01*
X153824191Y-130822782D01*
X154405905Y-131034509D01*
X155598124Y-130404263D02*
X155150651Y-130241396D01*
X154943037Y-130672582D01*
X155004071Y-130644122D01*
X155109852Y-130631948D01*
X155333588Y-130713381D01*
X155406796Y-130790702D01*
X155435257Y-130851736D01*
X155447431Y-130957517D01*
X155365997Y-131181253D01*
X155288677Y-131254461D01*
X155227643Y-131282922D01*
X155121862Y-131295096D01*
X154898125Y-131213662D01*
X154824917Y-131136342D01*
X154796457Y-131075308D01*
%TO.C,K24*%
X159489476Y-112612191D02*
X159831496Y-111672499D01*
X160026443Y-112807631D02*
X159819158Y-112124084D01*
X160368463Y-111867939D02*
X159636056Y-112209466D01*
X160693868Y-112087727D02*
X160754902Y-112059266D01*
X160860683Y-112047092D01*
X161084419Y-112128526D01*
X161157627Y-112205846D01*
X161186088Y-112266880D01*
X161198262Y-112372661D01*
X161165688Y-112462156D01*
X161072081Y-112580111D01*
X160339674Y-112921638D01*
X160921388Y-113133365D01*
X161954853Y-112800063D02*
X161726839Y-113426525D01*
X161861410Y-112360652D02*
X161393373Y-112950427D01*
X161975088Y-113162154D01*
%TO.C,K23*%
X134802714Y-102941380D02*
X134802714Y-101941380D01*
X135374142Y-102941380D02*
X134945571Y-102369952D01*
X135374142Y-101941380D02*
X134802714Y-102512809D01*
X135755095Y-102036619D02*
X135802714Y-101989000D01*
X135897952Y-101941380D01*
X136136047Y-101941380D01*
X136231285Y-101989000D01*
X136278904Y-102036619D01*
X136326523Y-102131857D01*
X136326523Y-102227095D01*
X136278904Y-102369952D01*
X135707476Y-102941380D01*
X136326523Y-102941380D01*
X136659857Y-101941380D02*
X137278904Y-101941380D01*
X136945571Y-102322333D01*
X137088428Y-102322333D01*
X137183666Y-102369952D01*
X137231285Y-102417571D01*
X137278904Y-102512809D01*
X137278904Y-102750904D01*
X137231285Y-102846142D01*
X137183666Y-102893761D01*
X137088428Y-102941380D01*
X136802714Y-102941380D01*
X136707476Y-102893761D01*
X136659857Y-102846142D01*
%TO.C,K22*%
X134802714Y-83891380D02*
X134802714Y-82891380D01*
X135374142Y-83891380D02*
X134945571Y-83319952D01*
X135374142Y-82891380D02*
X134802714Y-83462809D01*
X135755095Y-82986619D02*
X135802714Y-82939000D01*
X135897952Y-82891380D01*
X136136047Y-82891380D01*
X136231285Y-82939000D01*
X136278904Y-82986619D01*
X136326523Y-83081857D01*
X136326523Y-83177095D01*
X136278904Y-83319952D01*
X135707476Y-83891380D01*
X136326523Y-83891380D01*
X136707476Y-82986619D02*
X136755095Y-82939000D01*
X136850333Y-82891380D01*
X137088428Y-82891380D01*
X137183666Y-82939000D01*
X137231285Y-82986619D01*
X137278904Y-83081857D01*
X137278904Y-83177095D01*
X137231285Y-83319952D01*
X136659857Y-83891380D01*
X137278904Y-83891380D01*
%TO.C,K21*%
X134802714Y-64841380D02*
X134802714Y-63841380D01*
X135374142Y-64841380D02*
X134945571Y-64269952D01*
X135374142Y-63841380D02*
X134802714Y-64412809D01*
X135755095Y-63936619D02*
X135802714Y-63889000D01*
X135897952Y-63841380D01*
X136136047Y-63841380D01*
X136231285Y-63889000D01*
X136278904Y-63936619D01*
X136326523Y-64031857D01*
X136326523Y-64127095D01*
X136278904Y-64269952D01*
X135707476Y-64841380D01*
X136326523Y-64841380D01*
X137278904Y-64841380D02*
X136707476Y-64841380D01*
X136993190Y-64841380D02*
X136993190Y-63841380D01*
X136897952Y-63984238D01*
X136802714Y-64079476D01*
X136707476Y-64127095D01*
%TO.C,K20*%
X124115641Y-122870836D02*
X124289290Y-121886029D01*
X124678389Y-122970064D02*
X124355556Y-122332896D01*
X124852037Y-121985256D02*
X124190062Y-122448776D01*
X125210664Y-122145199D02*
X125265828Y-122106572D01*
X125367889Y-122076215D01*
X125602367Y-122117559D01*
X125687889Y-122180993D01*
X125726515Y-122236158D01*
X125756873Y-122338218D01*
X125740335Y-122432009D01*
X125668633Y-122564427D01*
X125006658Y-123027947D01*
X125616301Y-123135443D01*
X126399592Y-122258132D02*
X126493383Y-122274670D01*
X126578905Y-122338103D01*
X126617532Y-122393268D01*
X126647890Y-122495328D01*
X126661709Y-122691179D01*
X126620365Y-122925657D01*
X126540393Y-123104971D01*
X126476960Y-123190493D01*
X126421795Y-123229120D01*
X126319735Y-123259477D01*
X126225944Y-123242940D01*
X126140421Y-123179506D01*
X126101795Y-123124341D01*
X126071437Y-123022281D01*
X126057617Y-122826430D01*
X126098962Y-122591952D01*
X126178934Y-122412638D01*
X126242367Y-122327116D01*
X126297532Y-122288489D01*
X126399592Y-122258132D01*
%TO.C,K19*%
X115752714Y-100401380D02*
X115752714Y-99401380D01*
X116324142Y-100401380D02*
X115895571Y-99829952D01*
X116324142Y-99401380D02*
X115752714Y-99972809D01*
X117276523Y-100401380D02*
X116705095Y-100401380D01*
X116990809Y-100401380D02*
X116990809Y-99401380D01*
X116895571Y-99544238D01*
X116800333Y-99639476D01*
X116705095Y-99687095D01*
X117752714Y-100401380D02*
X117943190Y-100401380D01*
X118038428Y-100353761D01*
X118086047Y-100306142D01*
X118181285Y-100163285D01*
X118228904Y-99972809D01*
X118228904Y-99591857D01*
X118181285Y-99496619D01*
X118133666Y-99449000D01*
X118038428Y-99401380D01*
X117847952Y-99401380D01*
X117752714Y-99449000D01*
X117705095Y-99496619D01*
X117657476Y-99591857D01*
X117657476Y-99829952D01*
X117705095Y-99925190D01*
X117752714Y-99972809D01*
X117847952Y-100020428D01*
X118038428Y-100020428D01*
X118133666Y-99972809D01*
X118181285Y-99925190D01*
X118228904Y-99829952D01*
%TO.C,K18*%
X115752714Y-81351380D02*
X115752714Y-80351380D01*
X116324142Y-81351380D02*
X115895571Y-80779952D01*
X116324142Y-80351380D02*
X115752714Y-80922809D01*
X117276523Y-81351380D02*
X116705095Y-81351380D01*
X116990809Y-81351380D02*
X116990809Y-80351380D01*
X116895571Y-80494238D01*
X116800333Y-80589476D01*
X116705095Y-80637095D01*
X117847952Y-80779952D02*
X117752714Y-80732333D01*
X117705095Y-80684714D01*
X117657476Y-80589476D01*
X117657476Y-80541857D01*
X117705095Y-80446619D01*
X117752714Y-80399000D01*
X117847952Y-80351380D01*
X118038428Y-80351380D01*
X118133666Y-80399000D01*
X118181285Y-80446619D01*
X118228904Y-80541857D01*
X118228904Y-80589476D01*
X118181285Y-80684714D01*
X118133666Y-80732333D01*
X118038428Y-80779952D01*
X117847952Y-80779952D01*
X117752714Y-80827571D01*
X117705095Y-80875190D01*
X117657476Y-80970428D01*
X117657476Y-81160904D01*
X117705095Y-81256142D01*
X117752714Y-81303761D01*
X117847952Y-81351380D01*
X118038428Y-81351380D01*
X118133666Y-81303761D01*
X118181285Y-81256142D01*
X118228904Y-81160904D01*
X118228904Y-80970428D01*
X118181285Y-80875190D01*
X118133666Y-80827571D01*
X118038428Y-80779952D01*
%TO.C,K16*%
X96702714Y-116911380D02*
X96702714Y-115911380D01*
X97274142Y-116911380D02*
X96845571Y-116339952D01*
X97274142Y-115911380D02*
X96702714Y-116482809D01*
X98226523Y-116911380D02*
X97655095Y-116911380D01*
X97940809Y-116911380D02*
X97940809Y-115911380D01*
X97845571Y-116054238D01*
X97750333Y-116149476D01*
X97655095Y-116197095D01*
X99083666Y-115911380D02*
X98893190Y-115911380D01*
X98797952Y-115959000D01*
X98750333Y-116006619D01*
X98655095Y-116149476D01*
X98607476Y-116339952D01*
X98607476Y-116720904D01*
X98655095Y-116816142D01*
X98702714Y-116863761D01*
X98797952Y-116911380D01*
X98988428Y-116911380D01*
X99083666Y-116863761D01*
X99131285Y-116816142D01*
X99178904Y-116720904D01*
X99178904Y-116482809D01*
X99131285Y-116387571D01*
X99083666Y-116339952D01*
X98988428Y-116292333D01*
X98797952Y-116292333D01*
X98702714Y-116339952D01*
X98655095Y-116387571D01*
X98607476Y-116482809D01*
%TO.C,K15*%
X96702714Y-97861380D02*
X96702714Y-96861380D01*
X97274142Y-97861380D02*
X96845571Y-97289952D01*
X97274142Y-96861380D02*
X96702714Y-97432809D01*
X98226523Y-97861380D02*
X97655095Y-97861380D01*
X97940809Y-97861380D02*
X97940809Y-96861380D01*
X97845571Y-97004238D01*
X97750333Y-97099476D01*
X97655095Y-97147095D01*
X99131285Y-96861380D02*
X98655095Y-96861380D01*
X98607476Y-97337571D01*
X98655095Y-97289952D01*
X98750333Y-97242333D01*
X98988428Y-97242333D01*
X99083666Y-97289952D01*
X99131285Y-97337571D01*
X99178904Y-97432809D01*
X99178904Y-97670904D01*
X99131285Y-97766142D01*
X99083666Y-97813761D01*
X98988428Y-97861380D01*
X98750333Y-97861380D01*
X98655095Y-97813761D01*
X98607476Y-97766142D01*
%TO.C,K14*%
X96702714Y-78811380D02*
X96702714Y-77811380D01*
X97274142Y-78811380D02*
X96845571Y-78239952D01*
X97274142Y-77811380D02*
X96702714Y-78382809D01*
X98226523Y-78811380D02*
X97655095Y-78811380D01*
X97940809Y-78811380D02*
X97940809Y-77811380D01*
X97845571Y-77954238D01*
X97750333Y-78049476D01*
X97655095Y-78097095D01*
X99083666Y-78144714D02*
X99083666Y-78811380D01*
X98845571Y-77763761D02*
X98607476Y-78478047D01*
X99226523Y-78478047D01*
%TO.C,K13*%
X96702714Y-59761380D02*
X96702714Y-58761380D01*
X97274142Y-59761380D02*
X96845571Y-59189952D01*
X97274142Y-58761380D02*
X96702714Y-59332809D01*
X98226523Y-59761380D02*
X97655095Y-59761380D01*
X97940809Y-59761380D02*
X97940809Y-58761380D01*
X97845571Y-58904238D01*
X97750333Y-58999476D01*
X97655095Y-59047095D01*
X98559857Y-58761380D02*
X99178904Y-58761380D01*
X98845571Y-59142333D01*
X98988428Y-59142333D01*
X99083666Y-59189952D01*
X99131285Y-59237571D01*
X99178904Y-59332809D01*
X99178904Y-59570904D01*
X99131285Y-59666142D01*
X99083666Y-59713761D01*
X98988428Y-59761380D01*
X98702714Y-59761380D01*
X98607476Y-59713761D01*
X98559857Y-59666142D01*
%TO.C,K12*%
X77652714Y-119451380D02*
X77652714Y-118451380D01*
X78224142Y-119451380D02*
X77795571Y-118879952D01*
X78224142Y-118451380D02*
X77652714Y-119022809D01*
X79176523Y-119451380D02*
X78605095Y-119451380D01*
X78890809Y-119451380D02*
X78890809Y-118451380D01*
X78795571Y-118594238D01*
X78700333Y-118689476D01*
X78605095Y-118737095D01*
X79557476Y-118546619D02*
X79605095Y-118499000D01*
X79700333Y-118451380D01*
X79938428Y-118451380D01*
X80033666Y-118499000D01*
X80081285Y-118546619D01*
X80128904Y-118641857D01*
X80128904Y-118737095D01*
X80081285Y-118879952D01*
X79509857Y-119451380D01*
X80128904Y-119451380D01*
%TO.C,K11*%
X77652714Y-100401380D02*
X77652714Y-99401380D01*
X78224142Y-100401380D02*
X77795571Y-99829952D01*
X78224142Y-99401380D02*
X77652714Y-99972809D01*
X79176523Y-100401380D02*
X78605095Y-100401380D01*
X78890809Y-100401380D02*
X78890809Y-99401380D01*
X78795571Y-99544238D01*
X78700333Y-99639476D01*
X78605095Y-99687095D01*
X80128904Y-100401380D02*
X79557476Y-100401380D01*
X79843190Y-100401380D02*
X79843190Y-99401380D01*
X79747952Y-99544238D01*
X79652714Y-99639476D01*
X79557476Y-99687095D01*
%TO.C,K10*%
X77652714Y-81351380D02*
X77652714Y-80351380D01*
X78224142Y-81351380D02*
X77795571Y-80779952D01*
X78224142Y-80351380D02*
X77652714Y-80922809D01*
X79176523Y-81351380D02*
X78605095Y-81351380D01*
X78890809Y-81351380D02*
X78890809Y-80351380D01*
X78795571Y-80494238D01*
X78700333Y-80589476D01*
X78605095Y-80637095D01*
X79795571Y-80351380D02*
X79890809Y-80351380D01*
X79986047Y-80399000D01*
X80033666Y-80446619D01*
X80081285Y-80541857D01*
X80128904Y-80732333D01*
X80128904Y-80970428D01*
X80081285Y-81160904D01*
X80033666Y-81256142D01*
X79986047Y-81303761D01*
X79890809Y-81351380D01*
X79795571Y-81351380D01*
X79700333Y-81303761D01*
X79652714Y-81256142D01*
X79605095Y-81160904D01*
X79557476Y-80970428D01*
X79557476Y-80732333D01*
X79605095Y-80541857D01*
X79652714Y-80446619D01*
X79700333Y-80399000D01*
X79795571Y-80351380D01*
%TO.C,K09*%
X77652714Y-62301380D02*
X77652714Y-61301380D01*
X78224142Y-62301380D02*
X77795571Y-61729952D01*
X78224142Y-61301380D02*
X77652714Y-61872809D01*
X78843190Y-61301380D02*
X78938428Y-61301380D01*
X79033666Y-61349000D01*
X79081285Y-61396619D01*
X79128904Y-61491857D01*
X79176523Y-61682333D01*
X79176523Y-61920428D01*
X79128904Y-62110904D01*
X79081285Y-62206142D01*
X79033666Y-62253761D01*
X78938428Y-62301380D01*
X78843190Y-62301380D01*
X78747952Y-62253761D01*
X78700333Y-62206142D01*
X78652714Y-62110904D01*
X78605095Y-61920428D01*
X78605095Y-61682333D01*
X78652714Y-61491857D01*
X78700333Y-61396619D01*
X78747952Y-61349000D01*
X78843190Y-61301380D01*
X79652714Y-62301380D02*
X79843190Y-62301380D01*
X79938428Y-62253761D01*
X79986047Y-62206142D01*
X80081285Y-62063285D01*
X80128904Y-61872809D01*
X80128904Y-61491857D01*
X80081285Y-61396619D01*
X80033666Y-61349000D01*
X79938428Y-61301380D01*
X79747952Y-61301380D01*
X79652714Y-61349000D01*
X79605095Y-61396619D01*
X79557476Y-61491857D01*
X79557476Y-61729952D01*
X79605095Y-61825190D01*
X79652714Y-61872809D01*
X79747952Y-61920428D01*
X79938428Y-61920428D01*
X80033666Y-61872809D01*
X80081285Y-61825190D01*
X80128904Y-61729952D01*
%TO.C,K08*%
X58602714Y-121991380D02*
X58602714Y-120991380D01*
X59174142Y-121991380D02*
X58745571Y-121419952D01*
X59174142Y-120991380D02*
X58602714Y-121562809D01*
X59793190Y-120991380D02*
X59888428Y-120991380D01*
X59983666Y-121039000D01*
X60031285Y-121086619D01*
X60078904Y-121181857D01*
X60126523Y-121372333D01*
X60126523Y-121610428D01*
X60078904Y-121800904D01*
X60031285Y-121896142D01*
X59983666Y-121943761D01*
X59888428Y-121991380D01*
X59793190Y-121991380D01*
X59697952Y-121943761D01*
X59650333Y-121896142D01*
X59602714Y-121800904D01*
X59555095Y-121610428D01*
X59555095Y-121372333D01*
X59602714Y-121181857D01*
X59650333Y-121086619D01*
X59697952Y-121039000D01*
X59793190Y-120991380D01*
X60697952Y-121419952D02*
X60602714Y-121372333D01*
X60555095Y-121324714D01*
X60507476Y-121229476D01*
X60507476Y-121181857D01*
X60555095Y-121086619D01*
X60602714Y-121039000D01*
X60697952Y-120991380D01*
X60888428Y-120991380D01*
X60983666Y-121039000D01*
X61031285Y-121086619D01*
X61078904Y-121181857D01*
X61078904Y-121229476D01*
X61031285Y-121324714D01*
X60983666Y-121372333D01*
X60888428Y-121419952D01*
X60697952Y-121419952D01*
X60602714Y-121467571D01*
X60555095Y-121515190D01*
X60507476Y-121610428D01*
X60507476Y-121800904D01*
X60555095Y-121896142D01*
X60602714Y-121943761D01*
X60697952Y-121991380D01*
X60888428Y-121991380D01*
X60983666Y-121943761D01*
X61031285Y-121896142D01*
X61078904Y-121800904D01*
X61078904Y-121610428D01*
X61031285Y-121515190D01*
X60983666Y-121467571D01*
X60888428Y-121419952D01*
%TO.C,K07*%
X58602714Y-102941380D02*
X58602714Y-101941380D01*
X59174142Y-102941380D02*
X58745571Y-102369952D01*
X59174142Y-101941380D02*
X58602714Y-102512809D01*
X59793190Y-101941380D02*
X59888428Y-101941380D01*
X59983666Y-101989000D01*
X60031285Y-102036619D01*
X60078904Y-102131857D01*
X60126523Y-102322333D01*
X60126523Y-102560428D01*
X60078904Y-102750904D01*
X60031285Y-102846142D01*
X59983666Y-102893761D01*
X59888428Y-102941380D01*
X59793190Y-102941380D01*
X59697952Y-102893761D01*
X59650333Y-102846142D01*
X59602714Y-102750904D01*
X59555095Y-102560428D01*
X59555095Y-102322333D01*
X59602714Y-102131857D01*
X59650333Y-102036619D01*
X59697952Y-101989000D01*
X59793190Y-101941380D01*
X60459857Y-101941380D02*
X61126523Y-101941380D01*
X60697952Y-102941380D01*
%TO.C,K06*%
X58602714Y-83891380D02*
X58602714Y-82891380D01*
X59174142Y-83891380D02*
X58745571Y-83319952D01*
X59174142Y-82891380D02*
X58602714Y-83462809D01*
X59793190Y-82891380D02*
X59888428Y-82891380D01*
X59983666Y-82939000D01*
X60031285Y-82986619D01*
X60078904Y-83081857D01*
X60126523Y-83272333D01*
X60126523Y-83510428D01*
X60078904Y-83700904D01*
X60031285Y-83796142D01*
X59983666Y-83843761D01*
X59888428Y-83891380D01*
X59793190Y-83891380D01*
X59697952Y-83843761D01*
X59650333Y-83796142D01*
X59602714Y-83700904D01*
X59555095Y-83510428D01*
X59555095Y-83272333D01*
X59602714Y-83081857D01*
X59650333Y-82986619D01*
X59697952Y-82939000D01*
X59793190Y-82891380D01*
X60983666Y-82891380D02*
X60793190Y-82891380D01*
X60697952Y-82939000D01*
X60650333Y-82986619D01*
X60555095Y-83129476D01*
X60507476Y-83319952D01*
X60507476Y-83700904D01*
X60555095Y-83796142D01*
X60602714Y-83843761D01*
X60697952Y-83891380D01*
X60888428Y-83891380D01*
X60983666Y-83843761D01*
X61031285Y-83796142D01*
X61078904Y-83700904D01*
X61078904Y-83462809D01*
X61031285Y-83367571D01*
X60983666Y-83319952D01*
X60888428Y-83272333D01*
X60697952Y-83272333D01*
X60602714Y-83319952D01*
X60555095Y-83367571D01*
X60507476Y-83462809D01*
%TO.C,K04*%
X39552714Y-124491380D02*
X39552714Y-123491380D01*
X40124142Y-124491380D02*
X39695571Y-123919952D01*
X40124142Y-123491380D02*
X39552714Y-124062809D01*
X40743190Y-123491380D02*
X40838428Y-123491380D01*
X40933666Y-123539000D01*
X40981285Y-123586619D01*
X41028904Y-123681857D01*
X41076523Y-123872333D01*
X41076523Y-124110428D01*
X41028904Y-124300904D01*
X40981285Y-124396142D01*
X40933666Y-124443761D01*
X40838428Y-124491380D01*
X40743190Y-124491380D01*
X40647952Y-124443761D01*
X40600333Y-124396142D01*
X40552714Y-124300904D01*
X40505095Y-124110428D01*
X40505095Y-123872333D01*
X40552714Y-123681857D01*
X40600333Y-123586619D01*
X40647952Y-123539000D01*
X40743190Y-123491380D01*
X41933666Y-123824714D02*
X41933666Y-124491380D01*
X41695571Y-123443761D02*
X41457476Y-124158047D01*
X42076523Y-124158047D01*
%TO.C,K03*%
X39552714Y-105441380D02*
X39552714Y-104441380D01*
X40124142Y-105441380D02*
X39695571Y-104869952D01*
X40124142Y-104441380D02*
X39552714Y-105012809D01*
X40743190Y-104441380D02*
X40838428Y-104441380D01*
X40933666Y-104489000D01*
X40981285Y-104536619D01*
X41028904Y-104631857D01*
X41076523Y-104822333D01*
X41076523Y-105060428D01*
X41028904Y-105250904D01*
X40981285Y-105346142D01*
X40933666Y-105393761D01*
X40838428Y-105441380D01*
X40743190Y-105441380D01*
X40647952Y-105393761D01*
X40600333Y-105346142D01*
X40552714Y-105250904D01*
X40505095Y-105060428D01*
X40505095Y-104822333D01*
X40552714Y-104631857D01*
X40600333Y-104536619D01*
X40647952Y-104489000D01*
X40743190Y-104441380D01*
X41409857Y-104441380D02*
X42028904Y-104441380D01*
X41695571Y-104822333D01*
X41838428Y-104822333D01*
X41933666Y-104869952D01*
X41981285Y-104917571D01*
X42028904Y-105012809D01*
X42028904Y-105250904D01*
X41981285Y-105346142D01*
X41933666Y-105393761D01*
X41838428Y-105441380D01*
X41552714Y-105441380D01*
X41457476Y-105393761D01*
X41409857Y-105346142D01*
%TO.C,K02*%
X39552714Y-86391380D02*
X39552714Y-85391380D01*
X40124142Y-86391380D02*
X39695571Y-85819952D01*
X40124142Y-85391380D02*
X39552714Y-85962809D01*
X40743190Y-85391380D02*
X40838428Y-85391380D01*
X40933666Y-85439000D01*
X40981285Y-85486619D01*
X41028904Y-85581857D01*
X41076523Y-85772333D01*
X41076523Y-86010428D01*
X41028904Y-86200904D01*
X40981285Y-86296142D01*
X40933666Y-86343761D01*
X40838428Y-86391380D01*
X40743190Y-86391380D01*
X40647952Y-86343761D01*
X40600333Y-86296142D01*
X40552714Y-86200904D01*
X40505095Y-86010428D01*
X40505095Y-85772333D01*
X40552714Y-85581857D01*
X40600333Y-85486619D01*
X40647952Y-85439000D01*
X40743190Y-85391380D01*
X41457476Y-85486619D02*
X41505095Y-85439000D01*
X41600333Y-85391380D01*
X41838428Y-85391380D01*
X41933666Y-85439000D01*
X41981285Y-85486619D01*
X42028904Y-85581857D01*
X42028904Y-85677095D01*
X41981285Y-85819952D01*
X41409857Y-86391380D01*
X42028904Y-86391380D01*
%TO.C,U1*%
X153519904Y-60228380D02*
X154091333Y-60228380D01*
X153805619Y-61228380D02*
X153805619Y-60228380D01*
X154329428Y-60228380D02*
X154996095Y-61228380D01*
X154996095Y-60228380D02*
X154329428Y-61228380D01*
X155567523Y-60228380D02*
X155662761Y-60228380D01*
X155758000Y-60276000D01*
X155805619Y-60323619D01*
X155853238Y-60418857D01*
X155900857Y-60609333D01*
X155900857Y-60847428D01*
X155853238Y-61037904D01*
X155805619Y-61133142D01*
X155758000Y-61180761D01*
X155662761Y-61228380D01*
X155567523Y-61228380D01*
X155472285Y-61180761D01*
X155424666Y-61133142D01*
X155377047Y-61037904D01*
X155329428Y-60847428D01*
X155329428Y-60609333D01*
X155377047Y-60418857D01*
X155424666Y-60323619D01*
X155472285Y-60276000D01*
X155567523Y-60228380D01*
X163167523Y-61228380D02*
X162834190Y-60752190D01*
X162596095Y-61228380D02*
X162596095Y-60228380D01*
X162977047Y-60228380D01*
X163072285Y-60276000D01*
X163119904Y-60323619D01*
X163167523Y-60418857D01*
X163167523Y-60561714D01*
X163119904Y-60656952D01*
X163072285Y-60704571D01*
X162977047Y-60752190D01*
X162596095Y-60752190D01*
X163548476Y-60942666D02*
X164024666Y-60942666D01*
X163453238Y-61228380D02*
X163786571Y-60228380D01*
X164119904Y-61228380D01*
X164358000Y-60228380D02*
X164596095Y-61228380D01*
X164786571Y-60514095D01*
X164977047Y-61228380D01*
X165215142Y-60228380D01*
%TD*%
M02*
