%TF.GenerationSoftware,KiCad,Pcbnew,5.1.6-c6e7f7d~87~ubuntu20.04.1*%
%TF.CreationDate,2020-08-23T16:37:35-05:00*%
%TF.ProjectId,keaboard_rev1,6b656162-6f61-4726-945f-726576312e6b,rev?*%
%TF.SameCoordinates,Original*%
%TF.FileFunction,Copper,L1,Top*%
%TF.FilePolarity,Positive*%
%FSLAX46Y46*%
G04 Gerber Fmt 4.6, Leading zero omitted, Abs format (unit mm)*
G04 Created by KiCad (PCBNEW 5.1.6-c6e7f7d~87~ubuntu20.04.1) date 2020-08-23 16:37:35*
%MOMM*%
%LPD*%
G01*
G04 APERTURE LIST*
%TA.AperFunction,SMDPad,CuDef*%
%ADD10R,0.800000X1.000000*%
%TD*%
%TA.AperFunction,SMDPad,CuDef*%
%ADD11R,1.500000X0.700000*%
%TD*%
%TA.AperFunction,ComponentPad*%
%ADD12C,1.397000*%
%TD*%
%TA.AperFunction,SMDPad,CuDef*%
%ADD13R,2.550000X2.500000*%
%TD*%
%TA.AperFunction,SMDPad,CuDef*%
%ADD14R,1.650000X1.050000*%
%TD*%
%TA.AperFunction,ComponentPad*%
%ADD15C,0.900000*%
%TD*%
%TA.AperFunction,ComponentPad*%
%ADD16C,1.752600*%
%TD*%
%TA.AperFunction,ComponentPad*%
%ADD17O,2.000000X1.600000*%
%TD*%
%TA.AperFunction,SMDPad,CuDef*%
%ADD18R,1.200000X1.400000*%
%TD*%
%TA.AperFunction,SMDPad,CuDef*%
%ADD19C,0.100000*%
%TD*%
%TA.AperFunction,ViaPad*%
%ADD20C,0.800000*%
%TD*%
%TA.AperFunction,Conductor*%
%ADD21C,0.254000*%
%TD*%
%TA.AperFunction,Conductor*%
%ADD22C,0.381000*%
%TD*%
G04 APERTURE END LIST*
D10*
%TO.P,SW_PWR1,S4*%
%TO.N,N/C*%
X162865000Y-72804000D03*
%TO.P,SW_PWR1,S1*%
X162865000Y-80104000D03*
%TO.P,SW_PWR1,S3*%
X164795000Y-72804000D03*
%TO.P,SW_PWR1,S2*%
X164795000Y-80104000D03*
D11*
%TO.P,SW_PWR1,3*%
%TO.N,Net-(SW_PWR1-Pad3)*%
X162080000Y-74204000D03*
%TO.P,SW_PWR1,1*%
%TO.N,RAW*%
X162080000Y-78704000D03*
%TO.P,SW_PWR1,2*%
%TO.N,Net-(BAT1-Pad1)*%
X162080000Y-75704000D03*
%TD*%
D12*
%TO.P,BAT1,2*%
%TO.N,GND*%
X150431001Y-75565000D03*
%TO.P,BAT1,1*%
%TO.N,Net-(BAT1-Pad1)*%
X148431000Y-75565000D03*
%TO.P,BAT1,2*%
%TO.N,GND*%
X146430999Y-75565000D03*
%TD*%
D13*
%TO.P,K23,2*%
%TO.N,Net-(D23-Pad2)*%
X141291000Y-77597000D03*
%TO.P,K23,1*%
%TO.N,COL6*%
X127441000Y-75057000D03*
%TD*%
D14*
%TO.P,SW_RST1,3*%
%TO.N,RESET*%
X143276000Y-30189000D03*
%TO.P,SW_RST1,4*%
X139426000Y-30189000D03*
%TO.P,SW_RST1,1*%
%TO.N,GND*%
X143276000Y-28739000D03*
%TO.P,SW_RST1,2*%
X139426000Y-28739000D03*
D15*
%TO.P,SW_RST1,1*%
X143376000Y-28664000D03*
%TO.P,SW_RST1,2*%
X139326000Y-28664000D03*
%TD*%
D13*
%TO.P,K22,1*%
%TO.N,COL6*%
X127441000Y-56007000D03*
%TO.P,K22,2*%
%TO.N,Net-(D22-Pad2)*%
X141291000Y-58547000D03*
%TD*%
%TO.P,K21,2*%
%TO.N,Net-(D21-Pad2)*%
X141291000Y-39497000D03*
%TO.P,K21,1*%
%TO.N,COL6*%
X127441000Y-36957000D03*
%TD*%
%TO.P,K01,1*%
%TO.N,COL1*%
X32191000Y-36957000D03*
%TO.P,K01,2*%
%TO.N,Net-(D01-Pad2)*%
X46041000Y-39497000D03*
%TD*%
D16*
%TO.P,U1,2*%
%TO.N,Net-(U1-Pad2)*%
X161909000Y-34477000D03*
%TO.P,U1,20*%
%TO.N,Net-(U1-Pad20)*%
X146669000Y-42097000D03*
%TO.P,U1,19*%
%TO.N,TRRS_TIP*%
X146669000Y-44637000D03*
%TO.P,U1,21*%
%TO.N,Net-(U1-Pad21)*%
X146669000Y-39557000D03*
%TO.P,U1,22*%
%TO.N,RESET*%
X146669000Y-37017000D03*
%TO.P,U1,23*%
%TO.N,GND*%
X146669000Y-34477000D03*
%TO.P,U1,12*%
%TO.N,COL1*%
X161909000Y-59877000D03*
%TO.P,U1,24*%
%TO.N,RAW*%
X146669000Y-31937000D03*
%TO.P,U1,3*%
%TO.N,GND*%
X161909000Y-37017000D03*
%TO.P,U1,5*%
%TO.N,TRRS_SLEEVE*%
X161909000Y-42097000D03*
%TO.P,U1,4*%
%TO.N,GND*%
X161909000Y-39557000D03*
%TO.P,U1,15*%
%TO.N,COL4*%
X146669000Y-54797000D03*
%TO.P,U1,14*%
%TO.N,COL3*%
X146669000Y-57337000D03*
%TO.P,U1,13*%
%TO.N,COL2*%
X146669000Y-59877000D03*
%TO.P,U1,18*%
%TO.N,COL7*%
X146669000Y-47177000D03*
%TO.P,U1,17*%
%TO.N,COL6*%
X146669000Y-49717000D03*
%TO.P,U1,16*%
%TO.N,COL5*%
X146669000Y-52257000D03*
%TO.P,U1,10*%
%TO.N,ROW3*%
X161909000Y-54797000D03*
%TO.P,U1,11*%
%TO.N,ROW4*%
X161909000Y-57337000D03*
%TO.P,U1,6*%
%TO.N,Net-(U1-Pad6)*%
X161909000Y-44637000D03*
%TO.P,U1,1*%
%TO.N,Net-(U1-Pad1)*%
X161909000Y-31937000D03*
%TO.P,U1,7*%
%TO.N,Net-(U1-Pad7)*%
X161909000Y-47177000D03*
%TO.P,U1,9*%
%TO.N,ROW2*%
X161909000Y-52257000D03*
%TO.P,U1,8*%
%TO.N,ROW1*%
X161909000Y-49717000D03*
%TO.P,U1,1*%
%TO.N,Net-(U1-Pad1)*%
X148209000Y-30607000D03*
%TO.P,U1,2*%
%TO.N,Net-(U1-Pad2)*%
X148209000Y-33147000D03*
%TO.P,U1,3*%
%TO.N,GND*%
X148209000Y-35687000D03*
%TO.P,U1,4*%
X148209000Y-38227000D03*
%TO.P,U1,5*%
%TO.N,TRRS_SLEEVE*%
X148209000Y-40767000D03*
%TO.P,U1,6*%
%TO.N,Net-(U1-Pad6)*%
X148209000Y-43307000D03*
%TO.P,U1,7*%
%TO.N,Net-(U1-Pad7)*%
X148209000Y-45847000D03*
%TO.P,U1,8*%
%TO.N,ROW1*%
X148209000Y-48387000D03*
%TO.P,U1,9*%
%TO.N,ROW2*%
X148209000Y-50927000D03*
%TO.P,U1,10*%
%TO.N,ROW3*%
X148209000Y-53467000D03*
%TO.P,U1,11*%
%TO.N,ROW4*%
X148209000Y-56007000D03*
%TO.P,U1,13*%
%TO.N,COL2*%
X163449000Y-58547000D03*
%TO.P,U1,14*%
%TO.N,COL3*%
X163449000Y-56007000D03*
%TO.P,U1,15*%
%TO.N,COL4*%
X163449000Y-53467000D03*
%TO.P,U1,16*%
%TO.N,COL5*%
X163449000Y-50927000D03*
%TO.P,U1,17*%
%TO.N,COL6*%
X163449000Y-48387000D03*
%TO.P,U1,18*%
%TO.N,COL7*%
X163449000Y-45847000D03*
%TO.P,U1,19*%
%TO.N,TRRS_TIP*%
X163449000Y-43307000D03*
%TO.P,U1,20*%
%TO.N,Net-(U1-Pad20)*%
X163449000Y-40767000D03*
%TO.P,U1,21*%
%TO.N,Net-(U1-Pad21)*%
X163449000Y-38227000D03*
%TO.P,U1,22*%
%TO.N,RESET*%
X163449000Y-35687000D03*
%TO.P,U1,23*%
%TO.N,GND*%
X163449000Y-33147000D03*
%TO.P,U1,12*%
%TO.N,COL1*%
X148209000Y-58547000D03*
%TO.P,U1,24*%
%TO.N,RAW*%
X163449000Y-30607000D03*
%TD*%
D17*
%TO.P,TRRS1,R1*%
%TO.N,Net-(TRRS1-PadR1)*%
X159281000Y-64246000D03*
%TO.P,TRRS1,S*%
%TO.N,GND*%
X154181000Y-68846000D03*
%TO.P,TRRS1,R2*%
%TO.N,TRRS_SLEEVE*%
X162281000Y-64246000D03*
%TO.P,TRRS1,T*%
%TO.N,TRRS_TIP*%
X155281000Y-64246000D03*
%TO.P,TRRS1,R1*%
%TO.N,Net-(TRRS1-PadR1)*%
X159281000Y-70626000D03*
%TO.P,TRRS1,R2*%
%TO.N,TRRS_SLEEVE*%
X162281000Y-70626000D03*
%TO.P,TRRS1,T*%
%TO.N,TRRS_TIP*%
X155281000Y-70626000D03*
%TO.P,TRRS1,S*%
%TO.N,GND*%
X154181000Y-66026000D03*
%TD*%
D18*
%TO.P,D01,1*%
%TO.N,ROW1*%
X40181000Y-45847000D03*
%TO.P,D01,2*%
%TO.N,Net-(D01-Pad2)*%
X36781000Y-45847000D03*
%TD*%
%TO.P,D02,1*%
%TO.N,ROW2*%
X40181000Y-64897000D03*
%TO.P,D02,2*%
%TO.N,Net-(D02-Pad2)*%
X36781000Y-64897000D03*
%TD*%
%TO.P,D03,1*%
%TO.N,ROW3*%
X40181000Y-83947000D03*
%TO.P,D03,2*%
%TO.N,Net-(D03-Pad2)*%
X36781000Y-83947000D03*
%TD*%
%TO.P,D04,1*%
%TO.N,ROW4*%
X40181000Y-102997000D03*
%TO.P,D04,2*%
%TO.N,Net-(D04-Pad2)*%
X36781000Y-102997000D03*
%TD*%
%TO.P,D05,1*%
%TO.N,ROW1*%
X59231000Y-45847000D03*
%TO.P,D05,2*%
%TO.N,Net-(D05-Pad2)*%
X55831000Y-45847000D03*
%TD*%
%TO.P,D06,2*%
%TO.N,Net-(D06-Pad2)*%
X55831000Y-64897000D03*
%TO.P,D06,1*%
%TO.N,ROW2*%
X59231000Y-64897000D03*
%TD*%
%TO.P,D07,1*%
%TO.N,ROW3*%
X59231000Y-83947000D03*
%TO.P,D07,2*%
%TO.N,Net-(D07-Pad2)*%
X55831000Y-83947000D03*
%TD*%
%TO.P,D08,1*%
%TO.N,ROW4*%
X59231000Y-102997000D03*
%TO.P,D08,2*%
%TO.N,Net-(D08-Pad2)*%
X55831000Y-102997000D03*
%TD*%
%TO.P,D09,2*%
%TO.N,Net-(D09-Pad2)*%
X74881000Y-43347000D03*
%TO.P,D09,1*%
%TO.N,ROW1*%
X78281000Y-43347000D03*
%TD*%
%TO.P,D10,1*%
%TO.N,ROW2*%
X78281000Y-62397000D03*
%TO.P,D10,2*%
%TO.N,Net-(D10-Pad2)*%
X74881000Y-62397000D03*
%TD*%
%TO.P,D11,2*%
%TO.N,Net-(D11-Pad2)*%
X74881000Y-81447000D03*
%TO.P,D11,1*%
%TO.N,ROW3*%
X78281000Y-81447000D03*
%TD*%
%TO.P,D12,2*%
%TO.N,Net-(D12-Pad2)*%
X74881000Y-100497000D03*
%TO.P,D12,1*%
%TO.N,ROW4*%
X78281000Y-100497000D03*
%TD*%
%TO.P,D13,1*%
%TO.N,ROW1*%
X97331000Y-40847000D03*
%TO.P,D13,2*%
%TO.N,Net-(D13-Pad2)*%
X93931000Y-40847000D03*
%TD*%
%TO.P,D14,2*%
%TO.N,Net-(D14-Pad2)*%
X93931000Y-59897000D03*
%TO.P,D14,1*%
%TO.N,ROW2*%
X97331000Y-59897000D03*
%TD*%
%TO.P,D15,2*%
%TO.N,Net-(D15-Pad2)*%
X93931000Y-78947000D03*
%TO.P,D15,1*%
%TO.N,ROW3*%
X97331000Y-78947000D03*
%TD*%
%TO.P,D16,1*%
%TO.N,ROW4*%
X97331000Y-97997000D03*
%TO.P,D16,2*%
%TO.N,Net-(D16-Pad2)*%
X93931000Y-97997000D03*
%TD*%
%TO.P,D17,1*%
%TO.N,ROW1*%
X116381000Y-43347000D03*
%TO.P,D17,2*%
%TO.N,Net-(D17-Pad2)*%
X112981000Y-43347000D03*
%TD*%
%TO.P,D18,1*%
%TO.N,ROW2*%
X116381000Y-62397000D03*
%TO.P,D18,2*%
%TO.N,Net-(D18-Pad2)*%
X112981000Y-62397000D03*
%TD*%
%TO.P,D19,2*%
%TO.N,Net-(D19-Pad2)*%
X112981000Y-81447000D03*
%TO.P,D19,1*%
%TO.N,ROW3*%
X116381000Y-81447000D03*
%TD*%
%TA.AperFunction,SMDPad,CuDef*%
D19*
%TO.P,D20,2*%
%TO.N,Net-(D20-Pad2)*%
G36*
X122702792Y-100413651D02*
G01*
X122459685Y-101792382D01*
X121277916Y-101584005D01*
X121521023Y-100205274D01*
X122702792Y-100413651D01*
G37*
%TD.AperFunction*%
%TA.AperFunction,SMDPad,CuDef*%
%TO.P,D20,1*%
%TO.N,ROW4*%
G36*
X126051138Y-101004055D02*
G01*
X125808031Y-102382786D01*
X124626262Y-102174409D01*
X124869369Y-100795678D01*
X126051138Y-101004055D01*
G37*
%TD.AperFunction*%
%TD*%
D18*
%TO.P,D21,2*%
%TO.N,Net-(D21-Pad2)*%
X132031000Y-45847000D03*
%TO.P,D21,1*%
%TO.N,ROW1*%
X135431000Y-45847000D03*
%TD*%
%TO.P,D22,2*%
%TO.N,Net-(D22-Pad2)*%
X132031000Y-64897000D03*
%TO.P,D22,1*%
%TO.N,ROW2*%
X135431000Y-64897000D03*
%TD*%
%TO.P,D23,2*%
%TO.N,Net-(D23-Pad2)*%
X132031000Y-83947000D03*
%TO.P,D23,1*%
%TO.N,ROW3*%
X135431000Y-83947000D03*
%TD*%
%TA.AperFunction,SMDPad,CuDef*%
D19*
%TO.P,D24,2*%
%TO.N,Net-(D24-Pad2)*%
G36*
X151286546Y-89505287D02*
G01*
X150807717Y-90820857D01*
X149680086Y-90410433D01*
X150158915Y-89094863D01*
X151286546Y-89505287D01*
G37*
%TD.AperFunction*%
%TA.AperFunction,SMDPad,CuDef*%
%TO.P,D24,1*%
%TO.N,ROW3*%
G36*
X154481500Y-90668155D02*
G01*
X154002671Y-91983725D01*
X152875040Y-91573301D01*
X153353869Y-90257731D01*
X154481500Y-90668155D01*
G37*
%TD.AperFunction*%
%TD*%
%TA.AperFunction,SMDPad,CuDef*%
%TO.P,D25,1*%
%TO.N,ROW4*%
G36*
X148358948Y-107489728D02*
G01*
X147880119Y-108805298D01*
X146752488Y-108394874D01*
X147231317Y-107079304D01*
X148358948Y-107489728D01*
G37*
%TD.AperFunction*%
%TA.AperFunction,SMDPad,CuDef*%
%TO.P,D25,2*%
%TO.N,Net-(D25-Pad2)*%
G36*
X145163994Y-106326860D02*
G01*
X144685165Y-107642430D01*
X143557534Y-107232006D01*
X144036363Y-105916436D01*
X145163994Y-106326860D01*
G37*
%TD.AperFunction*%
%TD*%
D13*
%TO.P,K02,2*%
%TO.N,Net-(D02-Pad2)*%
X46041000Y-58547000D03*
%TO.P,K02,1*%
%TO.N,COL1*%
X32191000Y-56007000D03*
%TD*%
%TO.P,K03,2*%
%TO.N,Net-(D03-Pad2)*%
X46041000Y-77597000D03*
%TO.P,K03,1*%
%TO.N,COL1*%
X32191000Y-75057000D03*
%TD*%
%TO.P,K04,2*%
%TO.N,Net-(D04-Pad2)*%
X46041000Y-96647000D03*
%TO.P,K04,1*%
%TO.N,COL1*%
X32191000Y-94107000D03*
%TD*%
%TO.P,K05,2*%
%TO.N,Net-(D05-Pad2)*%
X65091000Y-39497000D03*
%TO.P,K05,1*%
%TO.N,COL2*%
X51241000Y-36957000D03*
%TD*%
%TO.P,K06,1*%
%TO.N,COL2*%
X51241000Y-56007000D03*
%TO.P,K06,2*%
%TO.N,Net-(D06-Pad2)*%
X65091000Y-58547000D03*
%TD*%
%TO.P,K07,1*%
%TO.N,COL2*%
X51241000Y-75057000D03*
%TO.P,K07,2*%
%TO.N,Net-(D07-Pad2)*%
X65091000Y-77597000D03*
%TD*%
%TO.P,K08,1*%
%TO.N,COL2*%
X51241000Y-94107000D03*
%TO.P,K08,2*%
%TO.N,Net-(D08-Pad2)*%
X65091000Y-96647000D03*
%TD*%
%TO.P,K09,1*%
%TO.N,COL3*%
X70291000Y-34457000D03*
%TO.P,K09,2*%
%TO.N,Net-(D09-Pad2)*%
X84141000Y-36997000D03*
%TD*%
%TO.P,K10,1*%
%TO.N,COL3*%
X70291000Y-53507000D03*
%TO.P,K10,2*%
%TO.N,Net-(D10-Pad2)*%
X84141000Y-56047000D03*
%TD*%
%TO.P,K11,1*%
%TO.N,COL3*%
X70291000Y-72557000D03*
%TO.P,K11,2*%
%TO.N,Net-(D11-Pad2)*%
X84141000Y-75097000D03*
%TD*%
%TO.P,K12,2*%
%TO.N,Net-(D12-Pad2)*%
X84141000Y-94147000D03*
%TO.P,K12,1*%
%TO.N,COL3*%
X70291000Y-91607000D03*
%TD*%
%TO.P,K13,1*%
%TO.N,COL4*%
X89341000Y-31957000D03*
%TO.P,K13,2*%
%TO.N,Net-(D13-Pad2)*%
X103191000Y-34497000D03*
%TD*%
%TO.P,K14,2*%
%TO.N,Net-(D14-Pad2)*%
X103191000Y-53547000D03*
%TO.P,K14,1*%
%TO.N,COL4*%
X89341000Y-51007000D03*
%TD*%
%TO.P,K15,2*%
%TO.N,Net-(D15-Pad2)*%
X103191000Y-72597000D03*
%TO.P,K15,1*%
%TO.N,COL4*%
X89341000Y-70057000D03*
%TD*%
%TO.P,K16,1*%
%TO.N,COL4*%
X89341000Y-89107000D03*
%TO.P,K16,2*%
%TO.N,Net-(D16-Pad2)*%
X103191000Y-91647000D03*
%TD*%
%TO.P,K17,2*%
%TO.N,Net-(D17-Pad2)*%
X122241000Y-36997000D03*
%TO.P,K17,1*%
%TO.N,COL5*%
X108391000Y-34457000D03*
%TD*%
%TO.P,K18,1*%
%TO.N,COL5*%
X108391000Y-53507000D03*
%TO.P,K18,2*%
%TO.N,Net-(D18-Pad2)*%
X122241000Y-56047000D03*
%TD*%
%TO.P,K19,2*%
%TO.N,Net-(D19-Pad2)*%
X122241000Y-75097000D03*
%TO.P,K19,1*%
%TO.N,COL5*%
X108391000Y-72557000D03*
%TD*%
%TA.AperFunction,SMDPad,CuDef*%
D19*
%TO.P,K20,1*%
%TO.N,COL5*%
G36*
X120486509Y-90437234D02*
G01*
X120052389Y-92899253D01*
X117541129Y-92456450D01*
X117975249Y-89994431D01*
X120486509Y-90437234D01*
G37*
%TD.AperFunction*%
%TA.AperFunction,SMDPad,CuDef*%
%TO.P,K20,2*%
%TO.N,Net-(D20-Pad2)*%
G36*
X133685030Y-95343673D02*
G01*
X133250910Y-97805692D01*
X130739650Y-97362889D01*
X131173770Y-94900870D01*
X133685030Y-95343673D01*
G37*
%TD.AperFunction*%
%TD*%
%TA.AperFunction,SMDPad,CuDef*%
%TO.P,K24,1*%
%TO.N,COL7*%
G36*
X150841017Y-79297290D02*
G01*
X149985967Y-81646521D01*
X147589751Y-80774370D01*
X148444801Y-78425139D01*
X150841017Y-79297290D01*
G37*
%TD.AperFunction*%
%TA.AperFunction,SMDPad,CuDef*%
%TO.P,K24,2*%
%TO.N,Net-(D24-Pad2)*%
G36*
X162987028Y-86421088D02*
G01*
X162131978Y-88770319D01*
X159735762Y-87898168D01*
X160590812Y-85548937D01*
X162987028Y-86421088D01*
G37*
%TD.AperFunction*%
%TD*%
%TA.AperFunction,SMDPad,CuDef*%
%TO.P,K25,2*%
%TO.N,Net-(D25-Pad2)*%
G36*
X156864476Y-103242661D02*
G01*
X156009426Y-105591892D01*
X153613210Y-104719741D01*
X154468260Y-102370510D01*
X156864476Y-103242661D01*
G37*
%TD.AperFunction*%
%TA.AperFunction,SMDPad,CuDef*%
%TO.P,K25,1*%
%TO.N,COL7*%
G36*
X144718465Y-96118863D02*
G01*
X143863415Y-98468094D01*
X141467199Y-97595943D01*
X142322249Y-95246712D01*
X144718465Y-96118863D01*
G37*
%TD.AperFunction*%
%TD*%
D20*
%TO.N,Net-(D01-Pad2)*%
X38492001Y-44819999D03*
%TO.N,COL1*%
X149927000Y-59877000D03*
%TO.N,ROW4*%
X149800000Y-57337000D03*
%TO.N,ROW3*%
X149927000Y-54797000D03*
%TO.N,ROW2*%
X149927000Y-52257000D03*
%TO.N,ROW1*%
X149927000Y-49717000D03*
X42279999Y-46874001D03*
X53709999Y-46874001D03*
X76498500Y-45129500D03*
X95632000Y-42546000D03*
X114629999Y-44374001D03*
X133719999Y-46874001D03*
%TO.N,ROW2*%
X95568500Y-61659500D03*
X76562000Y-64116000D03*
X53836999Y-65924001D03*
X42279999Y-65924001D03*
X114756999Y-63424001D03*
X133719999Y-65924001D03*
X137402999Y-69607001D03*
X150689000Y-52257000D03*
%TO.N,ROW3*%
X42279999Y-84974001D03*
X53836999Y-84974001D03*
X76498500Y-83229500D03*
X95568500Y-80709500D03*
X114629999Y-82474001D03*
X133719999Y-84974001D03*
X151665128Y-91666872D03*
X151451000Y-54797000D03*
%TO.N,ROW4*%
X42279999Y-104024001D03*
X53836999Y-104024001D03*
X76562000Y-102216000D03*
X95632000Y-99696000D03*
X123559608Y-102119392D03*
X145776560Y-107969440D03*
X152213000Y-57337000D03*
X143347011Y-90205989D03*
X140462000Y-93091000D03*
%TO.N,COL1*%
X42954500Y-35150500D03*
X44761000Y-66745000D03*
X42954500Y-54200500D03*
X42954500Y-73250500D03*
X42954500Y-92300500D03*
%TO.N,COL2*%
X62004500Y-35150500D03*
%TO.N,TRRS_SLEEVE*%
X149927000Y-42097000D03*
%TO.N,COL2*%
X63811000Y-65729000D03*
X62004500Y-54200500D03*
X62004500Y-73250500D03*
X62004500Y-92300500D03*
%TO.N,COL3*%
X81054500Y-32650500D03*
X81054500Y-51700500D03*
X81054500Y-70750500D03*
X81054500Y-89800500D03*
%TO.N,COL4*%
X100104500Y-30150500D03*
X100104500Y-49200500D03*
X100104500Y-68250500D03*
X100104500Y-87300500D03*
%TO.N,COL3*%
X82861000Y-63189000D03*
%TO.N,COL4*%
X101911000Y-64205000D03*
%TO.N,COL5*%
X119154500Y-32650500D03*
X120961000Y-66745000D03*
X119154500Y-51700500D03*
X119154500Y-70750500D03*
%TO.N,COL6*%
X138204500Y-35150500D03*
X138204500Y-54200500D03*
X138204500Y-73250500D03*
%TO.N,COL5*%
X127847627Y-90084373D03*
%TO.N,COL6*%
X140011000Y-62681000D03*
%TO.N,COL7*%
X152019000Y-78994000D03*
X146177000Y-96012000D03*
X153162000Y-45847000D03*
%TO.N,RAW*%
X164655500Y-71437500D03*
%TO.N,GND*%
X141314000Y-28739000D03*
X149927000Y-39557000D03*
X149927000Y-37017000D03*
X154118000Y-39557000D03*
X154118000Y-37017000D03*
X154121199Y-33203801D03*
%TO.N,TRRS_SLEEVE*%
X160468000Y-42097000D03*
%TO.N,TRRS_TIP*%
X159766000Y-43307000D03*
%TO.N,Net-(U1-Pad2)*%
X150054000Y-34477000D03*
%TO.N,Net-(U1-Pad6)*%
X149800000Y-44637000D03*
%TO.N,Net-(U1-Pad1)*%
X149927000Y-31937000D03*
%TO.N,Net-(U1-Pad7)*%
X149800000Y-47177000D03*
%TO.N,Net-(D02-Pad2)*%
X38492001Y-63869999D03*
%TO.N,Net-(D03-Pad2)*%
X38492001Y-82919999D03*
%TO.N,Net-(D04-Pad2)*%
X38492001Y-101969999D03*
%TO.N,Net-(D05-Pad2)*%
X57542001Y-44819999D03*
%TO.N,Net-(D06-Pad2)*%
X57542001Y-63869999D03*
%TO.N,Net-(D07-Pad2)*%
X57542001Y-82919999D03*
%TO.N,Net-(D08-Pad2)*%
X57542001Y-101969999D03*
%TO.N,Net-(D09-Pad2)*%
X76552001Y-42319999D03*
%TO.N,Net-(D10-Pad2)*%
X76552001Y-61369999D03*
%TO.N,Net-(D11-Pad2)*%
X76679001Y-80419999D03*
%TO.N,Net-(D12-Pad2)*%
X76679001Y-99469999D03*
%TO.N,Net-(D13-Pad2)*%
X95562001Y-39819999D03*
%TO.N,Net-(D14-Pad2)*%
X95562001Y-58869999D03*
%TO.N,Net-(D15-Pad2)*%
X95562001Y-77919999D03*
%TO.N,Net-(D16-Pad2)*%
X95562001Y-96969999D03*
%TO.N,Net-(D17-Pad2)*%
X114652001Y-42319999D03*
%TO.N,Net-(D18-Pad2)*%
X114652001Y-61369999D03*
%TO.N,Net-(D19-Pad2)*%
X114652001Y-80419999D03*
%TO.N,Net-(D20-Pad2)*%
X124206234Y-100456766D03*
%TO.N,Net-(D21-Pad2)*%
X133742001Y-44819999D03*
%TO.N,Net-(D22-Pad2)*%
X133742001Y-63869999D03*
%TO.N,Net-(D23-Pad2)*%
X133742001Y-82919999D03*
%TO.N,Net-(D24-Pad2)*%
X152385279Y-89930721D03*
%TO.N,Net-(D25-Pad2)*%
X146298709Y-106685291D03*
%TO.N,RESET*%
X141261000Y-30189000D03*
%TO.N,Net-(BAT1-Pad1)*%
X160528000Y-76454000D03*
%TD*%
D21*
%TO.N,Net-(D01-Pad2)*%
X37808001Y-44819999D02*
X36781000Y-45847000D01*
X42521295Y-44819999D02*
X37808001Y-44819999D01*
X46041000Y-41300294D02*
X42521295Y-44819999D01*
X46041000Y-39497000D02*
X46041000Y-41300294D01*
%TO.N,COL1*%
X149539000Y-59877000D02*
X148209000Y-58547000D01*
X149927000Y-59877000D02*
X149539000Y-59877000D01*
%TO.N,ROW4*%
X149412000Y-57337000D02*
X148082000Y-56007000D01*
X149800000Y-57337000D02*
X149412000Y-57337000D01*
%TO.N,ROW3*%
X149539000Y-54797000D02*
X148209000Y-53467000D01*
X149927000Y-54797000D02*
X149539000Y-54797000D01*
%TO.N,ROW2*%
X149539000Y-52257000D02*
X148209000Y-50927000D01*
X149927000Y-52257000D02*
X149539000Y-52257000D01*
%TO.N,ROW1*%
X149539000Y-49717000D02*
X148209000Y-48387000D01*
X149927000Y-49717000D02*
X149539000Y-49717000D01*
X75781000Y-45847000D02*
X76498500Y-45129500D01*
X59231000Y-45847000D02*
X75781000Y-45847000D01*
X94831000Y-43347000D02*
X95632000Y-42546000D01*
X78281000Y-43347000D02*
X94831000Y-43347000D01*
X40181000Y-45847000D02*
X41208001Y-46874001D01*
X58203999Y-46874001D02*
X59231000Y-45847000D01*
X41208001Y-46874001D02*
X42279999Y-46874001D01*
X42279999Y-46874001D02*
X53709999Y-46874001D01*
X53709999Y-46874001D02*
X58203999Y-46874001D01*
X76498500Y-45129500D02*
X78281000Y-43347000D01*
X95632000Y-42546000D02*
X97331000Y-40847000D01*
X115353999Y-44374001D02*
X116381000Y-43347000D01*
X100858001Y-44374001D02*
X114629999Y-44374001D01*
X97331000Y-40847000D02*
X100858001Y-44374001D01*
X134403999Y-46874001D02*
X135431000Y-45847000D01*
X119908001Y-46874001D02*
X133719999Y-46874001D01*
X116381000Y-43347000D02*
X119908001Y-46874001D01*
X114629999Y-44374001D02*
X115353999Y-44374001D01*
X133719999Y-46874001D02*
X134403999Y-46874001D01*
X148202301Y-48380301D02*
X148209000Y-48387000D01*
X135226299Y-48380301D02*
X148202301Y-48380301D01*
X133719999Y-46874001D02*
X135226299Y-48380301D01*
%TO.N,ROW2*%
X58203999Y-65924001D02*
X59231000Y-64897000D01*
X41208001Y-65924001D02*
X42279999Y-65924001D01*
X40181000Y-64897000D02*
X41208001Y-65924001D01*
X75781000Y-64897000D02*
X76562000Y-64116000D01*
X59231000Y-64897000D02*
X75781000Y-64897000D01*
X94831000Y-62397000D02*
X95568500Y-61659500D01*
X78281000Y-62397000D02*
X94831000Y-62397000D01*
X95568500Y-61659500D02*
X97331000Y-59897000D01*
X76562000Y-64116000D02*
X78281000Y-62397000D01*
X53836999Y-65924001D02*
X58203999Y-65924001D01*
X42279999Y-65924001D02*
X53836999Y-65924001D01*
X115353999Y-63424001D02*
X116381000Y-62397000D01*
X100858001Y-63424001D02*
X114756999Y-63424001D01*
X97331000Y-59897000D02*
X100858001Y-63424001D01*
X134403999Y-65924001D02*
X135431000Y-64897000D01*
X119908001Y-65924001D02*
X133719999Y-65924001D01*
X116381000Y-62397000D02*
X119908001Y-65924001D01*
X114756999Y-63424001D02*
X115353999Y-63424001D01*
X133719999Y-65924001D02*
X134403999Y-65924001D01*
X141272961Y-69607001D02*
X137402999Y-69607001D01*
X150689000Y-60190962D02*
X141272961Y-69607001D01*
X150689000Y-52257000D02*
X150689000Y-60190962D01*
%TO.N,ROW3*%
X58203999Y-84974001D02*
X59231000Y-83947000D01*
X41208001Y-84974001D02*
X42279999Y-84974001D01*
X40181000Y-83947000D02*
X41208001Y-84974001D01*
X75781000Y-83947000D02*
X76498500Y-83229500D01*
X59231000Y-83947000D02*
X75781000Y-83947000D01*
X94831000Y-81447000D02*
X95568500Y-80709500D01*
X78281000Y-81447000D02*
X94831000Y-81447000D01*
X42279999Y-84974001D02*
X53836999Y-84974001D01*
X53836999Y-84974001D02*
X58203999Y-84974001D01*
X76498500Y-83229500D02*
X78281000Y-81447000D01*
X95568500Y-80709500D02*
X97331000Y-78947000D01*
X115353999Y-82474001D02*
X116381000Y-81447000D01*
X100858001Y-82474001D02*
X114629999Y-82474001D01*
X97331000Y-78947000D02*
X100858001Y-82474001D01*
X119908001Y-84974001D02*
X133719999Y-84974001D01*
X134403999Y-84974001D02*
X135431000Y-83947000D01*
X116381000Y-81447000D02*
X119908001Y-84974001D01*
X153132126Y-91666872D02*
X153678270Y-91120728D01*
X114629999Y-82474001D02*
X115353999Y-82474001D01*
X133719999Y-84974001D02*
X134403999Y-84974001D01*
X151665128Y-91666872D02*
X153132126Y-91666872D01*
X151451000Y-54797000D02*
X151451000Y-60071028D01*
X151451000Y-60071028D02*
X142893001Y-68629027D01*
X138054602Y-83947000D02*
X135431000Y-83947000D01*
X142893001Y-79108601D02*
X138054602Y-83947000D01*
X142893001Y-68629027D02*
X142893001Y-79108601D01*
X139847185Y-91666872D02*
X151665128Y-91666872D01*
X133719999Y-85539686D02*
X139847185Y-91666872D01*
X133719999Y-84974001D02*
X133719999Y-85539686D01*
%TO.N,ROW4*%
X41208001Y-104024001D02*
X42279999Y-104024001D01*
X58203999Y-104024001D02*
X59231000Y-102997000D01*
X40181000Y-102997000D02*
X41208001Y-104024001D01*
X75781000Y-102997000D02*
X76562000Y-102216000D01*
X59231000Y-102997000D02*
X75781000Y-102997000D01*
X94831000Y-100497000D02*
X95632000Y-99696000D01*
X78281000Y-100497000D02*
X94831000Y-100497000D01*
X42279999Y-104024001D02*
X53836999Y-104024001D01*
X53836999Y-104024001D02*
X58203999Y-104024001D01*
X76562000Y-102216000D02*
X78281000Y-100497000D01*
X95632000Y-99696000D02*
X97331000Y-97997000D01*
X124808540Y-102119392D02*
X125338700Y-101589232D01*
X101453392Y-102119392D02*
X123559608Y-102119392D01*
X97331000Y-97997000D02*
X101453392Y-102119392D01*
X147528579Y-107969440D02*
X147555718Y-107942301D01*
X131718908Y-107969440D02*
X145776560Y-107969440D01*
X125338700Y-101589232D02*
X131718908Y-107969440D01*
X123559608Y-102119392D02*
X124808540Y-102119392D01*
X145776560Y-107969440D02*
X147528579Y-107969440D01*
X152213000Y-59951094D02*
X152213000Y-57337000D01*
X143347011Y-68817083D02*
X152213000Y-59951094D01*
X143347011Y-86776989D02*
X143347011Y-68817083D01*
X143347011Y-86776989D02*
X143347011Y-90205989D01*
X143347011Y-90205989D02*
X143347011Y-90205989D01*
X131963768Y-101589232D02*
X125338700Y-101589232D01*
X140462000Y-93091000D02*
X131963768Y-101589232D01*
%TO.N,COL1*%
X34018001Y-35129999D02*
X42933999Y-35129999D01*
X42933999Y-35129999D02*
X42954500Y-35150500D01*
X32191000Y-36957000D02*
X34018001Y-35129999D01*
X139492855Y-68834031D02*
X119739832Y-68834031D01*
X148209000Y-60117886D02*
X139492855Y-68834031D01*
X148209000Y-58547000D02*
X148209000Y-60117886D01*
X117650801Y-66745000D02*
X44761000Y-66745000D01*
X119739832Y-68834031D02*
X117650801Y-66745000D01*
X32191000Y-56007000D02*
X34018001Y-54179999D01*
X32191000Y-75057000D02*
X34018001Y-73229999D01*
X32191000Y-94107000D02*
X34018001Y-92279999D01*
X34018001Y-54179999D02*
X42933999Y-54179999D01*
X34018001Y-73229999D02*
X42933999Y-73229999D01*
X34018001Y-92279999D02*
X42933999Y-92279999D01*
%TO.N,COL2*%
X51241000Y-36957000D02*
X53068001Y-35129999D01*
X53068001Y-35129999D02*
X61983999Y-35129999D01*
%TO.N,TRRS_SLEEVE*%
X149539000Y-42097000D02*
X148209000Y-40767000D01*
X149927000Y-42097000D02*
X149539000Y-42097000D01*
%TO.N,COL2*%
X119927887Y-68380021D02*
X119661934Y-68114067D01*
X138165979Y-68380021D02*
X119927887Y-68380021D01*
X146669000Y-59877000D02*
X138165979Y-68380021D01*
X117276867Y-65729000D02*
X63811000Y-65729000D01*
X119661934Y-68114067D02*
X117276867Y-65729000D01*
X53068001Y-54179999D02*
X61983999Y-54179999D01*
X53068001Y-73229999D02*
X61983999Y-73229999D01*
X53068001Y-92279999D02*
X61983999Y-92279999D01*
%TO.N,COL3*%
X72118001Y-32629999D02*
X81033999Y-32629999D01*
X72118001Y-51679999D02*
X81033999Y-51679999D01*
X72118001Y-70729999D02*
X81033999Y-70729999D01*
X72118001Y-89779999D02*
X81033999Y-89779999D01*
%TO.N,COL4*%
X91168001Y-30129999D02*
X100083999Y-30129999D01*
X91168001Y-49179999D02*
X100083999Y-49179999D01*
X91168001Y-68229999D02*
X100083999Y-68229999D01*
X91168001Y-87279999D02*
X100083999Y-87279999D01*
%TO.N,COL2*%
X51241000Y-56007000D02*
X53068001Y-54179999D01*
X51241000Y-75057000D02*
X53068001Y-73229999D01*
X51241000Y-94107000D02*
X53068001Y-92279999D01*
%TO.N,COL3*%
X70291000Y-34457000D02*
X72118001Y-32629999D01*
X70291000Y-53507000D02*
X72118001Y-51679999D01*
X70291000Y-72557000D02*
X72118001Y-70729999D01*
X70291000Y-91607000D02*
X72118001Y-89779999D01*
%TO.N,COL4*%
X89341000Y-31957000D02*
X91168001Y-30129999D01*
X89341000Y-51007000D02*
X91168001Y-49179999D01*
X89341000Y-70057000D02*
X91168001Y-68229999D01*
X89341000Y-89107000D02*
X91168001Y-87279999D01*
%TO.N,COL3*%
X144255031Y-60797065D02*
X144255031Y-59750969D01*
X137126085Y-67926011D02*
X144255031Y-60797065D01*
X120115944Y-67926011D02*
X137126085Y-67926011D01*
X100492001Y-64932001D02*
X117121935Y-64932001D01*
X98749000Y-63189000D02*
X100492001Y-64932001D01*
X144255031Y-59750969D02*
X146669000Y-57337000D01*
X117121935Y-64932001D02*
X120115944Y-67926011D01*
X82861000Y-63189000D02*
X98749000Y-63189000D01*
%TO.N,COL4*%
X136938028Y-67472001D02*
X120304001Y-67472001D01*
X143801021Y-60609008D02*
X136938028Y-67472001D01*
X143801021Y-57664979D02*
X143801021Y-60609008D01*
X146669000Y-54797000D02*
X143801021Y-57664979D01*
X117037000Y-64205000D02*
X101911000Y-64205000D01*
X120304001Y-67472001D02*
X117037000Y-64205000D01*
%TO.N,COL5*%
X110218001Y-32629999D02*
X119133999Y-32629999D01*
X108391000Y-34457000D02*
X110218001Y-32629999D01*
X137022962Y-66745000D02*
X120961000Y-66745000D01*
X143347011Y-60420951D02*
X137022962Y-66745000D01*
X143347011Y-55578989D02*
X143347011Y-60420951D01*
X146669000Y-52257000D02*
X143347011Y-55578989D01*
X108391000Y-53507000D02*
X110218001Y-51679999D01*
X108391000Y-72557000D02*
X110218001Y-70729999D01*
%TO.N,COL6*%
X127441000Y-36957000D02*
X129268001Y-35129999D01*
X127441000Y-56007000D02*
X129268001Y-54179999D01*
X127441000Y-75057000D02*
X129268001Y-73229999D01*
%TO.N,COL5*%
X110218001Y-51679999D02*
X119133999Y-51679999D01*
X110218001Y-70729999D02*
X119133999Y-70729999D01*
X120376288Y-90084373D02*
X119013819Y-91446842D01*
X127847627Y-90084373D02*
X120376288Y-90084373D01*
%TO.N,COL6*%
X129268001Y-35129999D02*
X138183999Y-35129999D01*
X129268001Y-54179999D02*
X138183999Y-54179999D01*
X129268001Y-73229999D02*
X138183999Y-73229999D01*
X140270602Y-62681000D02*
X140011000Y-62681000D01*
X142893001Y-60058601D02*
X140270602Y-62681000D01*
X142893001Y-55390932D02*
X145161000Y-53122933D01*
X142893001Y-60058601D02*
X142893001Y-55390932D01*
X145161000Y-51225000D02*
X146669000Y-49717000D01*
X145161000Y-53122933D02*
X145161000Y-51225000D01*
%TO.N,COL7*%
X150257214Y-78994000D02*
X149215384Y-80035830D01*
X152019000Y-78994000D02*
X150257214Y-78994000D01*
X143938235Y-96012000D02*
X143092832Y-96857403D01*
X146177000Y-96012000D02*
X143938235Y-96012000D01*
X149215384Y-80035830D02*
X146112851Y-80035830D01*
X146112851Y-80035830D02*
X143801021Y-77724000D01*
X143801021Y-77724000D02*
X143801021Y-69005139D01*
X153162000Y-59644160D02*
X143801021Y-69005139D01*
X153162000Y-45847000D02*
X153162000Y-59644160D01*
D22*
%TO.N,RAW*%
X164670501Y-74282403D02*
X164004499Y-73616401D01*
X164004499Y-73616401D02*
X164004499Y-72088501D01*
X164670501Y-75357441D02*
X164670501Y-74282403D01*
X162989499Y-77038443D02*
X164670501Y-75357441D01*
X162989499Y-78310501D02*
X162989499Y-77038443D01*
X162596000Y-78704000D02*
X162989499Y-78310501D01*
X162080000Y-78704000D02*
X162596000Y-78704000D01*
X164715801Y-31873801D02*
X163449000Y-30607000D01*
X164715801Y-71377199D02*
X164715801Y-31873801D01*
X164004499Y-72088501D02*
X164655500Y-71437500D01*
X164655500Y-71437500D02*
X164715801Y-71377199D01*
%TO.N,GND*%
X143301000Y-28739000D02*
X143376000Y-28664000D01*
X139426000Y-28739000D02*
X141314000Y-28739000D01*
X141314000Y-28739000D02*
X143301000Y-28739000D01*
X145402199Y-33210199D02*
X146669000Y-34477000D01*
X145402199Y-30053803D02*
X145402199Y-33210199D01*
X144012396Y-28664000D02*
X145402199Y-30053803D01*
X143376000Y-28664000D02*
X144012396Y-28664000D01*
X149539000Y-39557000D02*
X148209000Y-38227000D01*
X149927000Y-39557000D02*
X149539000Y-39557000D01*
X149539000Y-37017000D02*
X148209000Y-35687000D01*
X149927000Y-37017000D02*
X149539000Y-37017000D01*
X154181000Y-68846000D02*
X154181000Y-66026000D01*
X150431001Y-72595999D02*
X154181000Y-68846000D01*
X150431001Y-75565000D02*
X150431001Y-72595999D01*
X149400000Y-72595999D02*
X150431001Y-72595999D01*
X146430999Y-75565000D02*
X149400000Y-72595999D01*
X153890490Y-65735490D02*
X154181000Y-66026000D01*
X153890490Y-63752875D02*
X153890490Y-65735490D01*
X154121199Y-63522166D02*
X153890490Y-63752875D01*
X154121199Y-33203801D02*
X154121199Y-63522166D01*
D21*
%TO.N,Net-(TRRS1-PadR1)*%
X159281000Y-64246000D02*
X159281000Y-70626000D01*
%TO.N,TRRS_SLEEVE*%
X160608010Y-62573010D02*
X162281000Y-64246000D01*
X160608010Y-42237010D02*
X160608010Y-62573010D01*
X160468000Y-42097000D02*
X160608010Y-42237010D01*
X162281000Y-64246000D02*
X162281000Y-70626000D01*
%TO.N,TRRS_TIP*%
X155508010Y-70398990D02*
X155281000Y-70626000D01*
X155508010Y-64473010D02*
X155508010Y-70398990D01*
X155281000Y-64246000D02*
X155508010Y-64473010D01*
X159766000Y-43307000D02*
X159766000Y-61468000D01*
X156988000Y-64246000D02*
X155281000Y-64246000D01*
X159766000Y-61468000D02*
X156988000Y-64246000D01*
%TO.N,Net-(U1-Pad2)*%
X149539000Y-34477000D02*
X148209000Y-33147000D01*
X150054000Y-34477000D02*
X149539000Y-34477000D01*
%TO.N,Net-(U1-Pad6)*%
X149539000Y-44637000D02*
X148209000Y-43307000D01*
X149800000Y-44637000D02*
X149539000Y-44637000D01*
%TO.N,Net-(U1-Pad1)*%
X149539000Y-31937000D02*
X148209000Y-30607000D01*
X149927000Y-31937000D02*
X149539000Y-31937000D01*
%TO.N,Net-(U1-Pad7)*%
X149539000Y-47177000D02*
X148209000Y-45847000D01*
X149800000Y-47177000D02*
X149539000Y-47177000D01*
%TO.N,Net-(D02-Pad2)*%
X37808001Y-63869999D02*
X36781000Y-64897000D01*
X42521295Y-63869999D02*
X37808001Y-63869999D01*
X46041000Y-60350294D02*
X42521295Y-63869999D01*
X46041000Y-58547000D02*
X46041000Y-60350294D01*
%TO.N,Net-(D03-Pad2)*%
X37808001Y-82919999D02*
X36781000Y-83947000D01*
X42521295Y-82919999D02*
X37808001Y-82919999D01*
X46041000Y-79400294D02*
X42521295Y-82919999D01*
X46041000Y-77597000D02*
X46041000Y-79400294D01*
%TO.N,Net-(D04-Pad2)*%
X37808001Y-101969999D02*
X36781000Y-102997000D01*
X42521295Y-101969999D02*
X37808001Y-101969999D01*
X46041000Y-98450294D02*
X42521295Y-101969999D01*
X46041000Y-96647000D02*
X46041000Y-98450294D01*
%TO.N,Net-(D05-Pad2)*%
X61571295Y-44819999D02*
X56858001Y-44819999D01*
X56858001Y-44819999D02*
X55831000Y-45847000D01*
X65091000Y-41300294D02*
X61571295Y-44819999D01*
X65091000Y-39497000D02*
X65091000Y-41300294D01*
%TO.N,Net-(D06-Pad2)*%
X61571295Y-63869999D02*
X56858001Y-63869999D01*
X65091000Y-60350294D02*
X61571295Y-63869999D01*
X56858001Y-63869999D02*
X55831000Y-64897000D01*
X65091000Y-58547000D02*
X65091000Y-60350294D01*
%TO.N,Net-(D07-Pad2)*%
X56858001Y-82919999D02*
X55831000Y-83947000D01*
X61571295Y-82919999D02*
X56858001Y-82919999D01*
X65091000Y-79400294D02*
X61571295Y-82919999D01*
X65091000Y-77597000D02*
X65091000Y-79400294D01*
%TO.N,Net-(D08-Pad2)*%
X56858001Y-101969999D02*
X55831000Y-102997000D01*
X61571295Y-101969999D02*
X56858001Y-101969999D01*
X65091000Y-98450294D02*
X61571295Y-101969999D01*
X65091000Y-96647000D02*
X65091000Y-98450294D01*
%TO.N,Net-(D09-Pad2)*%
X75908001Y-42319999D02*
X74881000Y-43347000D01*
X80621295Y-42319999D02*
X75908001Y-42319999D01*
X84141000Y-38800294D02*
X80621295Y-42319999D01*
X84141000Y-36997000D02*
X84141000Y-38800294D01*
%TO.N,Net-(D10-Pad2)*%
X75908001Y-61369999D02*
X74881000Y-62397000D01*
X80621295Y-61369999D02*
X75908001Y-61369999D01*
X84141000Y-57850294D02*
X80621295Y-61369999D01*
X84141000Y-56047000D02*
X84141000Y-57850294D01*
%TO.N,Net-(D11-Pad2)*%
X75908001Y-80419999D02*
X74881000Y-81447000D01*
X84141000Y-76900294D02*
X80621295Y-80419999D01*
X80621295Y-80419999D02*
X75908001Y-80419999D01*
X84141000Y-75097000D02*
X84141000Y-76900294D01*
%TO.N,Net-(D12-Pad2)*%
X75908001Y-99469999D02*
X74881000Y-100497000D01*
X80621295Y-99469999D02*
X75908001Y-99469999D01*
X84141000Y-95950294D02*
X80621295Y-99469999D01*
X84141000Y-94147000D02*
X84141000Y-95950294D01*
%TO.N,Net-(D13-Pad2)*%
X99671295Y-39819999D02*
X94958001Y-39819999D01*
X94958001Y-39819999D02*
X93931000Y-40847000D01*
X103191000Y-36300294D02*
X99671295Y-39819999D01*
X103191000Y-34497000D02*
X103191000Y-36300294D01*
%TO.N,Net-(D14-Pad2)*%
X94958001Y-58869999D02*
X93931000Y-59897000D01*
X100246603Y-58869999D02*
X94958001Y-58869999D01*
X103191000Y-55925602D02*
X100246603Y-58869999D01*
X103191000Y-53547000D02*
X103191000Y-55925602D01*
%TO.N,Net-(D15-Pad2)*%
X99671295Y-77919999D02*
X94958001Y-77919999D01*
X94958001Y-77919999D02*
X93931000Y-78947000D01*
X103191000Y-74400294D02*
X99671295Y-77919999D01*
X103191000Y-72597000D02*
X103191000Y-74400294D01*
%TO.N,Net-(D16-Pad2)*%
X94958001Y-96969999D02*
X93931000Y-97997000D01*
X99671295Y-96969999D02*
X94958001Y-96969999D01*
X103191000Y-93450294D02*
X99671295Y-96969999D01*
X103191000Y-91647000D02*
X103191000Y-93450294D01*
%TO.N,Net-(D17-Pad2)*%
X114008001Y-42319999D02*
X112981000Y-43347000D01*
X118721295Y-42319999D02*
X114008001Y-42319999D01*
X122241000Y-38800294D02*
X118721295Y-42319999D01*
X122241000Y-36997000D02*
X122241000Y-38800294D01*
%TO.N,Net-(D18-Pad2)*%
X114008001Y-61369999D02*
X112981000Y-62397000D01*
X118721295Y-61369999D02*
X114008001Y-61369999D01*
X122241000Y-57850294D02*
X118721295Y-61369999D01*
X122241000Y-56047000D02*
X122241000Y-57850294D01*
%TO.N,Net-(D19-Pad2)*%
X114008001Y-80419999D02*
X112981000Y-81447000D01*
X118721295Y-80419999D02*
X114008001Y-80419999D01*
X122241000Y-76900294D02*
X118721295Y-80419999D01*
X122241000Y-75097000D02*
X122241000Y-76900294D01*
%TO.N,Net-(D20-Pad2)*%
X122520514Y-100468668D02*
X121990354Y-100998828D01*
X129366236Y-100468668D02*
X122520514Y-100468668D01*
X132212340Y-97622564D02*
X129366236Y-100468668D01*
X132212340Y-96353281D02*
X132212340Y-97622564D01*
%TO.N,Net-(D21-Pad2)*%
X133058001Y-44819999D02*
X132031000Y-45847000D01*
X137771295Y-44819999D02*
X133058001Y-44819999D01*
X141291000Y-41300294D02*
X137771295Y-44819999D01*
X141291000Y-39497000D02*
X141291000Y-41300294D01*
%TO.N,Net-(D22-Pad2)*%
X133058001Y-63869999D02*
X132031000Y-64897000D01*
X137771295Y-63869999D02*
X133058001Y-63869999D01*
X141291000Y-60350294D02*
X137771295Y-63869999D01*
X141291000Y-58547000D02*
X141291000Y-60350294D01*
%TO.N,Net-(D23-Pad2)*%
X133058001Y-82919999D02*
X132031000Y-83947000D01*
X137771295Y-82919999D02*
X133058001Y-82919999D01*
X141291000Y-79400294D02*
X137771295Y-82919999D01*
X141291000Y-77597000D02*
X141291000Y-79400294D01*
%TO.N,Net-(D24-Pad2)*%
X150510455Y-89930721D02*
X150483316Y-89957860D01*
X159920523Y-89930721D02*
X152385279Y-89930721D01*
X161361395Y-88489849D02*
X159920523Y-89930721D01*
X161361395Y-87159628D02*
X161361395Y-88489849D01*
X152385279Y-89930721D02*
X150510455Y-89930721D01*
%TO.N,Net-(D25-Pad2)*%
X144387903Y-106752294D02*
X144360764Y-106779433D01*
X153797971Y-106752294D02*
X144387903Y-106752294D01*
X155238843Y-105311422D02*
X153797971Y-106752294D01*
X155238843Y-103981201D02*
X155238843Y-105311422D01*
%TO.N,RESET*%
X139426000Y-30189000D02*
X143276000Y-30189000D01*
X144884689Y-35232689D02*
X146669000Y-37017000D01*
X144884689Y-30457689D02*
X144884689Y-35232689D01*
X144616000Y-30189000D02*
X144884689Y-30457689D01*
X143276000Y-30189000D02*
X144616000Y-30189000D01*
D22*
%TO.N,Net-(BAT1-Pad1)*%
X162080000Y-75704000D02*
X161278000Y-75704000D01*
X161278000Y-75704000D02*
X160528000Y-76454000D01*
X160528000Y-76454000D02*
X160528000Y-76454000D01*
X149719999Y-76853999D02*
X148431000Y-75565000D01*
X160128001Y-76853999D02*
X149719999Y-76853999D01*
X160528000Y-76454000D02*
X160128001Y-76853999D01*
%TD*%
M02*
