%TF.GenerationSoftware,KiCad,Pcbnew,5.1.6-c6e7f7d~87~ubuntu20.04.1*%
%TF.CreationDate,2020-08-25T07:17:55-05:00*%
%TF.ProjectId,keaboard_rev1,6b656162-6f61-4726-945f-726576312e6b,rev?*%
%TF.SameCoordinates,Original*%
%TF.FileFunction,Legend,Bot*%
%TF.FilePolarity,Positive*%
%FSLAX46Y46*%
G04 Gerber Fmt 4.6, Leading zero omitted, Abs format (unit mm)*
G04 Created by KiCad (PCBNEW 5.1.6-c6e7f7d~87~ubuntu20.04.1) date 2020-08-25 07:17:55*
%MOMM*%
%LPD*%
G01*
G04 APERTURE LIST*
%ADD10C,0.200000*%
%ADD11C,0.300000*%
%ADD12C,0.500000*%
%ADD13C,0.381000*%
%ADD14C,0.127000*%
%ADD15C,0.152400*%
%ADD16C,0.150000*%
G04 APERTURE END LIST*
D10*
X113701999Y-107386380D02*
X113701999Y-106386380D01*
X113273428Y-107386380D02*
X113273428Y-106862571D01*
X113321047Y-106767333D01*
X113416285Y-106719714D01*
X113559142Y-106719714D01*
X113654380Y-106767333D01*
X113701999Y-106814952D01*
X112940095Y-106719714D02*
X112559142Y-106719714D01*
X112797238Y-106386380D02*
X112797238Y-107243523D01*
X112749619Y-107338761D01*
X112654380Y-107386380D01*
X112559142Y-107386380D01*
X112368666Y-106719714D02*
X111987714Y-106719714D01*
X112225809Y-106386380D02*
X112225809Y-107243523D01*
X112178190Y-107338761D01*
X112082952Y-107386380D01*
X111987714Y-107386380D01*
X111654380Y-106719714D02*
X111654380Y-107719714D01*
X111654380Y-106767333D02*
X111559142Y-106719714D01*
X111368666Y-106719714D01*
X111273428Y-106767333D01*
X111225809Y-106814952D01*
X111178190Y-106910190D01*
X111178190Y-107195904D01*
X111225809Y-107291142D01*
X111273428Y-107338761D01*
X111368666Y-107386380D01*
X111559142Y-107386380D01*
X111654380Y-107338761D01*
X110797238Y-107338761D02*
X110701999Y-107386380D01*
X110511523Y-107386380D01*
X110416285Y-107338761D01*
X110368666Y-107243523D01*
X110368666Y-107195904D01*
X110416285Y-107100666D01*
X110511523Y-107053047D01*
X110654380Y-107053047D01*
X110749619Y-107005428D01*
X110797238Y-106910190D01*
X110797238Y-106862571D01*
X110749619Y-106767333D01*
X110654380Y-106719714D01*
X110511523Y-106719714D01*
X110416285Y-106767333D01*
X109940095Y-107291142D02*
X109892476Y-107338761D01*
X109940095Y-107386380D01*
X109987714Y-107338761D01*
X109940095Y-107291142D01*
X109940095Y-107386380D01*
X109940095Y-106767333D02*
X109892476Y-106814952D01*
X109940095Y-106862571D01*
X109987714Y-106814952D01*
X109940095Y-106767333D01*
X109940095Y-106862571D01*
X108749619Y-106338761D02*
X109606761Y-107624476D01*
X107701999Y-106338761D02*
X108559142Y-107624476D01*
X106940095Y-106719714D02*
X106940095Y-107529238D01*
X106987714Y-107624476D01*
X107035333Y-107672095D01*
X107130571Y-107719714D01*
X107273428Y-107719714D01*
X107368666Y-107672095D01*
X106940095Y-107338761D02*
X107035333Y-107386380D01*
X107225809Y-107386380D01*
X107321047Y-107338761D01*
X107368666Y-107291142D01*
X107416285Y-107195904D01*
X107416285Y-106910190D01*
X107368666Y-106814952D01*
X107321047Y-106767333D01*
X107225809Y-106719714D01*
X107035333Y-106719714D01*
X106940095Y-106767333D01*
X106463904Y-107386380D02*
X106463904Y-106719714D01*
X106463904Y-106386380D02*
X106511523Y-106434000D01*
X106463904Y-106481619D01*
X106416285Y-106434000D01*
X106463904Y-106386380D01*
X106463904Y-106481619D01*
X106130571Y-106719714D02*
X105749619Y-106719714D01*
X105987714Y-106386380D02*
X105987714Y-107243523D01*
X105940095Y-107338761D01*
X105844857Y-107386380D01*
X105749619Y-107386380D01*
X105416285Y-107386380D02*
X105416285Y-106386380D01*
X104987714Y-107386380D02*
X104987714Y-106862571D01*
X105035333Y-106767333D01*
X105130571Y-106719714D01*
X105273428Y-106719714D01*
X105368666Y-106767333D01*
X105416285Y-106814952D01*
X104082952Y-106719714D02*
X104082952Y-107386380D01*
X104511523Y-106719714D02*
X104511523Y-107243523D01*
X104463904Y-107338761D01*
X104368666Y-107386380D01*
X104225809Y-107386380D01*
X104130571Y-107338761D01*
X104082952Y-107291142D01*
X103606761Y-107386380D02*
X103606761Y-106386380D01*
X103606761Y-106767333D02*
X103511523Y-106719714D01*
X103321047Y-106719714D01*
X103225809Y-106767333D01*
X103178190Y-106814952D01*
X103130571Y-106910190D01*
X103130571Y-107195904D01*
X103178190Y-107291142D01*
X103225809Y-107338761D01*
X103321047Y-107386380D01*
X103511523Y-107386380D01*
X103606761Y-107338761D01*
X102702000Y-107291142D02*
X102654380Y-107338761D01*
X102702000Y-107386380D01*
X102749619Y-107338761D01*
X102702000Y-107291142D01*
X102702000Y-107386380D01*
X101797238Y-107338761D02*
X101892476Y-107386380D01*
X102082952Y-107386380D01*
X102178190Y-107338761D01*
X102225809Y-107291142D01*
X102273428Y-107195904D01*
X102273428Y-106910190D01*
X102225809Y-106814952D01*
X102178190Y-106767333D01*
X102082952Y-106719714D01*
X101892476Y-106719714D01*
X101797238Y-106767333D01*
X101225809Y-107386380D02*
X101321047Y-107338761D01*
X101368666Y-107291142D01*
X101416285Y-107195904D01*
X101416285Y-106910190D01*
X101368666Y-106814952D01*
X101321047Y-106767333D01*
X101225809Y-106719714D01*
X101082952Y-106719714D01*
X100987714Y-106767333D01*
X100940095Y-106814952D01*
X100892476Y-106910190D01*
X100892476Y-107195904D01*
X100940095Y-107291142D01*
X100987714Y-107338761D01*
X101082952Y-107386380D01*
X101225809Y-107386380D01*
X100463904Y-107386380D02*
X100463904Y-106719714D01*
X100463904Y-106814952D02*
X100416285Y-106767333D01*
X100321047Y-106719714D01*
X100178190Y-106719714D01*
X100082952Y-106767333D01*
X100035333Y-106862571D01*
X100035333Y-107386380D01*
X100035333Y-106862571D02*
X99987714Y-106767333D01*
X99892476Y-106719714D01*
X99749619Y-106719714D01*
X99654380Y-106767333D01*
X99606761Y-106862571D01*
X99606761Y-107386380D01*
X98416285Y-106338761D02*
X99273428Y-107624476D01*
X98082952Y-107386380D02*
X98082952Y-106386380D01*
X97987714Y-107005428D02*
X97702000Y-107386380D01*
X97702000Y-106719714D02*
X98082952Y-107100666D01*
X96892476Y-107338761D02*
X96987714Y-107386380D01*
X97178190Y-107386380D01*
X97273428Y-107338761D01*
X97321047Y-107243523D01*
X97321047Y-106862571D01*
X97273428Y-106767333D01*
X97178190Y-106719714D01*
X96987714Y-106719714D01*
X96892476Y-106767333D01*
X96844857Y-106862571D01*
X96844857Y-106957809D01*
X97321047Y-107053047D01*
X95987714Y-107386380D02*
X95987714Y-106862571D01*
X96035333Y-106767333D01*
X96130571Y-106719714D01*
X96321047Y-106719714D01*
X96416285Y-106767333D01*
X95987714Y-107338761D02*
X96082952Y-107386380D01*
X96321047Y-107386380D01*
X96416285Y-107338761D01*
X96463904Y-107243523D01*
X96463904Y-107148285D01*
X96416285Y-107053047D01*
X96321047Y-107005428D01*
X96082952Y-107005428D01*
X95987714Y-106957809D01*
X95606761Y-106719714D02*
X95416285Y-107386380D01*
X95225809Y-106910190D01*
X95035333Y-107386380D01*
X94844857Y-106719714D01*
X94035333Y-107386380D02*
X94035333Y-106862571D01*
X94082952Y-106767333D01*
X94178190Y-106719714D01*
X94368666Y-106719714D01*
X94463904Y-106767333D01*
X94035333Y-107338761D02*
X94130571Y-107386380D01*
X94368666Y-107386380D01*
X94463904Y-107338761D01*
X94511523Y-107243523D01*
X94511523Y-107148285D01*
X94463904Y-107053047D01*
X94368666Y-107005428D01*
X94130571Y-107005428D01*
X94035333Y-106957809D01*
X93130571Y-107386380D02*
X93130571Y-106386380D01*
X93130571Y-107338761D02*
X93225809Y-107386380D01*
X93416285Y-107386380D01*
X93511523Y-107338761D01*
X93559142Y-107291142D01*
X93606761Y-107195904D01*
X93606761Y-106910190D01*
X93559142Y-106814952D01*
X93511523Y-106767333D01*
X93416285Y-106719714D01*
X93225809Y-106719714D01*
X93130571Y-106767333D01*
X92273428Y-107338761D02*
X92368666Y-107386380D01*
X92559142Y-107386380D01*
X92654380Y-107338761D01*
X92702000Y-107243523D01*
X92702000Y-106862571D01*
X92654380Y-106767333D01*
X92559142Y-106719714D01*
X92368666Y-106719714D01*
X92273428Y-106767333D01*
X92225809Y-106862571D01*
X92225809Y-106957809D01*
X92702000Y-107053047D01*
X91082952Y-106338761D02*
X91940095Y-107624476D01*
X90749619Y-107386380D02*
X90749619Y-106386380D01*
X90654380Y-107005428D02*
X90368666Y-107386380D01*
X90368666Y-106719714D02*
X90749619Y-107100666D01*
X89559142Y-107338761D02*
X89654380Y-107386380D01*
X89844857Y-107386380D01*
X89940095Y-107338761D01*
X89987714Y-107243523D01*
X89987714Y-106862571D01*
X89940095Y-106767333D01*
X89844857Y-106719714D01*
X89654380Y-106719714D01*
X89559142Y-106767333D01*
X89511523Y-106862571D01*
X89511523Y-106957809D01*
X89987714Y-107053047D01*
X88654380Y-107386380D02*
X88654380Y-106862571D01*
X88702000Y-106767333D01*
X88797238Y-106719714D01*
X88987714Y-106719714D01*
X89082952Y-106767333D01*
X88654380Y-107338761D02*
X88749619Y-107386380D01*
X88987714Y-107386380D01*
X89082952Y-107338761D01*
X89130571Y-107243523D01*
X89130571Y-107148285D01*
X89082952Y-107053047D01*
X88987714Y-107005428D01*
X88749619Y-107005428D01*
X88654380Y-106957809D01*
X88178190Y-107386380D02*
X88178190Y-106386380D01*
X88178190Y-106767333D02*
X88082952Y-106719714D01*
X87892476Y-106719714D01*
X87797238Y-106767333D01*
X87749619Y-106814952D01*
X87702000Y-106910190D01*
X87702000Y-107195904D01*
X87749619Y-107291142D01*
X87797238Y-107338761D01*
X87892476Y-107386380D01*
X88082952Y-107386380D01*
X88178190Y-107338761D01*
X87130571Y-107386380D02*
X87225809Y-107338761D01*
X87273428Y-107291142D01*
X87321047Y-107195904D01*
X87321047Y-106910190D01*
X87273428Y-106814952D01*
X87225809Y-106767333D01*
X87130571Y-106719714D01*
X86987714Y-106719714D01*
X86892476Y-106767333D01*
X86844857Y-106814952D01*
X86797238Y-106910190D01*
X86797238Y-107195904D01*
X86844857Y-107291142D01*
X86892476Y-107338761D01*
X86987714Y-107386380D01*
X87130571Y-107386380D01*
X85940095Y-107386380D02*
X85940095Y-106862571D01*
X85987714Y-106767333D01*
X86082952Y-106719714D01*
X86273428Y-106719714D01*
X86368666Y-106767333D01*
X85940095Y-107338761D02*
X86035333Y-107386380D01*
X86273428Y-107386380D01*
X86368666Y-107338761D01*
X86416285Y-107243523D01*
X86416285Y-107148285D01*
X86368666Y-107053047D01*
X86273428Y-107005428D01*
X86035333Y-107005428D01*
X85940095Y-106957809D01*
X85463904Y-107386380D02*
X85463904Y-106719714D01*
X85463904Y-106910190D02*
X85416285Y-106814952D01*
X85368666Y-106767333D01*
X85273428Y-106719714D01*
X85178190Y-106719714D01*
X84416285Y-107386380D02*
X84416285Y-106386380D01*
X84416285Y-107338761D02*
X84511523Y-107386380D01*
X84702000Y-107386380D01*
X84797238Y-107338761D01*
X84844857Y-107291142D01*
X84892476Y-107195904D01*
X84892476Y-106910190D01*
X84844857Y-106814952D01*
X84797238Y-106767333D01*
X84702000Y-106719714D01*
X84511523Y-106719714D01*
X84416285Y-106767333D01*
X166822380Y-75057190D02*
X166774761Y-74961952D01*
X166727142Y-74914333D01*
X166631904Y-74866714D01*
X166346190Y-74866714D01*
X166250952Y-74914333D01*
X166203333Y-74961952D01*
X166155714Y-75057190D01*
X166155714Y-75200047D01*
X166203333Y-75295285D01*
X166250952Y-75342904D01*
X166346190Y-75390523D01*
X166631904Y-75390523D01*
X166727142Y-75342904D01*
X166774761Y-75295285D01*
X166822380Y-75200047D01*
X166822380Y-75057190D01*
X166155714Y-75819095D02*
X166822380Y-75819095D01*
X166250952Y-75819095D02*
X166203333Y-75866714D01*
X166155714Y-75961952D01*
X166155714Y-76104809D01*
X166203333Y-76200047D01*
X166298571Y-76247666D01*
X166822380Y-76247666D01*
X166155714Y-77485761D02*
X166441428Y-78247666D01*
X166727142Y-77485761D01*
D11*
X157904571Y-35283571D02*
X156404571Y-35283571D01*
X157833142Y-35283571D02*
X157904571Y-35140714D01*
X157904571Y-34855000D01*
X157833142Y-34712142D01*
X157761714Y-34640714D01*
X157618857Y-34569285D01*
X157190285Y-34569285D01*
X157047428Y-34640714D01*
X156976000Y-34712142D01*
X156904571Y-34855000D01*
X156904571Y-35140714D01*
X156976000Y-35283571D01*
X157833142Y-36569285D02*
X157904571Y-36426428D01*
X157904571Y-36140714D01*
X157833142Y-35997857D01*
X157690285Y-35926428D01*
X157118857Y-35926428D01*
X156976000Y-35997857D01*
X156904571Y-36140714D01*
X156904571Y-36426428D01*
X156976000Y-36569285D01*
X157118857Y-36640714D01*
X157261714Y-36640714D01*
X157404571Y-35926428D01*
X157833142Y-37212142D02*
X157904571Y-37355000D01*
X157904571Y-37640714D01*
X157833142Y-37783571D01*
X157690285Y-37855000D01*
X157618857Y-37855000D01*
X157476000Y-37783571D01*
X157404571Y-37640714D01*
X157404571Y-37426428D01*
X157333142Y-37283571D01*
X157190285Y-37212142D01*
X157118857Y-37212142D01*
X156976000Y-37283571D01*
X156904571Y-37426428D01*
X156904571Y-37640714D01*
X156976000Y-37783571D01*
X157904571Y-38497857D02*
X156904571Y-38497857D01*
X156404571Y-38497857D02*
X156476000Y-38426428D01*
X156547428Y-38497857D01*
X156476000Y-38569285D01*
X156404571Y-38497857D01*
X156547428Y-38497857D01*
X156904571Y-39855000D02*
X158118857Y-39855000D01*
X158261714Y-39783571D01*
X158333142Y-39712142D01*
X158404571Y-39569285D01*
X158404571Y-39355000D01*
X158333142Y-39212142D01*
X157833142Y-39855000D02*
X157904571Y-39712142D01*
X157904571Y-39426428D01*
X157833142Y-39283571D01*
X157761714Y-39212142D01*
X157618857Y-39140714D01*
X157190285Y-39140714D01*
X157047428Y-39212142D01*
X156976000Y-39283571D01*
X156904571Y-39426428D01*
X156904571Y-39712142D01*
X156976000Y-39855000D01*
X156904571Y-40569285D02*
X157904571Y-40569285D01*
X157047428Y-40569285D02*
X156976000Y-40640714D01*
X156904571Y-40783571D01*
X156904571Y-40997857D01*
X156976000Y-41140714D01*
X157118857Y-41212142D01*
X157904571Y-41212142D01*
X157833142Y-42497857D02*
X157904571Y-42355000D01*
X157904571Y-42069285D01*
X157833142Y-41926428D01*
X157690285Y-41855000D01*
X157118857Y-41855000D01*
X156976000Y-41926428D01*
X156904571Y-42069285D01*
X156904571Y-42355000D01*
X156976000Y-42497857D01*
X157118857Y-42569285D01*
X157261714Y-42569285D01*
X157404571Y-41855000D01*
X157904571Y-43855000D02*
X156404571Y-43855000D01*
X157833142Y-43855000D02*
X157904571Y-43712142D01*
X157904571Y-43426428D01*
X157833142Y-43283571D01*
X157761714Y-43212142D01*
X157618857Y-43140714D01*
X157190285Y-43140714D01*
X157047428Y-43212142D01*
X156976000Y-43283571D01*
X156904571Y-43426428D01*
X156904571Y-43712142D01*
X156976000Y-43855000D01*
X157904571Y-45712142D02*
X156404571Y-45712142D01*
X156976000Y-45712142D02*
X156904571Y-45855000D01*
X156904571Y-46140714D01*
X156976000Y-46283571D01*
X157047428Y-46355000D01*
X157190285Y-46426428D01*
X157618857Y-46426428D01*
X157761714Y-46355000D01*
X157833142Y-46283571D01*
X157904571Y-46140714D01*
X157904571Y-45855000D01*
X157833142Y-45712142D01*
X156904571Y-46926428D02*
X157904571Y-47283571D01*
X156904571Y-47640714D02*
X157904571Y-47283571D01*
X158261714Y-47140714D01*
X158333142Y-47069285D01*
X158404571Y-46926428D01*
X157904571Y-49355000D02*
X156404571Y-49355000D01*
X157333142Y-49497857D02*
X157904571Y-49926428D01*
X156904571Y-49926428D02*
X157476000Y-49355000D01*
X157833142Y-51140714D02*
X157904571Y-50997857D01*
X157904571Y-50712142D01*
X157833142Y-50569285D01*
X157690285Y-50497857D01*
X157118857Y-50497857D01*
X156976000Y-50569285D01*
X156904571Y-50712142D01*
X156904571Y-50997857D01*
X156976000Y-51140714D01*
X157118857Y-51212142D01*
X157261714Y-51212142D01*
X157404571Y-50497857D01*
X157904571Y-52497857D02*
X157118857Y-52497857D01*
X156976000Y-52426428D01*
X156904571Y-52283571D01*
X156904571Y-51997857D01*
X156976000Y-51855000D01*
X157833142Y-52497857D02*
X157904571Y-52355000D01*
X157904571Y-51997857D01*
X157833142Y-51855000D01*
X157690285Y-51783571D01*
X157547428Y-51783571D01*
X157404571Y-51855000D01*
X157333142Y-51997857D01*
X157333142Y-52355000D01*
X157261714Y-52497857D01*
X156904571Y-53069285D02*
X157904571Y-53355000D01*
X157190285Y-53640714D01*
X157904571Y-53926428D01*
X156904571Y-54212142D01*
X157904571Y-55426428D02*
X157118857Y-55426428D01*
X156976000Y-55355000D01*
X156904571Y-55212142D01*
X156904571Y-54926428D01*
X156976000Y-54783571D01*
X157833142Y-55426428D02*
X157904571Y-55283571D01*
X157904571Y-54926428D01*
X157833142Y-54783571D01*
X157690285Y-54712142D01*
X157547428Y-54712142D01*
X157404571Y-54783571D01*
X157333142Y-54926428D01*
X157333142Y-55283571D01*
X157261714Y-55426428D01*
X157904571Y-56783571D02*
X156404571Y-56783571D01*
X157833142Y-56783571D02*
X157904571Y-56640714D01*
X157904571Y-56355000D01*
X157833142Y-56212142D01*
X157761714Y-56140714D01*
X157618857Y-56069285D01*
X157190285Y-56069285D01*
X157047428Y-56140714D01*
X156976000Y-56212142D01*
X156904571Y-56355000D01*
X156904571Y-56640714D01*
X156976000Y-56783571D01*
X157833142Y-58069285D02*
X157904571Y-57926428D01*
X157904571Y-57640714D01*
X157833142Y-57497857D01*
X157690285Y-57426428D01*
X157118857Y-57426428D01*
X156976000Y-57497857D01*
X156904571Y-57640714D01*
X156904571Y-57926428D01*
X156976000Y-58069285D01*
X157118857Y-58140714D01*
X157261714Y-58140714D01*
X157404571Y-57426428D01*
X155364571Y-53844285D02*
X154364571Y-53844285D01*
X154650285Y-53844285D02*
X154507428Y-53915714D01*
X154436000Y-53987142D01*
X154364571Y-54130000D01*
X154364571Y-54272857D01*
X155293142Y-55344285D02*
X155364571Y-55201428D01*
X155364571Y-54915714D01*
X155293142Y-54772857D01*
X155150285Y-54701428D01*
X154578857Y-54701428D01*
X154436000Y-54772857D01*
X154364571Y-54915714D01*
X154364571Y-55201428D01*
X154436000Y-55344285D01*
X154578857Y-55415714D01*
X154721714Y-55415714D01*
X154864571Y-54701428D01*
X154364571Y-55915714D02*
X155364571Y-56272857D01*
X154364571Y-56630000D01*
X155364571Y-57987142D02*
X155364571Y-57130000D01*
X155364571Y-57558571D02*
X153864571Y-57558571D01*
X154078857Y-57415714D01*
X154221714Y-57272857D01*
X154293142Y-57130000D01*
D12*
X155281142Y-33172000D02*
X152281142Y-33172000D01*
X154138285Y-33457714D02*
X155281142Y-34314857D01*
X153281142Y-34314857D02*
X154424000Y-33172000D01*
X155138285Y-36743428D02*
X155281142Y-36457714D01*
X155281142Y-35886285D01*
X155138285Y-35600571D01*
X154852571Y-35457714D01*
X153709714Y-35457714D01*
X153424000Y-35600571D01*
X153281142Y-35886285D01*
X153281142Y-36457714D01*
X153424000Y-36743428D01*
X153709714Y-36886285D01*
X153995428Y-36886285D01*
X154281142Y-35457714D01*
X155281142Y-39457714D02*
X153709714Y-39457714D01*
X153424000Y-39314857D01*
X153281142Y-39029142D01*
X153281142Y-38457714D01*
X153424000Y-38172000D01*
X155138285Y-39457714D02*
X155281142Y-39172000D01*
X155281142Y-38457714D01*
X155138285Y-38172000D01*
X154852571Y-38029142D01*
X154566857Y-38029142D01*
X154281142Y-38172000D01*
X154138285Y-38457714D01*
X154138285Y-39172000D01*
X153995428Y-39457714D01*
X155281142Y-40886285D02*
X152281142Y-40886285D01*
X153424000Y-40886285D02*
X153281142Y-41172000D01*
X153281142Y-41743428D01*
X153424000Y-42029142D01*
X153566857Y-42172000D01*
X153852571Y-42314857D01*
X154709714Y-42314857D01*
X154995428Y-42172000D01*
X155138285Y-42029142D01*
X155281142Y-41743428D01*
X155281142Y-41172000D01*
X155138285Y-40886285D01*
X155281142Y-44029142D02*
X155138285Y-43743428D01*
X154995428Y-43600571D01*
X154709714Y-43457714D01*
X153852571Y-43457714D01*
X153566857Y-43600571D01*
X153424000Y-43743428D01*
X153281142Y-44029142D01*
X153281142Y-44457714D01*
X153424000Y-44743428D01*
X153566857Y-44886285D01*
X153852571Y-45029142D01*
X154709714Y-45029142D01*
X154995428Y-44886285D01*
X155138285Y-44743428D01*
X155281142Y-44457714D01*
X155281142Y-44029142D01*
X155281142Y-47600571D02*
X153709714Y-47600571D01*
X153424000Y-47457714D01*
X153281142Y-47172000D01*
X153281142Y-46600571D01*
X153424000Y-46314857D01*
X155138285Y-47600571D02*
X155281142Y-47314857D01*
X155281142Y-46600571D01*
X155138285Y-46314857D01*
X154852571Y-46172000D01*
X154566857Y-46172000D01*
X154281142Y-46314857D01*
X154138285Y-46600571D01*
X154138285Y-47314857D01*
X153995428Y-47600571D01*
X155281142Y-49029142D02*
X153281142Y-49029142D01*
X153852571Y-49029142D02*
X153566857Y-49172000D01*
X153424000Y-49314857D01*
X153281142Y-49600571D01*
X153281142Y-49886285D01*
X155281142Y-52172000D02*
X152281142Y-52172000D01*
X155138285Y-52172000D02*
X155281142Y-51886285D01*
X155281142Y-51314857D01*
X155138285Y-51029142D01*
X154995428Y-50886285D01*
X154709714Y-50743428D01*
X153852571Y-50743428D01*
X153566857Y-50886285D01*
X153424000Y-51029142D01*
X153281142Y-51314857D01*
X153281142Y-51886285D01*
X153424000Y-52172000D01*
D13*
%TO.C,U1*%
X163754000Y-30667000D02*
X163754000Y-61147000D01*
X145964000Y-30717000D02*
X148504000Y-30717000D01*
X161214000Y-61147000D02*
X163754000Y-61147000D01*
X161214000Y-30667000D02*
X163754000Y-30667000D01*
X161214000Y-30667000D02*
X161214000Y-61147000D01*
X148504000Y-30717000D02*
X148504000Y-61197000D01*
X145964000Y-61197000D02*
X145964000Y-30717000D01*
X148504000Y-61197000D02*
X145964000Y-61197000D01*
D14*
%TO.C,SW_PWR1*%
X165054000Y-80058000D02*
X165654000Y-80058000D01*
X165654000Y-73358000D02*
X165054000Y-73358000D01*
X164054000Y-75108000D02*
X164054000Y-76808000D01*
D15*
%TO.C,BAT1*%
X144303500Y-69240400D02*
X144303500Y-76708000D01*
X144303500Y-76708000D02*
X152558500Y-76708000D01*
X152558500Y-76708000D02*
X152558500Y-69240400D01*
X152558500Y-69240400D02*
X144303500Y-69240400D01*
D16*
%TO.C,K23*%
X126731000Y-73137000D02*
X126731000Y-74137000D01*
X127731000Y-87137000D02*
X126731000Y-87137000D01*
X126731000Y-73137000D02*
X127731000Y-73137000D01*
X126731000Y-86137000D02*
X126731000Y-87137000D01*
X140731000Y-87137000D02*
X140731000Y-86137000D01*
X139731000Y-73137000D02*
X140731000Y-73137000D01*
X140731000Y-87137000D02*
X139731000Y-87137000D01*
X140731000Y-74137000D02*
X140731000Y-73137000D01*
X138801000Y-73152000D02*
X138801000Y-73533000D01*
X127752000Y-79502000D02*
X127371000Y-79502000D01*
X129911000Y-73152000D02*
X138801000Y-73152000D01*
X138801000Y-76581000D02*
X138801000Y-77597000D01*
X127371000Y-79121000D02*
X127371000Y-79502000D01*
X131256838Y-79502000D02*
X129530000Y-79502000D01*
X127371000Y-75692000D02*
X127371000Y-76073000D01*
X138801000Y-77597000D02*
X133721000Y-77597000D01*
X127371000Y-75692000D02*
G75*
G02*
X129911000Y-73152000I2540000J0D01*
G01*
X131256838Y-79520960D02*
G75*
G02*
X133721000Y-77597000I2464162J-616040D01*
G01*
D14*
%TO.C,SW_RST1*%
X142201000Y-27005000D02*
X143101000Y-27005000D01*
X143101000Y-30145000D02*
X139601000Y-30145000D01*
X140501000Y-27005000D02*
X139601000Y-27005000D01*
D10*
X138051000Y-29210000D02*
G75*
G03*
X138051000Y-29210000I-100000J0D01*
G01*
D16*
%TO.C,K22*%
X138801000Y-58547000D02*
X133721000Y-58547000D01*
X127371000Y-56642000D02*
X127371000Y-57023000D01*
X131256838Y-60452000D02*
X129530000Y-60452000D01*
X127371000Y-60071000D02*
X127371000Y-60452000D01*
X138801000Y-57531000D02*
X138801000Y-58547000D01*
X129911000Y-54102000D02*
X138801000Y-54102000D01*
X127752000Y-60452000D02*
X127371000Y-60452000D01*
X138801000Y-54102000D02*
X138801000Y-54483000D01*
X140731000Y-55087000D02*
X140731000Y-54087000D01*
X140731000Y-68087000D02*
X139731000Y-68087000D01*
X139731000Y-54087000D02*
X140731000Y-54087000D01*
X140731000Y-68087000D02*
X140731000Y-67087000D01*
X126731000Y-67087000D02*
X126731000Y-68087000D01*
X126731000Y-54087000D02*
X127731000Y-54087000D01*
X127731000Y-68087000D02*
X126731000Y-68087000D01*
X126731000Y-54087000D02*
X126731000Y-55087000D01*
X131256838Y-60470960D02*
G75*
G02*
X133721000Y-58547000I2464162J-616040D01*
G01*
X127371000Y-56642000D02*
G75*
G02*
X129911000Y-54102000I2540000J0D01*
G01*
%TO.C,K21*%
X126731000Y-35037000D02*
X126731000Y-36037000D01*
X127731000Y-49037000D02*
X126731000Y-49037000D01*
X126731000Y-35037000D02*
X127731000Y-35037000D01*
X126731000Y-48037000D02*
X126731000Y-49037000D01*
X140731000Y-49037000D02*
X140731000Y-48037000D01*
X139731000Y-35037000D02*
X140731000Y-35037000D01*
X140731000Y-49037000D02*
X139731000Y-49037000D01*
X140731000Y-36037000D02*
X140731000Y-35037000D01*
X138801000Y-35052000D02*
X138801000Y-35433000D01*
X127752000Y-41402000D02*
X127371000Y-41402000D01*
X129911000Y-35052000D02*
X138801000Y-35052000D01*
X138801000Y-38481000D02*
X138801000Y-39497000D01*
X127371000Y-41021000D02*
X127371000Y-41402000D01*
X131256838Y-41402000D02*
X129530000Y-41402000D01*
X127371000Y-37592000D02*
X127371000Y-37973000D01*
X138801000Y-39497000D02*
X133721000Y-39497000D01*
X127371000Y-37592000D02*
G75*
G02*
X129911000Y-35052000I2540000J0D01*
G01*
X131256838Y-41420960D02*
G75*
G02*
X133721000Y-39497000I2464162J-616040D01*
G01*
%TO.C,K01*%
X43551000Y-39497000D02*
X38471000Y-39497000D01*
X32121000Y-37592000D02*
X32121000Y-37973000D01*
X36006838Y-41402000D02*
X34280000Y-41402000D01*
X32121000Y-41021000D02*
X32121000Y-41402000D01*
X43551000Y-38481000D02*
X43551000Y-39497000D01*
X34661000Y-35052000D02*
X43551000Y-35052000D01*
X32502000Y-41402000D02*
X32121000Y-41402000D01*
X43551000Y-35052000D02*
X43551000Y-35433000D01*
X45481000Y-36037000D02*
X45481000Y-35037000D01*
X45481000Y-49037000D02*
X44481000Y-49037000D01*
X44481000Y-35037000D02*
X45481000Y-35037000D01*
X45481000Y-49037000D02*
X45481000Y-48037000D01*
X31481000Y-48037000D02*
X31481000Y-49037000D01*
X31481000Y-35037000D02*
X32481000Y-35037000D01*
X32481000Y-49037000D02*
X31481000Y-49037000D01*
X31481000Y-35037000D02*
X31481000Y-36037000D01*
X36006838Y-41420960D02*
G75*
G02*
X38471000Y-39497000I2464162J-616040D01*
G01*
X32121000Y-37592000D02*
G75*
G02*
X34661000Y-35052000I2540000J0D01*
G01*
%TO.C,TRRS1*%
X167005000Y-63496000D02*
X167005000Y-69596000D01*
X154905000Y-63496000D02*
X154905000Y-69596000D01*
X167005000Y-63496000D02*
X154905000Y-63496000D01*
X167005000Y-69596000D02*
X154905000Y-69596000D01*
X169005000Y-63746000D02*
X169005000Y-69346000D01*
X167005000Y-69346000D02*
X169005000Y-69346000D01*
X167005000Y-63746000D02*
X169005000Y-63746000D01*
D10*
%TO.C,D01*%
X35281000Y-44647000D02*
X35281000Y-47047000D01*
X41281000Y-44647000D02*
X35281000Y-44647000D01*
X41281000Y-47047000D02*
X41281000Y-44647000D01*
X35281000Y-47047000D02*
X41281000Y-47047000D01*
X35556000Y-47047000D02*
X35556000Y-44647000D01*
X35681000Y-47047000D02*
X35681000Y-44647000D01*
X35406000Y-44647000D02*
X35406000Y-47047000D01*
%TO.C,D02*%
X35281000Y-63697000D02*
X35281000Y-66097000D01*
X41281000Y-63697000D02*
X35281000Y-63697000D01*
X41281000Y-66097000D02*
X41281000Y-63697000D01*
X35281000Y-66097000D02*
X41281000Y-66097000D01*
X35556000Y-66097000D02*
X35556000Y-63697000D01*
X35681000Y-66097000D02*
X35681000Y-63697000D01*
X35406000Y-63697000D02*
X35406000Y-66097000D01*
%TO.C,D03*%
X35281000Y-82747000D02*
X35281000Y-85147000D01*
X41281000Y-82747000D02*
X35281000Y-82747000D01*
X41281000Y-85147000D02*
X41281000Y-82747000D01*
X35281000Y-85147000D02*
X41281000Y-85147000D01*
X35556000Y-85147000D02*
X35556000Y-82747000D01*
X35681000Y-85147000D02*
X35681000Y-82747000D01*
X35406000Y-82747000D02*
X35406000Y-85147000D01*
%TO.C,D04*%
X35281000Y-101797000D02*
X35281000Y-104197000D01*
X41281000Y-101797000D02*
X35281000Y-101797000D01*
X41281000Y-104197000D02*
X41281000Y-101797000D01*
X35281000Y-104197000D02*
X41281000Y-104197000D01*
X35556000Y-104197000D02*
X35556000Y-101797000D01*
X35681000Y-104197000D02*
X35681000Y-101797000D01*
X35406000Y-101797000D02*
X35406000Y-104197000D01*
%TO.C,D05*%
X54331000Y-44647000D02*
X54331000Y-47047000D01*
X60331000Y-44647000D02*
X54331000Y-44647000D01*
X60331000Y-47047000D02*
X60331000Y-44647000D01*
X54331000Y-47047000D02*
X60331000Y-47047000D01*
X54606000Y-47047000D02*
X54606000Y-44647000D01*
X54731000Y-47047000D02*
X54731000Y-44647000D01*
X54456000Y-44647000D02*
X54456000Y-47047000D01*
%TO.C,D06*%
X54456000Y-63697000D02*
X54456000Y-66097000D01*
X54731000Y-66097000D02*
X54731000Y-63697000D01*
X54606000Y-66097000D02*
X54606000Y-63697000D01*
X54331000Y-66097000D02*
X60331000Y-66097000D01*
X60331000Y-66097000D02*
X60331000Y-63697000D01*
X60331000Y-63697000D02*
X54331000Y-63697000D01*
X54331000Y-63697000D02*
X54331000Y-66097000D01*
%TO.C,D07*%
X54331000Y-82747000D02*
X54331000Y-85147000D01*
X60331000Y-82747000D02*
X54331000Y-82747000D01*
X60331000Y-85147000D02*
X60331000Y-82747000D01*
X54331000Y-85147000D02*
X60331000Y-85147000D01*
X54606000Y-85147000D02*
X54606000Y-82747000D01*
X54731000Y-85147000D02*
X54731000Y-82747000D01*
X54456000Y-82747000D02*
X54456000Y-85147000D01*
%TO.C,D08*%
X54331000Y-101797000D02*
X54331000Y-104197000D01*
X60331000Y-101797000D02*
X54331000Y-101797000D01*
X60331000Y-104197000D02*
X60331000Y-101797000D01*
X54331000Y-104197000D02*
X60331000Y-104197000D01*
X54606000Y-104197000D02*
X54606000Y-101797000D01*
X54731000Y-104197000D02*
X54731000Y-101797000D01*
X54456000Y-101797000D02*
X54456000Y-104197000D01*
%TO.C,D09*%
X73506000Y-42147000D02*
X73506000Y-44547000D01*
X73781000Y-44547000D02*
X73781000Y-42147000D01*
X73656000Y-44547000D02*
X73656000Y-42147000D01*
X73381000Y-44547000D02*
X79381000Y-44547000D01*
X79381000Y-44547000D02*
X79381000Y-42147000D01*
X79381000Y-42147000D02*
X73381000Y-42147000D01*
X73381000Y-42147000D02*
X73381000Y-44547000D01*
%TO.C,D10*%
X73381000Y-61197000D02*
X73381000Y-63597000D01*
X79381000Y-61197000D02*
X73381000Y-61197000D01*
X79381000Y-63597000D02*
X79381000Y-61197000D01*
X73381000Y-63597000D02*
X79381000Y-63597000D01*
X73656000Y-63597000D02*
X73656000Y-61197000D01*
X73781000Y-63597000D02*
X73781000Y-61197000D01*
X73506000Y-61197000D02*
X73506000Y-63597000D01*
%TO.C,D11*%
X73506000Y-80247000D02*
X73506000Y-82647000D01*
X73781000Y-82647000D02*
X73781000Y-80247000D01*
X73656000Y-82647000D02*
X73656000Y-80247000D01*
X73381000Y-82647000D02*
X79381000Y-82647000D01*
X79381000Y-82647000D02*
X79381000Y-80247000D01*
X79381000Y-80247000D02*
X73381000Y-80247000D01*
X73381000Y-80247000D02*
X73381000Y-82647000D01*
%TO.C,D12*%
X73506000Y-99297000D02*
X73506000Y-101697000D01*
X73781000Y-101697000D02*
X73781000Y-99297000D01*
X73656000Y-101697000D02*
X73656000Y-99297000D01*
X73381000Y-101697000D02*
X79381000Y-101697000D01*
X79381000Y-101697000D02*
X79381000Y-99297000D01*
X79381000Y-99297000D02*
X73381000Y-99297000D01*
X73381000Y-99297000D02*
X73381000Y-101697000D01*
%TO.C,D13*%
X92431000Y-39647000D02*
X92431000Y-42047000D01*
X98431000Y-39647000D02*
X92431000Y-39647000D01*
X98431000Y-42047000D02*
X98431000Y-39647000D01*
X92431000Y-42047000D02*
X98431000Y-42047000D01*
X92706000Y-42047000D02*
X92706000Y-39647000D01*
X92831000Y-42047000D02*
X92831000Y-39647000D01*
X92556000Y-39647000D02*
X92556000Y-42047000D01*
%TO.C,D14*%
X92556000Y-58697000D02*
X92556000Y-61097000D01*
X92831000Y-61097000D02*
X92831000Y-58697000D01*
X92706000Y-61097000D02*
X92706000Y-58697000D01*
X92431000Y-61097000D02*
X98431000Y-61097000D01*
X98431000Y-61097000D02*
X98431000Y-58697000D01*
X98431000Y-58697000D02*
X92431000Y-58697000D01*
X92431000Y-58697000D02*
X92431000Y-61097000D01*
%TO.C,D15*%
X92556000Y-77747000D02*
X92556000Y-80147000D01*
X92831000Y-80147000D02*
X92831000Y-77747000D01*
X92706000Y-80147000D02*
X92706000Y-77747000D01*
X92431000Y-80147000D02*
X98431000Y-80147000D01*
X98431000Y-80147000D02*
X98431000Y-77747000D01*
X98431000Y-77747000D02*
X92431000Y-77747000D01*
X92431000Y-77747000D02*
X92431000Y-80147000D01*
%TO.C,D16*%
X92431000Y-96797000D02*
X92431000Y-99197000D01*
X98431000Y-96797000D02*
X92431000Y-96797000D01*
X98431000Y-99197000D02*
X98431000Y-96797000D01*
X92431000Y-99197000D02*
X98431000Y-99197000D01*
X92706000Y-99197000D02*
X92706000Y-96797000D01*
X92831000Y-99197000D02*
X92831000Y-96797000D01*
X92556000Y-96797000D02*
X92556000Y-99197000D01*
%TO.C,D17*%
X111481000Y-42147000D02*
X111481000Y-44547000D01*
X117481000Y-42147000D02*
X111481000Y-42147000D01*
X117481000Y-44547000D02*
X117481000Y-42147000D01*
X111481000Y-44547000D02*
X117481000Y-44547000D01*
X111756000Y-44547000D02*
X111756000Y-42147000D01*
X111881000Y-44547000D02*
X111881000Y-42147000D01*
X111606000Y-42147000D02*
X111606000Y-44547000D01*
%TO.C,D18*%
X111481000Y-61197000D02*
X111481000Y-63597000D01*
X117481000Y-61197000D02*
X111481000Y-61197000D01*
X117481000Y-63597000D02*
X117481000Y-61197000D01*
X111481000Y-63597000D02*
X117481000Y-63597000D01*
X111756000Y-63597000D02*
X111756000Y-61197000D01*
X111881000Y-63597000D02*
X111881000Y-61197000D01*
X111606000Y-61197000D02*
X111606000Y-63597000D01*
%TO.C,D19*%
X111606000Y-80247000D02*
X111606000Y-82647000D01*
X111881000Y-82647000D02*
X111881000Y-80247000D01*
X111756000Y-82647000D02*
X111756000Y-80247000D01*
X111481000Y-82647000D02*
X117481000Y-82647000D01*
X117481000Y-82647000D02*
X117481000Y-80247000D01*
X117481000Y-80247000D02*
X111481000Y-80247000D01*
X111481000Y-80247000D02*
X111481000Y-82647000D01*
%TO.C,D20*%
X120844621Y-99578293D02*
X120427865Y-101941831D01*
X120698687Y-101989584D02*
X121115443Y-99626046D01*
X120575587Y-101967878D02*
X120992342Y-99604340D01*
X120304764Y-101920125D02*
X126213611Y-102962014D01*
X126213611Y-102962014D02*
X126630367Y-100598476D01*
X126630367Y-100598476D02*
X120721520Y-99556587D01*
X120721520Y-99556587D02*
X120304764Y-101920125D01*
%TO.C,D21*%
X130656000Y-44647000D02*
X130656000Y-47047000D01*
X130931000Y-47047000D02*
X130931000Y-44647000D01*
X130806000Y-47047000D02*
X130806000Y-44647000D01*
X130531000Y-47047000D02*
X136531000Y-47047000D01*
X136531000Y-47047000D02*
X136531000Y-44647000D01*
X136531000Y-44647000D02*
X130531000Y-44647000D01*
X130531000Y-44647000D02*
X130531000Y-47047000D01*
%TO.C,D22*%
X130656000Y-63697000D02*
X130656000Y-66097000D01*
X130931000Y-66097000D02*
X130931000Y-63697000D01*
X130806000Y-66097000D02*
X130806000Y-63697000D01*
X130531000Y-66097000D02*
X136531000Y-66097000D01*
X136531000Y-66097000D02*
X136531000Y-63697000D01*
X136531000Y-63697000D02*
X130531000Y-63697000D01*
X130531000Y-63697000D02*
X130531000Y-66097000D01*
%TO.C,D23*%
X130656000Y-82747000D02*
X130656000Y-85147000D01*
X130931000Y-85147000D02*
X130931000Y-82747000D01*
X130806000Y-85147000D02*
X130806000Y-82747000D01*
X130531000Y-85147000D02*
X136531000Y-85147000D01*
X136531000Y-85147000D02*
X136531000Y-82747000D01*
X136531000Y-82747000D02*
X130531000Y-82747000D01*
X130531000Y-82747000D02*
X130531000Y-85147000D01*
%TO.C,D24*%
X149601662Y-88359951D02*
X148780814Y-90615213D01*
X149039229Y-90709269D02*
X149860078Y-88454006D01*
X148921768Y-90666516D02*
X149742616Y-88411254D01*
X148663352Y-90572461D02*
X154301508Y-92624582D01*
X154301508Y-92624582D02*
X155122357Y-90369319D01*
X155122357Y-90369319D02*
X149484201Y-88317198D01*
X149484201Y-88317198D02*
X148663352Y-90572461D01*
%TO.C,D25*%
X143361649Y-105138771D02*
X142540800Y-107394034D01*
X148999805Y-107190892D02*
X143361649Y-105138771D01*
X148178956Y-109446155D02*
X148999805Y-107190892D01*
X142540800Y-107394034D02*
X148178956Y-109446155D01*
X142799216Y-107488089D02*
X143620064Y-105232827D01*
X142916677Y-107530842D02*
X143737526Y-105275579D01*
X143479110Y-105181524D02*
X142658262Y-107436786D01*
D16*
%TO.C,K02*%
X31481000Y-54087000D02*
X31481000Y-55087000D01*
X32481000Y-68087000D02*
X31481000Y-68087000D01*
X31481000Y-54087000D02*
X32481000Y-54087000D01*
X31481000Y-67087000D02*
X31481000Y-68087000D01*
X45481000Y-68087000D02*
X45481000Y-67087000D01*
X44481000Y-54087000D02*
X45481000Y-54087000D01*
X45481000Y-68087000D02*
X44481000Y-68087000D01*
X45481000Y-55087000D02*
X45481000Y-54087000D01*
X43551000Y-54102000D02*
X43551000Y-54483000D01*
X32502000Y-60452000D02*
X32121000Y-60452000D01*
X34661000Y-54102000D02*
X43551000Y-54102000D01*
X43551000Y-57531000D02*
X43551000Y-58547000D01*
X32121000Y-60071000D02*
X32121000Y-60452000D01*
X36006838Y-60452000D02*
X34280000Y-60452000D01*
X32121000Y-56642000D02*
X32121000Y-57023000D01*
X43551000Y-58547000D02*
X38471000Y-58547000D01*
X32121000Y-56642000D02*
G75*
G02*
X34661000Y-54102000I2540000J0D01*
G01*
X36006838Y-60470960D02*
G75*
G02*
X38471000Y-58547000I2464162J-616040D01*
G01*
%TO.C,K03*%
X31481000Y-73137000D02*
X31481000Y-74137000D01*
X32481000Y-87137000D02*
X31481000Y-87137000D01*
X31481000Y-73137000D02*
X32481000Y-73137000D01*
X31481000Y-86137000D02*
X31481000Y-87137000D01*
X45481000Y-87137000D02*
X45481000Y-86137000D01*
X44481000Y-73137000D02*
X45481000Y-73137000D01*
X45481000Y-87137000D02*
X44481000Y-87137000D01*
X45481000Y-74137000D02*
X45481000Y-73137000D01*
X43551000Y-73152000D02*
X43551000Y-73533000D01*
X32502000Y-79502000D02*
X32121000Y-79502000D01*
X34661000Y-73152000D02*
X43551000Y-73152000D01*
X43551000Y-76581000D02*
X43551000Y-77597000D01*
X32121000Y-79121000D02*
X32121000Y-79502000D01*
X36006838Y-79502000D02*
X34280000Y-79502000D01*
X32121000Y-75692000D02*
X32121000Y-76073000D01*
X43551000Y-77597000D02*
X38471000Y-77597000D01*
X32121000Y-75692000D02*
G75*
G02*
X34661000Y-73152000I2540000J0D01*
G01*
X36006838Y-79520960D02*
G75*
G02*
X38471000Y-77597000I2464162J-616040D01*
G01*
%TO.C,K04*%
X31481000Y-92187000D02*
X31481000Y-93187000D01*
X32481000Y-106187000D02*
X31481000Y-106187000D01*
X31481000Y-92187000D02*
X32481000Y-92187000D01*
X31481000Y-105187000D02*
X31481000Y-106187000D01*
X45481000Y-106187000D02*
X45481000Y-105187000D01*
X44481000Y-92187000D02*
X45481000Y-92187000D01*
X45481000Y-106187000D02*
X44481000Y-106187000D01*
X45481000Y-93187000D02*
X45481000Y-92187000D01*
X43551000Y-92202000D02*
X43551000Y-92583000D01*
X32502000Y-98552000D02*
X32121000Y-98552000D01*
X34661000Y-92202000D02*
X43551000Y-92202000D01*
X43551000Y-95631000D02*
X43551000Y-96647000D01*
X32121000Y-98171000D02*
X32121000Y-98552000D01*
X36006838Y-98552000D02*
X34280000Y-98552000D01*
X32121000Y-94742000D02*
X32121000Y-95123000D01*
X43551000Y-96647000D02*
X38471000Y-96647000D01*
X32121000Y-94742000D02*
G75*
G02*
X34661000Y-92202000I2540000J0D01*
G01*
X36006838Y-98570960D02*
G75*
G02*
X38471000Y-96647000I2464162J-616040D01*
G01*
%TO.C,K05*%
X50531000Y-35037000D02*
X50531000Y-36037000D01*
X51531000Y-49037000D02*
X50531000Y-49037000D01*
X50531000Y-35037000D02*
X51531000Y-35037000D01*
X50531000Y-48037000D02*
X50531000Y-49037000D01*
X64531000Y-49037000D02*
X64531000Y-48037000D01*
X63531000Y-35037000D02*
X64531000Y-35037000D01*
X64531000Y-49037000D02*
X63531000Y-49037000D01*
X64531000Y-36037000D02*
X64531000Y-35037000D01*
X62601000Y-35052000D02*
X62601000Y-35433000D01*
X51552000Y-41402000D02*
X51171000Y-41402000D01*
X53711000Y-35052000D02*
X62601000Y-35052000D01*
X62601000Y-38481000D02*
X62601000Y-39497000D01*
X51171000Y-41021000D02*
X51171000Y-41402000D01*
X55056838Y-41402000D02*
X53330000Y-41402000D01*
X51171000Y-37592000D02*
X51171000Y-37973000D01*
X62601000Y-39497000D02*
X57521000Y-39497000D01*
X51171000Y-37592000D02*
G75*
G02*
X53711000Y-35052000I2540000J0D01*
G01*
X55056838Y-41420960D02*
G75*
G02*
X57521000Y-39497000I2464162J-616040D01*
G01*
%TO.C,K06*%
X62601000Y-58547000D02*
X57521000Y-58547000D01*
X51171000Y-56642000D02*
X51171000Y-57023000D01*
X55056838Y-60452000D02*
X53330000Y-60452000D01*
X51171000Y-60071000D02*
X51171000Y-60452000D01*
X62601000Y-57531000D02*
X62601000Y-58547000D01*
X53711000Y-54102000D02*
X62601000Y-54102000D01*
X51552000Y-60452000D02*
X51171000Y-60452000D01*
X62601000Y-54102000D02*
X62601000Y-54483000D01*
X64531000Y-55087000D02*
X64531000Y-54087000D01*
X64531000Y-68087000D02*
X63531000Y-68087000D01*
X63531000Y-54087000D02*
X64531000Y-54087000D01*
X64531000Y-68087000D02*
X64531000Y-67087000D01*
X50531000Y-67087000D02*
X50531000Y-68087000D01*
X50531000Y-54087000D02*
X51531000Y-54087000D01*
X51531000Y-68087000D02*
X50531000Y-68087000D01*
X50531000Y-54087000D02*
X50531000Y-55087000D01*
X55056838Y-60470960D02*
G75*
G02*
X57521000Y-58547000I2464162J-616040D01*
G01*
X51171000Y-56642000D02*
G75*
G02*
X53711000Y-54102000I2540000J0D01*
G01*
%TO.C,K07*%
X62601000Y-77597000D02*
X57521000Y-77597000D01*
X51171000Y-75692000D02*
X51171000Y-76073000D01*
X55056838Y-79502000D02*
X53330000Y-79502000D01*
X51171000Y-79121000D02*
X51171000Y-79502000D01*
X62601000Y-76581000D02*
X62601000Y-77597000D01*
X53711000Y-73152000D02*
X62601000Y-73152000D01*
X51552000Y-79502000D02*
X51171000Y-79502000D01*
X62601000Y-73152000D02*
X62601000Y-73533000D01*
X64531000Y-74137000D02*
X64531000Y-73137000D01*
X64531000Y-87137000D02*
X63531000Y-87137000D01*
X63531000Y-73137000D02*
X64531000Y-73137000D01*
X64531000Y-87137000D02*
X64531000Y-86137000D01*
X50531000Y-86137000D02*
X50531000Y-87137000D01*
X50531000Y-73137000D02*
X51531000Y-73137000D01*
X51531000Y-87137000D02*
X50531000Y-87137000D01*
X50531000Y-73137000D02*
X50531000Y-74137000D01*
X55056838Y-79520960D02*
G75*
G02*
X57521000Y-77597000I2464162J-616040D01*
G01*
X51171000Y-75692000D02*
G75*
G02*
X53711000Y-73152000I2540000J0D01*
G01*
%TO.C,K08*%
X62601000Y-96647000D02*
X57521000Y-96647000D01*
X51171000Y-94742000D02*
X51171000Y-95123000D01*
X55056838Y-98552000D02*
X53330000Y-98552000D01*
X51171000Y-98171000D02*
X51171000Y-98552000D01*
X62601000Y-95631000D02*
X62601000Y-96647000D01*
X53711000Y-92202000D02*
X62601000Y-92202000D01*
X51552000Y-98552000D02*
X51171000Y-98552000D01*
X62601000Y-92202000D02*
X62601000Y-92583000D01*
X64531000Y-93187000D02*
X64531000Y-92187000D01*
X64531000Y-106187000D02*
X63531000Y-106187000D01*
X63531000Y-92187000D02*
X64531000Y-92187000D01*
X64531000Y-106187000D02*
X64531000Y-105187000D01*
X50531000Y-105187000D02*
X50531000Y-106187000D01*
X50531000Y-92187000D02*
X51531000Y-92187000D01*
X51531000Y-106187000D02*
X50531000Y-106187000D01*
X50531000Y-92187000D02*
X50531000Y-93187000D01*
X55056838Y-98570960D02*
G75*
G02*
X57521000Y-96647000I2464162J-616040D01*
G01*
X51171000Y-94742000D02*
G75*
G02*
X53711000Y-92202000I2540000J0D01*
G01*
%TO.C,K09*%
X81651000Y-36997000D02*
X76571000Y-36997000D01*
X70221000Y-35092000D02*
X70221000Y-35473000D01*
X74106838Y-38902000D02*
X72380000Y-38902000D01*
X70221000Y-38521000D02*
X70221000Y-38902000D01*
X81651000Y-35981000D02*
X81651000Y-36997000D01*
X72761000Y-32552000D02*
X81651000Y-32552000D01*
X70602000Y-38902000D02*
X70221000Y-38902000D01*
X81651000Y-32552000D02*
X81651000Y-32933000D01*
X83581000Y-33537000D02*
X83581000Y-32537000D01*
X83581000Y-46537000D02*
X82581000Y-46537000D01*
X82581000Y-32537000D02*
X83581000Y-32537000D01*
X83581000Y-46537000D02*
X83581000Y-45537000D01*
X69581000Y-45537000D02*
X69581000Y-46537000D01*
X69581000Y-32537000D02*
X70581000Y-32537000D01*
X70581000Y-46537000D02*
X69581000Y-46537000D01*
X69581000Y-32537000D02*
X69581000Y-33537000D01*
X74106838Y-38920960D02*
G75*
G02*
X76571000Y-36997000I2464162J-616040D01*
G01*
X70221000Y-35092000D02*
G75*
G02*
X72761000Y-32552000I2540000J0D01*
G01*
%TO.C,K10*%
X81651000Y-56047000D02*
X76571000Y-56047000D01*
X70221000Y-54142000D02*
X70221000Y-54523000D01*
X74106838Y-57952000D02*
X72380000Y-57952000D01*
X70221000Y-57571000D02*
X70221000Y-57952000D01*
X81651000Y-55031000D02*
X81651000Y-56047000D01*
X72761000Y-51602000D02*
X81651000Y-51602000D01*
X70602000Y-57952000D02*
X70221000Y-57952000D01*
X81651000Y-51602000D02*
X81651000Y-51983000D01*
X83581000Y-52587000D02*
X83581000Y-51587000D01*
X83581000Y-65587000D02*
X82581000Y-65587000D01*
X82581000Y-51587000D02*
X83581000Y-51587000D01*
X83581000Y-65587000D02*
X83581000Y-64587000D01*
X69581000Y-64587000D02*
X69581000Y-65587000D01*
X69581000Y-51587000D02*
X70581000Y-51587000D01*
X70581000Y-65587000D02*
X69581000Y-65587000D01*
X69581000Y-51587000D02*
X69581000Y-52587000D01*
X74106838Y-57970960D02*
G75*
G02*
X76571000Y-56047000I2464162J-616040D01*
G01*
X70221000Y-54142000D02*
G75*
G02*
X72761000Y-51602000I2540000J0D01*
G01*
%TO.C,K11*%
X81651000Y-75097000D02*
X76571000Y-75097000D01*
X70221000Y-73192000D02*
X70221000Y-73573000D01*
X74106838Y-77002000D02*
X72380000Y-77002000D01*
X70221000Y-76621000D02*
X70221000Y-77002000D01*
X81651000Y-74081000D02*
X81651000Y-75097000D01*
X72761000Y-70652000D02*
X81651000Y-70652000D01*
X70602000Y-77002000D02*
X70221000Y-77002000D01*
X81651000Y-70652000D02*
X81651000Y-71033000D01*
X83581000Y-71637000D02*
X83581000Y-70637000D01*
X83581000Y-84637000D02*
X82581000Y-84637000D01*
X82581000Y-70637000D02*
X83581000Y-70637000D01*
X83581000Y-84637000D02*
X83581000Y-83637000D01*
X69581000Y-83637000D02*
X69581000Y-84637000D01*
X69581000Y-70637000D02*
X70581000Y-70637000D01*
X70581000Y-84637000D02*
X69581000Y-84637000D01*
X69581000Y-70637000D02*
X69581000Y-71637000D01*
X74106838Y-77020960D02*
G75*
G02*
X76571000Y-75097000I2464162J-616040D01*
G01*
X70221000Y-73192000D02*
G75*
G02*
X72761000Y-70652000I2540000J0D01*
G01*
%TO.C,K12*%
X69581000Y-89687000D02*
X69581000Y-90687000D01*
X70581000Y-103687000D02*
X69581000Y-103687000D01*
X69581000Y-89687000D02*
X70581000Y-89687000D01*
X69581000Y-102687000D02*
X69581000Y-103687000D01*
X83581000Y-103687000D02*
X83581000Y-102687000D01*
X82581000Y-89687000D02*
X83581000Y-89687000D01*
X83581000Y-103687000D02*
X82581000Y-103687000D01*
X83581000Y-90687000D02*
X83581000Y-89687000D01*
X81651000Y-89702000D02*
X81651000Y-90083000D01*
X70602000Y-96052000D02*
X70221000Y-96052000D01*
X72761000Y-89702000D02*
X81651000Y-89702000D01*
X81651000Y-93131000D02*
X81651000Y-94147000D01*
X70221000Y-95671000D02*
X70221000Y-96052000D01*
X74106838Y-96052000D02*
X72380000Y-96052000D01*
X70221000Y-92242000D02*
X70221000Y-92623000D01*
X81651000Y-94147000D02*
X76571000Y-94147000D01*
X70221000Y-92242000D02*
G75*
G02*
X72761000Y-89702000I2540000J0D01*
G01*
X74106838Y-96070960D02*
G75*
G02*
X76571000Y-94147000I2464162J-616040D01*
G01*
%TO.C,K13*%
X100701000Y-34497000D02*
X95621000Y-34497000D01*
X89271000Y-32592000D02*
X89271000Y-32973000D01*
X93156838Y-36402000D02*
X91430000Y-36402000D01*
X89271000Y-36021000D02*
X89271000Y-36402000D01*
X100701000Y-33481000D02*
X100701000Y-34497000D01*
X91811000Y-30052000D02*
X100701000Y-30052000D01*
X89652000Y-36402000D02*
X89271000Y-36402000D01*
X100701000Y-30052000D02*
X100701000Y-30433000D01*
X102631000Y-31037000D02*
X102631000Y-30037000D01*
X102631000Y-44037000D02*
X101631000Y-44037000D01*
X101631000Y-30037000D02*
X102631000Y-30037000D01*
X102631000Y-44037000D02*
X102631000Y-43037000D01*
X88631000Y-43037000D02*
X88631000Y-44037000D01*
X88631000Y-30037000D02*
X89631000Y-30037000D01*
X89631000Y-44037000D02*
X88631000Y-44037000D01*
X88631000Y-30037000D02*
X88631000Y-31037000D01*
X93156838Y-36420960D02*
G75*
G02*
X95621000Y-34497000I2464162J-616040D01*
G01*
X89271000Y-32592000D02*
G75*
G02*
X91811000Y-30052000I2540000J0D01*
G01*
%TO.C,K14*%
X88631000Y-49087000D02*
X88631000Y-50087000D01*
X89631000Y-63087000D02*
X88631000Y-63087000D01*
X88631000Y-49087000D02*
X89631000Y-49087000D01*
X88631000Y-62087000D02*
X88631000Y-63087000D01*
X102631000Y-63087000D02*
X102631000Y-62087000D01*
X101631000Y-49087000D02*
X102631000Y-49087000D01*
X102631000Y-63087000D02*
X101631000Y-63087000D01*
X102631000Y-50087000D02*
X102631000Y-49087000D01*
X100701000Y-49102000D02*
X100701000Y-49483000D01*
X89652000Y-55452000D02*
X89271000Y-55452000D01*
X91811000Y-49102000D02*
X100701000Y-49102000D01*
X100701000Y-52531000D02*
X100701000Y-53547000D01*
X89271000Y-55071000D02*
X89271000Y-55452000D01*
X93156838Y-55452000D02*
X91430000Y-55452000D01*
X89271000Y-51642000D02*
X89271000Y-52023000D01*
X100701000Y-53547000D02*
X95621000Y-53547000D01*
X89271000Y-51642000D02*
G75*
G02*
X91811000Y-49102000I2540000J0D01*
G01*
X93156838Y-55470960D02*
G75*
G02*
X95621000Y-53547000I2464162J-616040D01*
G01*
%TO.C,K15*%
X88631000Y-68137000D02*
X88631000Y-69137000D01*
X89631000Y-82137000D02*
X88631000Y-82137000D01*
X88631000Y-68137000D02*
X89631000Y-68137000D01*
X88631000Y-81137000D02*
X88631000Y-82137000D01*
X102631000Y-82137000D02*
X102631000Y-81137000D01*
X101631000Y-68137000D02*
X102631000Y-68137000D01*
X102631000Y-82137000D02*
X101631000Y-82137000D01*
X102631000Y-69137000D02*
X102631000Y-68137000D01*
X100701000Y-68152000D02*
X100701000Y-68533000D01*
X89652000Y-74502000D02*
X89271000Y-74502000D01*
X91811000Y-68152000D02*
X100701000Y-68152000D01*
X100701000Y-71581000D02*
X100701000Y-72597000D01*
X89271000Y-74121000D02*
X89271000Y-74502000D01*
X93156838Y-74502000D02*
X91430000Y-74502000D01*
X89271000Y-70692000D02*
X89271000Y-71073000D01*
X100701000Y-72597000D02*
X95621000Y-72597000D01*
X89271000Y-70692000D02*
G75*
G02*
X91811000Y-68152000I2540000J0D01*
G01*
X93156838Y-74520960D02*
G75*
G02*
X95621000Y-72597000I2464162J-616040D01*
G01*
%TO.C,K16*%
X100701000Y-91647000D02*
X95621000Y-91647000D01*
X89271000Y-89742000D02*
X89271000Y-90123000D01*
X93156838Y-93552000D02*
X91430000Y-93552000D01*
X89271000Y-93171000D02*
X89271000Y-93552000D01*
X100701000Y-90631000D02*
X100701000Y-91647000D01*
X91811000Y-87202000D02*
X100701000Y-87202000D01*
X89652000Y-93552000D02*
X89271000Y-93552000D01*
X100701000Y-87202000D02*
X100701000Y-87583000D01*
X102631000Y-88187000D02*
X102631000Y-87187000D01*
X102631000Y-101187000D02*
X101631000Y-101187000D01*
X101631000Y-87187000D02*
X102631000Y-87187000D01*
X102631000Y-101187000D02*
X102631000Y-100187000D01*
X88631000Y-100187000D02*
X88631000Y-101187000D01*
X88631000Y-87187000D02*
X89631000Y-87187000D01*
X89631000Y-101187000D02*
X88631000Y-101187000D01*
X88631000Y-87187000D02*
X88631000Y-88187000D01*
X93156838Y-93570960D02*
G75*
G02*
X95621000Y-91647000I2464162J-616040D01*
G01*
X89271000Y-89742000D02*
G75*
G02*
X91811000Y-87202000I2540000J0D01*
G01*
%TO.C,K17*%
X107681000Y-32537000D02*
X107681000Y-33537000D01*
X108681000Y-46537000D02*
X107681000Y-46537000D01*
X107681000Y-32537000D02*
X108681000Y-32537000D01*
X107681000Y-45537000D02*
X107681000Y-46537000D01*
X121681000Y-46537000D02*
X121681000Y-45537000D01*
X120681000Y-32537000D02*
X121681000Y-32537000D01*
X121681000Y-46537000D02*
X120681000Y-46537000D01*
X121681000Y-33537000D02*
X121681000Y-32537000D01*
X119751000Y-32552000D02*
X119751000Y-32933000D01*
X108702000Y-38902000D02*
X108321000Y-38902000D01*
X110861000Y-32552000D02*
X119751000Y-32552000D01*
X119751000Y-35981000D02*
X119751000Y-36997000D01*
X108321000Y-38521000D02*
X108321000Y-38902000D01*
X112206838Y-38902000D02*
X110480000Y-38902000D01*
X108321000Y-35092000D02*
X108321000Y-35473000D01*
X119751000Y-36997000D02*
X114671000Y-36997000D01*
X108321000Y-35092000D02*
G75*
G02*
X110861000Y-32552000I2540000J0D01*
G01*
X112206838Y-38920960D02*
G75*
G02*
X114671000Y-36997000I2464162J-616040D01*
G01*
%TO.C,K18*%
X119751000Y-56047000D02*
X114671000Y-56047000D01*
X108321000Y-54142000D02*
X108321000Y-54523000D01*
X112206838Y-57952000D02*
X110480000Y-57952000D01*
X108321000Y-57571000D02*
X108321000Y-57952000D01*
X119751000Y-55031000D02*
X119751000Y-56047000D01*
X110861000Y-51602000D02*
X119751000Y-51602000D01*
X108702000Y-57952000D02*
X108321000Y-57952000D01*
X119751000Y-51602000D02*
X119751000Y-51983000D01*
X121681000Y-52587000D02*
X121681000Y-51587000D01*
X121681000Y-65587000D02*
X120681000Y-65587000D01*
X120681000Y-51587000D02*
X121681000Y-51587000D01*
X121681000Y-65587000D02*
X121681000Y-64587000D01*
X107681000Y-64587000D02*
X107681000Y-65587000D01*
X107681000Y-51587000D02*
X108681000Y-51587000D01*
X108681000Y-65587000D02*
X107681000Y-65587000D01*
X107681000Y-51587000D02*
X107681000Y-52587000D01*
X112206838Y-57970960D02*
G75*
G02*
X114671000Y-56047000I2464162J-616040D01*
G01*
X108321000Y-54142000D02*
G75*
G02*
X110861000Y-51602000I2540000J0D01*
G01*
%TO.C,K19*%
X107681000Y-70637000D02*
X107681000Y-71637000D01*
X108681000Y-84637000D02*
X107681000Y-84637000D01*
X107681000Y-70637000D02*
X108681000Y-70637000D01*
X107681000Y-83637000D02*
X107681000Y-84637000D01*
X121681000Y-84637000D02*
X121681000Y-83637000D01*
X120681000Y-70637000D02*
X121681000Y-70637000D01*
X121681000Y-84637000D02*
X120681000Y-84637000D01*
X121681000Y-71637000D02*
X121681000Y-70637000D01*
X119751000Y-70652000D02*
X119751000Y-71033000D01*
X108702000Y-77002000D02*
X108321000Y-77002000D01*
X110861000Y-70652000D02*
X119751000Y-70652000D01*
X119751000Y-74081000D02*
X119751000Y-75097000D01*
X108321000Y-76621000D02*
X108321000Y-77002000D01*
X112206838Y-77002000D02*
X110480000Y-77002000D01*
X108321000Y-73192000D02*
X108321000Y-73573000D01*
X119751000Y-75097000D02*
X114671000Y-75097000D01*
X108321000Y-73192000D02*
G75*
G02*
X110861000Y-70652000I2540000J0D01*
G01*
X112206838Y-77020960D02*
G75*
G02*
X114671000Y-75097000I2464162J-616040D01*
G01*
%TO.C,K20*%
X129760169Y-95920897D02*
X124757345Y-95038764D01*
X118834616Y-92060039D02*
X118768456Y-92435251D01*
X121999820Y-96486925D02*
X120299216Y-96187063D01*
X118239176Y-95436945D02*
X118173016Y-95812157D01*
X129936595Y-94920332D02*
X129760169Y-95920897D01*
X121777094Y-89999694D02*
X130532035Y-91543426D01*
X118548228Y-95878317D02*
X118173016Y-95812157D01*
X130532035Y-91543426D02*
X130465875Y-91918638D01*
X132261670Y-92848603D02*
X132435319Y-91863795D01*
X130004244Y-105651104D02*
X129019436Y-105477455D01*
X131450511Y-91690147D02*
X132435319Y-91863795D01*
X130004244Y-105651104D02*
X130177892Y-104666296D01*
X116390584Y-102235221D02*
X116216935Y-103220029D01*
X118648010Y-89432720D02*
X119632818Y-89606369D01*
X117201743Y-103393677D02*
X116216935Y-103220029D01*
X118648010Y-89432720D02*
X118474362Y-90417528D01*
X121996527Y-96505598D02*
G75*
G02*
X124757345Y-95038764I2319752J-1034578D01*
G01*
X118834617Y-92060039D02*
G75*
G02*
X121777094Y-89999694I2501411J-441066D01*
G01*
%TO.C,K24*%
X159021561Y-86307998D02*
X154247922Y-84570536D01*
X148932422Y-80608593D02*
X148802113Y-80966616D01*
X151280819Y-85517857D02*
X149658122Y-84927244D01*
X147759635Y-83830799D02*
X147629326Y-84188822D01*
X159369053Y-85353270D02*
X159021561Y-86307998D01*
X152187973Y-79090505D02*
X160541840Y-82131064D01*
X147987349Y-84319132D02*
X147629326Y-84188822D01*
X160541840Y-82131064D02*
X160411531Y-82489087D01*
X162018557Y-83716760D02*
X162360577Y-82777068D01*
X157572295Y-95932764D02*
X156632603Y-95590744D01*
X161420885Y-82435048D02*
X162360577Y-82777068D01*
X157572295Y-95932764D02*
X157914315Y-94993072D01*
X144758619Y-90204790D02*
X144416599Y-91144482D01*
X149204881Y-77988786D02*
X150144573Y-78330806D01*
X145356291Y-91486502D02*
X144416599Y-91144482D01*
X149204881Y-77988786D02*
X148862861Y-78928478D01*
X151274334Y-85535673D02*
G75*
G02*
X154247922Y-84570536I2104857J-1421682D01*
G01*
X148932423Y-80608593D02*
G75*
G02*
X152187973Y-79090505I2386819J-868731D01*
G01*
%TO.C,K25*%
X143082329Y-94810359D02*
X142740309Y-95750051D01*
X139233739Y-108308075D02*
X138294047Y-107966055D01*
X143082329Y-94810359D02*
X144022021Y-95152379D01*
X138636067Y-107026363D02*
X138294047Y-107966055D01*
X151449743Y-112754337D02*
X151791763Y-111814645D01*
X155298333Y-99256621D02*
X156238025Y-99598641D01*
X151449743Y-112754337D02*
X150510051Y-112412317D01*
X155896005Y-100538333D02*
X156238025Y-99598641D01*
X154419288Y-98952637D02*
X154288979Y-99310660D01*
X141864797Y-101140705D02*
X141506774Y-101010395D01*
X146065421Y-95912078D02*
X154419288Y-98952637D01*
X153246501Y-102174843D02*
X152899009Y-103129571D01*
X141637083Y-100652372D02*
X141506774Y-101010395D01*
X145158267Y-102339430D02*
X143535570Y-101748817D01*
X142809870Y-97430166D02*
X142679561Y-97788189D01*
X152899009Y-103129571D02*
X148125370Y-101392109D01*
X142809871Y-97430166D02*
G75*
G02*
X146065421Y-95912078I2386819J-868731D01*
G01*
X145151782Y-102357246D02*
G75*
G02*
X148125370Y-101392109I2104857J-1421682D01*
G01*
%TO.C,U1*%
X151014476Y-32459380D02*
X151347809Y-31983190D01*
X151585904Y-32459380D02*
X151585904Y-31459380D01*
X151204952Y-31459380D01*
X151109714Y-31507000D01*
X151062095Y-31554619D01*
X151014476Y-31649857D01*
X151014476Y-31792714D01*
X151062095Y-31887952D01*
X151109714Y-31935571D01*
X151204952Y-31983190D01*
X151585904Y-31983190D01*
X150633523Y-32173666D02*
X150157333Y-32173666D01*
X150728761Y-32459380D02*
X150395428Y-31459380D01*
X150062095Y-32459380D01*
X149824000Y-31459380D02*
X149585904Y-32459380D01*
X149395428Y-31745095D01*
X149204952Y-32459380D01*
X148966857Y-31459380D01*
X160662095Y-31459380D02*
X160090666Y-31459380D01*
X160376380Y-32459380D02*
X160376380Y-31459380D01*
X159852571Y-31459380D02*
X159185904Y-32459380D01*
X159185904Y-31459380D02*
X159852571Y-32459380D01*
X158614476Y-31459380D02*
X158519238Y-31459380D01*
X158424000Y-31507000D01*
X158376380Y-31554619D01*
X158328761Y-31649857D01*
X158281142Y-31840333D01*
X158281142Y-32078428D01*
X158328761Y-32268904D01*
X158376380Y-32364142D01*
X158424000Y-32411761D01*
X158519238Y-32459380D01*
X158614476Y-32459380D01*
X158709714Y-32411761D01*
X158757333Y-32364142D01*
X158804952Y-32268904D01*
X158852571Y-32078428D01*
X158852571Y-31840333D01*
X158804952Y-31649857D01*
X158757333Y-31554619D01*
X158709714Y-31507000D01*
X158614476Y-31459380D01*
%TD*%
M02*
