M48
; DRILL file {KiCad 5.1.5+dfsg1-2build2} date Wed 09 Sep 2020 08:01:56 AM CDT
; FORMAT={-:-/ absolute / inch / decimal}
; #@! TF.CreationDate,2020-09-09T08:01:56-05:00
; #@! TF.GenerationSoftware,Kicad,Pcbnew,5.1.5+dfsg1-2build2
; #@! TF.FileFunction,Plated,1,2,PTH
FMAT,2
INCH
T1C0.0157
T2C0.0236
T3C0.0320
T4C0.0354
T5C0.0430
%
G90
G05
T1
X1.4269Y-2.6865
X1.4269Y-3.4365
X1.4269Y-4.1865
X1.4269Y-4.9365
X1.8333Y-3.0372
X1.8333Y-3.7872
X1.8333Y-4.5372
X1.8333Y-5.2872
X1.9Y-3.1484
X1.9004Y-3.8984
X1.9004Y-4.6484
X1.9004Y-5.3984
X2.1769Y-2.5881
X2.1769Y-3.3381
X2.1769Y-4.0881
X2.1769Y-4.8381
X2.5833Y-2.9387
X2.5833Y-3.6887
X2.5833Y-4.4387
X2.5833Y-5.1887
X2.6504Y-3.05
X2.6508Y-3.8
X2.6508Y-4.55
X2.6508Y-5.3
X2.9269Y-2.4881
X2.9269Y-3.2381
X2.9269Y-3.9881
X2.9269Y-4.7381
X3.3333Y-2.8387
X3.3333Y-3.5887
X3.3333Y-4.3387
X3.3333Y-5.0887
X3.4004Y-2.95
X3.4008Y-3.7
X3.4008Y-4.45
X3.4008Y-5.2
X3.6769Y-2.3881
X3.6769Y-3.8881
X3.6769Y-4.6381
X3.6819Y-3.1381
X4.0833Y-2.7387
X4.0833Y-3.4887
X4.0833Y-4.2387
X4.0833Y-4.9887
X4.1504Y-2.85
X4.1508Y-3.6
X4.1508Y-4.35
X4.1508Y-5.1
X4.4269Y-2.4881
X4.4269Y-3.2381
X4.4269Y-3.9881
X4.752Y-4.8495
X4.8333Y-2.8387
X4.8333Y-3.5887
X4.8333Y-4.3387
X4.9004Y-2.95
X4.9008Y-3.7
X4.9008Y-4.45
X5.0914Y-5.2655
X5.1385Y-5.3867
X5.1769Y-2.5881
X5.1769Y-3.3381
X5.1769Y-4.0881
X5.5833Y-2.9387
X5.5833Y-3.6887
X5.5833Y-4.4387
X5.65Y-2.285
X5.65Y-2.345
X5.6504Y-3.05
X5.6508Y-3.8
X5.6508Y-4.55
X5.8881Y-5.1269
X6.0446Y-2.4404
X6.0446Y-2.5404
X6.0446Y-2.6404
X6.0446Y-2.7404
X6.0446Y-2.8404
X6.0446Y-2.9404
X6.0446Y-3.0404
X6.0446Y-3.1404
X6.0446Y-3.2404
X6.0446Y-3.3404
X6.0446Y-3.4404
X6.0446Y-3.5404
X6.1446Y-4.4221
X6.1501Y-5.5954
X6.1754Y-5.723
X6.4066Y-4.8907
X6.4296Y-2.6404
X6.4296Y-2.7404
X6.4297Y-2.4903
X6.4319Y-5.0183
X6.5595Y-4.2855
X6.7019Y-4.1181
T2
X5.5703Y-2.2835
X5.7297Y-2.2835
T3
X6.195Y-4.0525
X6.195Y-4.1313
X6.195Y-4.21
T5
X5.8952Y-2.4404
X5.8952Y-2.5404
X5.8952Y-2.6404
X5.8952Y-2.7404
X5.8952Y-2.8404
X5.8952Y-2.9404
X5.8952Y-3.0404
X5.8952Y-3.1404
X5.8952Y-3.2404
X5.8952Y-3.3404
X5.8952Y-3.4404
X5.8952Y-3.5404
X5.97Y-2.39
X5.97Y-2.49
X5.97Y-2.59
X5.97Y-2.69
X5.97Y-2.79
X5.97Y-2.89
X5.97Y-2.99
X5.97Y-3.09
X5.97Y-3.19
X5.97Y-3.29
X5.97Y-3.39
X5.97Y-3.49
X6.4952Y-2.4404
X6.4952Y-2.5404
X6.4952Y-2.6404
X6.4952Y-2.7404
X6.4952Y-2.8404
X6.4952Y-2.9404
X6.4952Y-3.0404
X6.4952Y-3.1404
X6.4952Y-3.2404
X6.4952Y-3.3404
X6.4952Y-3.4404
X6.4952Y-3.5404
X6.57Y-2.39
X6.57Y-2.49
X6.57Y-2.59
X6.57Y-2.69
X6.57Y-2.79
X6.57Y-2.89
X6.57Y-2.99
X6.57Y-3.09
X6.57Y-3.19
X6.57Y-3.29
X6.57Y-3.39
X6.57Y-3.49
T4
G00X6.323Y-3.8151
M15
G01X6.3072Y-3.8151
M16
G05
G00X6.3072Y-3.9155
M15
G01X6.323Y-3.9155
M16
G05
G00X6.3506Y-3.7344
M15
G01X6.3663Y-3.7344
M16
G05
G00X6.3663Y-3.9962
M15
G01X6.3506Y-3.9962
M16
G05
G00X6.508Y-3.7344
M15
G01X6.5238Y-3.7344
M16
G05
G00X6.5238Y-3.9962
M15
G01X6.508Y-3.9962
M16
G05
G00X6.6261Y-3.7344
M15
G01X6.6419Y-3.7344
M16
G05
G00X6.6419Y-3.9962
M15
G01X6.6261Y-3.9962
M16
G05
T0
M30
