M48
; DRILL file {KiCad 5.1.6-c6e7f7d~87~ubuntu20.04.1} date Tue Aug 25 07:17:57 2020
; FORMAT={-:-/ absolute / inch / decimal}
; #@! TF.CreationDate,2020-08-25T07:17:57-05:00
; #@! TF.GenerationSoftware,Kicad,Pcbnew,5.1.6-c6e7f7d~87~ubuntu20.04.1
; #@! TF.FileFunction,NonPlated,1,2,NPTH
FMAT,2
INCH
T1C0.0315
T2C0.0354
T3C0.0670
T4C0.0866
T5C0.1181
T6C0.1570
%
G90
G05
T1
X6.2364Y-2.6199
X6.2364Y-2.69
X6.512Y-2.6199
X6.512Y-2.69
T2
X6.51Y-2.9609
X6.51Y-3.0791
T3
X2.815Y-3.0566
X3.215Y-3.0566
X4.315Y-1.5566
X4.715Y-1.5566
X2.065Y-3.905
X2.465Y-3.905
X2.065Y-2.405
X2.465Y-2.405
X5.6099Y-4.0175
X5.9858Y-4.1543
X4.315Y-3.0566
X4.715Y-3.0566
X5.065Y-2.405
X5.465Y-2.405
X2.815Y-3.8066
X3.215Y-3.8066
X1.315Y-3.905
X1.715Y-3.905
X3.565Y-2.2081
X3.965Y-2.2081
X5.851Y-3.3552
X6.2269Y-3.4921
X1.315Y-2.405
X1.715Y-2.405
X1.315Y-1.655
X1.715Y-1.655
X3.565Y-1.4581
X3.965Y-1.4581
X4.315Y-2.3066
X4.715Y-2.3066
X2.815Y-1.5566
X3.215Y-1.5566
X2.065Y-1.655
X2.465Y-1.655
X3.565Y-3.7081
X3.965Y-3.7081
X3.565Y-2.9581
X3.965Y-2.9581
X2.065Y-3.155
X2.465Y-3.155
X4.6978Y-3.8055
X5.0917Y-3.875
X5.065Y-3.155
X5.465Y-3.155
X1.315Y-3.155
X1.715Y-3.155
X5.065Y-1.655
X5.465Y-1.655
X2.815Y-2.3066
X3.215Y-2.3066
T4
X5.6006Y-2.03
X3.39Y-3.3528
X4.14Y-1.8528
X3.39Y-1.8528
X1.89Y-2.03
X5.5613Y-3.53
X1.89Y-3.53
X4.14Y-3.3528
T5
X5.1146Y-3.055
X5.165Y-2.955
X5.3646Y-2.955
X5.415Y-3.055
X1.3646Y-3.055
X1.415Y-2.955
X1.6146Y-2.955
X1.665Y-3.055
X5.1146Y-1.555
X5.165Y-1.455
X5.3646Y-1.455
X5.415Y-1.555
X2.8646Y-2.2066
X2.915Y-2.1066
X3.1146Y-2.1066
X3.165Y-2.2066
X2.8646Y-2.9566
X2.915Y-2.8566
X3.1146Y-2.8566
X3.165Y-2.9566
X4.3646Y-1.4566
X4.415Y-1.3566
X4.6146Y-1.3566
X4.665Y-1.4566
X2.1146Y-3.805
X2.165Y-3.705
X2.3646Y-3.705
X2.415Y-3.805
X2.1146Y-2.305
X2.165Y-2.205
X2.3646Y-2.205
X2.415Y-2.305
X5.6908Y-3.9405
X5.7723Y-3.8638
X5.9599Y-3.932
X5.973Y-4.0433
X4.3646Y-2.9566
X4.415Y-2.8566
X4.6146Y-2.8566
X4.665Y-2.9566
X5.1146Y-2.305
X5.165Y-2.205
X5.3646Y-2.205
X5.415Y-2.305
X2.8646Y-3.7066
X2.915Y-3.6066
X3.1146Y-3.6066
X3.165Y-3.7066
X1.3646Y-3.805
X1.415Y-3.705
X1.6146Y-3.705
X1.665Y-3.805
X3.6146Y-2.1081
X3.665Y-2.0081
X3.8646Y-2.0081
X3.915Y-2.1081
X5.9318Y-3.2782
X6.0134Y-3.2015
X6.2009Y-3.2698
X6.2141Y-3.381
X1.3646Y-2.305
X1.415Y-2.205
X1.6146Y-2.205
X1.665Y-2.305
X1.3646Y-1.555
X1.415Y-1.455
X1.6146Y-1.455
X1.665Y-1.555
X3.6146Y-1.3581
X3.665Y-1.2581
X3.8646Y-1.2581
X3.915Y-1.3581
X4.3646Y-2.2066
X4.415Y-2.1066
X4.6146Y-2.1066
X4.665Y-2.2066
X2.8646Y-1.4566
X2.915Y-1.3566
X3.1146Y-1.3566
X3.165Y-1.4566
X2.1146Y-1.555
X2.165Y-1.455
X2.3646Y-1.455
X2.415Y-1.555
X3.6146Y-3.6081
X3.665Y-3.5081
X3.8646Y-3.5081
X3.915Y-3.6081
X3.6146Y-2.8581
X3.665Y-2.7581
X3.8646Y-2.7581
X3.915Y-2.8581
X2.1146Y-3.055
X2.165Y-2.955
X2.3646Y-2.955
X2.415Y-3.055
X4.764Y-3.7156
X4.831Y-3.6259
X5.0276Y-3.6606
X5.0598Y-3.7678
T6
X2.265Y-2.405
X5.7979Y-4.0859
X4.515Y-3.0566
X5.265Y-2.405
X3.015Y-3.8066
X1.515Y-3.905
X3.765Y-2.2081
X6.0389Y-3.4237
X1.515Y-2.405
X1.515Y-1.655
X3.765Y-1.4581
X4.515Y-2.3066
X3.015Y-1.5566
X2.265Y-1.655
X3.765Y-3.7081
X3.765Y-2.9581
X2.265Y-3.155
X4.8947Y-3.8402
X5.265Y-3.155
X1.515Y-3.155
X5.265Y-1.655
X3.015Y-2.3066
X3.015Y-3.0566
X4.515Y-1.5566
X2.265Y-3.905
T0
M30
