M48
; DRILL file {KiCad 5.1.6-c6e7f7d~87~ubuntu20.04.1} date Tue Aug 25 07:17:57 2020
; FORMAT={-:-/ absolute / inch / decimal}
; #@! TF.CreationDate,2020-08-25T07:17:57-05:00
; #@! TF.GenerationSoftware,Kicad,Pcbnew,5.1.6-c6e7f7d~87~ubuntu20.04.1
; #@! TF.FileFunction,Plated,1,2,PTH
FMAT,2
INCH
T1C0.0157
T2C0.0236
T3C0.0320
T4C0.0354
T5C0.0430
%
G90
G05
T1
X1.5154Y-1.7646
X1.5154Y-2.5146
X1.5154Y-3.2646
X1.5154Y-4.0146
X1.6646Y-1.8454
X1.6646Y-2.5954
X1.6646Y-3.3454
X1.6646Y-4.0954
X1.6911Y-1.3839
X1.6911Y-2.1339
X1.6911Y-2.8839
X1.6911Y-3.6339
X1.7622Y-2.6278
X2.1146Y-1.8454
X2.1196Y-2.5954
X2.1196Y-3.3454
X2.1196Y-4.0954
X2.2654Y-1.7646
X2.2654Y-2.5146
X2.2654Y-3.2646
X2.2654Y-4.0146
X2.4411Y-1.3839
X2.4411Y-2.1339
X2.4411Y-2.8839
X2.4411Y-3.6339
X2.5122Y-2.5878
X3.0118Y-1.7768
X3.0118Y-3.2768
X3.0139Y-1.6661
X3.0139Y-2.4161
X3.0143Y-2.5243
X3.0143Y-4.0243
X3.0189Y-3.1661
X3.0189Y-3.9161
X3.1911Y-1.2855
X3.1911Y-2.0355
X3.1911Y-2.7855
X3.1911Y-3.5355
X3.2622Y-2.4878
X3.7623Y-1.5677
X3.7623Y-2.3177
X3.7623Y-3.0677
X3.7623Y-3.8177
X3.7625Y-2.4275
X3.7625Y-3.1775
X3.765Y-1.675
X3.765Y-3.925
X3.9411Y-1.187
X3.9411Y-1.937
X3.9411Y-2.687
X3.9411Y-3.437
X4.0122Y-2.5278
X4.513Y-1.747
X4.513Y-3.247
X4.5139Y-1.6661
X4.5139Y-2.4161
X4.5139Y-3.1661
X4.518Y-2.497
X4.6911Y-1.2855
X4.6911Y-2.0355
X4.6911Y-2.7855
X4.7622Y-2.6278
X4.8646Y-4.0204
X4.89Y-3.955
X5.0334Y-3.5466
X5.2646Y-1.8454
X5.2646Y-2.5954
X5.2646Y-3.3454
X5.2654Y-1.7646
X5.2654Y-2.5146
X5.2654Y-3.2646
X5.4096Y-2.7404
X5.4411Y-1.3839
X5.4411Y-2.8839
X5.5122Y-2.1078
X5.53Y-3.665
X5.5615Y-1.1535
X5.5635Y-1.0965
X5.6436Y-3.5514
X5.7392Y-4.2508
X5.755Y-3.78
X5.7598Y-4.2002
X5.9226Y-1.7574
X5.9226Y-1.8574
X5.9226Y-2.2574
X5.9276Y-1.2574
X5.9276Y-1.4574
X5.9276Y-1.5574
X5.9276Y-1.6574
X5.9276Y-1.9574
X5.9276Y-2.0574
X5.9276Y-2.1574
X5.9276Y-2.3574
X5.9326Y-1.3574
X5.9576Y-2.0574
X5.9711Y-3.6089
X5.985Y-3.11
X5.9876Y-2.1574
X5.9994Y-3.5406
X6.0176Y-2.2574
X6.05Y-1.805
X6.0876Y-1.4574
X6.0876Y-1.5574
X6.0878Y-1.3072
X6.175Y-1.705
X6.3376Y-1.6574
X6.38Y-3.02
X6.5425Y-2.8225
T2
X5.4853Y-1.0935
X5.6447Y-1.0935
T3
X5.765Y-2.975
X5.8437Y-2.975
X5.9225Y-2.975
T5
X5.7994Y-1.2574
X5.7994Y-1.3574
X5.7994Y-1.4574
X5.7994Y-1.5574
X5.7994Y-1.6574
X5.7994Y-1.7574
X5.7994Y-1.8574
X5.7994Y-1.9574
X5.7994Y-2.0574
X5.7994Y-2.1574
X5.7994Y-2.2574
X5.7994Y-2.3574
X5.86Y-1.205
X5.86Y-1.305
X5.86Y-1.405
X5.86Y-1.505
X5.86Y-1.605
X5.86Y-1.705
X5.86Y-1.805
X5.86Y-1.905
X5.86Y-2.005
X5.86Y-2.105
X5.86Y-2.205
X5.86Y-2.305
X6.3994Y-1.2574
X6.3994Y-1.3574
X6.3994Y-1.4574
X6.3994Y-1.5574
X6.3994Y-1.6574
X6.3994Y-1.7574
X6.3994Y-1.8574
X6.3994Y-1.9574
X6.3994Y-2.0574
X6.3994Y-2.1574
X6.3994Y-2.2574
X6.3994Y-2.3574
X6.46Y-1.205
X6.46Y-1.305
X6.46Y-1.405
X6.46Y-1.505
X6.46Y-1.605
X6.46Y-1.705
X6.46Y-1.805
X6.46Y-1.905
X6.46Y-2.005
X6.46Y-2.105
X6.46Y-2.205
X6.46Y-2.305
T4
G00X6.138Y-2.5994
M15
G01X6.1222Y-2.5994
M16
G05
G00X6.1222Y-2.7105
M15
G01X6.138Y-2.7105
M16
G05
G00X6.1656Y-2.5294
M15
G01X6.1813Y-2.5294
M16
G05
G00X6.1813Y-2.7806
M15
G01X6.1656Y-2.7806
M16
G05
G00X6.323Y-2.5294
M15
G01X6.3388Y-2.5294
M16
G05
G00X6.3388Y-2.7806
M15
G01X6.323Y-2.7806
M16
G05
G00X6.4411Y-2.5294
M15
G01X6.4569Y-2.5294
M16
G05
G00X6.4569Y-2.7806
M15
G01X6.4411Y-2.7806
M16
G05
T0
M30
