%TF.GenerationSoftware,KiCad,Pcbnew,5.1.5+dfsg1-2build2*%
%TF.CreationDate,2020-09-11T22:42:26-05:00*%
%TF.ProjectId,keaboard_rev1,6b656162-6f61-4726-945f-726576312e6b,rev?*%
%TF.SameCoordinates,Original*%
%TF.FileFunction,Soldermask,Top*%
%TF.FilePolarity,Negative*%
%FSLAX46Y46*%
G04 Gerber Fmt 4.6, Leading zero omitted, Abs format (unit mm)*
G04 Created by KiCad (PCBNEW 5.1.5+dfsg1-2build2) date 2020-09-11 22:42:26*
%MOMM*%
%LPD*%
G04 APERTURE LIST*
%ADD10R,0.900000X1.100000*%
%ADD11R,1.600000X0.800000*%
%ADD12C,1.000000*%
%ADD13C,1.497000*%
%ADD14C,2.300000*%
%ADD15R,2.650000X2.600000*%
%ADD16C,3.100000*%
%ADD17C,4.087800*%
%ADD18C,1.801800*%
%ADD19C,0.100000*%
%ADD20R,1.500000X1.300000*%
%ADD21O,2.100000X1.700000*%
%ADD22C,0.900000*%
%ADD23C,1.852600*%
%ADD24R,1.750000X1.150000*%
G04 APERTURE END LIST*
D10*
%TO.C,SW_PWR1*%
X169088000Y-105951000D03*
X169088000Y-113251000D03*
X171018000Y-105951000D03*
X171018000Y-113251000D03*
D11*
X168303000Y-107351000D03*
X168303000Y-111851000D03*
X168303000Y-108851000D03*
D12*
X170053000Y-108101000D03*
X170053000Y-111101000D03*
%TD*%
D13*
%TO.C,BAT1*%
X157353000Y-106934001D03*
X157353000Y-104934000D03*
X157353000Y-102933999D03*
%TD*%
D14*
%TO.C,REF\002A\002A*%
X145552000Y-82169000D03*
%TD*%
%TO.C,REF\002A\002A*%
X145552000Y-120396000D03*
%TD*%
%TO.C,REF\002A\002A*%
X97917000Y-77089000D03*
%TD*%
%TO.C,REF\002A\002A*%
X97917000Y-115189000D03*
%TD*%
%TO.C,REF\002A\002A*%
X50302000Y-122769000D03*
%TD*%
%TO.C,REF\002A\002A*%
X50292000Y-84669000D03*
%TD*%
D15*
%TO.C,K17*%
X110677000Y-65024000D03*
D16*
X114427000Y-65024000D03*
X120777000Y-67564000D03*
D17*
X116967000Y-70104000D03*
D18*
X111887000Y-70104000D03*
X122047000Y-70104000D03*
D15*
X124527000Y-67564000D03*
D16*
X119497000Y-65024000D03*
X113147000Y-67564000D03*
%TD*%
D19*
%TO.C,D25*%
G36*
X156856022Y-147519270D02*
G01*
X155446483Y-147006240D01*
X155891110Y-145784640D01*
X157300649Y-146297670D01*
X156856022Y-147519270D01*
G37*
G36*
X158018890Y-144324316D02*
G01*
X156609351Y-143811286D01*
X157053978Y-142589686D01*
X158463517Y-143102716D01*
X158018890Y-144324316D01*
G37*
%TD*%
%TO.C,D24*%
G36*
X163371505Y-129618125D02*
G01*
X161961966Y-129105095D01*
X162406593Y-127883495D01*
X163816132Y-128396525D01*
X163371505Y-129618125D01*
G37*
G36*
X164534373Y-126423171D02*
G01*
X163124834Y-125910141D01*
X163569461Y-124688541D01*
X164979000Y-125201571D01*
X164534373Y-126423171D01*
G37*
%TD*%
D20*
%TO.C,D23*%
X143517000Y-116944000D03*
X143517000Y-113544000D03*
%TD*%
%TO.C,D22*%
X143517000Y-97894000D03*
X143517000Y-94494000D03*
%TD*%
%TO.C,D21*%
X143517000Y-78844000D03*
X143517000Y-75444000D03*
%TD*%
D19*
%TO.C,D20*%
G36*
X130891742Y-138944306D02*
G01*
X129414531Y-138683834D01*
X129640274Y-137403584D01*
X131117485Y-137664056D01*
X130891742Y-138944306D01*
G37*
G36*
X131482146Y-135595960D02*
G01*
X130004935Y-135335488D01*
X130230678Y-134055238D01*
X131707889Y-134315710D01*
X131482146Y-135595960D01*
G37*
%TD*%
D20*
%TO.C,D19*%
X124467000Y-114404000D03*
X124467000Y-111004000D03*
%TD*%
%TO.C,D18*%
X124467000Y-95354000D03*
X124467000Y-91954000D03*
%TD*%
%TO.C,D17*%
X124467000Y-76304000D03*
X124467000Y-72904000D03*
%TD*%
%TO.C,D16*%
X105417000Y-130914000D03*
X105417000Y-127514000D03*
%TD*%
%TO.C,D15*%
X105417000Y-111864000D03*
X105417000Y-108464000D03*
%TD*%
%TO.C,D14*%
X105417000Y-92814000D03*
X105417000Y-89414000D03*
%TD*%
%TO.C,D13*%
X105417000Y-73764000D03*
X105417000Y-70364000D03*
%TD*%
%TO.C,D12*%
X86367000Y-133454000D03*
X86367000Y-130054000D03*
%TD*%
%TO.C,D11*%
X86367000Y-114404000D03*
X86367000Y-111004000D03*
%TD*%
%TO.C,D10*%
X86367000Y-95354000D03*
X86367000Y-91954000D03*
%TD*%
%TO.C,D09*%
X86367000Y-76304000D03*
X86367000Y-72904000D03*
%TD*%
%TO.C,D08*%
X67317000Y-135994000D03*
X67317000Y-132594000D03*
%TD*%
%TO.C,D07*%
X67317000Y-116944000D03*
X67317000Y-113544000D03*
%TD*%
%TO.C,D06*%
X67317000Y-97894000D03*
X67317000Y-94494000D03*
%TD*%
%TO.C,D05*%
X67317000Y-78844000D03*
X67317000Y-75444000D03*
%TD*%
%TO.C,D04*%
X48267000Y-138494000D03*
X48267000Y-135094000D03*
%TD*%
%TO.C,D03*%
X48267000Y-119444000D03*
X48267000Y-116044000D03*
%TD*%
%TO.C,D02*%
X48267000Y-100394000D03*
X48267000Y-96994000D03*
%TD*%
%TO.C,D01*%
X48267000Y-77944000D03*
X48267000Y-81344000D03*
%TD*%
D21*
%TO.C,TRRS1*%
X165504000Y-94853000D03*
D22*
X170104000Y-97153000D03*
D21*
X160404000Y-99453000D03*
D22*
X163104000Y-97153000D03*
D21*
X168504000Y-94853000D03*
X161504000Y-94853000D03*
X165504000Y-101503000D03*
D22*
X170104000Y-99203000D03*
X163104000Y-99203000D03*
D21*
X168504000Y-101503000D03*
X161504000Y-101503000D03*
X160404000Y-96903000D03*
%TD*%
D15*
%TO.C,K05*%
X53527000Y-67564000D03*
D16*
X57277000Y-67564000D03*
X63627000Y-70104000D03*
D17*
X59817000Y-72644000D03*
D18*
X54737000Y-72644000D03*
X64897000Y-72644000D03*
D15*
X67377000Y-70104000D03*
D16*
X62347000Y-67564000D03*
X55997000Y-70104000D03*
%TD*%
D15*
%TO.C,K01*%
X34477000Y-70064000D03*
D16*
X38227000Y-70064000D03*
X44577000Y-72604000D03*
D17*
X40767000Y-75144000D03*
D18*
X35687000Y-75144000D03*
X45847000Y-75144000D03*
D15*
X48327000Y-72604000D03*
D16*
X43297000Y-70064000D03*
X36947000Y-72604000D03*
%TD*%
D19*
%TO.C,K25*%
G36*
X148962911Y-130567341D02*
G01*
X148073659Y-133010542D01*
X145583473Y-132104189D01*
X146472725Y-129660988D01*
X148962911Y-130567341D01*
G37*
D16*
X150797039Y-132618340D03*
X155895356Y-137176987D03*
D17*
X151446396Y-138260710D03*
D18*
X146672757Y-136523248D03*
X156220035Y-139998172D03*
D19*
G36*
X161108922Y-137691139D02*
G01*
X160219670Y-140134340D01*
X157729484Y-139227987D01*
X158618736Y-136784786D01*
X161108922Y-137691139D01*
G37*
D16*
X155561281Y-134352382D03*
X148725501Y-134567374D03*
%TD*%
D19*
%TO.C,K24*%
G36*
X155478394Y-112666197D02*
G01*
X154589142Y-115109398D01*
X152098956Y-114203045D01*
X152988208Y-111759844D01*
X155478394Y-112666197D01*
G37*
D16*
X157312522Y-114717196D03*
X162410839Y-119275843D03*
D17*
X157961879Y-120359566D03*
D18*
X153188240Y-118622104D03*
X162735518Y-122097028D03*
D19*
G36*
X167624405Y-119789995D02*
G01*
X166735153Y-122233196D01*
X164244967Y-121326843D01*
X165134219Y-118883642D01*
X167624405Y-119789995D01*
G37*
D16*
X162076764Y-116451238D03*
X155240984Y-116666230D03*
%TD*%
D15*
%TO.C,K23*%
X129727000Y-105664000D03*
D16*
X133477000Y-105664000D03*
X139827000Y-108204000D03*
D17*
X136017000Y-110744000D03*
D18*
X130937000Y-110744000D03*
X141097000Y-110744000D03*
D15*
X143577000Y-108204000D03*
D16*
X138547000Y-105664000D03*
X132197000Y-108204000D03*
%TD*%
D15*
%TO.C,K22*%
X129727000Y-86614000D03*
D16*
X133477000Y-86614000D03*
X139827000Y-89154000D03*
D17*
X136017000Y-91694000D03*
D18*
X130937000Y-91694000D03*
X141097000Y-91694000D03*
D15*
X143577000Y-89154000D03*
D16*
X138547000Y-86614000D03*
X132197000Y-89154000D03*
%TD*%
D15*
%TO.C,K21*%
X129727000Y-67564000D03*
D16*
X133477000Y-67564000D03*
X139827000Y-70104000D03*
D17*
X136017000Y-72644000D03*
D18*
X130937000Y-72644000D03*
X141097000Y-72644000D03*
D15*
X143577000Y-70104000D03*
D16*
X138547000Y-67564000D03*
X132197000Y-70104000D03*
%TD*%
D19*
%TO.C,K20*%
G36*
X120174874Y-123620539D02*
G01*
X119723389Y-126181039D01*
X117113648Y-125720871D01*
X117565133Y-123160371D01*
X120174874Y-123620539D01*
G37*
D16*
X122337290Y-125321885D03*
X128149753Y-128925963D03*
D17*
X123956569Y-130765775D03*
D18*
X118953746Y-129883642D03*
X128959392Y-131647908D03*
D19*
G36*
X133373395Y-128526978D02*
G01*
X132921910Y-131087478D01*
X130312169Y-130627310D01*
X130763654Y-128066810D01*
X133373395Y-128526978D01*
G37*
D16*
X127330265Y-126202282D03*
X120635670Y-127601027D03*
%TD*%
D15*
%TO.C,K19*%
X110677000Y-103124000D03*
D16*
X114427000Y-103124000D03*
X120777000Y-105664000D03*
D17*
X116967000Y-108204000D03*
D18*
X111887000Y-108204000D03*
X122047000Y-108204000D03*
D15*
X124527000Y-105664000D03*
D16*
X119497000Y-103124000D03*
X113147000Y-105664000D03*
%TD*%
D15*
%TO.C,K18*%
X110677000Y-84074000D03*
D16*
X114427000Y-84074000D03*
X120777000Y-86614000D03*
D17*
X116967000Y-89154000D03*
D18*
X111887000Y-89154000D03*
X122047000Y-89154000D03*
D15*
X124527000Y-86614000D03*
D16*
X119497000Y-84074000D03*
X113147000Y-86614000D03*
%TD*%
D15*
%TO.C,K16*%
X91627000Y-119634000D03*
D16*
X95377000Y-119634000D03*
X101727000Y-122174000D03*
D17*
X97917000Y-124714000D03*
D18*
X92837000Y-124714000D03*
X102997000Y-124714000D03*
D15*
X105477000Y-122174000D03*
D16*
X100447000Y-119634000D03*
X94097000Y-122174000D03*
%TD*%
D15*
%TO.C,K15*%
X91627000Y-100584000D03*
D16*
X95377000Y-100584000D03*
X101727000Y-103124000D03*
D17*
X97917000Y-105664000D03*
D18*
X92837000Y-105664000D03*
X102997000Y-105664000D03*
D15*
X105477000Y-103124000D03*
D16*
X100447000Y-100584000D03*
X94097000Y-103124000D03*
%TD*%
D15*
%TO.C,K14*%
X91627000Y-81534000D03*
D16*
X95377000Y-81534000D03*
X101727000Y-84074000D03*
D17*
X97917000Y-86614000D03*
D18*
X92837000Y-86614000D03*
X102997000Y-86614000D03*
D15*
X105477000Y-84074000D03*
D16*
X100447000Y-81534000D03*
X94097000Y-84074000D03*
%TD*%
D15*
%TO.C,K13*%
X91627000Y-62484000D03*
D16*
X95377000Y-62484000D03*
X101727000Y-65024000D03*
D17*
X97917000Y-67564000D03*
D18*
X92837000Y-67564000D03*
X102997000Y-67564000D03*
D15*
X105477000Y-65024000D03*
D16*
X100447000Y-62484000D03*
X94097000Y-65024000D03*
%TD*%
D15*
%TO.C,K12*%
X72577000Y-122174000D03*
D16*
X76327000Y-122174000D03*
X82677000Y-124714000D03*
D17*
X78867000Y-127254000D03*
D18*
X73787000Y-127254000D03*
X83947000Y-127254000D03*
D15*
X86427000Y-124714000D03*
D16*
X81397000Y-122174000D03*
X75047000Y-124714000D03*
%TD*%
D15*
%TO.C,K11*%
X72577000Y-103124000D03*
D16*
X76327000Y-103124000D03*
X82677000Y-105664000D03*
D17*
X78867000Y-108204000D03*
D18*
X73787000Y-108204000D03*
X83947000Y-108204000D03*
D15*
X86427000Y-105664000D03*
D16*
X81397000Y-103124000D03*
X75047000Y-105664000D03*
%TD*%
D15*
%TO.C,K10*%
X72577000Y-84074000D03*
D16*
X76327000Y-84074000D03*
X82677000Y-86614000D03*
D17*
X78867000Y-89154000D03*
D18*
X73787000Y-89154000D03*
X83947000Y-89154000D03*
D15*
X86427000Y-86614000D03*
D16*
X81397000Y-84074000D03*
X75047000Y-86614000D03*
%TD*%
D15*
%TO.C,K09*%
X72577000Y-65024000D03*
D16*
X76327000Y-65024000D03*
X82677000Y-67564000D03*
D17*
X78867000Y-70104000D03*
D18*
X73787000Y-70104000D03*
X83947000Y-70104000D03*
D15*
X86427000Y-67564000D03*
D16*
X81397000Y-65024000D03*
X75047000Y-67564000D03*
%TD*%
D15*
%TO.C,K08*%
X53527000Y-124714000D03*
D16*
X57277000Y-124714000D03*
X63627000Y-127254000D03*
D17*
X59817000Y-129794000D03*
D18*
X54737000Y-129794000D03*
X64897000Y-129794000D03*
D15*
X67377000Y-127254000D03*
D16*
X62347000Y-124714000D03*
X55997000Y-127254000D03*
%TD*%
D15*
%TO.C,K07*%
X53527000Y-105664000D03*
D16*
X57277000Y-105664000D03*
X63627000Y-108204000D03*
D17*
X59817000Y-110744000D03*
D18*
X54737000Y-110744000D03*
X64897000Y-110744000D03*
D15*
X67377000Y-108204000D03*
D16*
X62347000Y-105664000D03*
X55997000Y-108204000D03*
%TD*%
D15*
%TO.C,K06*%
X53527000Y-86614000D03*
D16*
X57277000Y-86614000D03*
X63627000Y-89154000D03*
D17*
X59817000Y-91694000D03*
D18*
X54737000Y-91694000D03*
X64897000Y-91694000D03*
D15*
X67377000Y-89154000D03*
D16*
X62347000Y-86614000D03*
X55997000Y-89154000D03*
%TD*%
D15*
%TO.C,K04*%
X34477000Y-127214000D03*
D16*
X38227000Y-127214000D03*
X44577000Y-129754000D03*
D17*
X40767000Y-132294000D03*
D18*
X35687000Y-132294000D03*
X45847000Y-132294000D03*
D15*
X48327000Y-129754000D03*
D16*
X43297000Y-127214000D03*
X36947000Y-129754000D03*
%TD*%
D15*
%TO.C,K03*%
X34477000Y-108164000D03*
D16*
X38227000Y-108164000D03*
X44577000Y-110704000D03*
D17*
X40767000Y-113244000D03*
D18*
X35687000Y-113244000D03*
X45847000Y-113244000D03*
D15*
X48327000Y-110704000D03*
D16*
X43297000Y-108164000D03*
X36947000Y-110704000D03*
%TD*%
D15*
%TO.C,K02*%
X34477000Y-89114000D03*
D16*
X38227000Y-89114000D03*
X44577000Y-91654000D03*
D17*
X40767000Y-94194000D03*
D18*
X35687000Y-94194000D03*
X45847000Y-94194000D03*
D15*
X48327000Y-91654000D03*
D16*
X43297000Y-89114000D03*
X36947000Y-91654000D03*
%TD*%
D23*
%TO.C,U1*%
X166878000Y-60706000D03*
X151638000Y-88646000D03*
X166878000Y-63246000D03*
X166878000Y-65786000D03*
X166878000Y-68326000D03*
X166878000Y-70866000D03*
X166878000Y-73406000D03*
X166878000Y-75946000D03*
X166878000Y-78486000D03*
X166878000Y-81026000D03*
X166878000Y-83566000D03*
X166878000Y-86106000D03*
X166878000Y-88646000D03*
X151638000Y-86106000D03*
X151638000Y-83566000D03*
X151638000Y-81026000D03*
X151638000Y-78486000D03*
X151638000Y-75946000D03*
X151638000Y-73406000D03*
X151638000Y-70866000D03*
X151638000Y-68326000D03*
X151638000Y-65786000D03*
X151638000Y-63246000D03*
X151638000Y-60706000D03*
X164978000Y-79766000D03*
X164978000Y-82306000D03*
X164978000Y-77226000D03*
X164978000Y-61986000D03*
X164978000Y-74686000D03*
X164978000Y-87386000D03*
X164978000Y-84846000D03*
X149738000Y-82306000D03*
X149738000Y-79766000D03*
X149738000Y-77226000D03*
X149738000Y-89926000D03*
X149738000Y-87386000D03*
X149738000Y-84846000D03*
X164978000Y-69606000D03*
X164978000Y-72146000D03*
X164978000Y-67066000D03*
X149738000Y-61986000D03*
X164978000Y-89926000D03*
X149738000Y-64526000D03*
X149738000Y-67066000D03*
X149738000Y-69606000D03*
X149738000Y-74686000D03*
X149738000Y-72146000D03*
X164978000Y-64526000D03*
%TD*%
D12*
%TO.C,SW_RST1*%
X141485000Y-58001000D03*
X145535000Y-58001000D03*
D24*
X141585000Y-58076000D03*
X145435000Y-58076000D03*
X141585000Y-59526000D03*
X145435000Y-59526000D03*
%TD*%
M02*
