%TF.GenerationSoftware,KiCad,Pcbnew,5.1.6-c6e7f7d~87~ubuntu20.04.1*%
%TF.CreationDate,2020-08-25T07:17:55-05:00*%
%TF.ProjectId,keaboard_rev1,6b656162-6f61-4726-945f-726576312e6b,rev?*%
%TF.SameCoordinates,Original*%
%TF.FileFunction,Paste,Top*%
%TF.FilePolarity,Positive*%
%FSLAX46Y46*%
G04 Gerber Fmt 4.6, Leading zero omitted, Abs format (unit mm)*
G04 Created by KiCad (PCBNEW 5.1.6-c6e7f7d~87~ubuntu20.04.1) date 2020-08-25 07:17:55*
%MOMM*%
%LPD*%
G01*
G04 APERTURE LIST*
%ADD10R,0.800000X1.000000*%
%ADD11R,1.500000X0.700000*%
%ADD12R,2.550000X2.500000*%
%ADD13R,1.650000X1.050000*%
%ADD14R,1.200000X1.400000*%
%ADD15C,0.100000*%
G04 APERTURE END LIST*
D10*
%TO.C,SW_PWR1*%
X164389000Y-73058000D03*
X164389000Y-80358000D03*
X166319000Y-73058000D03*
X166319000Y-80358000D03*
D11*
X163604000Y-74458000D03*
X163604000Y-78958000D03*
X163604000Y-75958000D03*
%TD*%
D12*
%TO.C,K23*%
X141291000Y-77597000D03*
X127441000Y-75057000D03*
%TD*%
D13*
%TO.C,SW_RST1*%
X143276000Y-29300000D03*
X139426000Y-29300000D03*
X143276000Y-27850000D03*
X139426000Y-27850000D03*
%TD*%
D12*
%TO.C,K22*%
X127441000Y-56007000D03*
X141291000Y-58547000D03*
%TD*%
%TO.C,K21*%
X141291000Y-39497000D03*
X127441000Y-36957000D03*
%TD*%
%TO.C,K01*%
X32191000Y-36957000D03*
X46041000Y-39497000D03*
%TD*%
D14*
%TO.C,D01*%
X40181000Y-45847000D03*
X36781000Y-45847000D03*
%TD*%
%TO.C,D02*%
X40181000Y-64897000D03*
X36781000Y-64897000D03*
%TD*%
%TO.C,D03*%
X40181000Y-83947000D03*
X36781000Y-83947000D03*
%TD*%
%TO.C,D04*%
X40181000Y-102997000D03*
X36781000Y-102997000D03*
%TD*%
%TO.C,D05*%
X59231000Y-45847000D03*
X55831000Y-45847000D03*
%TD*%
%TO.C,D06*%
X55831000Y-64897000D03*
X59231000Y-64897000D03*
%TD*%
%TO.C,D07*%
X59231000Y-83947000D03*
X55831000Y-83947000D03*
%TD*%
%TO.C,D08*%
X59231000Y-102997000D03*
X55831000Y-102997000D03*
%TD*%
%TO.C,D09*%
X74881000Y-43347000D03*
X78281000Y-43347000D03*
%TD*%
%TO.C,D10*%
X78281000Y-62397000D03*
X74881000Y-62397000D03*
%TD*%
%TO.C,D11*%
X74881000Y-81447000D03*
X78281000Y-81447000D03*
%TD*%
%TO.C,D12*%
X74881000Y-100497000D03*
X78281000Y-100497000D03*
%TD*%
%TO.C,D13*%
X97331000Y-40847000D03*
X93931000Y-40847000D03*
%TD*%
%TO.C,D14*%
X93931000Y-59897000D03*
X97331000Y-59897000D03*
%TD*%
%TO.C,D15*%
X93931000Y-78947000D03*
X97331000Y-78947000D03*
%TD*%
%TO.C,D16*%
X97331000Y-97997000D03*
X93931000Y-97997000D03*
%TD*%
%TO.C,D17*%
X116381000Y-43347000D03*
X112981000Y-43347000D03*
%TD*%
%TO.C,D18*%
X116381000Y-62397000D03*
X112981000Y-62397000D03*
%TD*%
%TO.C,D19*%
X112981000Y-81447000D03*
X116381000Y-81447000D03*
%TD*%
D15*
%TO.C,D20*%
G36*
X122702792Y-100413651D02*
G01*
X122459685Y-101792382D01*
X121277916Y-101584005D01*
X121521023Y-100205274D01*
X122702792Y-100413651D01*
G37*
G36*
X126051138Y-101004055D02*
G01*
X125808031Y-102382786D01*
X124626262Y-102174409D01*
X124869369Y-100795678D01*
X126051138Y-101004055D01*
G37*
%TD*%
D14*
%TO.C,D21*%
X132031000Y-45847000D03*
X135431000Y-45847000D03*
%TD*%
%TO.C,D22*%
X132031000Y-64897000D03*
X135431000Y-64897000D03*
%TD*%
%TO.C,D23*%
X132031000Y-83947000D03*
X135431000Y-83947000D03*
%TD*%
D15*
%TO.C,D24*%
G36*
X151286546Y-89505287D02*
G01*
X150807717Y-90820857D01*
X149680086Y-90410433D01*
X150158915Y-89094863D01*
X151286546Y-89505287D01*
G37*
G36*
X154481500Y-90668155D02*
G01*
X154002671Y-91983725D01*
X152875040Y-91573301D01*
X153353869Y-90257731D01*
X154481500Y-90668155D01*
G37*
%TD*%
%TO.C,D25*%
G36*
X148358948Y-107489728D02*
G01*
X147880119Y-108805298D01*
X146752488Y-108394874D01*
X147231317Y-107079304D01*
X148358948Y-107489728D01*
G37*
G36*
X145163994Y-106326860D02*
G01*
X144685165Y-107642430D01*
X143557534Y-107232006D01*
X144036363Y-105916436D01*
X145163994Y-106326860D01*
G37*
%TD*%
D12*
%TO.C,K02*%
X46041000Y-58547000D03*
X32191000Y-56007000D03*
%TD*%
%TO.C,K03*%
X46041000Y-77597000D03*
X32191000Y-75057000D03*
%TD*%
%TO.C,K04*%
X46041000Y-96647000D03*
X32191000Y-94107000D03*
%TD*%
%TO.C,K05*%
X65091000Y-39497000D03*
X51241000Y-36957000D03*
%TD*%
%TO.C,K06*%
X51241000Y-56007000D03*
X65091000Y-58547000D03*
%TD*%
%TO.C,K07*%
X51241000Y-75057000D03*
X65091000Y-77597000D03*
%TD*%
%TO.C,K08*%
X51241000Y-94107000D03*
X65091000Y-96647000D03*
%TD*%
%TO.C,K09*%
X70291000Y-34457000D03*
X84141000Y-36997000D03*
%TD*%
%TO.C,K10*%
X70291000Y-53507000D03*
X84141000Y-56047000D03*
%TD*%
%TO.C,K11*%
X70291000Y-72557000D03*
X84141000Y-75097000D03*
%TD*%
%TO.C,K12*%
X84141000Y-94147000D03*
X70291000Y-91607000D03*
%TD*%
%TO.C,K13*%
X89341000Y-31957000D03*
X103191000Y-34497000D03*
%TD*%
%TO.C,K14*%
X103191000Y-53547000D03*
X89341000Y-51007000D03*
%TD*%
%TO.C,K15*%
X103191000Y-72597000D03*
X89341000Y-70057000D03*
%TD*%
%TO.C,K16*%
X89341000Y-89107000D03*
X103191000Y-91647000D03*
%TD*%
%TO.C,K17*%
X122241000Y-36997000D03*
X108391000Y-34457000D03*
%TD*%
%TO.C,K18*%
X108391000Y-53507000D03*
X122241000Y-56047000D03*
%TD*%
%TO.C,K19*%
X122241000Y-75097000D03*
X108391000Y-72557000D03*
%TD*%
D15*
%TO.C,K20*%
G36*
X120486509Y-90437234D02*
G01*
X120052389Y-92899253D01*
X117541129Y-92456450D01*
X117975249Y-89994431D01*
X120486509Y-90437234D01*
G37*
G36*
X133685030Y-95343673D02*
G01*
X133250910Y-97805692D01*
X130739650Y-97362889D01*
X131173770Y-94900870D01*
X133685030Y-95343673D01*
G37*
%TD*%
%TO.C,K24*%
G36*
X150841017Y-79297290D02*
G01*
X149985967Y-81646521D01*
X147589751Y-80774370D01*
X148444801Y-78425139D01*
X150841017Y-79297290D01*
G37*
G36*
X162987028Y-86421088D02*
G01*
X162131978Y-88770319D01*
X159735762Y-87898168D01*
X160590812Y-85548937D01*
X162987028Y-86421088D01*
G37*
%TD*%
%TO.C,K25*%
G36*
X156864476Y-103242661D02*
G01*
X156009426Y-105591892D01*
X153613210Y-104719741D01*
X154468260Y-102370510D01*
X156864476Y-103242661D01*
G37*
G36*
X144718465Y-96118863D02*
G01*
X143863415Y-98468094D01*
X141467199Y-97595943D01*
X142322249Y-95246712D01*
X144718465Y-96118863D01*
G37*
%TD*%
M02*
