%TF.GenerationSoftware,KiCad,Pcbnew,5.1.5+dfsg1-2build2*%
%TF.CreationDate,2020-09-09T08:01:59-05:00*%
%TF.ProjectId,keaboard_rev1,6b656162-6f61-4726-945f-726576312e6b,rev?*%
%TF.SameCoordinates,Original*%
%TF.FileFunction,Copper,L1,Top*%
%TF.FilePolarity,Positive*%
%FSLAX46Y46*%
G04 Gerber Fmt 4.6, Leading zero omitted, Abs format (unit mm)*
G04 Created by KiCad (PCBNEW 5.1.5+dfsg1-2build2) date 2020-09-09 08:01:59*
%MOMM*%
%LPD*%
G04 APERTURE LIST*
%TA.AperFunction,SMDPad,CuDef*%
%ADD10R,2.550000X2.500000*%
%TD*%
%TA.AperFunction,SMDPad,CuDef*%
%ADD11C,0.100000*%
%TD*%
%TA.AperFunction,SMDPad,CuDef*%
%ADD12R,1.400000X1.200000*%
%TD*%
%TA.AperFunction,ComponentPad*%
%ADD13O,2.000000X1.600000*%
%TD*%
%TA.AperFunction,ComponentPad*%
%ADD14C,1.397000*%
%TD*%
%TA.AperFunction,ComponentPad*%
%ADD15C,1.752600*%
%TD*%
%TA.AperFunction,ComponentPad*%
%ADD16C,0.900000*%
%TD*%
%TA.AperFunction,SMDPad,CuDef*%
%ADD17R,1.650000X1.050000*%
%TD*%
%TA.AperFunction,SMDPad,CuDef*%
%ADD18R,0.800000X1.000000*%
%TD*%
%TA.AperFunction,SMDPad,CuDef*%
%ADD19R,1.500000X0.700000*%
%TD*%
%TA.AperFunction,ViaPad*%
%ADD20C,0.800000*%
%TD*%
%TA.AperFunction,Conductor*%
%ADD21C,0.254000*%
%TD*%
%TA.AperFunction,Conductor*%
%ADD22C,0.381000*%
%TD*%
G04 APERTURE END LIST*
D10*
%TO.P,K17,1*%
%TO.N,COL5*%
X110677000Y-65024000D03*
%TO.P,K17,2*%
%TO.N,Net-(D17-Pad2)*%
X124527000Y-67564000D03*
%TD*%
%TA.AperFunction,SMDPad,CuDef*%
D11*
%TO.P,D25,1*%
%TO.N,ROW4*%
G36*
X156826139Y-147455185D02*
G01*
X155510569Y-146976356D01*
X155920993Y-145848725D01*
X157236563Y-146327554D01*
X156826139Y-147455185D01*
G37*
%TD.AperFunction*%
%TA.AperFunction,SMDPad,CuDef*%
%TO.P,D25,2*%
%TO.N,Net-(D25-Pad2)*%
G36*
X157989007Y-144260231D02*
G01*
X156673437Y-143781402D01*
X157083861Y-142653771D01*
X158399431Y-143132600D01*
X157989007Y-144260231D01*
G37*
%TD.AperFunction*%
%TD*%
%TA.AperFunction,SMDPad,CuDef*%
%TO.P,D24,1*%
%TO.N,ROW3*%
G36*
X163341622Y-129554040D02*
G01*
X162026052Y-129075211D01*
X162436476Y-127947580D01*
X163752046Y-128426409D01*
X163341622Y-129554040D01*
G37*
%TD.AperFunction*%
%TA.AperFunction,SMDPad,CuDef*%
%TO.P,D24,2*%
%TO.N,Net-(D24-Pad2)*%
G36*
X164504490Y-126359086D02*
G01*
X163188920Y-125880257D01*
X163599344Y-124752626D01*
X164914914Y-125231455D01*
X164504490Y-126359086D01*
G37*
%TD.AperFunction*%
%TD*%
D12*
%TO.P,D23,1*%
%TO.N,ROW3*%
X143517000Y-116944000D03*
%TO.P,D23,2*%
%TO.N,Net-(D23-Pad2)*%
X143517000Y-113544000D03*
%TD*%
%TO.P,D22,1*%
%TO.N,ROW2*%
X143517000Y-97894000D03*
%TO.P,D22,2*%
%TO.N,Net-(D22-Pad2)*%
X143517000Y-94494000D03*
%TD*%
%TO.P,D21,1*%
%TO.N,ROW1*%
X143517000Y-78844000D03*
%TO.P,D21,2*%
%TO.N,Net-(D21-Pad2)*%
X143517000Y-75444000D03*
%TD*%
%TA.AperFunction,SMDPad,CuDef*%
D11*
%TO.P,D20,1*%
%TO.N,ROW4*%
G36*
X130851185Y-138886383D02*
G01*
X129472454Y-138643276D01*
X129680831Y-137461507D01*
X131059562Y-137704614D01*
X130851185Y-138886383D01*
G37*
%TD.AperFunction*%
%TA.AperFunction,SMDPad,CuDef*%
%TO.P,D20,2*%
%TO.N,Net-(D20-Pad2)*%
G36*
X131441589Y-135538037D02*
G01*
X130062858Y-135294930D01*
X130271235Y-134113161D01*
X131649966Y-134356268D01*
X131441589Y-135538037D01*
G37*
%TD.AperFunction*%
%TD*%
D12*
%TO.P,D19,1*%
%TO.N,ROW3*%
X124467000Y-114404000D03*
%TO.P,D19,2*%
%TO.N,Net-(D19-Pad2)*%
X124467000Y-111004000D03*
%TD*%
%TO.P,D18,1*%
%TO.N,ROW2*%
X124467000Y-95354000D03*
%TO.P,D18,2*%
%TO.N,Net-(D18-Pad2)*%
X124467000Y-91954000D03*
%TD*%
%TO.P,D17,1*%
%TO.N,ROW1*%
X124467000Y-76304000D03*
%TO.P,D17,2*%
%TO.N,Net-(D17-Pad2)*%
X124467000Y-72904000D03*
%TD*%
%TO.P,D16,1*%
%TO.N,ROW4*%
X105417000Y-130914000D03*
%TO.P,D16,2*%
%TO.N,Net-(D16-Pad2)*%
X105417000Y-127514000D03*
%TD*%
%TO.P,D15,1*%
%TO.N,ROW3*%
X105417000Y-111864000D03*
%TO.P,D15,2*%
%TO.N,Net-(D15-Pad2)*%
X105417000Y-108464000D03*
%TD*%
%TO.P,D14,1*%
%TO.N,ROW2*%
X105417000Y-92814000D03*
%TO.P,D14,2*%
%TO.N,Net-(D14-Pad2)*%
X105417000Y-89414000D03*
%TD*%
%TO.P,D13,1*%
%TO.N,ROW1*%
X105417000Y-73764000D03*
%TO.P,D13,2*%
%TO.N,Net-(D13-Pad2)*%
X105417000Y-70364000D03*
%TD*%
%TO.P,D12,1*%
%TO.N,ROW4*%
X86367000Y-133454000D03*
%TO.P,D12,2*%
%TO.N,Net-(D12-Pad2)*%
X86367000Y-130054000D03*
%TD*%
%TO.P,D11,1*%
%TO.N,ROW3*%
X86367000Y-114404000D03*
%TO.P,D11,2*%
%TO.N,Net-(D11-Pad2)*%
X86367000Y-111004000D03*
%TD*%
%TO.P,D10,1*%
%TO.N,ROW2*%
X86367000Y-95354000D03*
%TO.P,D10,2*%
%TO.N,Net-(D10-Pad2)*%
X86367000Y-91954000D03*
%TD*%
%TO.P,D09,1*%
%TO.N,ROW1*%
X86367000Y-76304000D03*
%TO.P,D09,2*%
%TO.N,Net-(D09-Pad2)*%
X86367000Y-72904000D03*
%TD*%
%TO.P,D08,1*%
%TO.N,ROW4*%
X67317000Y-135994000D03*
%TO.P,D08,2*%
%TO.N,Net-(D08-Pad2)*%
X67317000Y-132594000D03*
%TD*%
%TO.P,D07,1*%
%TO.N,ROW3*%
X67317000Y-116944000D03*
%TO.P,D07,2*%
%TO.N,Net-(D07-Pad2)*%
X67317000Y-113544000D03*
%TD*%
%TO.P,D06,1*%
%TO.N,ROW2*%
X67317000Y-97894000D03*
%TO.P,D06,2*%
%TO.N,Net-(D06-Pad2)*%
X67317000Y-94494000D03*
%TD*%
%TO.P,D05,1*%
%TO.N,ROW1*%
X67317000Y-78844000D03*
%TO.P,D05,2*%
%TO.N,Net-(D05-Pad2)*%
X67317000Y-75444000D03*
%TD*%
%TO.P,D04,1*%
%TO.N,ROW4*%
X48267000Y-138494000D03*
%TO.P,D04,2*%
%TO.N,Net-(D04-Pad2)*%
X48267000Y-135094000D03*
%TD*%
%TO.P,D03,1*%
%TO.N,ROW3*%
X48267000Y-119444000D03*
%TO.P,D03,2*%
%TO.N,Net-(D03-Pad2)*%
X48267000Y-116044000D03*
%TD*%
%TO.P,D02,1*%
%TO.N,ROW2*%
X48267000Y-100394000D03*
%TO.P,D02,2*%
%TO.N,Net-(D02-Pad2)*%
X48267000Y-96994000D03*
%TD*%
%TO.P,D01,2*%
%TO.N,Net-(D01-Pad2)*%
X48267000Y-77944000D03*
%TO.P,D01,1*%
%TO.N,ROW1*%
X48267000Y-81344000D03*
%TD*%
D13*
%TO.P,TRRS1,R1*%
%TO.N,Net-(TRRS1-PadR1)*%
X165504000Y-94853000D03*
%TO.P,TRRS1,S*%
%TO.N,GND*%
X160404000Y-99453000D03*
%TO.P,TRRS1,R2*%
%TO.N,VCC*%
X168504000Y-94853000D03*
%TO.P,TRRS1,T*%
%TO.N,SOFT_SERIAL_PIN*%
X161504000Y-94853000D03*
%TO.P,TRRS1,R1*%
%TO.N,Net-(TRRS1-PadR1)*%
X165504000Y-101503000D03*
%TO.P,TRRS1,R2*%
%TO.N,VCC*%
X168504000Y-101503000D03*
%TO.P,TRRS1,T*%
%TO.N,SOFT_SERIAL_PIN*%
X161504000Y-101503000D03*
%TO.P,TRRS1,S*%
%TO.N,GND*%
X160404000Y-96903000D03*
%TD*%
D10*
%TO.P,K05,1*%
%TO.N,COL2*%
X53527000Y-67564000D03*
%TO.P,K05,2*%
%TO.N,Net-(D05-Pad2)*%
X67377000Y-70104000D03*
%TD*%
%TO.P,K01,1*%
%TO.N,COL1*%
X34477000Y-70064000D03*
%TO.P,K01,2*%
%TO.N,Net-(D01-Pad2)*%
X48327000Y-72604000D03*
%TD*%
%TA.AperFunction,SMDPad,CuDef*%
D11*
%TO.P,K25,1*%
%TO.N,COL7*%
G36*
X148898825Y-130597225D02*
G01*
X148043775Y-132946456D01*
X145647559Y-132074305D01*
X146502609Y-129725074D01*
X148898825Y-130597225D01*
G37*
%TD.AperFunction*%
%TA.AperFunction,SMDPad,CuDef*%
%TO.P,K25,2*%
%TO.N,Net-(D25-Pad2)*%
G36*
X161044836Y-137721023D02*
G01*
X160189786Y-140070254D01*
X157793570Y-139198103D01*
X158648620Y-136848872D01*
X161044836Y-137721023D01*
G37*
%TD.AperFunction*%
%TD*%
%TA.AperFunction,SMDPad,CuDef*%
%TO.P,K24,1*%
%TO.N,COL7*%
G36*
X155414308Y-112696081D02*
G01*
X154559258Y-115045312D01*
X152163042Y-114173161D01*
X153018092Y-111823930D01*
X155414308Y-112696081D01*
G37*
%TD.AperFunction*%
%TA.AperFunction,SMDPad,CuDef*%
%TO.P,K24,2*%
%TO.N,Net-(D24-Pad2)*%
G36*
X167560319Y-119819879D02*
G01*
X166705269Y-122169110D01*
X164309053Y-121296959D01*
X165164103Y-118947728D01*
X167560319Y-119819879D01*
G37*
%TD.AperFunction*%
%TD*%
D10*
%TO.P,K23,1*%
%TO.N,COL6*%
X129727000Y-105664000D03*
%TO.P,K23,2*%
%TO.N,Net-(D23-Pad2)*%
X143577000Y-108204000D03*
%TD*%
%TO.P,K22,1*%
%TO.N,COL6*%
X129727000Y-86614000D03*
%TO.P,K22,2*%
%TO.N,Net-(D22-Pad2)*%
X143577000Y-89154000D03*
%TD*%
%TO.P,K21,1*%
%TO.N,COL6*%
X129727000Y-67564000D03*
%TO.P,K21,2*%
%TO.N,Net-(D21-Pad2)*%
X143577000Y-70104000D03*
%TD*%
%TA.AperFunction,SMDPad,CuDef*%
D11*
%TO.P,K20,1*%
%TO.N,COL5*%
G36*
X120116951Y-123661097D02*
G01*
X119682831Y-126123116D01*
X117171571Y-125680313D01*
X117605691Y-123218294D01*
X120116951Y-123661097D01*
G37*
%TD.AperFunction*%
%TA.AperFunction,SMDPad,CuDef*%
%TO.P,K20,2*%
%TO.N,Net-(D20-Pad2)*%
G36*
X133315472Y-128567536D02*
G01*
X132881352Y-131029555D01*
X130370092Y-130586752D01*
X130804212Y-128124733D01*
X133315472Y-128567536D01*
G37*
%TD.AperFunction*%
%TD*%
D10*
%TO.P,K19,1*%
%TO.N,COL5*%
X110677000Y-103124000D03*
%TO.P,K19,2*%
%TO.N,Net-(D19-Pad2)*%
X124527000Y-105664000D03*
%TD*%
%TO.P,K18,1*%
%TO.N,COL5*%
X110677000Y-84074000D03*
%TO.P,K18,2*%
%TO.N,Net-(D18-Pad2)*%
X124527000Y-86614000D03*
%TD*%
%TO.P,K16,1*%
%TO.N,COL4*%
X91627000Y-119634000D03*
%TO.P,K16,2*%
%TO.N,Net-(D16-Pad2)*%
X105477000Y-122174000D03*
%TD*%
%TO.P,K15,1*%
%TO.N,COL4*%
X91627000Y-100584000D03*
%TO.P,K15,2*%
%TO.N,Net-(D15-Pad2)*%
X105477000Y-103124000D03*
%TD*%
%TO.P,K14,1*%
%TO.N,COL4*%
X91627000Y-81534000D03*
%TO.P,K14,2*%
%TO.N,Net-(D14-Pad2)*%
X105477000Y-84074000D03*
%TD*%
%TO.P,K13,1*%
%TO.N,COL4*%
X91627000Y-62484000D03*
%TO.P,K13,2*%
%TO.N,Net-(D13-Pad2)*%
X105477000Y-65024000D03*
%TD*%
%TO.P,K12,1*%
%TO.N,COL3*%
X72577000Y-122174000D03*
%TO.P,K12,2*%
%TO.N,Net-(D12-Pad2)*%
X86427000Y-124714000D03*
%TD*%
%TO.P,K11,1*%
%TO.N,COL3*%
X72577000Y-103124000D03*
%TO.P,K11,2*%
%TO.N,Net-(D11-Pad2)*%
X86427000Y-105664000D03*
%TD*%
%TO.P,K10,1*%
%TO.N,COL3*%
X72577000Y-84074000D03*
%TO.P,K10,2*%
%TO.N,Net-(D10-Pad2)*%
X86427000Y-86614000D03*
%TD*%
%TO.P,K09,1*%
%TO.N,COL3*%
X72577000Y-65024000D03*
%TO.P,K09,2*%
%TO.N,Net-(D09-Pad2)*%
X86427000Y-67564000D03*
%TD*%
%TO.P,K08,1*%
%TO.N,COL2*%
X53527000Y-124714000D03*
%TO.P,K08,2*%
%TO.N,Net-(D08-Pad2)*%
X67377000Y-127254000D03*
%TD*%
%TO.P,K07,1*%
%TO.N,COL2*%
X53527000Y-105664000D03*
%TO.P,K07,2*%
%TO.N,Net-(D07-Pad2)*%
X67377000Y-108204000D03*
%TD*%
%TO.P,K06,1*%
%TO.N,COL2*%
X53527000Y-86614000D03*
%TO.P,K06,2*%
%TO.N,Net-(D06-Pad2)*%
X67377000Y-89154000D03*
%TD*%
%TO.P,K04,1*%
%TO.N,COL1*%
X34477000Y-127214000D03*
%TO.P,K04,2*%
%TO.N,Net-(D04-Pad2)*%
X48327000Y-129754000D03*
%TD*%
%TO.P,K03,1*%
%TO.N,COL1*%
X34477000Y-108164000D03*
%TO.P,K03,2*%
%TO.N,Net-(D03-Pad2)*%
X48327000Y-110704000D03*
%TD*%
%TO.P,K02,1*%
%TO.N,COL1*%
X34477000Y-89114000D03*
%TO.P,K02,2*%
%TO.N,Net-(D02-Pad2)*%
X48327000Y-91654000D03*
%TD*%
D14*
%TO.P,BAT1,2*%
%TO.N,GND*%
X157353000Y-102933999D03*
%TO.P,BAT1,1*%
%TO.N,Net-(BAT1-Pad1)*%
X157353000Y-104934000D03*
%TO.P,BAT1,2*%
%TO.N,GND*%
X157353000Y-106934001D03*
%TD*%
D15*
%TO.P,U1,24*%
%TO.N,RAW*%
X166878000Y-60706000D03*
%TO.P,U1,12*%
%TO.N,ROW4*%
X151638000Y-88646000D03*
%TO.P,U1,23*%
%TO.N,GND*%
X166878000Y-63246000D03*
%TO.P,U1,22*%
%TO.N,RESET*%
X166878000Y-65786000D03*
%TO.P,U1,21*%
%TO.N,VCC*%
X166878000Y-68326000D03*
%TO.P,U1,20*%
%TO.N,Net-(U1-Pad20)*%
X166878000Y-70866000D03*
%TO.P,U1,19*%
%TO.N,COL1*%
X166878000Y-73406000D03*
%TO.P,U1,18*%
%TO.N,COL2*%
X166878000Y-75946000D03*
%TO.P,U1,17*%
%TO.N,COL3*%
X166878000Y-78486000D03*
%TO.P,U1,16*%
%TO.N,COL4*%
X166878000Y-81026000D03*
%TO.P,U1,15*%
%TO.N,COL5*%
X166878000Y-83566000D03*
%TO.P,U1,14*%
%TO.N,COL6*%
X166878000Y-86106000D03*
%TO.P,U1,13*%
%TO.N,COL7*%
X166878000Y-88646000D03*
%TO.P,U1,11*%
%TO.N,ROW3*%
X151638000Y-86106000D03*
%TO.P,U1,10*%
%TO.N,ROW2*%
X151638000Y-83566000D03*
%TO.P,U1,9*%
%TO.N,ROW1*%
X151638000Y-81026000D03*
%TO.P,U1,8*%
%TO.N,Net-(U1-Pad8)*%
X151638000Y-78486000D03*
%TO.P,U1,7*%
%TO.N,Net-(U1-Pad7)*%
X151638000Y-75946000D03*
%TO.P,U1,6*%
%TO.N,SOFT_SERIAL_PIN*%
X151638000Y-73406000D03*
%TO.P,U1,5*%
%TO.N,Net-(U1-Pad5)*%
X151638000Y-70866000D03*
%TO.P,U1,4*%
%TO.N,GND*%
X151638000Y-68326000D03*
%TO.P,U1,3*%
X151638000Y-65786000D03*
%TO.P,U1,2*%
%TO.N,Net-(U1-Pad2)*%
X151638000Y-63246000D03*
%TO.P,U1,1*%
%TO.N,Net-(U1-Pad1)*%
X151638000Y-60706000D03*
%TO.P,U1,8*%
%TO.N,Net-(U1-Pad8)*%
X164978000Y-79766000D03*
%TO.P,U1,9*%
%TO.N,ROW1*%
X164978000Y-82306000D03*
%TO.P,U1,7*%
%TO.N,Net-(U1-Pad7)*%
X164978000Y-77226000D03*
%TO.P,U1,1*%
%TO.N,Net-(U1-Pad1)*%
X164978000Y-61986000D03*
%TO.P,U1,6*%
%TO.N,SOFT_SERIAL_PIN*%
X164978000Y-74686000D03*
%TO.P,U1,11*%
%TO.N,ROW3*%
X164978000Y-87386000D03*
%TO.P,U1,10*%
%TO.N,ROW2*%
X164978000Y-84846000D03*
%TO.P,U1,16*%
%TO.N,COL4*%
X149738000Y-82306000D03*
%TO.P,U1,17*%
%TO.N,COL3*%
X149738000Y-79766000D03*
%TO.P,U1,18*%
%TO.N,COL2*%
X149738000Y-77226000D03*
%TO.P,U1,13*%
%TO.N,COL7*%
X149738000Y-89926000D03*
%TO.P,U1,14*%
%TO.N,COL6*%
X149738000Y-87386000D03*
%TO.P,U1,15*%
%TO.N,COL5*%
X149738000Y-84846000D03*
%TO.P,U1,4*%
%TO.N,GND*%
X164978000Y-69606000D03*
%TO.P,U1,5*%
%TO.N,Net-(U1-Pad5)*%
X164978000Y-72146000D03*
%TO.P,U1,3*%
%TO.N,GND*%
X164978000Y-67066000D03*
%TO.P,U1,24*%
%TO.N,RAW*%
X149738000Y-61986000D03*
%TO.P,U1,12*%
%TO.N,ROW4*%
X164978000Y-89926000D03*
%TO.P,U1,23*%
%TO.N,GND*%
X149738000Y-64526000D03*
%TO.P,U1,22*%
%TO.N,RESET*%
X149738000Y-67066000D03*
%TO.P,U1,21*%
%TO.N,VCC*%
X149738000Y-69606000D03*
%TO.P,U1,19*%
%TO.N,COL1*%
X149738000Y-74686000D03*
%TO.P,U1,20*%
%TO.N,Net-(U1-Pad20)*%
X149738000Y-72146000D03*
%TO.P,U1,2*%
%TO.N,Net-(U1-Pad2)*%
X164978000Y-64526000D03*
%TD*%
D16*
%TO.P,SW_RST1,2*%
%TO.N,GND*%
X141485000Y-58001000D03*
%TO.P,SW_RST1,1*%
X145535000Y-58001000D03*
D17*
%TO.P,SW_RST1,2*%
X141585000Y-58076000D03*
%TO.P,SW_RST1,1*%
X145435000Y-58076000D03*
%TO.P,SW_RST1,4*%
%TO.N,RESET*%
X141585000Y-59526000D03*
%TO.P,SW_RST1,3*%
X145435000Y-59526000D03*
%TD*%
D18*
%TO.P,SW_PWR1,S4*%
%TO.N,N/C*%
X169088000Y-105951000D03*
%TO.P,SW_PWR1,S1*%
X169088000Y-113251000D03*
%TO.P,SW_PWR1,S3*%
X171018000Y-105951000D03*
%TO.P,SW_PWR1,S2*%
X171018000Y-113251000D03*
D19*
%TO.P,SW_PWR1,3*%
%TO.N,Net-(SW_PWR1-Pad3)*%
X168303000Y-107351000D03*
%TO.P,SW_PWR1,1*%
%TO.N,RAW*%
X168303000Y-111851000D03*
%TO.P,SW_PWR1,2*%
%TO.N,Net-(BAT1-Pad1)*%
X168303000Y-108851000D03*
%TD*%
D20*
%TO.N,Net-(D01-Pad2)*%
X46567000Y-77144000D03*
%TO.N,ROW1*%
X153533000Y-82306000D03*
X143520000Y-77470000D03*
X124470000Y-74930000D03*
X48260000Y-79970000D03*
X86370000Y-74930000D03*
X67320000Y-77470000D03*
X105420000Y-72390000D03*
%TO.N,ROW2*%
X153533000Y-84846000D03*
X105430000Y-91440000D03*
X48270000Y-99020000D03*
X143530000Y-96520000D03*
X67330000Y-96520000D03*
X124480000Y-93980000D03*
X86380000Y-93980000D03*
%TO.N,ROW3*%
X153533000Y-87386000D03*
X163371201Y-127464119D03*
X105430000Y-110490000D03*
X48270000Y-118070000D03*
X143530000Y-115570000D03*
X67330000Y-115570000D03*
X124480000Y-113030000D03*
X86380000Y-113030000D03*
%TO.N,ROW4*%
X153533000Y-89926000D03*
X105430000Y-129540000D03*
X48270000Y-137120000D03*
X67330000Y-134620000D03*
X86380000Y-132080000D03*
X130517404Y-136823076D03*
X156855717Y-145365264D03*
%TO.N,COL1*%
X36244001Y-125386999D03*
X36244001Y-106336999D03*
X36244001Y-87286999D03*
X36244001Y-68236999D03*
%TO.N,COL2*%
X55294001Y-122886999D03*
X55294001Y-103836999D03*
X55294001Y-84786999D03*
X55294001Y-65736999D03*
%TO.N,COL3*%
X74344001Y-120346999D03*
X74344001Y-101296999D03*
X74344001Y-82246999D03*
X74344001Y-63196999D03*
%TO.N,COL4*%
X93394001Y-117806999D03*
X93394001Y-98756999D03*
X93521001Y-79706999D03*
X93394001Y-60656999D03*
%TO.N,COL5*%
X120701673Y-123178297D03*
X112444001Y-101296999D03*
X112444001Y-82246999D03*
X112444001Y-63196999D03*
%TO.N,COL6*%
X131494001Y-103836999D03*
X131494001Y-84786999D03*
X131494001Y-65736999D03*
%TO.N,COL7*%
X156073984Y-112322151D03*
X149558500Y-130223295D03*
%TO.N,GND*%
X153533000Y-69606000D03*
X153533000Y-67066000D03*
X143510000Y-58039000D03*
X163312000Y-69606000D03*
X163312000Y-67066000D03*
X163315199Y-63252801D03*
%TO.N,Net-(U1-Pad2)*%
X153533000Y-64526000D03*
%TO.N,Net-(U1-Pad1)*%
X153533000Y-61986000D03*
%TO.N,Net-(U1-Pad7)*%
X153533000Y-77226000D03*
%TO.N,Net-(D02-Pad2)*%
X46567000Y-96194000D03*
%TO.N,Net-(D03-Pad2)*%
X46567000Y-115244000D03*
%TO.N,Net-(D04-Pad2)*%
X46567000Y-134294000D03*
%TO.N,Net-(D05-Pad2)*%
X65617000Y-74644000D03*
%TO.N,Net-(D06-Pad2)*%
X65617000Y-93694000D03*
%TO.N,Net-(D07-Pad2)*%
X65617000Y-112744000D03*
%TO.N,Net-(D08-Pad2)*%
X65617000Y-131794000D03*
%TO.N,Net-(D09-Pad2)*%
X84667000Y-72104000D03*
%TO.N,Net-(D10-Pad2)*%
X84667000Y-91154000D03*
%TO.N,Net-(D11-Pad2)*%
X84667000Y-110204000D03*
%TO.N,Net-(D12-Pad2)*%
X84667000Y-129254000D03*
%TO.N,Net-(D13-Pad2)*%
X103717000Y-69564000D03*
%TO.N,Net-(D14-Pad2)*%
X103717000Y-88614000D03*
%TO.N,Net-(D15-Pad2)*%
X103717000Y-107664000D03*
%TO.N,Net-(D16-Pad2)*%
X103717000Y-126714000D03*
%TO.N,Net-(D17-Pad2)*%
X122767000Y-72104000D03*
%TO.N,Net-(D18-Pad2)*%
X122767000Y-91154000D03*
%TO.N,Net-(D19-Pad2)*%
X122767000Y-110204000D03*
%TO.N,Net-(D20-Pad2)*%
X129321158Y-133742550D03*
%TO.N,Net-(D21-Pad2)*%
X141817000Y-74644000D03*
%TO.N,Net-(D22-Pad2)*%
X141817000Y-93694000D03*
%TO.N,Net-(D23-Pad2)*%
X141817000Y-112744000D03*
%TO.N,Net-(D24-Pad2)*%
X162728056Y-124222668D03*
%TO.N,Net-(D25-Pad2)*%
X156212572Y-142123812D03*
%TO.N,RESET*%
X143510000Y-59563000D03*
%TO.N,Net-(BAT1-Pad1)*%
X166612000Y-108851000D03*
%TO.N,RAW*%
X170227499Y-104600501D03*
%TO.N,SOFT_SERIAL_PIN*%
X153533000Y-74686000D03*
%TO.N,Net-(U1-Pad5)*%
X153533000Y-72146000D03*
%TO.N,Net-(U1-Pad8)*%
X153533000Y-79766000D03*
%TD*%
D21*
%TO.N,Net-(D01-Pad2)*%
X48327000Y-72604000D02*
X48327000Y-75384000D01*
X47367000Y-77944000D02*
X46567000Y-77144000D01*
X48267000Y-77944000D02*
X47367000Y-77944000D01*
X48327000Y-75384000D02*
X46567000Y-77144000D01*
X48327000Y-77884000D02*
X48267000Y-77944000D01*
%TO.N,ROW1*%
X152918000Y-82306000D02*
X151638000Y-81026000D01*
X153533000Y-82306000D02*
X152918000Y-82306000D01*
X143527000Y-78844000D02*
X143527000Y-77477000D01*
X124477000Y-76304000D02*
X124477000Y-74937000D01*
X105427000Y-73764000D02*
X105427000Y-72397000D01*
X86377000Y-76304000D02*
X86377000Y-74937000D01*
X67327000Y-78844000D02*
X67327000Y-77477000D01*
X48267000Y-79977000D02*
X48260000Y-79970000D01*
X48267000Y-81344000D02*
X48267000Y-79977000D01*
X151581301Y-80969301D02*
X151638000Y-81026000D01*
X147019301Y-80969301D02*
X151581301Y-80969301D01*
X143520000Y-77470000D02*
X147019301Y-80969301D01*
%TO.N,ROW2*%
X152918000Y-84846000D02*
X151638000Y-83566000D01*
X153533000Y-84846000D02*
X152918000Y-84846000D01*
X67337000Y-97894000D02*
X67337000Y-96527000D01*
X48277000Y-100394000D02*
X48277000Y-99027000D01*
X105437000Y-92814000D02*
X105437000Y-91447000D01*
X86387000Y-95354000D02*
X86387000Y-93987000D01*
X143537000Y-97894000D02*
X143537000Y-96527000D01*
X124487000Y-95354000D02*
X124487000Y-93987000D01*
X149237114Y-83566000D02*
X151638000Y-83566000D01*
X145179001Y-87624113D02*
X149237114Y-83566000D01*
X145179001Y-94870999D02*
X145179001Y-87624113D01*
X143530000Y-96520000D02*
X145179001Y-94870999D01*
%TO.N,ROW3*%
X152918000Y-87386000D02*
X151638000Y-86106000D01*
X153533000Y-87386000D02*
X152918000Y-87386000D01*
X162907843Y-128757651D02*
X163375384Y-127473091D01*
X67337000Y-116944000D02*
X67337000Y-115577000D01*
X48277000Y-119444000D02*
X48277000Y-118077000D01*
X105437000Y-111864000D02*
X105437000Y-110497000D01*
X86387000Y-114404000D02*
X86387000Y-113037000D01*
X143537000Y-116944000D02*
X143537000Y-115577000D01*
X124487000Y-114404000D02*
X124487000Y-113037000D01*
X145179001Y-95513065D02*
X145633011Y-95059056D01*
X145179001Y-113920999D02*
X145179001Y-95513065D01*
X143530000Y-115570000D02*
X145179001Y-113920999D01*
X149237114Y-86106000D02*
X151638000Y-86106000D01*
X145633011Y-89710103D02*
X149237114Y-86106000D01*
X145633011Y-95059056D02*
X145633011Y-89710103D01*
%TO.N,ROW4*%
X152918000Y-89926000D02*
X151638000Y-88646000D01*
X153533000Y-89926000D02*
X152918000Y-89926000D01*
X156392359Y-146658796D02*
X156859901Y-145374236D01*
X130285705Y-138177418D02*
X130523082Y-136831186D01*
X67337000Y-135994000D02*
X67337000Y-134627000D01*
X48277000Y-138494000D02*
X48277000Y-137127000D01*
X105437000Y-130914000D02*
X105437000Y-129547000D01*
X86387000Y-133454000D02*
X86387000Y-132087000D01*
X144124999Y-119711039D02*
X145633011Y-118203027D01*
X144124999Y-123781166D02*
X144124999Y-119711039D01*
X131083089Y-136823076D02*
X144124999Y-123781166D01*
X130517404Y-136823076D02*
X131083089Y-136823076D01*
X145633011Y-95701121D02*
X146087021Y-95247113D01*
X145633011Y-118203027D02*
X145633011Y-95701121D01*
X149237114Y-88646000D02*
X151638000Y-88646000D01*
X146087021Y-91796093D02*
X149237114Y-88646000D01*
X146087021Y-95247113D02*
X146087021Y-91796093D01*
%TO.N,COL1*%
X34477000Y-127154000D02*
X36244001Y-125386999D01*
X34477000Y-127214000D02*
X34477000Y-127154000D01*
X34477000Y-108104000D02*
X36244001Y-106336999D01*
X34477000Y-108164000D02*
X34477000Y-108104000D01*
X34477000Y-89054000D02*
X36244001Y-87286999D01*
X34477000Y-89114000D02*
X34477000Y-89054000D01*
X34477000Y-70064000D02*
X34477000Y-89114000D01*
X34477000Y-94727294D02*
X34477000Y-108164000D01*
X34477000Y-89114000D02*
X34477000Y-94727294D01*
X34477000Y-108164000D02*
X34477000Y-127214000D01*
X34477000Y-70004000D02*
X36244001Y-68236999D01*
X34477000Y-70064000D02*
X34477000Y-70004000D01*
%TO.N,COL2*%
X53527000Y-124654000D02*
X55294001Y-122886999D01*
X53527000Y-124714000D02*
X53527000Y-124654000D01*
X53527000Y-105604000D02*
X55294001Y-103836999D01*
X53527000Y-105664000D02*
X53527000Y-105604000D01*
X53527000Y-86554000D02*
X55294001Y-84786999D01*
X53527000Y-86614000D02*
X53527000Y-86554000D01*
X53527000Y-67504000D02*
X55294001Y-65736999D01*
X53527000Y-67564000D02*
X53527000Y-67504000D01*
X53527000Y-124714000D02*
X53527000Y-105664000D01*
X53527000Y-105664000D02*
X53527000Y-86614000D01*
X53527000Y-86614000D02*
X53527000Y-67564000D01*
%TO.N,COL3*%
X72577000Y-122114000D02*
X74344001Y-120346999D01*
X72577000Y-122174000D02*
X72577000Y-122114000D01*
X72577000Y-103064000D02*
X74344001Y-101296999D01*
X72577000Y-103124000D02*
X72577000Y-103064000D01*
X72577000Y-84014000D02*
X74344001Y-82246999D01*
X72577000Y-84074000D02*
X72577000Y-84014000D01*
X72577000Y-64964000D02*
X74344001Y-63196999D01*
X72577000Y-65024000D02*
X72577000Y-64964000D01*
X72577000Y-65024000D02*
X72577000Y-84074000D01*
X72577000Y-84074000D02*
X72577000Y-103124000D01*
X72577000Y-103124000D02*
X72577000Y-122174000D01*
%TO.N,COL4*%
X91627000Y-119574000D02*
X93394001Y-117806999D01*
X91627000Y-119634000D02*
X91627000Y-119574000D01*
X91627000Y-100524000D02*
X93394001Y-98756999D01*
X91627000Y-100584000D02*
X91627000Y-100524000D01*
X91754000Y-81474000D02*
X93521001Y-79706999D01*
X91754000Y-81534000D02*
X91754000Y-81474000D01*
X91627000Y-62424000D02*
X93394001Y-60656999D01*
X91627000Y-62484000D02*
X91627000Y-62424000D01*
X91627000Y-105130706D02*
X91627000Y-100584000D01*
X91627000Y-119634000D02*
X91627000Y-105130706D01*
X91627000Y-100584000D02*
X91627000Y-81534000D01*
X91627000Y-81534000D02*
X91627000Y-62484000D01*
%TO.N,COL5*%
X118654680Y-124611617D02*
X120701673Y-123178297D01*
X118644261Y-124670705D02*
X118654680Y-124611617D01*
X110677000Y-103064000D02*
X112444001Y-101296999D01*
X110677000Y-103124000D02*
X110677000Y-103064000D01*
X110677000Y-84014000D02*
X112444001Y-82246999D01*
X110677000Y-84074000D02*
X110677000Y-84014000D01*
X110677000Y-64964000D02*
X112444001Y-63196999D01*
X110677000Y-65024000D02*
X110677000Y-64964000D01*
X110677000Y-65024000D02*
X110677000Y-84074000D01*
X110677000Y-84074000D02*
X110677000Y-103124000D01*
X110677000Y-116703444D02*
X118644261Y-124670705D01*
X110677000Y-103124000D02*
X110677000Y-116703444D01*
%TO.N,COL6*%
X129727000Y-105604000D02*
X131494001Y-103836999D01*
X129727000Y-105664000D02*
X129727000Y-105604000D01*
X129727000Y-86554000D02*
X131494001Y-84786999D01*
X129727000Y-86614000D02*
X129727000Y-86554000D01*
X129727000Y-67504000D02*
X131494001Y-65736999D01*
X129727000Y-67564000D02*
X129727000Y-67504000D01*
X129727000Y-105664000D02*
X129727000Y-86614000D01*
X129727000Y-86614000D02*
X129727000Y-67564000D01*
%TO.N,COL7*%
X153809196Y-113378239D02*
X156073984Y-112322151D01*
X153788675Y-113434620D02*
X153809196Y-113378239D01*
X147293712Y-131279383D02*
X149558500Y-130223295D01*
X147273191Y-131335765D02*
X147293712Y-131279383D01*
X149558500Y-117664796D02*
X149558500Y-130223295D01*
X153788675Y-113434621D02*
X149558500Y-117664796D01*
D22*
%TO.N,GND*%
X152918000Y-67066000D02*
X151638000Y-65786000D01*
X153533000Y-67066000D02*
X152918000Y-67066000D01*
X152918000Y-69606000D02*
X151638000Y-68326000D01*
X153533000Y-69606000D02*
X152918000Y-69606000D01*
X141396000Y-58420000D02*
X141358000Y-58382000D01*
X143510000Y-58039000D02*
X141523000Y-58039000D01*
X145497000Y-58039000D02*
X145535000Y-58001000D01*
X143510000Y-58039000D02*
X145497000Y-58039000D01*
X148471199Y-63259199D02*
X149738000Y-64526000D01*
X148471199Y-59906199D02*
X148471199Y-63259199D01*
X146641000Y-58076000D02*
X148471199Y-59906199D01*
X145435000Y-58076000D02*
X146641000Y-58076000D01*
X163315199Y-67062801D02*
X163312000Y-67066000D01*
X163315199Y-63252801D02*
X163315199Y-67062801D01*
X163312000Y-67066000D02*
X163312000Y-69606000D01*
X167486065Y-69599199D02*
X168598811Y-70711945D01*
X166224076Y-69599199D02*
X167486065Y-69599199D01*
X166217275Y-69606000D02*
X166224076Y-69599199D01*
X164978000Y-69606000D02*
X166217275Y-69606000D01*
X161439869Y-96903000D02*
X160404000Y-96903000D01*
X168598811Y-89744058D02*
X161439869Y-96903000D01*
X168598811Y-70711945D02*
X168598811Y-89744058D01*
D21*
%TO.N,Net-(U1-Pad2)*%
X152918000Y-64526000D02*
X151638000Y-63246000D01*
X153533000Y-64526000D02*
X152918000Y-64526000D01*
%TO.N,Net-(U1-Pad1)*%
X152918000Y-61986000D02*
X151638000Y-60706000D01*
X153533000Y-61986000D02*
X152918000Y-61986000D01*
%TO.N,Net-(U1-Pad7)*%
X152918000Y-77226000D02*
X151638000Y-75946000D01*
X153533000Y-77226000D02*
X152918000Y-77226000D01*
%TO.N,Net-(D02-Pad2)*%
X48327000Y-91654000D02*
X48327000Y-94434000D01*
X47367000Y-96994000D02*
X46567000Y-96194000D01*
X48267000Y-96994000D02*
X47367000Y-96994000D01*
X48327000Y-94434000D02*
X46567000Y-96194000D01*
%TO.N,Net-(D03-Pad2)*%
X48327000Y-110704000D02*
X48327000Y-113484000D01*
X47367000Y-116044000D02*
X46567000Y-115244000D01*
X48267000Y-116044000D02*
X47367000Y-116044000D01*
X48327000Y-113484000D02*
X46567000Y-115244000D01*
%TO.N,Net-(D04-Pad2)*%
X48327000Y-129754000D02*
X48327000Y-132534000D01*
X47367000Y-135094000D02*
X46567000Y-134294000D01*
X48267000Y-135094000D02*
X47367000Y-135094000D01*
X48327000Y-132534000D02*
X46567000Y-134294000D01*
%TO.N,Net-(D05-Pad2)*%
X67377000Y-72884000D02*
X65617000Y-74644000D01*
X67377000Y-70104000D02*
X67377000Y-72884000D01*
X66417000Y-75444000D02*
X65617000Y-74644000D01*
X67317000Y-75444000D02*
X66417000Y-75444000D01*
%TO.N,Net-(D06-Pad2)*%
X67377000Y-89154000D02*
X67377000Y-91934000D01*
X66417000Y-94494000D02*
X65617000Y-93694000D01*
X67317000Y-94494000D02*
X66417000Y-94494000D01*
X67377000Y-91934000D02*
X65617000Y-93694000D01*
%TO.N,Net-(D07-Pad2)*%
X67377000Y-108204000D02*
X67377000Y-110984000D01*
X66417000Y-113544000D02*
X65617000Y-112744000D01*
X67317000Y-113544000D02*
X66417000Y-113544000D01*
X67377000Y-110984000D02*
X65617000Y-112744000D01*
%TO.N,Net-(D08-Pad2)*%
X67377000Y-127254000D02*
X67377000Y-130034000D01*
X66417000Y-132594000D02*
X65617000Y-131794000D01*
X67317000Y-132594000D02*
X66417000Y-132594000D01*
X67377000Y-130034000D02*
X65617000Y-131794000D01*
%TO.N,Net-(D09-Pad2)*%
X86427000Y-67564000D02*
X86427000Y-70344000D01*
X85467000Y-72904000D02*
X84667000Y-72104000D01*
X86367000Y-72904000D02*
X85467000Y-72904000D01*
X86427000Y-70344000D02*
X84667000Y-72104000D01*
%TO.N,Net-(D10-Pad2)*%
X86427000Y-86614000D02*
X86427000Y-89394000D01*
X85467000Y-91954000D02*
X84667000Y-91154000D01*
X86367000Y-91954000D02*
X85467000Y-91954000D01*
X86427000Y-89394000D02*
X84667000Y-91154000D01*
%TO.N,Net-(D11-Pad2)*%
X86427000Y-105664000D02*
X86427000Y-108444000D01*
X85467000Y-111004000D02*
X84667000Y-110204000D01*
X86367000Y-111004000D02*
X85467000Y-111004000D01*
X86427000Y-108444000D02*
X84667000Y-110204000D01*
%TO.N,Net-(D12-Pad2)*%
X86427000Y-124714000D02*
X86427000Y-127494000D01*
X85467000Y-130054000D02*
X84667000Y-129254000D01*
X86367000Y-130054000D02*
X85467000Y-130054000D01*
X86427000Y-127494000D02*
X84667000Y-129254000D01*
%TO.N,Net-(D13-Pad2)*%
X105477000Y-65024000D02*
X105477000Y-67804000D01*
X104517000Y-70364000D02*
X103717000Y-69564000D01*
X105417000Y-70364000D02*
X104517000Y-70364000D01*
X105477000Y-67804000D02*
X103717000Y-69564000D01*
%TO.N,Net-(D14-Pad2)*%
X105477000Y-84074000D02*
X105477000Y-86854000D01*
X104517000Y-89414000D02*
X103717000Y-88614000D01*
X105417000Y-89414000D02*
X104517000Y-89414000D01*
X105477000Y-86854000D02*
X103717000Y-88614000D01*
%TO.N,Net-(D15-Pad2)*%
X105477000Y-103124000D02*
X105477000Y-105904000D01*
X104517000Y-108464000D02*
X103717000Y-107664000D01*
X105417000Y-108464000D02*
X104517000Y-108464000D01*
X105477000Y-105904000D02*
X103717000Y-107664000D01*
%TO.N,Net-(D16-Pad2)*%
X105477000Y-122174000D02*
X105477000Y-124954000D01*
X104517000Y-127514000D02*
X103717000Y-126714000D01*
X105417000Y-127514000D02*
X104517000Y-127514000D01*
X105477000Y-124954000D02*
X103717000Y-126714000D01*
%TO.N,Net-(D17-Pad2)*%
X124527000Y-67564000D02*
X124527000Y-70344000D01*
X123567000Y-72904000D02*
X122767000Y-72104000D01*
X124467000Y-72904000D02*
X123567000Y-72904000D01*
X124527000Y-70344000D02*
X122767000Y-72104000D01*
%TO.N,Net-(D18-Pad2)*%
X124527000Y-86614000D02*
X124527000Y-89394000D01*
X123567000Y-91954000D02*
X122767000Y-91154000D01*
X124467000Y-91954000D02*
X123567000Y-91954000D01*
X124527000Y-89394000D02*
X122767000Y-91154000D01*
%TO.N,Net-(D19-Pad2)*%
X124527000Y-105664000D02*
X124527000Y-108444000D01*
X123567000Y-111004000D02*
X122767000Y-110204000D01*
X124467000Y-111004000D02*
X123567000Y-111004000D01*
X124527000Y-108444000D02*
X122767000Y-110204000D01*
%TO.N,Net-(D20-Pad2)*%
X131842782Y-129577144D02*
X131360040Y-132314910D01*
X129970085Y-134669315D02*
X129321158Y-133742550D01*
X130856412Y-134825599D02*
X129970085Y-134669315D01*
X131360040Y-132314910D02*
X129321158Y-133742550D01*
%TO.N,Net-(D21-Pad2)*%
X143577000Y-70104000D02*
X143577000Y-72884000D01*
X142617000Y-75444000D02*
X141817000Y-74644000D01*
X143517000Y-75444000D02*
X142617000Y-75444000D01*
X143577000Y-72884000D02*
X141817000Y-74644000D01*
%TO.N,Net-(D22-Pad2)*%
X143577000Y-89154000D02*
X143577000Y-91934000D01*
X142617000Y-94494000D02*
X141817000Y-93694000D01*
X143517000Y-94494000D02*
X142617000Y-94494000D01*
X143577000Y-91934000D02*
X141817000Y-93694000D01*
%TO.N,Net-(D23-Pad2)*%
X143577000Y-108204000D02*
X143577000Y-110984000D01*
X142617000Y-113544000D02*
X141817000Y-112744000D01*
X143517000Y-113544000D02*
X142617000Y-113544000D01*
X143577000Y-110984000D02*
X141817000Y-112744000D01*
%TO.N,Net-(D24-Pad2)*%
X165934687Y-120558419D02*
X164983871Y-123170764D01*
X163206194Y-125248038D02*
X162728056Y-124222668D01*
X164051918Y-125555856D02*
X163206194Y-125248038D01*
X164983871Y-123170764D02*
X162728056Y-124222668D01*
%TO.N,Net-(D25-Pad2)*%
X159419203Y-138459563D02*
X158468387Y-141071909D01*
X156690710Y-143149182D02*
X156212572Y-142123812D01*
X157536434Y-143457000D02*
X156690710Y-143149182D01*
X158468387Y-141071909D02*
X156212572Y-142123812D01*
%TO.N,RESET*%
X141495000Y-59944000D02*
X141458000Y-59907000D01*
X143510000Y-59563000D02*
X145398000Y-59563000D01*
X145398000Y-59563000D02*
X145435000Y-59526000D01*
X143510000Y-59563000D02*
X141622000Y-59563000D01*
X145435000Y-59526000D02*
X146646689Y-59526000D01*
X146646689Y-59526000D02*
X147953689Y-60833000D01*
X147953689Y-65281689D02*
X149738000Y-67066000D01*
X147953689Y-60833000D02*
X147953689Y-65281689D01*
D22*
%TO.N,Net-(BAT1-Pad1)*%
X166612000Y-108851000D02*
X168303000Y-108851000D01*
X162695000Y-104934000D02*
X166612000Y-108851000D01*
X157353000Y-104934000D02*
X162695000Y-104934000D01*
%TO.N,RAW*%
X170227499Y-106763401D02*
X170227499Y-104600501D01*
X170893501Y-107429403D02*
X170227499Y-106763401D01*
X170893501Y-108504441D02*
X170893501Y-107429403D01*
X168303000Y-111094942D02*
X170893501Y-108504441D01*
X168303000Y-111851000D02*
X168303000Y-111094942D01*
D21*
%TO.N,SOFT_SERIAL_PIN*%
X152918000Y-74686000D02*
X151638000Y-73406000D01*
X153533000Y-74686000D02*
X152918000Y-74686000D01*
X167398886Y-74686000D02*
X166217275Y-74686000D01*
X168081301Y-75368415D02*
X167398886Y-74686000D01*
X168081301Y-89529699D02*
X168081301Y-75368415D01*
X162758000Y-94853000D02*
X168081301Y-89529699D01*
X166217275Y-74686000D02*
X164978000Y-74686000D01*
X161504000Y-94853000D02*
X162758000Y-94853000D01*
%TO.N,Net-(U1-Pad5)*%
X152918000Y-72146000D02*
X151638000Y-70866000D01*
X153533000Y-72146000D02*
X152918000Y-72146000D01*
%TO.N,Net-(U1-Pad8)*%
X152918000Y-79766000D02*
X151638000Y-78486000D01*
X153533000Y-79766000D02*
X152918000Y-79766000D01*
%TD*%
M02*
