%TF.GenerationSoftware,KiCad,Pcbnew,5.1.6-c6e7f7d~87~ubuntu20.04.1*%
%TF.CreationDate,2020-09-01T21:04:00-05:00*%
%TF.ProjectId,keaboard_rev1,6b656162-6f61-4726-945f-726576312e6b,rev?*%
%TF.SameCoordinates,Original*%
%TF.FileFunction,Legend,Bot*%
%TF.FilePolarity,Positive*%
%FSLAX46Y46*%
G04 Gerber Fmt 4.6, Leading zero omitted, Abs format (unit mm)*
G04 Created by KiCad (PCBNEW 5.1.6-c6e7f7d~87~ubuntu20.04.1) date 2020-09-01 21:04:00*
%MOMM*%
%LPD*%
G01*
G04 APERTURE LIST*
%ADD10C,0.500000*%
%ADD11C,0.200000*%
%ADD12C,0.150000*%
%ADD13C,0.152400*%
%ADD14C,0.381000*%
%ADD15C,0.127000*%
G04 APERTURE END LIST*
D10*
X158837142Y-63652000D02*
X155837142Y-63652000D01*
X157694285Y-63937714D02*
X158837142Y-64794857D01*
X156837142Y-64794857D02*
X157980000Y-63652000D01*
X158694285Y-67223428D02*
X158837142Y-66937714D01*
X158837142Y-66366285D01*
X158694285Y-66080571D01*
X158408571Y-65937714D01*
X157265714Y-65937714D01*
X156980000Y-66080571D01*
X156837142Y-66366285D01*
X156837142Y-66937714D01*
X156980000Y-67223428D01*
X157265714Y-67366285D01*
X157551428Y-67366285D01*
X157837142Y-65937714D01*
X158837142Y-69937714D02*
X157265714Y-69937714D01*
X156980000Y-69794857D01*
X156837142Y-69509142D01*
X156837142Y-68937714D01*
X156980000Y-68652000D01*
X158694285Y-69937714D02*
X158837142Y-69652000D01*
X158837142Y-68937714D01*
X158694285Y-68652000D01*
X158408571Y-68509142D01*
X158122857Y-68509142D01*
X157837142Y-68652000D01*
X157694285Y-68937714D01*
X157694285Y-69652000D01*
X157551428Y-69937714D01*
X158837142Y-71366285D02*
X155837142Y-71366285D01*
X156980000Y-71366285D02*
X156837142Y-71652000D01*
X156837142Y-72223428D01*
X156980000Y-72509142D01*
X157122857Y-72652000D01*
X157408571Y-72794857D01*
X158265714Y-72794857D01*
X158551428Y-72652000D01*
X158694285Y-72509142D01*
X158837142Y-72223428D01*
X158837142Y-71652000D01*
X158694285Y-71366285D01*
X158837142Y-74509142D02*
X158694285Y-74223428D01*
X158551428Y-74080571D01*
X158265714Y-73937714D01*
X157408571Y-73937714D01*
X157122857Y-74080571D01*
X156980000Y-74223428D01*
X156837142Y-74509142D01*
X156837142Y-74937714D01*
X156980000Y-75223428D01*
X157122857Y-75366285D01*
X157408571Y-75509142D01*
X158265714Y-75509142D01*
X158551428Y-75366285D01*
X158694285Y-75223428D01*
X158837142Y-74937714D01*
X158837142Y-74509142D01*
X158837142Y-78080571D02*
X157265714Y-78080571D01*
X156980000Y-77937714D01*
X156837142Y-77652000D01*
X156837142Y-77080571D01*
X156980000Y-76794857D01*
X158694285Y-78080571D02*
X158837142Y-77794857D01*
X158837142Y-77080571D01*
X158694285Y-76794857D01*
X158408571Y-76652000D01*
X158122857Y-76652000D01*
X157837142Y-76794857D01*
X157694285Y-77080571D01*
X157694285Y-77794857D01*
X157551428Y-78080571D01*
X158837142Y-79509142D02*
X156837142Y-79509142D01*
X157408571Y-79509142D02*
X157122857Y-79652000D01*
X156980000Y-79794857D01*
X156837142Y-80080571D01*
X156837142Y-80366285D01*
X158837142Y-82652000D02*
X155837142Y-82652000D01*
X158694285Y-82652000D02*
X158837142Y-82366285D01*
X158837142Y-81794857D01*
X158694285Y-81509142D01*
X158551428Y-81366285D01*
X158265714Y-81223428D01*
X157408571Y-81223428D01*
X157122857Y-81366285D01*
X156980000Y-81509142D01*
X156837142Y-81794857D01*
X156837142Y-82366285D01*
X156980000Y-82652000D01*
D11*
X161333571Y-65128571D02*
X159833571Y-65128571D01*
X161262142Y-65128571D02*
X161333571Y-64985714D01*
X161333571Y-64700000D01*
X161262142Y-64557142D01*
X161190714Y-64485714D01*
X161047857Y-64414285D01*
X160619285Y-64414285D01*
X160476428Y-64485714D01*
X160405000Y-64557142D01*
X160333571Y-64700000D01*
X160333571Y-64985714D01*
X160405000Y-65128571D01*
X161262142Y-66414285D02*
X161333571Y-66271428D01*
X161333571Y-65985714D01*
X161262142Y-65842857D01*
X161119285Y-65771428D01*
X160547857Y-65771428D01*
X160405000Y-65842857D01*
X160333571Y-65985714D01*
X160333571Y-66271428D01*
X160405000Y-66414285D01*
X160547857Y-66485714D01*
X160690714Y-66485714D01*
X160833571Y-65771428D01*
X161262142Y-67057142D02*
X161333571Y-67200000D01*
X161333571Y-67485714D01*
X161262142Y-67628571D01*
X161119285Y-67700000D01*
X161047857Y-67700000D01*
X160905000Y-67628571D01*
X160833571Y-67485714D01*
X160833571Y-67271428D01*
X160762142Y-67128571D01*
X160619285Y-67057142D01*
X160547857Y-67057142D01*
X160405000Y-67128571D01*
X160333571Y-67271428D01*
X160333571Y-67485714D01*
X160405000Y-67628571D01*
X161333571Y-68342857D02*
X160333571Y-68342857D01*
X159833571Y-68342857D02*
X159905000Y-68271428D01*
X159976428Y-68342857D01*
X159905000Y-68414285D01*
X159833571Y-68342857D01*
X159976428Y-68342857D01*
X160333571Y-69700000D02*
X161547857Y-69700000D01*
X161690714Y-69628571D01*
X161762142Y-69557142D01*
X161833571Y-69414285D01*
X161833571Y-69200000D01*
X161762142Y-69057142D01*
X161262142Y-69700000D02*
X161333571Y-69557142D01*
X161333571Y-69271428D01*
X161262142Y-69128571D01*
X161190714Y-69057142D01*
X161047857Y-68985714D01*
X160619285Y-68985714D01*
X160476428Y-69057142D01*
X160405000Y-69128571D01*
X160333571Y-69271428D01*
X160333571Y-69557142D01*
X160405000Y-69700000D01*
X160333571Y-70414285D02*
X161333571Y-70414285D01*
X160476428Y-70414285D02*
X160405000Y-70485714D01*
X160333571Y-70628571D01*
X160333571Y-70842857D01*
X160405000Y-70985714D01*
X160547857Y-71057142D01*
X161333571Y-71057142D01*
X161262142Y-72342857D02*
X161333571Y-72200000D01*
X161333571Y-71914285D01*
X161262142Y-71771428D01*
X161119285Y-71700000D01*
X160547857Y-71700000D01*
X160405000Y-71771428D01*
X160333571Y-71914285D01*
X160333571Y-72200000D01*
X160405000Y-72342857D01*
X160547857Y-72414285D01*
X160690714Y-72414285D01*
X160833571Y-71700000D01*
X161333571Y-73700000D02*
X159833571Y-73700000D01*
X161262142Y-73700000D02*
X161333571Y-73557142D01*
X161333571Y-73271428D01*
X161262142Y-73128571D01*
X161190714Y-73057142D01*
X161047857Y-72985714D01*
X160619285Y-72985714D01*
X160476428Y-73057142D01*
X160405000Y-73128571D01*
X160333571Y-73271428D01*
X160333571Y-73557142D01*
X160405000Y-73700000D01*
X161333571Y-75557142D02*
X159833571Y-75557142D01*
X160405000Y-75557142D02*
X160333571Y-75700000D01*
X160333571Y-75985714D01*
X160405000Y-76128571D01*
X160476428Y-76200000D01*
X160619285Y-76271428D01*
X161047857Y-76271428D01*
X161190714Y-76200000D01*
X161262142Y-76128571D01*
X161333571Y-75985714D01*
X161333571Y-75700000D01*
X161262142Y-75557142D01*
X160333571Y-76771428D02*
X161333571Y-77128571D01*
X160333571Y-77485714D02*
X161333571Y-77128571D01*
X161690714Y-76985714D01*
X161762142Y-76914285D01*
X161833571Y-76771428D01*
X161333571Y-79200000D02*
X159833571Y-79200000D01*
X160762142Y-79342857D02*
X161333571Y-79771428D01*
X160333571Y-79771428D02*
X160905000Y-79200000D01*
X161262142Y-80985714D02*
X161333571Y-80842857D01*
X161333571Y-80557142D01*
X161262142Y-80414285D01*
X161119285Y-80342857D01*
X160547857Y-80342857D01*
X160405000Y-80414285D01*
X160333571Y-80557142D01*
X160333571Y-80842857D01*
X160405000Y-80985714D01*
X160547857Y-81057142D01*
X160690714Y-81057142D01*
X160833571Y-80342857D01*
X161333571Y-82342857D02*
X160547857Y-82342857D01*
X160405000Y-82271428D01*
X160333571Y-82128571D01*
X160333571Y-81842857D01*
X160405000Y-81700000D01*
X161262142Y-82342857D02*
X161333571Y-82200000D01*
X161333571Y-81842857D01*
X161262142Y-81700000D01*
X161119285Y-81628571D01*
X160976428Y-81628571D01*
X160833571Y-81700000D01*
X160762142Y-81842857D01*
X160762142Y-82200000D01*
X160690714Y-82342857D01*
X160333571Y-82914285D02*
X161333571Y-83200000D01*
X160619285Y-83485714D01*
X161333571Y-83771428D01*
X160333571Y-84057142D01*
X161333571Y-85271428D02*
X160547857Y-85271428D01*
X160405000Y-85200000D01*
X160333571Y-85057142D01*
X160333571Y-84771428D01*
X160405000Y-84628571D01*
X161262142Y-85271428D02*
X161333571Y-85128571D01*
X161333571Y-84771428D01*
X161262142Y-84628571D01*
X161119285Y-84557142D01*
X160976428Y-84557142D01*
X160833571Y-84628571D01*
X160762142Y-84771428D01*
X160762142Y-85128571D01*
X160690714Y-85271428D01*
X161333571Y-86628571D02*
X159833571Y-86628571D01*
X161262142Y-86628571D02*
X161333571Y-86485714D01*
X161333571Y-86200000D01*
X161262142Y-86057142D01*
X161190714Y-85985714D01*
X161047857Y-85914285D01*
X160619285Y-85914285D01*
X160476428Y-85985714D01*
X160405000Y-86057142D01*
X160333571Y-86200000D01*
X160333571Y-86485714D01*
X160405000Y-86628571D01*
X161262142Y-87914285D02*
X161333571Y-87771428D01*
X161333571Y-87485714D01*
X161262142Y-87342857D01*
X161119285Y-87271428D01*
X160547857Y-87271428D01*
X160405000Y-87342857D01*
X160333571Y-87485714D01*
X160333571Y-87771428D01*
X160405000Y-87914285D01*
X160547857Y-87985714D01*
X160690714Y-87985714D01*
X160833571Y-87271428D01*
X158793571Y-83816285D02*
X157793571Y-83816285D01*
X158079285Y-83816285D02*
X157936428Y-83887714D01*
X157865000Y-83959142D01*
X157793571Y-84102000D01*
X157793571Y-84244857D01*
X158722142Y-85316285D02*
X158793571Y-85173428D01*
X158793571Y-84887714D01*
X158722142Y-84744857D01*
X158579285Y-84673428D01*
X158007857Y-84673428D01*
X157865000Y-84744857D01*
X157793571Y-84887714D01*
X157793571Y-85173428D01*
X157865000Y-85316285D01*
X158007857Y-85387714D01*
X158150714Y-85387714D01*
X158293571Y-84673428D01*
X157793571Y-85887714D02*
X158793571Y-86244857D01*
X157793571Y-86602000D01*
X158793571Y-87959142D02*
X158793571Y-87102000D01*
X158793571Y-87530571D02*
X157293571Y-87530571D01*
X157507857Y-87387714D01*
X157650714Y-87244857D01*
X157722142Y-87102000D01*
X107224999Y-139263380D02*
X107224999Y-138263380D01*
X106796428Y-139263380D02*
X106796428Y-138739571D01*
X106844047Y-138644333D01*
X106939285Y-138596714D01*
X107082142Y-138596714D01*
X107177380Y-138644333D01*
X107224999Y-138691952D01*
X106463095Y-138596714D02*
X106082142Y-138596714D01*
X106320238Y-138263380D02*
X106320238Y-139120523D01*
X106272619Y-139215761D01*
X106177380Y-139263380D01*
X106082142Y-139263380D01*
X105891666Y-138596714D02*
X105510714Y-138596714D01*
X105748809Y-138263380D02*
X105748809Y-139120523D01*
X105701190Y-139215761D01*
X105605952Y-139263380D01*
X105510714Y-139263380D01*
X105177380Y-138596714D02*
X105177380Y-139596714D01*
X105177380Y-138644333D02*
X105082142Y-138596714D01*
X104891666Y-138596714D01*
X104796428Y-138644333D01*
X104748809Y-138691952D01*
X104701190Y-138787190D01*
X104701190Y-139072904D01*
X104748809Y-139168142D01*
X104796428Y-139215761D01*
X104891666Y-139263380D01*
X105082142Y-139263380D01*
X105177380Y-139215761D01*
X104320238Y-139215761D02*
X104224999Y-139263380D01*
X104034523Y-139263380D01*
X103939285Y-139215761D01*
X103891666Y-139120523D01*
X103891666Y-139072904D01*
X103939285Y-138977666D01*
X104034523Y-138930047D01*
X104177380Y-138930047D01*
X104272619Y-138882428D01*
X104320238Y-138787190D01*
X104320238Y-138739571D01*
X104272619Y-138644333D01*
X104177380Y-138596714D01*
X104034523Y-138596714D01*
X103939285Y-138644333D01*
X103463095Y-139168142D02*
X103415476Y-139215761D01*
X103463095Y-139263380D01*
X103510714Y-139215761D01*
X103463095Y-139168142D01*
X103463095Y-139263380D01*
X103463095Y-138644333D02*
X103415476Y-138691952D01*
X103463095Y-138739571D01*
X103510714Y-138691952D01*
X103463095Y-138644333D01*
X103463095Y-138739571D01*
X102272619Y-138215761D02*
X103129761Y-139501476D01*
X101224999Y-138215761D02*
X102082142Y-139501476D01*
X100463095Y-138596714D02*
X100463095Y-139406238D01*
X100510714Y-139501476D01*
X100558333Y-139549095D01*
X100653571Y-139596714D01*
X100796428Y-139596714D01*
X100891666Y-139549095D01*
X100463095Y-139215761D02*
X100558333Y-139263380D01*
X100748809Y-139263380D01*
X100844047Y-139215761D01*
X100891666Y-139168142D01*
X100939285Y-139072904D01*
X100939285Y-138787190D01*
X100891666Y-138691952D01*
X100844047Y-138644333D01*
X100748809Y-138596714D01*
X100558333Y-138596714D01*
X100463095Y-138644333D01*
X99986904Y-139263380D02*
X99986904Y-138596714D01*
X99986904Y-138263380D02*
X100034523Y-138311000D01*
X99986904Y-138358619D01*
X99939285Y-138311000D01*
X99986904Y-138263380D01*
X99986904Y-138358619D01*
X99653571Y-138596714D02*
X99272619Y-138596714D01*
X99510714Y-138263380D02*
X99510714Y-139120523D01*
X99463095Y-139215761D01*
X99367857Y-139263380D01*
X99272619Y-139263380D01*
X98939285Y-139263380D02*
X98939285Y-138263380D01*
X98510714Y-139263380D02*
X98510714Y-138739571D01*
X98558333Y-138644333D01*
X98653571Y-138596714D01*
X98796428Y-138596714D01*
X98891666Y-138644333D01*
X98939285Y-138691952D01*
X97605952Y-138596714D02*
X97605952Y-139263380D01*
X98034523Y-138596714D02*
X98034523Y-139120523D01*
X97986904Y-139215761D01*
X97891666Y-139263380D01*
X97748809Y-139263380D01*
X97653571Y-139215761D01*
X97605952Y-139168142D01*
X97129761Y-139263380D02*
X97129761Y-138263380D01*
X97129761Y-138644333D02*
X97034523Y-138596714D01*
X96844047Y-138596714D01*
X96748809Y-138644333D01*
X96701190Y-138691952D01*
X96653571Y-138787190D01*
X96653571Y-139072904D01*
X96701190Y-139168142D01*
X96748809Y-139215761D01*
X96844047Y-139263380D01*
X97034523Y-139263380D01*
X97129761Y-139215761D01*
X96225000Y-139168142D02*
X96177380Y-139215761D01*
X96225000Y-139263380D01*
X96272619Y-139215761D01*
X96225000Y-139168142D01*
X96225000Y-139263380D01*
X95320238Y-139215761D02*
X95415476Y-139263380D01*
X95605952Y-139263380D01*
X95701190Y-139215761D01*
X95748809Y-139168142D01*
X95796428Y-139072904D01*
X95796428Y-138787190D01*
X95748809Y-138691952D01*
X95701190Y-138644333D01*
X95605952Y-138596714D01*
X95415476Y-138596714D01*
X95320238Y-138644333D01*
X94748809Y-139263380D02*
X94844047Y-139215761D01*
X94891666Y-139168142D01*
X94939285Y-139072904D01*
X94939285Y-138787190D01*
X94891666Y-138691952D01*
X94844047Y-138644333D01*
X94748809Y-138596714D01*
X94605952Y-138596714D01*
X94510714Y-138644333D01*
X94463095Y-138691952D01*
X94415476Y-138787190D01*
X94415476Y-139072904D01*
X94463095Y-139168142D01*
X94510714Y-139215761D01*
X94605952Y-139263380D01*
X94748809Y-139263380D01*
X93986904Y-139263380D02*
X93986904Y-138596714D01*
X93986904Y-138691952D02*
X93939285Y-138644333D01*
X93844047Y-138596714D01*
X93701190Y-138596714D01*
X93605952Y-138644333D01*
X93558333Y-138739571D01*
X93558333Y-139263380D01*
X93558333Y-138739571D02*
X93510714Y-138644333D01*
X93415476Y-138596714D01*
X93272619Y-138596714D01*
X93177380Y-138644333D01*
X93129761Y-138739571D01*
X93129761Y-139263380D01*
X91939285Y-138215761D02*
X92796428Y-139501476D01*
X91605952Y-139263380D02*
X91605952Y-138263380D01*
X91510714Y-138882428D02*
X91225000Y-139263380D01*
X91225000Y-138596714D02*
X91605952Y-138977666D01*
X90415476Y-139215761D02*
X90510714Y-139263380D01*
X90701190Y-139263380D01*
X90796428Y-139215761D01*
X90844047Y-139120523D01*
X90844047Y-138739571D01*
X90796428Y-138644333D01*
X90701190Y-138596714D01*
X90510714Y-138596714D01*
X90415476Y-138644333D01*
X90367857Y-138739571D01*
X90367857Y-138834809D01*
X90844047Y-138930047D01*
X89510714Y-139263380D02*
X89510714Y-138739571D01*
X89558333Y-138644333D01*
X89653571Y-138596714D01*
X89844047Y-138596714D01*
X89939285Y-138644333D01*
X89510714Y-139215761D02*
X89605952Y-139263380D01*
X89844047Y-139263380D01*
X89939285Y-139215761D01*
X89986904Y-139120523D01*
X89986904Y-139025285D01*
X89939285Y-138930047D01*
X89844047Y-138882428D01*
X89605952Y-138882428D01*
X89510714Y-138834809D01*
X89129761Y-138596714D02*
X88939285Y-139263380D01*
X88748809Y-138787190D01*
X88558333Y-139263380D01*
X88367857Y-138596714D01*
X87558333Y-139263380D02*
X87558333Y-138739571D01*
X87605952Y-138644333D01*
X87701190Y-138596714D01*
X87891666Y-138596714D01*
X87986904Y-138644333D01*
X87558333Y-139215761D02*
X87653571Y-139263380D01*
X87891666Y-139263380D01*
X87986904Y-139215761D01*
X88034523Y-139120523D01*
X88034523Y-139025285D01*
X87986904Y-138930047D01*
X87891666Y-138882428D01*
X87653571Y-138882428D01*
X87558333Y-138834809D01*
X86653571Y-139263380D02*
X86653571Y-138263380D01*
X86653571Y-139215761D02*
X86748809Y-139263380D01*
X86939285Y-139263380D01*
X87034523Y-139215761D01*
X87082142Y-139168142D01*
X87129761Y-139072904D01*
X87129761Y-138787190D01*
X87082142Y-138691952D01*
X87034523Y-138644333D01*
X86939285Y-138596714D01*
X86748809Y-138596714D01*
X86653571Y-138644333D01*
X85796428Y-139215761D02*
X85891666Y-139263380D01*
X86082142Y-139263380D01*
X86177380Y-139215761D01*
X86225000Y-139120523D01*
X86225000Y-138739571D01*
X86177380Y-138644333D01*
X86082142Y-138596714D01*
X85891666Y-138596714D01*
X85796428Y-138644333D01*
X85748809Y-138739571D01*
X85748809Y-138834809D01*
X86225000Y-138930047D01*
X84605952Y-138215761D02*
X85463095Y-139501476D01*
X84272619Y-139263380D02*
X84272619Y-138263380D01*
X84177380Y-138882428D02*
X83891666Y-139263380D01*
X83891666Y-138596714D02*
X84272619Y-138977666D01*
X83082142Y-139215761D02*
X83177380Y-139263380D01*
X83367857Y-139263380D01*
X83463095Y-139215761D01*
X83510714Y-139120523D01*
X83510714Y-138739571D01*
X83463095Y-138644333D01*
X83367857Y-138596714D01*
X83177380Y-138596714D01*
X83082142Y-138644333D01*
X83034523Y-138739571D01*
X83034523Y-138834809D01*
X83510714Y-138930047D01*
X82177380Y-139263380D02*
X82177380Y-138739571D01*
X82225000Y-138644333D01*
X82320238Y-138596714D01*
X82510714Y-138596714D01*
X82605952Y-138644333D01*
X82177380Y-139215761D02*
X82272619Y-139263380D01*
X82510714Y-139263380D01*
X82605952Y-139215761D01*
X82653571Y-139120523D01*
X82653571Y-139025285D01*
X82605952Y-138930047D01*
X82510714Y-138882428D01*
X82272619Y-138882428D01*
X82177380Y-138834809D01*
X81701190Y-139263380D02*
X81701190Y-138263380D01*
X81701190Y-138644333D02*
X81605952Y-138596714D01*
X81415476Y-138596714D01*
X81320238Y-138644333D01*
X81272619Y-138691952D01*
X81225000Y-138787190D01*
X81225000Y-139072904D01*
X81272619Y-139168142D01*
X81320238Y-139215761D01*
X81415476Y-139263380D01*
X81605952Y-139263380D01*
X81701190Y-139215761D01*
X80653571Y-139263380D02*
X80748809Y-139215761D01*
X80796428Y-139168142D01*
X80844047Y-139072904D01*
X80844047Y-138787190D01*
X80796428Y-138691952D01*
X80748809Y-138644333D01*
X80653571Y-138596714D01*
X80510714Y-138596714D01*
X80415476Y-138644333D01*
X80367857Y-138691952D01*
X80320238Y-138787190D01*
X80320238Y-139072904D01*
X80367857Y-139168142D01*
X80415476Y-139215761D01*
X80510714Y-139263380D01*
X80653571Y-139263380D01*
X79463095Y-139263380D02*
X79463095Y-138739571D01*
X79510714Y-138644333D01*
X79605952Y-138596714D01*
X79796428Y-138596714D01*
X79891666Y-138644333D01*
X79463095Y-139215761D02*
X79558333Y-139263380D01*
X79796428Y-139263380D01*
X79891666Y-139215761D01*
X79939285Y-139120523D01*
X79939285Y-139025285D01*
X79891666Y-138930047D01*
X79796428Y-138882428D01*
X79558333Y-138882428D01*
X79463095Y-138834809D01*
X78986904Y-139263380D02*
X78986904Y-138596714D01*
X78986904Y-138787190D02*
X78939285Y-138691952D01*
X78891666Y-138644333D01*
X78796428Y-138596714D01*
X78701190Y-138596714D01*
X77939285Y-139263380D02*
X77939285Y-138263380D01*
X77939285Y-139215761D02*
X78034523Y-139263380D01*
X78225000Y-139263380D01*
X78320238Y-139215761D01*
X78367857Y-139168142D01*
X78415476Y-139072904D01*
X78415476Y-138787190D01*
X78367857Y-138691952D01*
X78320238Y-138644333D01*
X78225000Y-138596714D01*
X78034523Y-138596714D01*
X77939285Y-138644333D01*
D12*
%TO.C,K17*%
X109967000Y-63104000D02*
X109967000Y-64104000D01*
X110967000Y-77104000D02*
X109967000Y-77104000D01*
X109967000Y-63104000D02*
X110967000Y-63104000D01*
X109967000Y-76104000D02*
X109967000Y-77104000D01*
X123967000Y-77104000D02*
X123967000Y-76104000D01*
X122967000Y-63104000D02*
X123967000Y-63104000D01*
X123967000Y-77104000D02*
X122967000Y-77104000D01*
X123967000Y-64104000D02*
X123967000Y-63104000D01*
X122037000Y-63119000D02*
X122037000Y-63500000D01*
X110988000Y-69469000D02*
X110607000Y-69469000D01*
X113147000Y-63119000D02*
X122037000Y-63119000D01*
X122037000Y-66548000D02*
X122037000Y-67564000D01*
X110607000Y-69088000D02*
X110607000Y-69469000D01*
X114492838Y-69469000D02*
X112766000Y-69469000D01*
X110607000Y-65659000D02*
X110607000Y-66040000D01*
X122037000Y-67564000D02*
X116957000Y-67564000D01*
X114492838Y-69487960D02*
G75*
G02*
X116957000Y-67564000I2464162J-616040D01*
G01*
X110607000Y-65659000D02*
G75*
G02*
X113147000Y-63119000I2540000J0D01*
G01*
D11*
%TO.C,D25*%
X157082222Y-148213503D02*
X154826960Y-147392655D01*
X154775657Y-147533609D02*
X157030919Y-148354457D01*
X154732904Y-147651070D02*
X156988167Y-148471919D01*
X156988167Y-148471919D02*
X159040288Y-142833763D01*
X157124975Y-148096042D02*
X154869712Y-147275193D01*
X159040288Y-142833763D02*
X156785025Y-142012914D01*
X156785025Y-142012914D02*
X154732904Y-147651070D01*
%TO.C,D24*%
X163597705Y-130312358D02*
X161342443Y-129491510D01*
X161291140Y-129632464D02*
X163546402Y-130453312D01*
X161248387Y-129749925D02*
X163503650Y-130570774D01*
X163503650Y-130570774D02*
X165555771Y-124932618D01*
X163640458Y-130194897D02*
X161385195Y-129374048D01*
X165555771Y-124932618D02*
X163300508Y-124111769D01*
X163300508Y-124111769D02*
X161248387Y-129749925D01*
%TO.C,D23*%
X144717000Y-118169000D02*
X142317000Y-118169000D01*
X142317000Y-118319000D02*
X144717000Y-118319000D01*
X142317000Y-118444000D02*
X144717000Y-118444000D01*
X144717000Y-118444000D02*
X144717000Y-112444000D01*
X144717000Y-118044000D02*
X142317000Y-118044000D01*
X144717000Y-112444000D02*
X142317000Y-112444000D01*
X142317000Y-112444000D02*
X142317000Y-118444000D01*
%TO.C,D22*%
X144717000Y-99119000D02*
X142317000Y-99119000D01*
X142317000Y-99269000D02*
X144717000Y-99269000D01*
X142317000Y-99394000D02*
X144717000Y-99394000D01*
X144717000Y-99394000D02*
X144717000Y-93394000D01*
X144717000Y-98994000D02*
X142317000Y-98994000D01*
X144717000Y-93394000D02*
X142317000Y-93394000D01*
X142317000Y-93394000D02*
X142317000Y-99394000D01*
%TO.C,D21*%
X144717000Y-80069000D02*
X142317000Y-80069000D01*
X142317000Y-80219000D02*
X144717000Y-80219000D01*
X142317000Y-80344000D02*
X144717000Y-80344000D01*
X144717000Y-80344000D02*
X144717000Y-74344000D01*
X144717000Y-79944000D02*
X142317000Y-79944000D01*
X144717000Y-74344000D02*
X142317000Y-74344000D01*
X142317000Y-74344000D02*
X142317000Y-80344000D01*
%TO.C,D20*%
X131235058Y-139588712D02*
X128871520Y-139171957D01*
X128845473Y-139319678D02*
X131209011Y-139736434D01*
X128823767Y-139442779D02*
X131187305Y-139859535D01*
X131187305Y-139859535D02*
X132229194Y-133950688D01*
X131256764Y-139465612D02*
X128893226Y-139048856D01*
X132229194Y-133950688D02*
X129865656Y-133533932D01*
X129865656Y-133533932D02*
X128823767Y-139442779D01*
%TO.C,D19*%
X125667000Y-115629000D02*
X123267000Y-115629000D01*
X123267000Y-115779000D02*
X125667000Y-115779000D01*
X123267000Y-115904000D02*
X125667000Y-115904000D01*
X125667000Y-115904000D02*
X125667000Y-109904000D01*
X125667000Y-115504000D02*
X123267000Y-115504000D01*
X125667000Y-109904000D02*
X123267000Y-109904000D01*
X123267000Y-109904000D02*
X123267000Y-115904000D01*
%TO.C,D18*%
X125667000Y-96579000D02*
X123267000Y-96579000D01*
X123267000Y-96729000D02*
X125667000Y-96729000D01*
X123267000Y-96854000D02*
X125667000Y-96854000D01*
X125667000Y-96854000D02*
X125667000Y-90854000D01*
X125667000Y-96454000D02*
X123267000Y-96454000D01*
X125667000Y-90854000D02*
X123267000Y-90854000D01*
X123267000Y-90854000D02*
X123267000Y-96854000D01*
%TO.C,D17*%
X125667000Y-77529000D02*
X123267000Y-77529000D01*
X123267000Y-77679000D02*
X125667000Y-77679000D01*
X123267000Y-77804000D02*
X125667000Y-77804000D01*
X125667000Y-77804000D02*
X125667000Y-71804000D01*
X125667000Y-77404000D02*
X123267000Y-77404000D01*
X125667000Y-71804000D02*
X123267000Y-71804000D01*
X123267000Y-71804000D02*
X123267000Y-77804000D01*
%TO.C,D16*%
X106617000Y-132139000D02*
X104217000Y-132139000D01*
X104217000Y-132289000D02*
X106617000Y-132289000D01*
X104217000Y-132414000D02*
X106617000Y-132414000D01*
X106617000Y-132414000D02*
X106617000Y-126414000D01*
X106617000Y-132014000D02*
X104217000Y-132014000D01*
X106617000Y-126414000D02*
X104217000Y-126414000D01*
X104217000Y-126414000D02*
X104217000Y-132414000D01*
%TO.C,D15*%
X106617000Y-113089000D02*
X104217000Y-113089000D01*
X104217000Y-113239000D02*
X106617000Y-113239000D01*
X104217000Y-113364000D02*
X106617000Y-113364000D01*
X106617000Y-113364000D02*
X106617000Y-107364000D01*
X106617000Y-112964000D02*
X104217000Y-112964000D01*
X106617000Y-107364000D02*
X104217000Y-107364000D01*
X104217000Y-107364000D02*
X104217000Y-113364000D01*
%TO.C,D14*%
X106617000Y-94039000D02*
X104217000Y-94039000D01*
X104217000Y-94189000D02*
X106617000Y-94189000D01*
X104217000Y-94314000D02*
X106617000Y-94314000D01*
X106617000Y-94314000D02*
X106617000Y-88314000D01*
X106617000Y-93914000D02*
X104217000Y-93914000D01*
X106617000Y-88314000D02*
X104217000Y-88314000D01*
X104217000Y-88314000D02*
X104217000Y-94314000D01*
%TO.C,D13*%
X106617000Y-74989000D02*
X104217000Y-74989000D01*
X104217000Y-75139000D02*
X106617000Y-75139000D01*
X104217000Y-75264000D02*
X106617000Y-75264000D01*
X106617000Y-75264000D02*
X106617000Y-69264000D01*
X106617000Y-74864000D02*
X104217000Y-74864000D01*
X106617000Y-69264000D02*
X104217000Y-69264000D01*
X104217000Y-69264000D02*
X104217000Y-75264000D01*
%TO.C,D12*%
X87567000Y-134679000D02*
X85167000Y-134679000D01*
X85167000Y-134829000D02*
X87567000Y-134829000D01*
X85167000Y-134954000D02*
X87567000Y-134954000D01*
X87567000Y-134954000D02*
X87567000Y-128954000D01*
X87567000Y-134554000D02*
X85167000Y-134554000D01*
X87567000Y-128954000D02*
X85167000Y-128954000D01*
X85167000Y-128954000D02*
X85167000Y-134954000D01*
%TO.C,D11*%
X87567000Y-115629000D02*
X85167000Y-115629000D01*
X85167000Y-115779000D02*
X87567000Y-115779000D01*
X85167000Y-115904000D02*
X87567000Y-115904000D01*
X87567000Y-115904000D02*
X87567000Y-109904000D01*
X87567000Y-115504000D02*
X85167000Y-115504000D01*
X87567000Y-109904000D02*
X85167000Y-109904000D01*
X85167000Y-109904000D02*
X85167000Y-115904000D01*
%TO.C,D10*%
X87567000Y-96579000D02*
X85167000Y-96579000D01*
X85167000Y-96729000D02*
X87567000Y-96729000D01*
X85167000Y-96854000D02*
X87567000Y-96854000D01*
X87567000Y-96854000D02*
X87567000Y-90854000D01*
X87567000Y-96454000D02*
X85167000Y-96454000D01*
X87567000Y-90854000D02*
X85167000Y-90854000D01*
X85167000Y-90854000D02*
X85167000Y-96854000D01*
%TO.C,D09*%
X87567000Y-77529000D02*
X85167000Y-77529000D01*
X85167000Y-77679000D02*
X87567000Y-77679000D01*
X85167000Y-77804000D02*
X87567000Y-77804000D01*
X87567000Y-77804000D02*
X87567000Y-71804000D01*
X87567000Y-77404000D02*
X85167000Y-77404000D01*
X87567000Y-71804000D02*
X85167000Y-71804000D01*
X85167000Y-71804000D02*
X85167000Y-77804000D01*
%TO.C,D08*%
X68517000Y-137219000D02*
X66117000Y-137219000D01*
X66117000Y-137369000D02*
X68517000Y-137369000D01*
X66117000Y-137494000D02*
X68517000Y-137494000D01*
X68517000Y-137494000D02*
X68517000Y-131494000D01*
X68517000Y-137094000D02*
X66117000Y-137094000D01*
X68517000Y-131494000D02*
X66117000Y-131494000D01*
X66117000Y-131494000D02*
X66117000Y-137494000D01*
%TO.C,D07*%
X68517000Y-118169000D02*
X66117000Y-118169000D01*
X66117000Y-118319000D02*
X68517000Y-118319000D01*
X66117000Y-118444000D02*
X68517000Y-118444000D01*
X68517000Y-118444000D02*
X68517000Y-112444000D01*
X68517000Y-118044000D02*
X66117000Y-118044000D01*
X68517000Y-112444000D02*
X66117000Y-112444000D01*
X66117000Y-112444000D02*
X66117000Y-118444000D01*
%TO.C,D06*%
X68517000Y-99119000D02*
X66117000Y-99119000D01*
X66117000Y-99269000D02*
X68517000Y-99269000D01*
X66117000Y-99394000D02*
X68517000Y-99394000D01*
X68517000Y-99394000D02*
X68517000Y-93394000D01*
X68517000Y-98994000D02*
X66117000Y-98994000D01*
X68517000Y-93394000D02*
X66117000Y-93394000D01*
X66117000Y-93394000D02*
X66117000Y-99394000D01*
%TO.C,D05*%
X68517000Y-80069000D02*
X66117000Y-80069000D01*
X66117000Y-80219000D02*
X68517000Y-80219000D01*
X66117000Y-80344000D02*
X68517000Y-80344000D01*
X68517000Y-80344000D02*
X68517000Y-74344000D01*
X68517000Y-79944000D02*
X66117000Y-79944000D01*
X68517000Y-74344000D02*
X66117000Y-74344000D01*
X66117000Y-74344000D02*
X66117000Y-80344000D01*
%TO.C,D04*%
X49467000Y-139719000D02*
X47067000Y-139719000D01*
X47067000Y-139869000D02*
X49467000Y-139869000D01*
X47067000Y-139994000D02*
X49467000Y-139994000D01*
X49467000Y-139994000D02*
X49467000Y-133994000D01*
X49467000Y-139594000D02*
X47067000Y-139594000D01*
X49467000Y-133994000D02*
X47067000Y-133994000D01*
X47067000Y-133994000D02*
X47067000Y-139994000D01*
%TO.C,D03*%
X49467000Y-120669000D02*
X47067000Y-120669000D01*
X47067000Y-120819000D02*
X49467000Y-120819000D01*
X47067000Y-120944000D02*
X49467000Y-120944000D01*
X49467000Y-120944000D02*
X49467000Y-114944000D01*
X49467000Y-120544000D02*
X47067000Y-120544000D01*
X49467000Y-114944000D02*
X47067000Y-114944000D01*
X47067000Y-114944000D02*
X47067000Y-120944000D01*
%TO.C,D02*%
X49467000Y-101619000D02*
X47067000Y-101619000D01*
X47067000Y-101769000D02*
X49467000Y-101769000D01*
X47067000Y-101894000D02*
X49467000Y-101894000D01*
X49467000Y-101894000D02*
X49467000Y-95894000D01*
X49467000Y-101494000D02*
X47067000Y-101494000D01*
X49467000Y-95894000D02*
X47067000Y-95894000D01*
X47067000Y-95894000D02*
X47067000Y-101894000D01*
%TO.C,D01*%
X47067000Y-76844000D02*
X47067000Y-82844000D01*
X49467000Y-76844000D02*
X47067000Y-76844000D01*
X49467000Y-82444000D02*
X47067000Y-82444000D01*
X49467000Y-82844000D02*
X49467000Y-76844000D01*
X47067000Y-82844000D02*
X49467000Y-82844000D01*
X47067000Y-82719000D02*
X49467000Y-82719000D01*
X49467000Y-82569000D02*
X47067000Y-82569000D01*
D12*
%TO.C,TRRS1*%
X171704000Y-94103000D02*
X171704000Y-100203000D01*
X159604000Y-94103000D02*
X159604000Y-100203000D01*
X171704000Y-94103000D02*
X159604000Y-94103000D01*
X171704000Y-100203000D02*
X159604000Y-100203000D01*
%TO.C,K05*%
X52817000Y-65644000D02*
X52817000Y-66644000D01*
X53817000Y-79644000D02*
X52817000Y-79644000D01*
X52817000Y-65644000D02*
X53817000Y-65644000D01*
X52817000Y-78644000D02*
X52817000Y-79644000D01*
X66817000Y-79644000D02*
X66817000Y-78644000D01*
X65817000Y-65644000D02*
X66817000Y-65644000D01*
X66817000Y-79644000D02*
X65817000Y-79644000D01*
X66817000Y-66644000D02*
X66817000Y-65644000D01*
X64887000Y-65659000D02*
X64887000Y-66040000D01*
X53838000Y-72009000D02*
X53457000Y-72009000D01*
X55997000Y-65659000D02*
X64887000Y-65659000D01*
X64887000Y-69088000D02*
X64887000Y-70104000D01*
X53457000Y-71628000D02*
X53457000Y-72009000D01*
X57342838Y-72009000D02*
X55616000Y-72009000D01*
X53457000Y-68199000D02*
X53457000Y-68580000D01*
X64887000Y-70104000D02*
X59807000Y-70104000D01*
X57342838Y-72027960D02*
G75*
G02*
X59807000Y-70104000I2464162J-616040D01*
G01*
X53457000Y-68199000D02*
G75*
G02*
X55997000Y-65659000I2540000J0D01*
G01*
%TO.C,K01*%
X33767000Y-68144000D02*
X33767000Y-69144000D01*
X34767000Y-82144000D02*
X33767000Y-82144000D01*
X33767000Y-68144000D02*
X34767000Y-68144000D01*
X33767000Y-81144000D02*
X33767000Y-82144000D01*
X47767000Y-82144000D02*
X47767000Y-81144000D01*
X46767000Y-68144000D02*
X47767000Y-68144000D01*
X47767000Y-82144000D02*
X46767000Y-82144000D01*
X47767000Y-69144000D02*
X47767000Y-68144000D01*
X45837000Y-68159000D02*
X45837000Y-68540000D01*
X34788000Y-74509000D02*
X34407000Y-74509000D01*
X36947000Y-68159000D02*
X45837000Y-68159000D01*
X45837000Y-71588000D02*
X45837000Y-72604000D01*
X34407000Y-74128000D02*
X34407000Y-74509000D01*
X38292838Y-74509000D02*
X36566000Y-74509000D01*
X34407000Y-70699000D02*
X34407000Y-71080000D01*
X45837000Y-72604000D02*
X40757000Y-72604000D01*
X38292838Y-74527960D02*
G75*
G02*
X40757000Y-72604000I2464162J-616040D01*
G01*
X34407000Y-70699000D02*
G75*
G02*
X36947000Y-68159000I2540000J0D01*
G01*
%TO.C,K25*%
X147262689Y-129288721D02*
X146920669Y-130228413D01*
X143414099Y-142786437D02*
X142474407Y-142444417D01*
X147262689Y-129288721D02*
X148202381Y-129630741D01*
X142816427Y-141504725D02*
X142474407Y-142444417D01*
X155630103Y-147232699D02*
X155972123Y-146293007D01*
X159478693Y-133734983D02*
X160418385Y-134077003D01*
X155630103Y-147232699D02*
X154690411Y-146890679D01*
X160076365Y-135016695D02*
X160418385Y-134077003D01*
X158599648Y-133430999D02*
X158469339Y-133789022D01*
X146045157Y-135619067D02*
X145687134Y-135488757D01*
X150245781Y-130390440D02*
X158599648Y-133430999D01*
X157426861Y-136653205D02*
X157079369Y-137607933D01*
X145817443Y-135130734D02*
X145687134Y-135488757D01*
X149338627Y-136817792D02*
X147715930Y-136227179D01*
X146990230Y-131908528D02*
X146859921Y-132266551D01*
X157079369Y-137607933D02*
X152305730Y-135870471D01*
X149332142Y-136835608D02*
G75*
G02*
X152305730Y-135870471I2104857J-1421682D01*
G01*
X146990231Y-131908528D02*
G75*
G02*
X150245781Y-130390440I2386819J-868731D01*
G01*
%TO.C,K24*%
X153778172Y-111387577D02*
X153436152Y-112327269D01*
X149929582Y-124885293D02*
X148989890Y-124543273D01*
X153778172Y-111387577D02*
X154717864Y-111729597D01*
X149331910Y-123603581D02*
X148989890Y-124543273D01*
X162145586Y-129331555D02*
X162487606Y-128391863D01*
X165994176Y-115833839D02*
X166933868Y-116175859D01*
X162145586Y-129331555D02*
X161205894Y-128989535D01*
X166591848Y-117115551D02*
X166933868Y-116175859D01*
X165115131Y-115529855D02*
X164984822Y-115887878D01*
X152560640Y-117717923D02*
X152202617Y-117587613D01*
X156761264Y-112489296D02*
X165115131Y-115529855D01*
X163942344Y-118752061D02*
X163594852Y-119706789D01*
X152332926Y-117229590D02*
X152202617Y-117587613D01*
X155854110Y-118916648D02*
X154231413Y-118326035D01*
X153505713Y-114007384D02*
X153375404Y-114365407D01*
X163594852Y-119706789D02*
X158821213Y-117969327D01*
X155847625Y-118934464D02*
G75*
G02*
X158821213Y-117969327I2104857J-1421682D01*
G01*
X153505714Y-114007384D02*
G75*
G02*
X156761264Y-112489296I2386819J-868731D01*
G01*
%TO.C,K23*%
X129017000Y-103744000D02*
X129017000Y-104744000D01*
X130017000Y-117744000D02*
X129017000Y-117744000D01*
X129017000Y-103744000D02*
X130017000Y-103744000D01*
X129017000Y-116744000D02*
X129017000Y-117744000D01*
X143017000Y-117744000D02*
X143017000Y-116744000D01*
X142017000Y-103744000D02*
X143017000Y-103744000D01*
X143017000Y-117744000D02*
X142017000Y-117744000D01*
X143017000Y-104744000D02*
X143017000Y-103744000D01*
X141087000Y-103759000D02*
X141087000Y-104140000D01*
X130038000Y-110109000D02*
X129657000Y-110109000D01*
X132197000Y-103759000D02*
X141087000Y-103759000D01*
X141087000Y-107188000D02*
X141087000Y-108204000D01*
X129657000Y-109728000D02*
X129657000Y-110109000D01*
X133542838Y-110109000D02*
X131816000Y-110109000D01*
X129657000Y-106299000D02*
X129657000Y-106680000D01*
X141087000Y-108204000D02*
X136007000Y-108204000D01*
X133542838Y-110127960D02*
G75*
G02*
X136007000Y-108204000I2464162J-616040D01*
G01*
X129657000Y-106299000D02*
G75*
G02*
X132197000Y-103759000I2540000J0D01*
G01*
%TO.C,K22*%
X129017000Y-84694000D02*
X129017000Y-85694000D01*
X130017000Y-98694000D02*
X129017000Y-98694000D01*
X129017000Y-84694000D02*
X130017000Y-84694000D01*
X129017000Y-97694000D02*
X129017000Y-98694000D01*
X143017000Y-98694000D02*
X143017000Y-97694000D01*
X142017000Y-84694000D02*
X143017000Y-84694000D01*
X143017000Y-98694000D02*
X142017000Y-98694000D01*
X143017000Y-85694000D02*
X143017000Y-84694000D01*
X141087000Y-84709000D02*
X141087000Y-85090000D01*
X130038000Y-91059000D02*
X129657000Y-91059000D01*
X132197000Y-84709000D02*
X141087000Y-84709000D01*
X141087000Y-88138000D02*
X141087000Y-89154000D01*
X129657000Y-90678000D02*
X129657000Y-91059000D01*
X133542838Y-91059000D02*
X131816000Y-91059000D01*
X129657000Y-87249000D02*
X129657000Y-87630000D01*
X141087000Y-89154000D02*
X136007000Y-89154000D01*
X133542838Y-91077960D02*
G75*
G02*
X136007000Y-89154000I2464162J-616040D01*
G01*
X129657000Y-87249000D02*
G75*
G02*
X132197000Y-84709000I2540000J0D01*
G01*
%TO.C,K21*%
X129017000Y-65644000D02*
X129017000Y-66644000D01*
X130017000Y-79644000D02*
X129017000Y-79644000D01*
X129017000Y-65644000D02*
X130017000Y-65644000D01*
X129017000Y-78644000D02*
X129017000Y-79644000D01*
X143017000Y-79644000D02*
X143017000Y-78644000D01*
X142017000Y-65644000D02*
X143017000Y-65644000D01*
X143017000Y-79644000D02*
X142017000Y-79644000D01*
X143017000Y-66644000D02*
X143017000Y-65644000D01*
X141087000Y-65659000D02*
X141087000Y-66040000D01*
X130038000Y-72009000D02*
X129657000Y-72009000D01*
X132197000Y-65659000D02*
X141087000Y-65659000D01*
X141087000Y-69088000D02*
X141087000Y-70104000D01*
X129657000Y-71628000D02*
X129657000Y-72009000D01*
X133542838Y-72009000D02*
X131816000Y-72009000D01*
X129657000Y-68199000D02*
X129657000Y-68580000D01*
X141087000Y-70104000D02*
X136007000Y-70104000D01*
X133542838Y-72027960D02*
G75*
G02*
X136007000Y-70104000I2464162J-616040D01*
G01*
X129657000Y-68199000D02*
G75*
G02*
X132197000Y-65659000I2540000J0D01*
G01*
%TO.C,K20*%
X118278452Y-122656583D02*
X118104804Y-123641391D01*
X116832185Y-136617540D02*
X115847377Y-136443892D01*
X118278452Y-122656583D02*
X119263260Y-122830232D01*
X116021026Y-135459084D02*
X115847377Y-136443892D01*
X129634686Y-138874967D02*
X129808334Y-137890159D01*
X131080953Y-124914010D02*
X132065761Y-125087658D01*
X129634686Y-138874967D02*
X128649878Y-138701318D01*
X131892112Y-126072466D02*
X132065761Y-125087658D01*
X130162477Y-124767289D02*
X130096317Y-125142501D01*
X118178670Y-129102180D02*
X117803458Y-129036020D01*
X121407536Y-123223557D02*
X130162477Y-124767289D01*
X129567037Y-128144195D02*
X129390611Y-129144760D01*
X117869618Y-128660808D02*
X117803458Y-129036020D01*
X121630262Y-129710788D02*
X119929658Y-129410926D01*
X118465058Y-125283902D02*
X118398898Y-125659114D01*
X129390611Y-129144760D02*
X124387787Y-128262627D01*
X121626969Y-129729461D02*
G75*
G02*
X124387787Y-128262627I2319752J-1034578D01*
G01*
X118465059Y-125283902D02*
G75*
G02*
X121407536Y-123223557I2501411J-441066D01*
G01*
%TO.C,K19*%
X109967000Y-101204000D02*
X109967000Y-102204000D01*
X110967000Y-115204000D02*
X109967000Y-115204000D01*
X109967000Y-101204000D02*
X110967000Y-101204000D01*
X109967000Y-114204000D02*
X109967000Y-115204000D01*
X123967000Y-115204000D02*
X123967000Y-114204000D01*
X122967000Y-101204000D02*
X123967000Y-101204000D01*
X123967000Y-115204000D02*
X122967000Y-115204000D01*
X123967000Y-102204000D02*
X123967000Y-101204000D01*
X122037000Y-101219000D02*
X122037000Y-101600000D01*
X110988000Y-107569000D02*
X110607000Y-107569000D01*
X113147000Y-101219000D02*
X122037000Y-101219000D01*
X122037000Y-104648000D02*
X122037000Y-105664000D01*
X110607000Y-107188000D02*
X110607000Y-107569000D01*
X114492838Y-107569000D02*
X112766000Y-107569000D01*
X110607000Y-103759000D02*
X110607000Y-104140000D01*
X122037000Y-105664000D02*
X116957000Y-105664000D01*
X114492838Y-107587960D02*
G75*
G02*
X116957000Y-105664000I2464162J-616040D01*
G01*
X110607000Y-103759000D02*
G75*
G02*
X113147000Y-101219000I2540000J0D01*
G01*
%TO.C,K18*%
X109967000Y-82154000D02*
X109967000Y-83154000D01*
X110967000Y-96154000D02*
X109967000Y-96154000D01*
X109967000Y-82154000D02*
X110967000Y-82154000D01*
X109967000Y-95154000D02*
X109967000Y-96154000D01*
X123967000Y-96154000D02*
X123967000Y-95154000D01*
X122967000Y-82154000D02*
X123967000Y-82154000D01*
X123967000Y-96154000D02*
X122967000Y-96154000D01*
X123967000Y-83154000D02*
X123967000Y-82154000D01*
X122037000Y-82169000D02*
X122037000Y-82550000D01*
X110988000Y-88519000D02*
X110607000Y-88519000D01*
X113147000Y-82169000D02*
X122037000Y-82169000D01*
X122037000Y-85598000D02*
X122037000Y-86614000D01*
X110607000Y-88138000D02*
X110607000Y-88519000D01*
X114492838Y-88519000D02*
X112766000Y-88519000D01*
X110607000Y-84709000D02*
X110607000Y-85090000D01*
X122037000Y-86614000D02*
X116957000Y-86614000D01*
X114492838Y-88537960D02*
G75*
G02*
X116957000Y-86614000I2464162J-616040D01*
G01*
X110607000Y-84709000D02*
G75*
G02*
X113147000Y-82169000I2540000J0D01*
G01*
%TO.C,K16*%
X90917000Y-117714000D02*
X90917000Y-118714000D01*
X91917000Y-131714000D02*
X90917000Y-131714000D01*
X90917000Y-117714000D02*
X91917000Y-117714000D01*
X90917000Y-130714000D02*
X90917000Y-131714000D01*
X104917000Y-131714000D02*
X104917000Y-130714000D01*
X103917000Y-117714000D02*
X104917000Y-117714000D01*
X104917000Y-131714000D02*
X103917000Y-131714000D01*
X104917000Y-118714000D02*
X104917000Y-117714000D01*
X102987000Y-117729000D02*
X102987000Y-118110000D01*
X91938000Y-124079000D02*
X91557000Y-124079000D01*
X94097000Y-117729000D02*
X102987000Y-117729000D01*
X102987000Y-121158000D02*
X102987000Y-122174000D01*
X91557000Y-123698000D02*
X91557000Y-124079000D01*
X95442838Y-124079000D02*
X93716000Y-124079000D01*
X91557000Y-120269000D02*
X91557000Y-120650000D01*
X102987000Y-122174000D02*
X97907000Y-122174000D01*
X95442838Y-124097960D02*
G75*
G02*
X97907000Y-122174000I2464162J-616040D01*
G01*
X91557000Y-120269000D02*
G75*
G02*
X94097000Y-117729000I2540000J0D01*
G01*
%TO.C,K15*%
X90917000Y-98664000D02*
X90917000Y-99664000D01*
X91917000Y-112664000D02*
X90917000Y-112664000D01*
X90917000Y-98664000D02*
X91917000Y-98664000D01*
X90917000Y-111664000D02*
X90917000Y-112664000D01*
X104917000Y-112664000D02*
X104917000Y-111664000D01*
X103917000Y-98664000D02*
X104917000Y-98664000D01*
X104917000Y-112664000D02*
X103917000Y-112664000D01*
X104917000Y-99664000D02*
X104917000Y-98664000D01*
X102987000Y-98679000D02*
X102987000Y-99060000D01*
X91938000Y-105029000D02*
X91557000Y-105029000D01*
X94097000Y-98679000D02*
X102987000Y-98679000D01*
X102987000Y-102108000D02*
X102987000Y-103124000D01*
X91557000Y-104648000D02*
X91557000Y-105029000D01*
X95442838Y-105029000D02*
X93716000Y-105029000D01*
X91557000Y-101219000D02*
X91557000Y-101600000D01*
X102987000Y-103124000D02*
X97907000Y-103124000D01*
X95442838Y-105047960D02*
G75*
G02*
X97907000Y-103124000I2464162J-616040D01*
G01*
X91557000Y-101219000D02*
G75*
G02*
X94097000Y-98679000I2540000J0D01*
G01*
%TO.C,K14*%
X90917000Y-79614000D02*
X90917000Y-80614000D01*
X91917000Y-93614000D02*
X90917000Y-93614000D01*
X90917000Y-79614000D02*
X91917000Y-79614000D01*
X90917000Y-92614000D02*
X90917000Y-93614000D01*
X104917000Y-93614000D02*
X104917000Y-92614000D01*
X103917000Y-79614000D02*
X104917000Y-79614000D01*
X104917000Y-93614000D02*
X103917000Y-93614000D01*
X104917000Y-80614000D02*
X104917000Y-79614000D01*
X102987000Y-79629000D02*
X102987000Y-80010000D01*
X91938000Y-85979000D02*
X91557000Y-85979000D01*
X94097000Y-79629000D02*
X102987000Y-79629000D01*
X102987000Y-83058000D02*
X102987000Y-84074000D01*
X91557000Y-85598000D02*
X91557000Y-85979000D01*
X95442838Y-85979000D02*
X93716000Y-85979000D01*
X91557000Y-82169000D02*
X91557000Y-82550000D01*
X102987000Y-84074000D02*
X97907000Y-84074000D01*
X95442838Y-85997960D02*
G75*
G02*
X97907000Y-84074000I2464162J-616040D01*
G01*
X91557000Y-82169000D02*
G75*
G02*
X94097000Y-79629000I2540000J0D01*
G01*
%TO.C,K13*%
X90917000Y-60564000D02*
X90917000Y-61564000D01*
X91917000Y-74564000D02*
X90917000Y-74564000D01*
X90917000Y-60564000D02*
X91917000Y-60564000D01*
X90917000Y-73564000D02*
X90917000Y-74564000D01*
X104917000Y-74564000D02*
X104917000Y-73564000D01*
X103917000Y-60564000D02*
X104917000Y-60564000D01*
X104917000Y-74564000D02*
X103917000Y-74564000D01*
X104917000Y-61564000D02*
X104917000Y-60564000D01*
X102987000Y-60579000D02*
X102987000Y-60960000D01*
X91938000Y-66929000D02*
X91557000Y-66929000D01*
X94097000Y-60579000D02*
X102987000Y-60579000D01*
X102987000Y-64008000D02*
X102987000Y-65024000D01*
X91557000Y-66548000D02*
X91557000Y-66929000D01*
X95442838Y-66929000D02*
X93716000Y-66929000D01*
X91557000Y-63119000D02*
X91557000Y-63500000D01*
X102987000Y-65024000D02*
X97907000Y-65024000D01*
X95442838Y-66947960D02*
G75*
G02*
X97907000Y-65024000I2464162J-616040D01*
G01*
X91557000Y-63119000D02*
G75*
G02*
X94097000Y-60579000I2540000J0D01*
G01*
%TO.C,K12*%
X71867000Y-120254000D02*
X71867000Y-121254000D01*
X72867000Y-134254000D02*
X71867000Y-134254000D01*
X71867000Y-120254000D02*
X72867000Y-120254000D01*
X71867000Y-133254000D02*
X71867000Y-134254000D01*
X85867000Y-134254000D02*
X85867000Y-133254000D01*
X84867000Y-120254000D02*
X85867000Y-120254000D01*
X85867000Y-134254000D02*
X84867000Y-134254000D01*
X85867000Y-121254000D02*
X85867000Y-120254000D01*
X83937000Y-120269000D02*
X83937000Y-120650000D01*
X72888000Y-126619000D02*
X72507000Y-126619000D01*
X75047000Y-120269000D02*
X83937000Y-120269000D01*
X83937000Y-123698000D02*
X83937000Y-124714000D01*
X72507000Y-126238000D02*
X72507000Y-126619000D01*
X76392838Y-126619000D02*
X74666000Y-126619000D01*
X72507000Y-122809000D02*
X72507000Y-123190000D01*
X83937000Y-124714000D02*
X78857000Y-124714000D01*
X76392838Y-126637960D02*
G75*
G02*
X78857000Y-124714000I2464162J-616040D01*
G01*
X72507000Y-122809000D02*
G75*
G02*
X75047000Y-120269000I2540000J0D01*
G01*
%TO.C,K11*%
X71867000Y-101204000D02*
X71867000Y-102204000D01*
X72867000Y-115204000D02*
X71867000Y-115204000D01*
X71867000Y-101204000D02*
X72867000Y-101204000D01*
X71867000Y-114204000D02*
X71867000Y-115204000D01*
X85867000Y-115204000D02*
X85867000Y-114204000D01*
X84867000Y-101204000D02*
X85867000Y-101204000D01*
X85867000Y-115204000D02*
X84867000Y-115204000D01*
X85867000Y-102204000D02*
X85867000Y-101204000D01*
X83937000Y-101219000D02*
X83937000Y-101600000D01*
X72888000Y-107569000D02*
X72507000Y-107569000D01*
X75047000Y-101219000D02*
X83937000Y-101219000D01*
X83937000Y-104648000D02*
X83937000Y-105664000D01*
X72507000Y-107188000D02*
X72507000Y-107569000D01*
X76392838Y-107569000D02*
X74666000Y-107569000D01*
X72507000Y-103759000D02*
X72507000Y-104140000D01*
X83937000Y-105664000D02*
X78857000Y-105664000D01*
X76392838Y-107587960D02*
G75*
G02*
X78857000Y-105664000I2464162J-616040D01*
G01*
X72507000Y-103759000D02*
G75*
G02*
X75047000Y-101219000I2540000J0D01*
G01*
%TO.C,K10*%
X71867000Y-82154000D02*
X71867000Y-83154000D01*
X72867000Y-96154000D02*
X71867000Y-96154000D01*
X71867000Y-82154000D02*
X72867000Y-82154000D01*
X71867000Y-95154000D02*
X71867000Y-96154000D01*
X85867000Y-96154000D02*
X85867000Y-95154000D01*
X84867000Y-82154000D02*
X85867000Y-82154000D01*
X85867000Y-96154000D02*
X84867000Y-96154000D01*
X85867000Y-83154000D02*
X85867000Y-82154000D01*
X83937000Y-82169000D02*
X83937000Y-82550000D01*
X72888000Y-88519000D02*
X72507000Y-88519000D01*
X75047000Y-82169000D02*
X83937000Y-82169000D01*
X83937000Y-85598000D02*
X83937000Y-86614000D01*
X72507000Y-88138000D02*
X72507000Y-88519000D01*
X76392838Y-88519000D02*
X74666000Y-88519000D01*
X72507000Y-84709000D02*
X72507000Y-85090000D01*
X83937000Y-86614000D02*
X78857000Y-86614000D01*
X76392838Y-88537960D02*
G75*
G02*
X78857000Y-86614000I2464162J-616040D01*
G01*
X72507000Y-84709000D02*
G75*
G02*
X75047000Y-82169000I2540000J0D01*
G01*
%TO.C,K09*%
X71867000Y-63104000D02*
X71867000Y-64104000D01*
X72867000Y-77104000D02*
X71867000Y-77104000D01*
X71867000Y-63104000D02*
X72867000Y-63104000D01*
X71867000Y-76104000D02*
X71867000Y-77104000D01*
X85867000Y-77104000D02*
X85867000Y-76104000D01*
X84867000Y-63104000D02*
X85867000Y-63104000D01*
X85867000Y-77104000D02*
X84867000Y-77104000D01*
X85867000Y-64104000D02*
X85867000Y-63104000D01*
X83937000Y-63119000D02*
X83937000Y-63500000D01*
X72888000Y-69469000D02*
X72507000Y-69469000D01*
X75047000Y-63119000D02*
X83937000Y-63119000D01*
X83937000Y-66548000D02*
X83937000Y-67564000D01*
X72507000Y-69088000D02*
X72507000Y-69469000D01*
X76392838Y-69469000D02*
X74666000Y-69469000D01*
X72507000Y-65659000D02*
X72507000Y-66040000D01*
X83937000Y-67564000D02*
X78857000Y-67564000D01*
X76392838Y-69487960D02*
G75*
G02*
X78857000Y-67564000I2464162J-616040D01*
G01*
X72507000Y-65659000D02*
G75*
G02*
X75047000Y-63119000I2540000J0D01*
G01*
%TO.C,K08*%
X52817000Y-122794000D02*
X52817000Y-123794000D01*
X53817000Y-136794000D02*
X52817000Y-136794000D01*
X52817000Y-122794000D02*
X53817000Y-122794000D01*
X52817000Y-135794000D02*
X52817000Y-136794000D01*
X66817000Y-136794000D02*
X66817000Y-135794000D01*
X65817000Y-122794000D02*
X66817000Y-122794000D01*
X66817000Y-136794000D02*
X65817000Y-136794000D01*
X66817000Y-123794000D02*
X66817000Y-122794000D01*
X64887000Y-122809000D02*
X64887000Y-123190000D01*
X53838000Y-129159000D02*
X53457000Y-129159000D01*
X55997000Y-122809000D02*
X64887000Y-122809000D01*
X64887000Y-126238000D02*
X64887000Y-127254000D01*
X53457000Y-128778000D02*
X53457000Y-129159000D01*
X57342838Y-129159000D02*
X55616000Y-129159000D01*
X53457000Y-125349000D02*
X53457000Y-125730000D01*
X64887000Y-127254000D02*
X59807000Y-127254000D01*
X57342838Y-129177960D02*
G75*
G02*
X59807000Y-127254000I2464162J-616040D01*
G01*
X53457000Y-125349000D02*
G75*
G02*
X55997000Y-122809000I2540000J0D01*
G01*
%TO.C,K07*%
X52817000Y-103744000D02*
X52817000Y-104744000D01*
X53817000Y-117744000D02*
X52817000Y-117744000D01*
X52817000Y-103744000D02*
X53817000Y-103744000D01*
X52817000Y-116744000D02*
X52817000Y-117744000D01*
X66817000Y-117744000D02*
X66817000Y-116744000D01*
X65817000Y-103744000D02*
X66817000Y-103744000D01*
X66817000Y-117744000D02*
X65817000Y-117744000D01*
X66817000Y-104744000D02*
X66817000Y-103744000D01*
X64887000Y-103759000D02*
X64887000Y-104140000D01*
X53838000Y-110109000D02*
X53457000Y-110109000D01*
X55997000Y-103759000D02*
X64887000Y-103759000D01*
X64887000Y-107188000D02*
X64887000Y-108204000D01*
X53457000Y-109728000D02*
X53457000Y-110109000D01*
X57342838Y-110109000D02*
X55616000Y-110109000D01*
X53457000Y-106299000D02*
X53457000Y-106680000D01*
X64887000Y-108204000D02*
X59807000Y-108204000D01*
X57342838Y-110127960D02*
G75*
G02*
X59807000Y-108204000I2464162J-616040D01*
G01*
X53457000Y-106299000D02*
G75*
G02*
X55997000Y-103759000I2540000J0D01*
G01*
%TO.C,K06*%
X52817000Y-84694000D02*
X52817000Y-85694000D01*
X53817000Y-98694000D02*
X52817000Y-98694000D01*
X52817000Y-84694000D02*
X53817000Y-84694000D01*
X52817000Y-97694000D02*
X52817000Y-98694000D01*
X66817000Y-98694000D02*
X66817000Y-97694000D01*
X65817000Y-84694000D02*
X66817000Y-84694000D01*
X66817000Y-98694000D02*
X65817000Y-98694000D01*
X66817000Y-85694000D02*
X66817000Y-84694000D01*
X64887000Y-84709000D02*
X64887000Y-85090000D01*
X53838000Y-91059000D02*
X53457000Y-91059000D01*
X55997000Y-84709000D02*
X64887000Y-84709000D01*
X64887000Y-88138000D02*
X64887000Y-89154000D01*
X53457000Y-90678000D02*
X53457000Y-91059000D01*
X57342838Y-91059000D02*
X55616000Y-91059000D01*
X53457000Y-87249000D02*
X53457000Y-87630000D01*
X64887000Y-89154000D02*
X59807000Y-89154000D01*
X57342838Y-91077960D02*
G75*
G02*
X59807000Y-89154000I2464162J-616040D01*
G01*
X53457000Y-87249000D02*
G75*
G02*
X55997000Y-84709000I2540000J0D01*
G01*
%TO.C,K04*%
X33767000Y-125294000D02*
X33767000Y-126294000D01*
X34767000Y-139294000D02*
X33767000Y-139294000D01*
X33767000Y-125294000D02*
X34767000Y-125294000D01*
X33767000Y-138294000D02*
X33767000Y-139294000D01*
X47767000Y-139294000D02*
X47767000Y-138294000D01*
X46767000Y-125294000D02*
X47767000Y-125294000D01*
X47767000Y-139294000D02*
X46767000Y-139294000D01*
X47767000Y-126294000D02*
X47767000Y-125294000D01*
X45837000Y-125309000D02*
X45837000Y-125690000D01*
X34788000Y-131659000D02*
X34407000Y-131659000D01*
X36947000Y-125309000D02*
X45837000Y-125309000D01*
X45837000Y-128738000D02*
X45837000Y-129754000D01*
X34407000Y-131278000D02*
X34407000Y-131659000D01*
X38292838Y-131659000D02*
X36566000Y-131659000D01*
X34407000Y-127849000D02*
X34407000Y-128230000D01*
X45837000Y-129754000D02*
X40757000Y-129754000D01*
X38292838Y-131677960D02*
G75*
G02*
X40757000Y-129754000I2464162J-616040D01*
G01*
X34407000Y-127849000D02*
G75*
G02*
X36947000Y-125309000I2540000J0D01*
G01*
%TO.C,K03*%
X33767000Y-106244000D02*
X33767000Y-107244000D01*
X34767000Y-120244000D02*
X33767000Y-120244000D01*
X33767000Y-106244000D02*
X34767000Y-106244000D01*
X33767000Y-119244000D02*
X33767000Y-120244000D01*
X47767000Y-120244000D02*
X47767000Y-119244000D01*
X46767000Y-106244000D02*
X47767000Y-106244000D01*
X47767000Y-120244000D02*
X46767000Y-120244000D01*
X47767000Y-107244000D02*
X47767000Y-106244000D01*
X45837000Y-106259000D02*
X45837000Y-106640000D01*
X34788000Y-112609000D02*
X34407000Y-112609000D01*
X36947000Y-106259000D02*
X45837000Y-106259000D01*
X45837000Y-109688000D02*
X45837000Y-110704000D01*
X34407000Y-112228000D02*
X34407000Y-112609000D01*
X38292838Y-112609000D02*
X36566000Y-112609000D01*
X34407000Y-108799000D02*
X34407000Y-109180000D01*
X45837000Y-110704000D02*
X40757000Y-110704000D01*
X38292838Y-112627960D02*
G75*
G02*
X40757000Y-110704000I2464162J-616040D01*
G01*
X34407000Y-108799000D02*
G75*
G02*
X36947000Y-106259000I2540000J0D01*
G01*
%TO.C,K02*%
X33767000Y-87194000D02*
X33767000Y-88194000D01*
X34767000Y-101194000D02*
X33767000Y-101194000D01*
X33767000Y-87194000D02*
X34767000Y-87194000D01*
X33767000Y-100194000D02*
X33767000Y-101194000D01*
X47767000Y-101194000D02*
X47767000Y-100194000D01*
X46767000Y-87194000D02*
X47767000Y-87194000D01*
X47767000Y-101194000D02*
X46767000Y-101194000D01*
X47767000Y-88194000D02*
X47767000Y-87194000D01*
X45837000Y-87209000D02*
X45837000Y-87590000D01*
X34788000Y-93559000D02*
X34407000Y-93559000D01*
X36947000Y-87209000D02*
X45837000Y-87209000D01*
X45837000Y-90638000D02*
X45837000Y-91654000D01*
X34407000Y-93178000D02*
X34407000Y-93559000D01*
X38292838Y-93559000D02*
X36566000Y-93559000D01*
X34407000Y-89749000D02*
X34407000Y-90130000D01*
X45837000Y-91654000D02*
X40757000Y-91654000D01*
X38292838Y-93577960D02*
G75*
G02*
X40757000Y-91654000I2464162J-616040D01*
G01*
X34407000Y-89749000D02*
G75*
G02*
X36947000Y-87209000I2540000J0D01*
G01*
D13*
%TO.C,BAT1*%
X151028400Y-109061500D02*
X158496000Y-109061500D01*
X158496000Y-109061500D02*
X158496000Y-100806500D01*
X158496000Y-100806500D02*
X151028400Y-100806500D01*
X151028400Y-100806500D02*
X151028400Y-109061500D01*
D14*
%TO.C,U1*%
X150938000Y-91246000D02*
X148398000Y-91246000D01*
X148398000Y-91246000D02*
X148398000Y-60766000D01*
X150938000Y-60766000D02*
X150938000Y-91246000D01*
X163648000Y-60716000D02*
X163648000Y-91196000D01*
X163648000Y-60716000D02*
X166188000Y-60716000D01*
X163648000Y-91196000D02*
X166188000Y-91196000D01*
X148398000Y-60766000D02*
X150938000Y-60766000D01*
X166188000Y-60716000D02*
X166188000Y-91196000D01*
D11*
%TO.C,SW_RST1*%
X140210000Y-59436000D02*
G75*
G03*
X140210000Y-59436000I-100000J0D01*
G01*
D15*
X142660000Y-57231000D02*
X141760000Y-57231000D01*
X145260000Y-60371000D02*
X141760000Y-60371000D01*
X144360000Y-57231000D02*
X145260000Y-57231000D01*
%TO.C,SW_PWR1*%
X169753000Y-112951000D02*
X170353000Y-112951000D01*
X170353000Y-106251000D02*
X169753000Y-106251000D01*
X168753000Y-108001000D02*
X168753000Y-109701000D01*
%TO.C,U1*%
D12*
X163096095Y-61508380D02*
X162524666Y-61508380D01*
X162810380Y-62508380D02*
X162810380Y-61508380D01*
X162286571Y-61508380D02*
X161619904Y-62508380D01*
X161619904Y-61508380D02*
X162286571Y-62508380D01*
X161048476Y-61508380D02*
X160953238Y-61508380D01*
X160858000Y-61556000D01*
X160810380Y-61603619D01*
X160762761Y-61698857D01*
X160715142Y-61889333D01*
X160715142Y-62127428D01*
X160762761Y-62317904D01*
X160810380Y-62413142D01*
X160858000Y-62460761D01*
X160953238Y-62508380D01*
X161048476Y-62508380D01*
X161143714Y-62460761D01*
X161191333Y-62413142D01*
X161238952Y-62317904D01*
X161286571Y-62127428D01*
X161286571Y-61889333D01*
X161238952Y-61698857D01*
X161191333Y-61603619D01*
X161143714Y-61556000D01*
X161048476Y-61508380D01*
X153448476Y-62508380D02*
X153781809Y-62032190D01*
X154019904Y-62508380D02*
X154019904Y-61508380D01*
X153638952Y-61508380D01*
X153543714Y-61556000D01*
X153496095Y-61603619D01*
X153448476Y-61698857D01*
X153448476Y-61841714D01*
X153496095Y-61936952D01*
X153543714Y-61984571D01*
X153638952Y-62032190D01*
X154019904Y-62032190D01*
X153067523Y-62222666D02*
X152591333Y-62222666D01*
X153162761Y-62508380D02*
X152829428Y-61508380D01*
X152496095Y-62508380D01*
X152258000Y-61508380D02*
X152019904Y-62508380D01*
X151829428Y-61794095D01*
X151638952Y-62508380D01*
X151400857Y-61508380D01*
%TD*%
M02*
